ISO-10303-21;
HEADER;
FILE_DESCRIPTION(('CATIA V5 STEP Exchange','CAx-IF Rec.Pracs.--- Model Styling and Organization---1.5--- 2016-08-15','CAx-IF Rec.Pracs.---Supplemental Geometry---1.0---2011-11-01','CAx-IF Rec.Pracs.--- Composite Materials ---3.4---2017-06-13','CAx-IF Rec.Pracs.---Tessellated 3D Geometry---1.0---2015-12-17'),'2;1');

FILE_NAME('U:\\fipatech\\exports\\bras de pince.stp','2025-01-28T19:34:22+00:00',('none'),('none'),'CATIA Version 5-6 Release 2020 SP6','CATIA V5 STEP AP242 v2','none');

FILE_SCHEMA(('AP242_MANAGED_MODEL_BASED_3D_ENGINEERING_MIM_LF  {1 0 10303 442 1 1 4}'));

ENDSEC;
DATA;
#5=PRODUCT('bras de pince','','',(#2)) ;
#2=PRODUCT_CONTEXT(' ',#1,'mechanical') ;
#1=APPLICATION_CONTEXT('managed model based 3d engineering') ;
#10=PRODUCT_DEFINITION('',' ',#6,#3) ;
#3=PRODUCT_DEFINITION_CONTEXT('part definition',#1,' ') ;
#11=PRODUCT_DEFINITION_SHAPE(' ',' ',#10) ;
#1564=MECHANICAL_DESIGN_GEOMETRIC_PRESENTATION_REPRESENTATION(' ',(#29),#16) ;
#7=PRODUCT_CATEGORY('part','specification') ;
#19=SHAPE_REPRESENTATION(' ',(#18),#16) ;
#17=CARTESIAN_POINT(' ',(0.,0.,0.)) ;
#31=CARTESIAN_POINT('Axis2P3D Location',(-2.22044604925E-16,6.66133814775E-16,28.75)) ;
#36=CARTESIAN_POINT('Line Origine',(2.12132034356,2.12132034356,28.75)) ;
#40=CARTESIAN_POINT('Vertex',(2.12132034356,2.12132034356,26.5)) ;
#42=CARTESIAN_POINT('Vertex',(2.12132034356,2.12132034356,31.)) ;
#45=CARTESIAN_POINT('Axis2P3D Location',(-2.22044604925E-16,6.66133814775E-16,26.5)) ;
#49=CARTESIAN_POINT('Vertex',(-2.12132034356,-2.12132034356,26.5)) ;
#52=CARTESIAN_POINT('Line Origine',(-2.12132034356,-2.12132034356,28.75)) ;
#56=CARTESIAN_POINT('Vertex',(-2.12132034356,-2.12132034356,31.)) ;
#59=CARTESIAN_POINT('Axis2P3D Location',(-2.22044604925E-16,6.66133814775E-16,31.)) ;
#71=CARTESIAN_POINT('Axis2P3D Location',(2.12132034356,2.12132034356,26.5)) ;
#76=CARTESIAN_POINT('Line Origine',(-6.09451801902,10.3371587061,28.75)) ;
#80=CARTESIAN_POINT('Vertex',(-6.09451801902,10.3371587061,26.5)) ;
#82=CARTESIAN_POINT('Vertex',(-6.09451801902,10.3371587061,31.)) ;
#85=CARTESIAN_POINT('Line Origine',(-1.98659883773,6.22923952485,26.5)) ;
#90=CARTESIAN_POINT('Line Origine',(-1.98659883773,6.22923952485,31.)) ;
#102=CARTESIAN_POINT('Axis2P3D Location',(-10.6066017178,6.36396103068,26.5)) ;
#107=CARTESIAN_POINT('Line Origine',(-10.3371587061,6.09451801902,28.75)) ;
#111=CARTESIAN_POINT('Vertex',(-10.3371587061,6.09451801902,26.5)) ;
#113=CARTESIAN_POINT('Vertex',(-10.3371587061,6.09451801902,31.)) ;
#116=CARTESIAN_POINT('Line Origine',(-6.22923952485,1.98659883773,31.)) ;
#121=CARTESIAN_POINT('Line Origine',(-6.22923952485,1.98659883773,26.5)) ;
#133=CARTESIAN_POINT('Axis2P3D Location',(-3.79695314449,-77.5712901949,16.5)) ;
#138=CARTESIAN_POINT('Line Origine',(-13.72513603,-72.9417024838,0.)) ;
#142=CARTESIAN_POINT('Vertex',(-13.72513603,-72.9417024838,16.5)) ;
#144=CARTESIAN_POINT('Vertex',(-13.72513603,-72.9417024838,-16.5)) ;
#147=CARTESIAN_POINT('Line Origine',(-8.76104458722,-75.2564963393,-16.5)) ;
#151=CARTESIAN_POINT('Vertex',(-3.79695314449,-77.5712901949,-16.5)) ;
#154=CARTESIAN_POINT('Line Origine',(-3.79695314449,-77.5712901949,0.)) ;
#158=CARTESIAN_POINT('Vertex',(-3.79695314449,-77.5712901949,16.5)) ;
#161=CARTESIAN_POINT('Line Origine',(-8.76104458722,-75.2564963393,16.5)) ;
#173=CARTESIAN_POINT('Axis2P3D Location',(-44.8644087789,-69.4550003212,16.5)) ;
#178=CARTESIAN_POINT('Axis2P3D Location',(-17.9513186474,-82.0047803542,16.5)) ;
#182=CARTESIAN_POINT('Vertex',(-17.9513186474,-82.0047803542,26.5)) ;
#185=CARTESIAN_POINT('Axis2P3D Location',(-8.02313576189,-86.6343680652,16.5)) ;
#189=CARTESIAN_POINT('Vertex',(-8.02313576189,-86.6343680652,26.5)) ;
#192=CARTESIAN_POINT('Line Origine',(-44.8644087789,-69.4550003212,26.5)) ;
#204=CARTESIAN_POINT('Axis2P3D Location',(-18.5885923054,-109.292062741,0.)) ;
#209=CARTESIAN_POINT('Line Origine',(-18.5885923054,-109.292062741,0.)) ;
#213=CARTESIAN_POINT('Vertex',(-18.5885923054,-109.292062741,-36.5)) ;
#215=CARTESIAN_POINT('Vertex',(-18.5885923054,-109.292062741,36.5)) ;
#218=CARTESIAN_POINT('Line Origine',(-7.00079860809,-84.4419589638,-36.5)) ;
#222=CARTESIAN_POINT('Vertex',(4.58699508923,-59.5918551865,-36.5)) ;
#225=CARTESIAN_POINT('Line Origine',(4.58699508923,-59.5918551865,0.)) ;
#229=CARTESIAN_POINT('Vertex',(4.58699508923,-59.5918551865,36.5)) ;
#232=CARTESIAN_POINT('Line Origine',(-7.00079860809,-84.4419589638,36.5)) ;
#243=CARTESIAN_POINT('Axis2P3D Location',(-8.02313576189,-86.6343680652,-16.5)) ;
#247=CARTESIAN_POINT('Vertex',(-8.02313576189,-86.6343680652,-26.5)) ;
#250=CARTESIAN_POINT('Line Origine',(-9.07968141625,-88.9001375328,-26.5)) ;
#254=CARTESIAN_POINT('Vertex',(-10.1362270706,-91.1659070004,-26.5)) ;
#257=CARTESIAN_POINT('Axis2P3D Location',(-10.1362270706,-91.1659070004,-16.5)) ;
#261=CARTESIAN_POINT('Vertex',(-14.362409688,-100.228984871,-16.5)) ;
#264=CARTESIAN_POINT('Line Origine',(-14.362409688,-100.228984871,0.)) ;
#268=CARTESIAN_POINT('Vertex',(-14.362409688,-100.228984871,16.5)) ;
#271=CARTESIAN_POINT('Axis2P3D Location',(-10.1362270706,-91.1659070004,16.5)) ;
#275=CARTESIAN_POINT('Vertex',(-10.1362270706,-91.1659070004,26.5)) ;
#278=CARTESIAN_POINT('Line Origine',(-9.07968141625,-88.9001375328,26.5)) ;
#294=CARTESIAN_POINT('Axis2P3D Location',(-44.8644087789,-69.4550003212,-16.5)) ;
#299=CARTESIAN_POINT('Axis2P3D Location',(-17.9513186474,-82.0047803542,-16.5)) ;
#303=CARTESIAN_POINT('Vertex',(-17.9513186474,-82.0047803542,-26.5)) ;
#306=CARTESIAN_POINT('Line Origine',(-44.8644087789,-69.4550003212,-26.5)) ;
#318=CARTESIAN_POINT('Axis2P3D Location',(-7.5,-59.5918551865,0.)) ;
#323=CARTESIAN_POINT('Line Origine',(-7.5,-59.5918551865,0.)) ;
#327=CARTESIAN_POINT('Vertex',(-7.5,-59.5918551865,-36.5)) ;
#329=CARTESIAN_POINT('Vertex',(-7.5,-59.5918551865,36.5)) ;
#332=CARTESIAN_POINT('Line Origine',(-18.0083875954,-82.1271651083,-36.5)) ;
#336=CARTESIAN_POINT('Vertex',(-28.5167751909,-104.66247503,-36.5)) ;
#339=CARTESIAN_POINT('Line Origine',(-28.5167751909,-104.66247503,0.)) ;
#343=CARTESIAN_POINT('Vertex',(-28.5167751909,-104.66247503,36.5)) ;
#346=CARTESIAN_POINT('Line Origine',(-18.0083875954,-82.1271651083,36.5)) ;
#357=CARTESIAN_POINT('Line Origine',(-19.0078643017,-84.2705498218,26.5)) ;
#361=CARTESIAN_POINT('Vertex',(-20.0644099561,-86.5363192894,26.5)) ;
#364=CARTESIAN_POINT('Axis2P3D Location',(-20.0644099561,-86.5363192894,16.5)) ;
#368=CARTESIAN_POINT('Vertex',(-24.2905925735,-95.5993971597,16.5)) ;
#371=CARTESIAN_POINT('Line Origine',(-24.2905925735,-95.5993971597,0.)) ;
#375=CARTESIAN_POINT('Vertex',(-24.2905925735,-95.5993971597,-16.5)) ;
#378=CARTESIAN_POINT('Axis2P3D Location',(-20.0644099561,-86.5363192894,-16.5)) ;
#382=CARTESIAN_POINT('Vertex',(-20.0644099561,-86.5363192894,-26.5)) ;
#385=CARTESIAN_POINT('Line Origine',(-19.0078643017,-84.2705498218,-26.5)) ;
#401=CARTESIAN_POINT('Axis2P3D Location',(0.,-25.,26.5)) ;
#406=CARTESIAN_POINT('Line Origine',(-15.1003185133,-88.8511131449,26.5)) ;
#418=CARTESIAN_POINT('Axis2P3D Location',(-23.5526837481,-106.977268886,41.5)) ;
#423=CARTESIAN_POINT('Line Origine',(-29.0299526338,-106.977268886,41.5)) ;
#427=CARTESIAN_POINT('Vertex',(-29.0299526338,-106.977268886,36.5)) ;
#429=CARTESIAN_POINT('Vertex',(-29.0299526338,-106.977268886,46.5)) ;
#432=CARTESIAN_POINT('Axis2P3D Location',(-23.5526837481,-106.977268886,36.5)) ;
#437=CARTESIAN_POINT('Axis2P3D Location',(-23.5526837481,-106.977268886,-36.5)) ;
#441=CARTESIAN_POINT('Vertex',(-29.0299526338,-106.977268886,-36.5)) ;
#444=CARTESIAN_POINT('Line Origine',(-29.0299526338,-106.977268886,41.5)) ;
#448=CARTESIAN_POINT('Vertex',(-29.0299526338,-106.977268886,-46.5)) ;
#451=CARTESIAN_POINT('Axis2P3D Location',(-23.5526837481,-106.977268886,-46.5)) ;
#455=CARTESIAN_POINT('Vertex',(-18.0754148625,-106.977268886,-46.5)) ;
#458=CARTESIAN_POINT('Line Origine',(-18.0754148625,-106.977268886,41.5)) ;
#462=CARTESIAN_POINT('Vertex',(-18.0754148625,-106.977268886,-36.5)) ;
#465=CARTESIAN_POINT('Axis2P3D Location',(-23.5526837481,-106.977268886,-36.5)) ;
#470=CARTESIAN_POINT('Axis2P3D Location',(-23.5526837481,-106.977268886,36.5)) ;
#474=CARTESIAN_POINT('Vertex',(-18.0754148625,-106.977268886,36.5)) ;
#477=CARTESIAN_POINT('Line Origine',(-18.0754148625,-106.977268886,41.5)) ;
#481=CARTESIAN_POINT('Vertex',(-18.0754148625,-106.977268886,46.5)) ;
#484=CARTESIAN_POINT('Axis2P3D Location',(-23.5526837481,-106.977268886,46.5)) ;
#504=CARTESIAN_POINT('Axis2P3D Location',(0.,0.,-36.5)) ;
#509=CARTESIAN_POINT('Axis2P3D Location',(-23.5526837481,-106.977268886,-36.5)) ;
#514=CARTESIAN_POINT('Line Origine',(-7.5,-38.6382971851,-36.5)) ;
#518=CARTESIAN_POINT('Vertex',(-7.5,-17.6847391838,-36.5)) ;
#521=CARTESIAN_POINT('Axis2P3D Location',(-32.5,-17.6847391838,-36.5)) ;
#525=CARTESIAN_POINT('Vertex',(-10.5405405405,-5.73559108665,-36.5)) ;
#528=CARTESIAN_POINT('Axis2P3D Location',(0.,0.,-36.5)) ;
#532=CARTESIAN_POINT('Vertex',(11.9058808998,-1.5,-36.5)) ;
#535=CARTESIAN_POINT('Line Origine',(8.24643799451,-30.5459275932,-36.5)) ;
#550=CARTESIAN_POINT('Axis2P3D Location',(-5.55111512313E-17,7.5,-36.5)) ;
#554=CARTESIAN_POINT('Vertex',(1.55,7.5,-36.5)) ;
#556=CARTESIAN_POINT('Vertex',(-1.55,7.5,-36.5)) ;
#559=CARTESIAN_POINT('Axis2P3D Location',(-5.55111512313E-17,7.5,-36.5)) ;
#568=CARTESIAN_POINT('Axis2P3D Location',(-7.5,4.03731398449E-16,-36.5)) ;
#572=CARTESIAN_POINT('Vertex',(-7.5,-1.55,-36.5)) ;
#574=CARTESIAN_POINT('Vertex',(-7.5,1.55,-36.5)) ;
#577=CARTESIAN_POINT('Axis2P3D Location',(-7.5,4.03731398449E-16,-36.5)) ;
#586=CARTESIAN_POINT('Axis2P3D Location',(-8.62973948129E-16,-7.5,-36.5)) ;
#590=CARTESIAN_POINT('Vertex',(1.55,-7.5,-36.5)) ;
#592=CARTESIAN_POINT('Vertex',(-1.55,-7.5,-36.5)) ;
#595=CARTESIAN_POINT('Axis2P3D Location',(-8.62973948129E-16,-7.5,-36.5)) ;
#604=CARTESIAN_POINT('Axis2P3D Location',(7.5,-1.32221649781E-15,-36.5)) ;
#608=CARTESIAN_POINT('Vertex',(7.5,1.55,-36.5)) ;
#610=CARTESIAN_POINT('Vertex',(7.5,-1.55,-36.5)) ;
#613=CARTESIAN_POINT('Axis2P3D Location',(7.5,-1.32221649781E-15,-36.5)) ;
#623=CARTESIAN_POINT('Axis2P3D Location',(4.58699508923,-59.5918551865,0.)) ;
#628=CARTESIAN_POINT('Line Origine',(11.9058808998,-1.5,31.5)) ;
#632=CARTESIAN_POINT('Vertex',(11.9058808998,-1.5,26.5)) ;
#634=CARTESIAN_POINT('Vertex',(11.9058808998,-1.5,36.5)) ;
#637=CARTESIAN_POINT('Line Origine',(8.24643799451,-30.5459275932,36.5)) ;
#642=CARTESIAN_POINT('Line Origine',(11.9058808998,-1.5,-31.5)) ;
#646=CARTESIAN_POINT('Vertex',(11.9058808998,-1.5,-26.5)) ;
#649=CARTESIAN_POINT('Line Origine',(10.4255200472,-13.25,-26.5)) ;
#653=CARTESIAN_POINT('Vertex',(8.94515919455,-25.,-26.5)) ;
#656=CARTESIAN_POINT('Line Origine',(8.94515919455,-25.,0.)) ;
#660=CARTESIAN_POINT('Vertex',(8.94515919455,-25.,26.5)) ;
#663=CARTESIAN_POINT('Line Origine',(10.4255200472,-13.25,26.5)) ;
#679=CARTESIAN_POINT('Axis2P3D Location',(0.,0.,36.5)) ;
#684=CARTESIAN_POINT('Axis2P3D Location',(0.,0.,36.5)) ;
#688=CARTESIAN_POINT('Vertex',(-10.5405405405,-5.73559108665,36.5)) ;
#691=CARTESIAN_POINT('Axis2P3D Location',(-32.5,-17.6847391838,36.5)) ;
#695=CARTESIAN_POINT('Vertex',(-7.5,-17.6847391838,36.5)) ;
#698=CARTESIAN_POINT('Line Origine',(-7.5,-38.6382971851,36.5)) ;
#703=CARTESIAN_POINT('Axis2P3D Location',(-23.5526837481,-106.977268886,36.5)) ;
#718=CARTESIAN_POINT('Axis2P3D Location',(-5.55111512313E-17,7.5,36.5)) ;
#722=CARTESIAN_POINT('Vertex',(-1.55,7.5,36.5)) ;
#724=CARTESIAN_POINT('Vertex',(1.55,7.5,36.5)) ;
#727=CARTESIAN_POINT('Axis2P3D Location',(-5.55111512313E-17,7.5,36.5)) ;
#736=CARTESIAN_POINT('Axis2P3D Location',(-7.5,4.03731398449E-16,36.5)) ;
#740=CARTESIAN_POINT('Vertex',(-7.5,1.55,36.5)) ;
#742=CARTESIAN_POINT('Vertex',(-7.5,-1.55,36.5)) ;
#745=CARTESIAN_POINT('Axis2P3D Location',(-7.5,4.03731398449E-16,36.5)) ;
#754=CARTESIAN_POINT('Axis2P3D Location',(-8.62973948129E-16,-7.5,36.5)) ;
#758=CARTESIAN_POINT('Vertex',(-1.55,-7.5,36.5)) ;
#760=CARTESIAN_POINT('Vertex',(1.55,-7.5,36.5)) ;
#763=CARTESIAN_POINT('Axis2P3D Location',(-8.62973948129E-16,-7.5,36.5)) ;
#772=CARTESIAN_POINT('Axis2P3D Location',(7.5,-1.32221649781E-15,36.5)) ;
#776=CARTESIAN_POINT('Vertex',(7.5,-1.55,36.5)) ;
#778=CARTESIAN_POINT('Vertex',(7.5,1.55,36.5)) ;
#781=CARTESIAN_POINT('Axis2P3D Location',(7.5,-1.32221649781E-15,36.5)) ;
#791=CARTESIAN_POINT('Axis2P3D Location',(0.,25.,-26.5)) ;
#796=CARTESIAN_POINT('Line Origine',(-15.1003185133,-88.8511131449,-26.5)) ;
#808=CARTESIAN_POINT('Axis2P3D Location',(-46.9775000876,-73.9865392564,-16.5)) ;
#813=CARTESIAN_POINT('Line Origine',(-51.203682705,-83.0496171268,-16.5)) ;
#825=CARTESIAN_POINT('Axis2P3D Location',(-14.362409688,-100.228984871,-16.5)) ;
#830=CARTESIAN_POINT('Line Origine',(-19.3265011307,-97.9141910153,16.5)) ;
#842=CARTESIAN_POINT('Axis2P3D Location',(-46.9775000876,-73.9865392564,16.5)) ;
#854=CARTESIAN_POINT('Axis2P3D Location',(-7.5,-17.6847391838,0.)) ;
#859=CARTESIAN_POINT('Line Origine',(-7.5,-17.6847391838,-31.5)) ;
#863=CARTESIAN_POINT('Vertex',(-7.5,-17.6847391838,-26.5)) ;
#866=CARTESIAN_POINT('Line Origine',(-7.5,-17.6847391838,31.5)) ;
#870=CARTESIAN_POINT('Vertex',(-7.5,-17.6847391838,26.5)) ;
#873=CARTESIAN_POINT('Line Origine',(-7.5,-21.3423695919,26.5)) ;
#877=CARTESIAN_POINT('Vertex',(-7.5,-25.,26.5)) ;
#880=CARTESIAN_POINT('Line Origine',(-7.5,-25.,0.)) ;
#884=CARTESIAN_POINT('Vertex',(-7.5,-25.,-26.5)) ;
#887=CARTESIAN_POINT('Line Origine',(-7.5,-21.3423695919,-26.5)) ;
#903=CARTESIAN_POINT('Axis2P3D Location',(-23.5526837481,-106.977268886,46.5)) ;
#916=CARTESIAN_POINT('Axis2P3D Location',(-23.5526837481,-106.977268886,-46.5)) ;
#929=CARTESIAN_POINT('Axis2P3D Location',(0.,0.,-46.5)) ;
#939=CARTESIAN_POINT('Axis2P3D Location',(0.,0.,46.5)) ;
#949=CARTESIAN_POINT('Axis2P3D Location',(0.,0.,0.)) ;
#954=CARTESIAN_POINT('Axis2P3D Location',(0.,0.,-31.)) ;
#958=CARTESIAN_POINT('Vertex',(-10.3371587061,6.09451801902,-31.)) ;
#960=CARTESIAN_POINT('Vertex',(-6.09451801902,10.3371587061,-31.)) ;
#963=CARTESIAN_POINT('Line Origine',(-6.09451801902,10.3371587061,0.)) ;
#967=CARTESIAN_POINT('Vertex',(-6.09451801902,10.3371587061,-26.5)) ;
#970=CARTESIAN_POINT('Axis2P3D Location',(0.,0.,-26.5)) ;
#975=CARTESIAN_POINT('Line Origine',(-10.5405405405,-5.73559108665,0.)) ;
#979=CARTESIAN_POINT('Vertex',(-10.5405405405,-5.73559108665,-26.5)) ;
#982=CARTESIAN_POINT('Axis2P3D Location',(0.,0.,-26.5)) ;
#986=CARTESIAN_POINT('Vertex',(-10.3371587061,6.09451801902,-26.5)) ;
#989=CARTESIAN_POINT('Line Origine',(-10.3371587061,6.09451801902,0.)) ;
#1005=CARTESIAN_POINT('Axis2P3D Location',(-32.5,-17.6847391838,0.)) ;
#1010=CARTESIAN_POINT('Axis2P3D Location',(-32.5,-17.6847391838,-26.5)) ;
#1022=CARTESIAN_POINT('Axis2P3D Location',(-5.55111512313E-17,7.5,36.5)) ;
#1027=CARTESIAN_POINT('Line Origine',(1.55,7.5,0.)) ;
#1031=CARTESIAN_POINT('Vertex',(1.55,7.5,-26.5)) ;
#1034=CARTESIAN_POINT('Line Origine',(-1.55,7.5,0.)) ;
#1038=CARTESIAN_POINT('Vertex',(-1.55,7.5,-26.5)) ;
#1041=CARTESIAN_POINT('Axis2P3D Location',(-5.55111512313E-17,7.5,-26.5)) ;
#1053=CARTESIAN_POINT('Axis2P3D Location',(-5.55111512313E-17,7.5,-26.5)) ;
#1065=CARTESIAN_POINT('Axis2P3D Location',(-7.5,4.03731398449E-16,36.5)) ;
#1070=CARTESIAN_POINT('Line Origine',(-7.5,-1.55,0.)) ;
#1074=CARTESIAN_POINT('Vertex',(-7.5,-1.55,-26.5)) ;
#1077=CARTESIAN_POINT('Line Origine',(-7.5,1.55,0.)) ;
#1081=CARTESIAN_POINT('Vertex',(-7.5,1.55,-26.5)) ;
#1084=CARTESIAN_POINT('Axis2P3D Location',(-7.5,4.03731398449E-16,-26.5)) ;
#1096=CARTESIAN_POINT('Axis2P3D Location',(-7.5,4.03731398449E-16,-26.5)) ;
#1108=CARTESIAN_POINT('Axis2P3D Location',(-8.62973948129E-16,-7.5,36.5)) ;
#1113=CARTESIAN_POINT('Line Origine',(1.55,-7.5,0.)) ;
#1117=CARTESIAN_POINT('Vertex',(1.55,-7.5,-26.5)) ;
#1120=CARTESIAN_POINT('Line Origine',(-1.55,-7.5,0.)) ;
#1124=CARTESIAN_POINT('Vertex',(-1.55,-7.5,-26.5)) ;
#1127=CARTESIAN_POINT('Axis2P3D Location',(-8.62973948129E-16,-7.5,-26.5)) ;
#1139=CARTESIAN_POINT('Axis2P3D Location',(-8.62973948129E-16,-7.5,-26.5)) ;
#1151=CARTESIAN_POINT('Axis2P3D Location',(7.5,-1.32221649781E-15,36.5)) ;
#1156=CARTESIAN_POINT('Line Origine',(7.5,1.55,0.)) ;
#1160=CARTESIAN_POINT('Vertex',(7.5,1.55,-26.5)) ;
#1163=CARTESIAN_POINT('Line Origine',(7.5,-1.55,0.)) ;
#1167=CARTESIAN_POINT('Vertex',(7.5,-1.55,-26.5)) ;
#1170=CARTESIAN_POINT('Axis2P3D Location',(7.5,-1.32221649781E-15,-26.5)) ;
#1182=CARTESIAN_POINT('Axis2P3D Location',(7.5,-1.32221649781E-15,-26.5)) ;
#1194=CARTESIAN_POINT('Axis2P3D Location',(0.,0.,26.5)) ;
#1198=CARTESIAN_POINT('Vertex',(-10.5405405405,-5.73559108665,26.5)) ;
#1201=CARTESIAN_POINT('Line Origine',(-10.5405405405,-5.73559108665,0.)) ;
#1206=CARTESIAN_POINT('Axis2P3D Location',(0.,0.,26.5)) ;
#1211=CARTESIAN_POINT('Axis2P3D Location',(0.,0.,31.)) ;
#1227=CARTESIAN_POINT('Line Origine',(-1.98659883773,6.22923952485,-26.5)) ;
#1231=CARTESIAN_POINT('Vertex',(2.12132034356,2.12132034356,-26.5)) ;
#1234=CARTESIAN_POINT('Axis2P3D Location',(-2.22044604925E-16,0.,-26.5)) ;
#1238=CARTESIAN_POINT('Vertex',(-2.12132034356,-2.12132034356,-26.5)) ;
#1241=CARTESIAN_POINT('Line Origine',(-6.22923952485,1.98659883773,-26.5)) ;
#1246=CARTESIAN_POINT('Line Origine',(0.722579597276,-25.,-26.5)) ;
#1279=CARTESIAN_POINT('Axis2P3D Location',(0.,-25.,-26.5)) ;
#1284=CARTESIAN_POINT('Line Origine',(0.722579597276,-25.,26.5)) ;
#1296=CARTESIAN_POINT('Axis2P3D Location',(-32.5,-17.6847391838,26.5)) ;
#1312=CARTESIAN_POINT('Axis2P3D Location',(-5.55111512313E-17,7.5,26.5)) ;
#1316=CARTESIAN_POINT('Vertex',(1.55,7.5,26.5)) ;
#1318=CARTESIAN_POINT('Vertex',(-1.55,7.5,26.5)) ;
#1321=CARTESIAN_POINT('Axis2P3D Location',(-5.55111512313E-17,7.5,26.5)) ;
#1330=CARTESIAN_POINT('Axis2P3D Location',(-7.5,3.5527136788E-15,26.5)) ;
#1334=CARTESIAN_POINT('Vertex',(-7.5,1.55,26.5)) ;
#1336=CARTESIAN_POINT('Vertex',(-7.5,-1.55,26.5)) ;
#1339=CARTESIAN_POINT('Axis2P3D Location',(-7.5,3.5527136788E-15,26.5)) ;
#1348=CARTESIAN_POINT('Axis2P3D Location',(-8.62973948129E-16,-7.5,26.5)) ;
#1352=CARTESIAN_POINT('Vertex',(-1.55,-7.5,26.5)) ;
#1354=CARTESIAN_POINT('Vertex',(1.55,-7.5,26.5)) ;
#1357=CARTESIAN_POINT('Axis2P3D Location',(-8.62973948129E-16,-7.5,26.5)) ;
#1366=CARTESIAN_POINT('Axis2P3D Location',(7.5,-3.5527136788E-15,26.5)) ;
#1370=CARTESIAN_POINT('Vertex',(7.5,-1.55,26.5)) ;
#1372=CARTESIAN_POINT('Vertex',(7.5,1.55,26.5)) ;
#1375=CARTESIAN_POINT('Axis2P3D Location',(7.5,-3.5527136788E-15,26.5)) ;
#1392=CARTESIAN_POINT('Line Origine',(-1.55,7.5,0.)) ;
#1397=CARTESIAN_POINT('Line Origine',(1.55,7.5,0.)) ;
#1416=CARTESIAN_POINT('Line Origine',(-7.5,1.55,0.)) ;
#1421=CARTESIAN_POINT('Line Origine',(-7.5,-1.55,0.)) ;
#1440=CARTESIAN_POINT('Line Origine',(-1.55,-7.5,0.)) ;
#1445=CARTESIAN_POINT('Line Origine',(1.55,-7.5,0.)) ;
#1464=CARTESIAN_POINT('Line Origine',(7.5,-1.55,0.)) ;
#1469=CARTESIAN_POINT('Line Origine',(7.5,1.55,0.)) ;
#1488=CARTESIAN_POINT('Axis2P3D Location',(0.,0.,31.)) ;
#1500=CARTESIAN_POINT('Axis2P3D Location',(-2.22044604925E-16,6.66133814775E-16,-31.)) ;
#1504=CARTESIAN_POINT('Vertex',(2.12132034356,2.12132034356,-31.)) ;
#1506=CARTESIAN_POINT('Vertex',(-2.12132034356,-2.12132034356,-31.)) ;
#1509=CARTESIAN_POINT('Line Origine',(-2.12132034356,-2.12132034356,28.75)) ;
#1514=CARTESIAN_POINT('Line Origine',(2.12132034356,2.12132034356,28.75)) ;
#1526=CARTESIAN_POINT('Line Origine',(-1.98659883773,6.22923952485,-31.)) ;
#1538=CARTESIAN_POINT('Line Origine',(-6.22923952485,1.98659883773,-31.)) ;
#1550=CARTESIAN_POINT('Axis2P3D Location',(0.,0.,-31.)) ;
#8=PRODUCT_RELATED_PRODUCT_CATEGORY('part',$,(#5)) ;
#15=UNCERTAINTY_MEASURE_WITH_UNIT(LENGTH_MEASURE(0.005),#12,'distance_accuracy_value','CONFUSED CURVE UNCERTAINTY') ;
#29=STYLED_ITEM(' ',(#28),#21) ;
#28=PRESENTATION_STYLE_ASSIGNMENT((#27)) ;
#27=SURFACE_STYLE_USAGE(.BOTH.,#26) ;
#26=SURFACE_SIDE_STYLE(' ',(#25)) ;
#25=SURFACE_STYLE_FILL_AREA(#24) ;
#24=FILL_AREA_STYLE(' ',(#23)) ;
#23=FILL_AREA_STYLE_COLOUR(' ',#22) ;
#38=VECTOR('Line Direction',#37,1.) ;
#54=VECTOR('Line Direction',#53,1.) ;
#78=VECTOR('Line Direction',#77,1.) ;
#87=VECTOR('Line Direction',#86,1.) ;
#92=VECTOR('Line Direction',#91,1.) ;
#109=VECTOR('Line Direction',#108,1.) ;
#118=VECTOR('Line Direction',#117,1.) ;
#123=VECTOR('Line Direction',#122,1.) ;
#140=VECTOR('Line Direction',#139,1.) ;
#149=VECTOR('Line Direction',#148,1.) ;
#156=VECTOR('Line Direction',#155,1.) ;
#163=VECTOR('Line Direction',#162,1.) ;
#194=VECTOR('Line Direction',#193,1.) ;
#211=VECTOR('Line Direction',#210,1.) ;
#220=VECTOR('Line Direction',#219,1.) ;
#227=VECTOR('Line Direction',#226,1.) ;
#234=VECTOR('Line Direction',#233,1.) ;
#252=VECTOR('Line Direction',#251,1.) ;
#266=VECTOR('Line Direction',#265,1.) ;
#280=VECTOR('Line Direction',#279,1.) ;
#308=VECTOR('Line Direction',#307,1.) ;
#325=VECTOR('Line Direction',#324,1.) ;
#334=VECTOR('Line Direction',#333,1.) ;
#341=VECTOR('Line Direction',#340,1.) ;
#348=VECTOR('Line Direction',#347,1.) ;
#359=VECTOR('Line Direction',#358,1.) ;
#373=VECTOR('Line Direction',#372,1.) ;
#387=VECTOR('Line Direction',#386,1.) ;
#408=VECTOR('Line Direction',#407,1.) ;
#425=VECTOR('Line Direction',#424,1.) ;
#446=VECTOR('Line Direction',#445,1.) ;
#460=VECTOR('Line Direction',#459,1.) ;
#479=VECTOR('Line Direction',#478,1.) ;
#516=VECTOR('Line Direction',#515,1.) ;
#537=VECTOR('Line Direction',#536,1.) ;
#630=VECTOR('Line Direction',#629,1.) ;
#639=VECTOR('Line Direction',#638,1.) ;
#644=VECTOR('Line Direction',#643,1.) ;
#651=VECTOR('Line Direction',#650,1.) ;
#658=VECTOR('Line Direction',#657,1.) ;
#665=VECTOR('Line Direction',#664,1.) ;
#700=VECTOR('Line Direction',#699,1.) ;
#798=VECTOR('Line Direction',#797,1.) ;
#815=VECTOR('Line Direction',#814,1.) ;
#832=VECTOR('Line Direction',#831,1.) ;
#861=VECTOR('Line Direction',#860,1.) ;
#868=VECTOR('Line Direction',#867,1.) ;
#875=VECTOR('Line Direction',#874,1.) ;
#882=VECTOR('Line Direction',#881,1.) ;
#889=VECTOR('Line Direction',#888,1.) ;
#965=VECTOR('Line Direction',#964,1.) ;
#977=VECTOR('Line Direction',#976,1.) ;
#991=VECTOR('Line Direction',#990,1.) ;
#1029=VECTOR('Line Direction',#1028,1.) ;
#1036=VECTOR('Line Direction',#1035,1.) ;
#1072=VECTOR('Line Direction',#1071,1.) ;
#1079=VECTOR('Line Direction',#1078,1.) ;
#1115=VECTOR('Line Direction',#1114,1.) ;
#1122=VECTOR('Line Direction',#1121,1.) ;
#1158=VECTOR('Line Direction',#1157,1.) ;
#1165=VECTOR('Line Direction',#1164,1.) ;
#1203=VECTOR('Line Direction',#1202,1.) ;
#1229=VECTOR('Line Direction',#1228,1.) ;
#1243=VECTOR('Line Direction',#1242,1.) ;
#1248=VECTOR('Line Direction',#1247,1.) ;
#1286=VECTOR('Line Direction',#1285,1.) ;
#1394=VECTOR('Line Direction',#1393,1.) ;
#1399=VECTOR('Line Direction',#1398,1.) ;
#1418=VECTOR('Line Direction',#1417,1.) ;
#1423=VECTOR('Line Direction',#1422,1.) ;
#1442=VECTOR('Line Direction',#1441,1.) ;
#1447=VECTOR('Line Direction',#1446,1.) ;
#1466=VECTOR('Line Direction',#1465,1.) ;
#1471=VECTOR('Line Direction',#1470,1.) ;
#1511=VECTOR('Line Direction',#1510,1.) ;
#1516=VECTOR('Line Direction',#1515,1.) ;
#1528=VECTOR('Line Direction',#1527,1.) ;
#1540=VECTOR('Line Direction',#1539,1.) ;
#32=DIRECTION('Axis2P3D Direction',(0.,0.,-1.)) ;
#33=DIRECTION('Axis2P3D XDirection',(0.707106781187,0.707106781187,0.)) ;
#37=DIRECTION('Vector Direction',(0.,0.,-1.)) ;
#46=DIRECTION('Axis2P3D Direction',(0.,0.,-1.)) ;
#53=DIRECTION('Vector Direction',(0.,0.,-1.)) ;
#60=DIRECTION('Axis2P3D Direction',(0.,0.,-1.)) ;
#72=DIRECTION('Axis2P3D Direction',(0.707106781187,0.707106781187,-0.)) ;
#73=DIRECTION('Axis2P3D XDirection',(-0.707106781187,0.707106781187,0.)) ;
#77=DIRECTION('Vector Direction',(0.,0.,1.)) ;
#86=DIRECTION('Vector Direction',(-0.707106781187,0.707106781187,0.)) ;
#91=DIRECTION('Vector Direction',(-0.707106781187,0.707106781187,0.)) ;
#103=DIRECTION('Axis2P3D Direction',(-0.707106781187,-0.707106781187,0.)) ;
#104=DIRECTION('Axis2P3D XDirection',(0.707106781187,-0.707106781187,0.)) ;
#108=DIRECTION('Vector Direction',(0.,0.,1.)) ;
#117=DIRECTION('Vector Direction',(0.707106781187,-0.707106781187,0.)) ;
#122=DIRECTION('Vector Direction',(0.707106781187,-0.707106781187,0.)) ;
#134=DIRECTION('Axis2P3D Direction',(0.422618261741,0.906307787037,0.)) ;
#135=DIRECTION('Axis2P3D XDirection',(0.,0.,-1.)) ;
#139=DIRECTION('Vector Direction',(0.,0.,-1.)) ;
#148=DIRECTION('Vector Direction',(-0.906307787037,0.422618261741,0.)) ;
#155=DIRECTION('Vector Direction',(0.,0.,-1.)) ;
#162=DIRECTION('Vector Direction',(-0.906307787037,0.422618261741,0.)) ;
#174=DIRECTION('Axis2P3D Direction',(0.906307787037,-0.422618261741,0.)) ;
#175=DIRECTION('Axis2P3D XDirection',(0.422618261741,0.906307787037,7.9936057773E-16)) ;
#179=DIRECTION('Axis2P3D Direction',(0.906307787037,-0.422618261741,0.)) ;
#186=DIRECTION('Axis2P3D Direction',(0.906307787037,-0.422618261741,0.)) ;
#193=DIRECTION('Vector Direction',(0.906307787037,-0.422618261741,0.)) ;
#205=DIRECTION('Axis2P3D Direction',(0.906307787037,-0.422618261741,0.)) ;
#206=DIRECTION('Axis2P3D XDirection',(0.422618261741,0.906307787037,0.)) ;
#210=DIRECTION('Vector Direction',(0.,0.,1.)) ;
#219=DIRECTION('Vector Direction',(0.422618261741,0.906307787037,0.)) ;
#226=DIRECTION('Vector Direction',(0.,0.,1.)) ;
#233=DIRECTION('Vector Direction',(0.422618261741,0.906307787037,0.)) ;
#244=DIRECTION('Axis2P3D Direction',(0.906307787037,-0.422618261741,0.)) ;
#251=DIRECTION('Vector Direction',(-0.422618261741,-0.906307787037,0.)) ;
#258=DIRECTION('Axis2P3D Direction',(0.906307787037,-0.422618261741,0.)) ;
#265=DIRECTION('Vector Direction',(0.,0.,1.)) ;
#272=DIRECTION('Axis2P3D Direction',(0.906307787037,-0.422618261741,0.)) ;
#279=DIRECTION('Vector Direction',(0.422618261741,0.906307787037,0.)) ;
#295=DIRECTION('Axis2P3D Direction',(0.906307787037,-0.422618261741,0.)) ;
#296=DIRECTION('Axis2P3D XDirection',(-7.76337152253E-17,-1.66486039566E-16,-1.)) ;
#300=DIRECTION('Axis2P3D Direction',(0.906307787037,-0.422618261741,0.)) ;
#307=DIRECTION('Vector Direction',(0.906307787037,-0.422618261741,0.)) ;
#319=DIRECTION('Axis2P3D Direction',(-0.906307787037,0.422618261741,0.)) ;
#320=DIRECTION('Axis2P3D XDirection',(-0.422618261741,-0.906307787037,0.)) ;
#324=DIRECTION('Vector Direction',(0.,0.,1.)) ;
#333=DIRECTION('Vector Direction',(-0.422618261741,-0.906307787037,0.)) ;
#340=DIRECTION('Vector Direction',(0.,0.,1.)) ;
#347=DIRECTION('Vector Direction',(-0.422618261741,-0.906307787037,0.)) ;
#358=DIRECTION('Vector Direction',(0.422618261741,0.906307787037,0.)) ;
#365=DIRECTION('Axis2P3D Direction',(-0.906307787037,0.422618261741,0.)) ;
#372=DIRECTION('Vector Direction',(0.,0.,1.)) ;
#379=DIRECTION('Axis2P3D Direction',(-0.906307787037,0.422618261741,0.)) ;
#386=DIRECTION('Vector Direction',(0.422618261741,0.906307787037,0.)) ;
#402=DIRECTION('Axis2P3D Direction',(0.,-0.,1.)) ;
#403=DIRECTION('Axis2P3D XDirection',(0.,1.,0.)) ;
#407=DIRECTION('Vector Direction',(-0.906307787037,0.422618261741,0.)) ;
#419=DIRECTION('Axis2P3D Direction',(0.,0.,1.)) ;
#420=DIRECTION('Axis2P3D XDirection',(1.,0.,0.)) ;
#424=DIRECTION('Vector Direction',(0.,0.,1.)) ;
#433=DIRECTION('Axis2P3D Direction',(0.,0.,1.)) ;
#438=DIRECTION('Axis2P3D Direction',(0.,0.,1.)) ;
#445=DIRECTION('Vector Direction',(0.,0.,1.)) ;
#452=DIRECTION('Axis2P3D Direction',(0.,0.,1.)) ;
#459=DIRECTION('Vector Direction',(0.,0.,1.)) ;
#466=DIRECTION('Axis2P3D Direction',(0.,0.,1.)) ;
#471=DIRECTION('Axis2P3D Direction',(0.,0.,1.)) ;
#478=DIRECTION('Vector Direction',(0.,0.,1.)) ;
#485=DIRECTION('Axis2P3D Direction',(0.,0.,1.)) ;
#505=DIRECTION('Axis2P3D Direction',(0.,0.,1.)) ;
#506=DIRECTION('Axis2P3D XDirection',(1.,0.,0.)) ;
#510=DIRECTION('Axis2P3D Direction',(0.,0.,1.)) ;
#515=DIRECTION('Vector Direction',(-8.47759048505E-17,-1.,0.)) ;
#522=DIRECTION('Axis2P3D Direction',(0.,0.,1.)) ;
#529=DIRECTION('Axis2P3D Direction',(0.,0.,1.)) ;
#536=DIRECTION('Vector Direction',(0.125,0.992156741649,0.)) ;
#551=DIRECTION('Axis2P3D Direction',(0.,0.,1.)) ;
#560=DIRECTION('Axis2P3D Direction',(0.,0.,1.)) ;
#569=DIRECTION('Axis2P3D Direction',(0.,0.,1.)) ;
#578=DIRECTION('Axis2P3D Direction',(0.,0.,1.)) ;
#587=DIRECTION('Axis2P3D Direction',(0.,0.,1.)) ;
#596=DIRECTION('Axis2P3D Direction',(0.,0.,1.)) ;
#605=DIRECTION('Axis2P3D Direction',(0.,0.,1.)) ;
#614=DIRECTION('Axis2P3D Direction',(0.,0.,1.)) ;
#624=DIRECTION('Axis2P3D Direction',(0.992156741649,-0.125,0.)) ;
#625=DIRECTION('Axis2P3D XDirection',(0.125,0.992156741649,0.)) ;
#629=DIRECTION('Vector Direction',(0.,0.,1.)) ;
#638=DIRECTION('Vector Direction',(0.125,0.992156741649,0.)) ;
#643=DIRECTION('Vector Direction',(0.,0.,1.)) ;
#650=DIRECTION('Vector Direction',(0.125,0.992156741649,0.)) ;
#657=DIRECTION('Vector Direction',(0.,0.,1.)) ;
#664=DIRECTION('Vector Direction',(0.125,0.992156741649,0.)) ;
#680=DIRECTION('Axis2P3D Direction',(0.,0.,1.)) ;
#681=DIRECTION('Axis2P3D XDirection',(1.,0.,0.)) ;
#685=DIRECTION('Axis2P3D Direction',(0.,0.,1.)) ;
#692=DIRECTION('Axis2P3D Direction',(0.,0.,1.)) ;
#699=DIRECTION('Vector Direction',(-8.47759048505E-17,-1.,0.)) ;
#704=DIRECTION('Axis2P3D Direction',(0.,0.,1.)) ;
#719=DIRECTION('Axis2P3D Direction',(0.,0.,1.)) ;
#728=DIRECTION('Axis2P3D Direction',(0.,0.,1.)) ;
#737=DIRECTION('Axis2P3D Direction',(0.,0.,1.)) ;
#746=DIRECTION('Axis2P3D Direction',(0.,0.,1.)) ;
#755=DIRECTION('Axis2P3D Direction',(0.,0.,1.)) ;
#764=DIRECTION('Axis2P3D Direction',(0.,0.,1.)) ;
#773=DIRECTION('Axis2P3D Direction',(0.,0.,1.)) ;
#782=DIRECTION('Axis2P3D Direction',(0.,0.,1.)) ;
#792=DIRECTION('Axis2P3D Direction',(-0.,-0.,-1.)) ;
#793=DIRECTION('Axis2P3D XDirection',(0.,-1.,0.)) ;
#797=DIRECTION('Vector Direction',(-0.906307787037,0.422618261741,0.)) ;
#809=DIRECTION('Axis2P3D Direction',(0.906307787037,-0.422618261741,0.)) ;
#810=DIRECTION('Axis2P3D XDirection',(-0.422618261741,-0.906307787037,5.66553889765E-16)) ;
#814=DIRECTION('Vector Direction',(0.906307787037,-0.422618261741,0.)) ;
#826=DIRECTION('Axis2P3D Direction',(-0.422618261741,-0.906307787037,0.)) ;
#827=DIRECTION('Axis2P3D XDirection',(0.,0.,1.)) ;
#831=DIRECTION('Vector Direction',(-0.906307787037,0.422618261741,0.)) ;
#843=DIRECTION('Axis2P3D Direction',(0.906307787037,-0.422618261741,0.)) ;
#844=DIRECTION('Axis2P3D XDirection',(2.58779050751E-17,5.54953465218E-17,1.)) ;
#855=DIRECTION('Axis2P3D Direction',(-1.,1.05969881063E-16,0.)) ;
#856=DIRECTION('Axis2P3D XDirection',(-1.05969881063E-16,-1.,0.)) ;
#860=DIRECTION('Vector Direction',(0.,0.,1.)) ;
#867=DIRECTION('Vector Direction',(0.,0.,1.)) ;
#874=DIRECTION('Vector Direction',(1.21414456985E-16,1.,0.)) ;
#881=DIRECTION('Vector Direction',(0.,0.,1.)) ;
#888=DIRECTION('Vector Direction',(1.21414456985E-16,1.,0.)) ;
#904=DIRECTION('Axis2P3D Direction',(0.,0.,1.)) ;
#917=DIRECTION('Axis2P3D Direction',(0.,0.,1.)) ;
#930=DIRECTION('Axis2P3D Direction',(0.,0.,1.)) ;
#931=DIRECTION('Axis2P3D XDirection',(1.,0.,0.)) ;
#940=DIRECTION('Axis2P3D Direction',(0.,0.,1.)) ;
#941=DIRECTION('Axis2P3D XDirection',(1.,0.,0.)) ;
#950=DIRECTION('Axis2P3D Direction',(0.,0.,1.)) ;
#951=DIRECTION('Axis2P3D XDirection',(0.992156741649,-0.125,0.)) ;
#955=DIRECTION('Axis2P3D Direction',(0.,0.,1.)) ;
#964=DIRECTION('Vector Direction',(0.,0.,1.)) ;
#971=DIRECTION('Axis2P3D Direction',(0.,0.,1.)) ;
#976=DIRECTION('Vector Direction',(0.,0.,1.)) ;
#983=DIRECTION('Axis2P3D Direction',(0.,0.,1.)) ;
#990=DIRECTION('Vector Direction',(0.,0.,1.)) ;
#1006=DIRECTION('Axis2P3D Direction',(0.,0.,1.)) ;
#1007=DIRECTION('Axis2P3D XDirection',(1.,0.,0.)) ;
#1011=DIRECTION('Axis2P3D Direction',(0.,0.,1.)) ;
#1023=DIRECTION('Axis2P3D Direction',(0.,-0.,-1.)) ;
#1024=DIRECTION('Axis2P3D XDirection',(1.,0.,0.)) ;
#1028=DIRECTION('Vector Direction',(0.,0.,-1.)) ;
#1035=DIRECTION('Vector Direction',(0.,0.,-1.)) ;
#1042=DIRECTION('Axis2P3D Direction',(0.,-0.,-1.)) ;
#1054=DIRECTION('Axis2P3D Direction',(0.,-0.,-1.)) ;
#1066=DIRECTION('Axis2P3D Direction',(0.,0.,-1.)) ;
#1067=DIRECTION('Axis2P3D XDirection',(6.12323399574E-17,1.,0.)) ;
#1071=DIRECTION('Vector Direction',(0.,0.,-1.)) ;
#1078=DIRECTION('Vector Direction',(0.,0.,-1.)) ;
#1085=DIRECTION('Axis2P3D Direction',(0.,0.,-1.)) ;
#1097=DIRECTION('Axis2P3D Direction',(0.,0.,-1.)) ;
#1109=DIRECTION('Axis2P3D Direction',(0.,0.,-1.)) ;
#1110=DIRECTION('Axis2P3D XDirection',(-1.,1.22464679915E-16,0.)) ;
#1114=DIRECTION('Vector Direction',(0.,0.,-1.)) ;
#1121=DIRECTION('Vector Direction',(0.,0.,-1.)) ;
#1128=DIRECTION('Axis2P3D Direction',(0.,0.,-1.)) ;
#1140=DIRECTION('Axis2P3D Direction',(0.,0.,-1.)) ;
#1152=DIRECTION('Axis2P3D Direction',(-0.,0.,-1.)) ;
#1153=DIRECTION('Axis2P3D XDirection',(-1.83697019872E-16,-1.,0.)) ;
#1157=DIRECTION('Vector Direction',(0.,0.,-1.)) ;
#1164=DIRECTION('Vector Direction',(0.,0.,-1.)) ;
#1171=DIRECTION('Axis2P3D Direction',(-0.,0.,-1.)) ;
#1183=DIRECTION('Axis2P3D Direction',(-0.,0.,-1.)) ;
#1195=DIRECTION('Axis2P3D Direction',(0.,0.,1.)) ;
#1202=DIRECTION('Vector Direction',(0.,0.,1.)) ;
#1207=DIRECTION('Axis2P3D Direction',(0.,0.,1.)) ;
#1212=DIRECTION('Axis2P3D Direction',(0.,0.,1.)) ;
#1228=DIRECTION('Vector Direction',(-0.707106781187,0.707106781187,0.)) ;
#1235=DIRECTION('Axis2P3D Direction',(-0.,-0.,-1.)) ;
#1242=DIRECTION('Vector Direction',(0.707106781187,-0.707106781187,0.)) ;
#1247=DIRECTION('Vector Direction',(-1.,0.,0.)) ;
#1280=DIRECTION('Axis2P3D Direction',(0.,-1.,0.)) ;
#1281=DIRECTION('Axis2P3D XDirection',(0.,0.,1.)) ;
#1285=DIRECTION('Vector Direction',(-1.,0.,0.)) ;
#1297=DIRECTION('Axis2P3D Direction',(0.,-0.,1.)) ;
#1313=DIRECTION('Axis2P3D Direction',(0.,-0.,1.)) ;
#1322=DIRECTION('Axis2P3D Direction',(0.,-0.,1.)) ;
#1331=DIRECTION('Axis2P3D Direction',(0.,-0.,1.)) ;
#1340=DIRECTION('Axis2P3D Direction',(0.,-0.,1.)) ;
#1349=DIRECTION('Axis2P3D Direction',(0.,-0.,1.)) ;
#1358=DIRECTION('Axis2P3D Direction',(0.,-0.,1.)) ;
#1367=DIRECTION('Axis2P3D Direction',(0.,-0.,1.)) ;
#1376=DIRECTION('Axis2P3D Direction',(0.,-0.,1.)) ;
#1393=DIRECTION('Vector Direction',(0.,0.,-1.)) ;
#1398=DIRECTION('Vector Direction',(0.,0.,-1.)) ;
#1417=DIRECTION('Vector Direction',(0.,0.,-1.)) ;
#1422=DIRECTION('Vector Direction',(0.,0.,-1.)) ;
#1441=DIRECTION('Vector Direction',(0.,0.,-1.)) ;
#1446=DIRECTION('Vector Direction',(0.,0.,-1.)) ;
#1465=DIRECTION('Vector Direction',(0.,0.,-1.)) ;
#1470=DIRECTION('Vector Direction',(0.,0.,-1.)) ;
#1489=DIRECTION('Axis2P3D Direction',(0.,0.,-1.)) ;
#1490=DIRECTION('Axis2P3D XDirection',(1.,0.,0.)) ;
#1501=DIRECTION('Axis2P3D Direction',(0.,0.,-1.)) ;
#1510=DIRECTION('Vector Direction',(0.,0.,-1.)) ;
#1515=DIRECTION('Vector Direction',(0.,0.,-1.)) ;
#1527=DIRECTION('Vector Direction',(-0.707106781187,0.707106781187,0.)) ;
#1539=DIRECTION('Vector Direction',(0.707106781187,-0.707106781187,0.)) ;
#1551=DIRECTION('Axis2P3D Direction',(0.,0.,-1.)) ;
#1552=DIRECTION('Axis2P3D XDirection',(1.,0.,0.)) ;
#1563=SHAPE_REPRESENTATION_RELATIONSHIP(' ',' ',#19,#1562) ;
#18=AXIS2_PLACEMENT_3D(' ',#17,$,$) ;
#34=AXIS2_PLACEMENT_3D('Cylinder Axis2P3D',#31,#32,#33) ;
#47=AXIS2_PLACEMENT_3D('Circle Axis2P3D',#45,#46,$) ;
#61=AXIS2_PLACEMENT_3D('Circle Axis2P3D',#59,#60,$) ;
#74=AXIS2_PLACEMENT_3D('Plane Axis2P3D',#71,#72,#73) ;
#105=AXIS2_PLACEMENT_3D('Plane Axis2P3D',#102,#103,#104) ;
#136=AXIS2_PLACEMENT_3D('Plane Axis2P3D',#133,#134,#135) ;
#176=AXIS2_PLACEMENT_3D('Cylinder Axis2P3D',#173,#174,#175) ;
#180=AXIS2_PLACEMENT_3D('Circle Axis2P3D',#178,#179,$) ;
#187=AXIS2_PLACEMENT_3D('Circle Axis2P3D',#185,#186,$) ;
#207=AXIS2_PLACEMENT_3D('Plane Axis2P3D',#204,#205,#206) ;
#245=AXIS2_PLACEMENT_3D('Circle Axis2P3D',#243,#244,$) ;
#259=AXIS2_PLACEMENT_3D('Circle Axis2P3D',#257,#258,$) ;
#273=AXIS2_PLACEMENT_3D('Circle Axis2P3D',#271,#272,$) ;
#297=AXIS2_PLACEMENT_3D('Cylinder Axis2P3D',#294,#295,#296) ;
#301=AXIS2_PLACEMENT_3D('Circle Axis2P3D',#299,#300,$) ;
#321=AXIS2_PLACEMENT_3D('Plane Axis2P3D',#318,#319,#320) ;
#366=AXIS2_PLACEMENT_3D('Circle Axis2P3D',#364,#365,$) ;
#380=AXIS2_PLACEMENT_3D('Circle Axis2P3D',#378,#379,$) ;
#404=AXIS2_PLACEMENT_3D('Plane Axis2P3D',#401,#402,#403) ;
#421=AXIS2_PLACEMENT_3D('Cylinder Axis2P3D',#418,#419,#420) ;
#434=AXIS2_PLACEMENT_3D('Circle Axis2P3D',#432,#433,$) ;
#439=AXIS2_PLACEMENT_3D('Circle Axis2P3D',#437,#438,$) ;
#453=AXIS2_PLACEMENT_3D('Circle Axis2P3D',#451,#452,$) ;
#467=AXIS2_PLACEMENT_3D('Circle Axis2P3D',#465,#466,$) ;
#472=AXIS2_PLACEMENT_3D('Circle Axis2P3D',#470,#471,$) ;
#486=AXIS2_PLACEMENT_3D('Circle Axis2P3D',#484,#485,$) ;
#507=AXIS2_PLACEMENT_3D('Plane Axis2P3D',#504,#505,#506) ;
#511=AXIS2_PLACEMENT_3D('Circle Axis2P3D',#509,#510,$) ;
#523=AXIS2_PLACEMENT_3D('Circle Axis2P3D',#521,#522,$) ;
#530=AXIS2_PLACEMENT_3D('Circle Axis2P3D',#528,#529,$) ;
#552=AXIS2_PLACEMENT_3D('Circle Axis2P3D',#550,#551,$) ;
#561=AXIS2_PLACEMENT_3D('Circle Axis2P3D',#559,#560,$) ;
#570=AXIS2_PLACEMENT_3D('Circle Axis2P3D',#568,#569,$) ;
#579=AXIS2_PLACEMENT_3D('Circle Axis2P3D',#577,#578,$) ;
#588=AXIS2_PLACEMENT_3D('Circle Axis2P3D',#586,#587,$) ;
#597=AXIS2_PLACEMENT_3D('Circle Axis2P3D',#595,#596,$) ;
#606=AXIS2_PLACEMENT_3D('Circle Axis2P3D',#604,#605,$) ;
#615=AXIS2_PLACEMENT_3D('Circle Axis2P3D',#613,#614,$) ;
#626=AXIS2_PLACEMENT_3D('Plane Axis2P3D',#623,#624,#625) ;
#682=AXIS2_PLACEMENT_3D('Plane Axis2P3D',#679,#680,#681) ;
#686=AXIS2_PLACEMENT_3D('Circle Axis2P3D',#684,#685,$) ;
#693=AXIS2_PLACEMENT_3D('Circle Axis2P3D',#691,#692,$) ;
#705=AXIS2_PLACEMENT_3D('Circle Axis2P3D',#703,#704,$) ;
#720=AXIS2_PLACEMENT_3D('Circle Axis2P3D',#718,#719,$) ;
#729=AXIS2_PLACEMENT_3D('Circle Axis2P3D',#727,#728,$) ;
#738=AXIS2_PLACEMENT_3D('Circle Axis2P3D',#736,#737,$) ;
#747=AXIS2_PLACEMENT_3D('Circle Axis2P3D',#745,#746,$) ;
#756=AXIS2_PLACEMENT_3D('Circle Axis2P3D',#754,#755,$) ;
#765=AXIS2_PLACEMENT_3D('Circle Axis2P3D',#763,#764,$) ;
#774=AXIS2_PLACEMENT_3D('Circle Axis2P3D',#772,#773,$) ;
#783=AXIS2_PLACEMENT_3D('Circle Axis2P3D',#781,#782,$) ;
#794=AXIS2_PLACEMENT_3D('Plane Axis2P3D',#791,#792,#793) ;
#811=AXIS2_PLACEMENT_3D('Cylinder Axis2P3D',#808,#809,#810) ;
#828=AXIS2_PLACEMENT_3D('Plane Axis2P3D',#825,#826,#827) ;
#845=AXIS2_PLACEMENT_3D('Cylinder Axis2P3D',#842,#843,#844) ;
#857=AXIS2_PLACEMENT_3D('Plane Axis2P3D',#854,#855,#856) ;
#905=AXIS2_PLACEMENT_3D('Circle Axis2P3D',#903,#904,$) ;
#918=AXIS2_PLACEMENT_3D('Circle Axis2P3D',#916,#917,$) ;
#932=AXIS2_PLACEMENT_3D('Plane Axis2P3D',#929,#930,#931) ;
#942=AXIS2_PLACEMENT_3D('Plane Axis2P3D',#939,#940,#941) ;
#952=AXIS2_PLACEMENT_3D('Cylinder Axis2P3D',#949,#950,#951) ;
#956=AXIS2_PLACEMENT_3D('Circle Axis2P3D',#954,#955,$) ;
#972=AXIS2_PLACEMENT_3D('Circle Axis2P3D',#970,#971,$) ;
#984=AXIS2_PLACEMENT_3D('Circle Axis2P3D',#982,#983,$) ;
#1008=AXIS2_PLACEMENT_3D('Cylinder Axis2P3D',#1005,#1006,#1007) ;
#1012=AXIS2_PLACEMENT_3D('Circle Axis2P3D',#1010,#1011,$) ;
#1025=AXIS2_PLACEMENT_3D('Cylinder Axis2P3D',#1022,#1023,#1024) ;
#1043=AXIS2_PLACEMENT_3D('Circle Axis2P3D',#1041,#1042,$) ;
#1055=AXIS2_PLACEMENT_3D('Circle Axis2P3D',#1053,#1054,$) ;
#1068=AXIS2_PLACEMENT_3D('Cylinder Axis2P3D',#1065,#1066,#1067) ;
#1086=AXIS2_PLACEMENT_3D('Circle Axis2P3D',#1084,#1085,$) ;
#1098=AXIS2_PLACEMENT_3D('Circle Axis2P3D',#1096,#1097,$) ;
#1111=AXIS2_PLACEMENT_3D('Cylinder Axis2P3D',#1108,#1109,#1110) ;
#1129=AXIS2_PLACEMENT_3D('Circle Axis2P3D',#1127,#1128,$) ;
#1141=AXIS2_PLACEMENT_3D('Circle Axis2P3D',#1139,#1140,$) ;
#1154=AXIS2_PLACEMENT_3D('Cylinder Axis2P3D',#1151,#1152,#1153) ;
#1172=AXIS2_PLACEMENT_3D('Circle Axis2P3D',#1170,#1171,$) ;
#1184=AXIS2_PLACEMENT_3D('Circle Axis2P3D',#1182,#1183,$) ;
#1196=AXIS2_PLACEMENT_3D('Circle Axis2P3D',#1194,#1195,$) ;
#1208=AXIS2_PLACEMENT_3D('Circle Axis2P3D',#1206,#1207,$) ;
#1213=AXIS2_PLACEMENT_3D('Circle Axis2P3D',#1211,#1212,$) ;
#1236=AXIS2_PLACEMENT_3D('Circle Axis2P3D',#1234,#1235,$) ;
#1282=AXIS2_PLACEMENT_3D('Plane Axis2P3D',#1279,#1280,#1281) ;
#1298=AXIS2_PLACEMENT_3D('Circle Axis2P3D',#1296,#1297,$) ;
#1314=AXIS2_PLACEMENT_3D('Circle Axis2P3D',#1312,#1313,$) ;
#1323=AXIS2_PLACEMENT_3D('Circle Axis2P3D',#1321,#1322,$) ;
#1332=AXIS2_PLACEMENT_3D('Circle Axis2P3D',#1330,#1331,$) ;
#1341=AXIS2_PLACEMENT_3D('Circle Axis2P3D',#1339,#1340,$) ;
#1350=AXIS2_PLACEMENT_3D('Circle Axis2P3D',#1348,#1349,$) ;
#1359=AXIS2_PLACEMENT_3D('Circle Axis2P3D',#1357,#1358,$) ;
#1368=AXIS2_PLACEMENT_3D('Circle Axis2P3D',#1366,#1367,$) ;
#1377=AXIS2_PLACEMENT_3D('Circle Axis2P3D',#1375,#1376,$) ;
#1491=AXIS2_PLACEMENT_3D('Plane Axis2P3D',#1488,#1489,#1490) ;
#1502=AXIS2_PLACEMENT_3D('Circle Axis2P3D',#1500,#1501,$) ;
#1553=AXIS2_PLACEMENT_3D('Plane Axis2P3D',#1550,#1551,#1552) ;
#39=LINE('Line',#36,#38) ;
#55=LINE('Line',#52,#54) ;
#79=LINE('Line',#76,#78) ;
#88=LINE('Line',#85,#87) ;
#93=LINE('Line',#90,#92) ;
#110=LINE('Line',#107,#109) ;
#119=LINE('Line',#116,#118) ;
#124=LINE('Line',#121,#123) ;
#141=LINE('Line',#138,#140) ;
#150=LINE('Line',#147,#149) ;
#157=LINE('Line',#154,#156) ;
#164=LINE('Line',#161,#163) ;
#195=LINE('Line',#192,#194) ;
#212=LINE('Line',#209,#211) ;
#221=LINE('Line',#218,#220) ;
#228=LINE('Line',#225,#227) ;
#235=LINE('Line',#232,#234) ;
#253=LINE('Line',#250,#252) ;
#267=LINE('Line',#264,#266) ;
#281=LINE('Line',#278,#280) ;
#309=LINE('Line',#306,#308) ;
#326=LINE('Line',#323,#325) ;
#335=LINE('Line',#332,#334) ;
#342=LINE('Line',#339,#341) ;
#349=LINE('Line',#346,#348) ;
#360=LINE('Line',#357,#359) ;
#374=LINE('Line',#371,#373) ;
#388=LINE('Line',#385,#387) ;
#409=LINE('Line',#406,#408) ;
#426=LINE('Line',#423,#425) ;
#447=LINE('Line',#444,#446) ;
#461=LINE('Line',#458,#460) ;
#480=LINE('Line',#477,#479) ;
#517=LINE('Line',#514,#516) ;
#538=LINE('Line',#535,#537) ;
#631=LINE('Line',#628,#630) ;
#640=LINE('Line',#637,#639) ;
#645=LINE('Line',#642,#644) ;
#652=LINE('Line',#649,#651) ;
#659=LINE('Line',#656,#658) ;
#666=LINE('Line',#663,#665) ;
#701=LINE('Line',#698,#700) ;
#799=LINE('Line',#796,#798) ;
#816=LINE('Line',#813,#815) ;
#833=LINE('Line',#830,#832) ;
#862=LINE('Line',#859,#861) ;
#869=LINE('Line',#866,#868) ;
#876=LINE('Line',#873,#875) ;
#883=LINE('Line',#880,#882) ;
#890=LINE('Line',#887,#889) ;
#966=LINE('Line',#963,#965) ;
#978=LINE('Line',#975,#977) ;
#992=LINE('Line',#989,#991) ;
#1030=LINE('Line',#1027,#1029) ;
#1037=LINE('Line',#1034,#1036) ;
#1073=LINE('Line',#1070,#1072) ;
#1080=LINE('Line',#1077,#1079) ;
#1116=LINE('Line',#1113,#1115) ;
#1123=LINE('Line',#1120,#1122) ;
#1159=LINE('Line',#1156,#1158) ;
#1166=LINE('Line',#1163,#1165) ;
#1204=LINE('Line',#1201,#1203) ;
#1230=LINE('Line',#1227,#1229) ;
#1244=LINE('Line',#1241,#1243) ;
#1249=LINE('Line',#1246,#1248) ;
#1287=LINE('Line',#1284,#1286) ;
#1395=LINE('Line',#1392,#1394) ;
#1400=LINE('Line',#1397,#1399) ;
#1419=LINE('Line',#1416,#1418) ;
#1424=LINE('Line',#1421,#1423) ;
#1443=LINE('Line',#1440,#1442) ;
#1448=LINE('Line',#1445,#1447) ;
#1467=LINE('Line',#1464,#1466) ;
#1472=LINE('Line',#1469,#1471) ;
#1512=LINE('Line',#1509,#1511) ;
#1517=LINE('Line',#1514,#1516) ;
#1529=LINE('Line',#1526,#1528) ;
#1541=LINE('Line',#1538,#1540) ;
#48=CIRCLE('generated circle',#47,3.) ;
#62=CIRCLE('generated circle',#61,3.) ;
#181=CIRCLE('generated circle',#180,10.) ;
#188=CIRCLE('generated circle',#187,10.) ;
#246=CIRCLE('generated circle',#245,10.) ;
#260=CIRCLE('generated circle',#259,10.) ;
#274=CIRCLE('generated circle',#273,10.) ;
#302=CIRCLE('generated circle',#301,10.) ;
#367=CIRCLE('generated circle',#366,10.) ;
#381=CIRCLE('generated circle',#380,10.) ;
#435=CIRCLE('generated circle',#434,5.47726888562) ;
#440=CIRCLE('generated circle',#439,5.47726888562) ;
#454=CIRCLE('generated circle',#453,5.47726888562) ;
#468=CIRCLE('generated circle',#467,5.47726888562) ;
#473=CIRCLE('generated circle',#472,5.47726888562) ;
#487=CIRCLE('generated circle',#486,5.47726888562) ;
#512=CIRCLE('generated circle',#511,5.47726888562) ;
#524=CIRCLE('generated circle',#523,25.) ;
#531=CIRCLE('generated circle',#530,12.) ;
#553=CIRCLE('generated circle',#552,1.55) ;
#562=CIRCLE('generated circle',#561,1.55) ;
#571=CIRCLE('generated circle',#570,1.55) ;
#580=CIRCLE('generated circle',#579,1.55) ;
#589=CIRCLE('generated circle',#588,1.55) ;
#598=CIRCLE('generated circle',#597,1.55) ;
#607=CIRCLE('generated circle',#606,1.55) ;
#616=CIRCLE('generated circle',#615,1.55) ;
#687=CIRCLE('generated circle',#686,12.) ;
#694=CIRCLE('generated circle',#693,25.) ;
#706=CIRCLE('generated circle',#705,5.47726888562) ;
#721=CIRCLE('generated circle',#720,1.55) ;
#730=CIRCLE('generated circle',#729,1.55) ;
#739=CIRCLE('generated circle',#738,1.55) ;
#748=CIRCLE('generated circle',#747,1.55) ;
#757=CIRCLE('generated circle',#756,1.55) ;
#766=CIRCLE('generated circle',#765,1.55) ;
#775=CIRCLE('generated circle',#774,1.55) ;
#784=CIRCLE('generated circle',#783,1.55) ;
#906=CIRCLE('generated circle',#905,5.47726888562) ;
#919=CIRCLE('generated circle',#918,5.47726888562) ;
#957=CIRCLE('generated circle',#956,12.) ;
#973=CIRCLE('generated circle',#972,12.) ;
#985=CIRCLE('generated circle',#984,12.) ;
#1013=CIRCLE('generated circle',#1012,25.) ;
#1044=CIRCLE('generated circle',#1043,1.55) ;
#1056=CIRCLE('generated circle',#1055,1.55) ;
#1087=CIRCLE('generated circle',#1086,1.55) ;
#1099=CIRCLE('generated circle',#1098,1.55) ;
#1130=CIRCLE('generated circle',#1129,1.55) ;
#1142=CIRCLE('generated circle',#1141,1.55) ;
#1173=CIRCLE('generated circle',#1172,1.55) ;
#1185=CIRCLE('generated circle',#1184,1.55) ;
#1197=CIRCLE('generated circle',#1196,12.) ;
#1209=CIRCLE('generated circle',#1208,12.) ;
#1214=CIRCLE('generated circle',#1213,12.) ;
#1237=CIRCLE('generated circle',#1236,3.) ;
#1299=CIRCLE('generated circle',#1298,25.) ;
#1315=CIRCLE('generated circle',#1314,1.55) ;
#1324=CIRCLE('generated circle',#1323,1.55) ;
#1333=CIRCLE('generated circle',#1332,1.55) ;
#1342=CIRCLE('generated circle',#1341,1.55) ;
#1351=CIRCLE('generated circle',#1350,1.55) ;
#1360=CIRCLE('generated circle',#1359,1.55) ;
#1369=CIRCLE('generated circle',#1368,1.55) ;
#1378=CIRCLE('generated circle',#1377,1.55) ;
#1503=CIRCLE('generated circle',#1502,3.) ;
#75=PLANE('',#74) ;
#106=PLANE('',#105) ;
#137=PLANE('',#136) ;
#208=PLANE('',#207) ;
#322=PLANE('',#321) ;
#405=PLANE('',#404) ;
#508=PLANE('',#507) ;
#627=PLANE('',#626) ;
#683=PLANE('',#682) ;
#795=PLANE('',#794) ;
#829=PLANE('',#828) ;
#858=PLANE('',#857) ;
#933=PLANE('',#932) ;
#943=PLANE('',#942) ;
#1283=PLANE('',#1282) ;
#1492=PLANE('',#1491) ;
#1554=PLANE('',#1553) ;
#35=CYLINDRICAL_SURFACE('generated cylinder',#34,3.) ;
#177=CYLINDRICAL_SURFACE('generated cylinder',#176,10.) ;
#298=CYLINDRICAL_SURFACE('generated cylinder',#297,10.) ;
#422=CYLINDRICAL_SURFACE('generated cylinder',#421,5.47726888562) ;
#812=CYLINDRICAL_SURFACE('generated cylinder',#811,10.) ;
#846=CYLINDRICAL_SURFACE('generated cylinder',#845,10.) ;
#953=CYLINDRICAL_SURFACE('generated cylinder',#952,12.) ;
#1009=CYLINDRICAL_SURFACE('generated cylinder',#1008,25.) ;
#1026=CYLINDRICAL_SURFACE('generated cylinder',#1025,1.55) ;
#1069=CYLINDRICAL_SURFACE('generated cylinder',#1068,1.55) ;
#1112=CYLINDRICAL_SURFACE('generated cylinder',#1111,1.55) ;
#1155=CYLINDRICAL_SURFACE('generated cylinder',#1154,1.55) ;
#292=FACE_BOUND('',#283,.T.) ;
#399=FACE_BOUND('',#390,.T.) ;
#567=FACE_BOUND('',#564,.T.) ;
#585=FACE_BOUND('',#582,.T.) ;
#603=FACE_BOUND('',#600,.T.) ;
#621=FACE_BOUND('',#618,.T.) ;
#735=FACE_BOUND('',#732,.T.) ;
#753=FACE_BOUND('',#750,.T.) ;
#771=FACE_BOUND('',#768,.T.) ;
#789=FACE_BOUND('',#786,.T.) ;
#1265=FACE_BOUND('',#1262,.T.) ;
#1269=FACE_BOUND('',#1266,.T.) ;
#1273=FACE_BOUND('',#1270,.T.) ;
#1277=FACE_BOUND('',#1274,.T.) ;
#1329=FACE_BOUND('',#1326,.T.) ;
#1347=FACE_BOUND('',#1344,.T.) ;
#1365=FACE_BOUND('',#1362,.T.) ;
#1383=FACE_BOUND('',#1380,.T.) ;
#44=EDGE_CURVE('',#41,#43,#39,.F.) ;
#51=EDGE_CURVE('',#41,#50,#48,.T.) ;
#58=EDGE_CURVE('',#50,#57,#55,.F.) ;
#63=EDGE_CURVE('',#43,#57,#62,.T.) ;
#84=EDGE_CURVE('',#81,#83,#79,.T.) ;
#89=EDGE_CURVE('',#81,#41,#88,.F.) ;
#94=EDGE_CURVE('',#83,#43,#93,.F.) ;
#115=EDGE_CURVE('',#112,#114,#110,.T.) ;
#120=EDGE_CURVE('',#57,#114,#119,.F.) ;
#125=EDGE_CURVE('',#50,#112,#124,.F.) ;
#146=EDGE_CURVE('',#143,#145,#141,.T.) ;
#153=EDGE_CURVE('',#152,#145,#150,.T.) ;
#160=EDGE_CURVE('',#152,#159,#157,.F.) ;
#165=EDGE_CURVE('',#159,#143,#164,.T.) ;
#184=EDGE_CURVE('',#183,#143,#181,.F.) ;
#191=EDGE_CURVE('',#159,#190,#188,.T.) ;
#196=EDGE_CURVE('',#190,#183,#195,.F.) ;
#217=EDGE_CURVE('',#214,#216,#212,.T.) ;
#224=EDGE_CURVE('',#214,#223,#221,.T.) ;
#231=EDGE_CURVE('',#223,#230,#228,.T.) ;
#236=EDGE_CURVE('',#216,#230,#235,.T.) ;
#249=EDGE_CURVE('',#248,#152,#246,.T.) ;
#256=EDGE_CURVE('',#255,#248,#253,.F.) ;
#263=EDGE_CURVE('',#262,#255,#260,.T.) ;
#270=EDGE_CURVE('',#269,#262,#267,.F.) ;
#277=EDGE_CURVE('',#276,#269,#274,.T.) ;
#282=EDGE_CURVE('',#190,#276,#281,.F.) ;
#305=EDGE_CURVE('',#145,#304,#302,.F.) ;
#310=EDGE_CURVE('',#248,#304,#309,.F.) ;
#331=EDGE_CURVE('',#328,#330,#326,.T.) ;
#338=EDGE_CURVE('',#328,#337,#335,.T.) ;
#345=EDGE_CURVE('',#337,#344,#342,.T.) ;
#350=EDGE_CURVE('',#330,#344,#349,.T.) ;
#363=EDGE_CURVE('',#362,#183,#360,.T.) ;
#370=EDGE_CURVE('',#369,#362,#367,.T.) ;
#377=EDGE_CURVE('',#376,#369,#374,.T.) ;
#384=EDGE_CURVE('',#383,#376,#381,.T.) ;
#389=EDGE_CURVE('',#383,#304,#388,.T.) ;
#410=EDGE_CURVE('',#276,#362,#409,.T.) ;
#431=EDGE_CURVE('',#428,#430,#426,.T.) ;
#436=EDGE_CURVE('',#344,#428,#435,.T.) ;
#443=EDGE_CURVE('',#337,#442,#440,.T.) ;
#450=EDGE_CURVE('',#442,#449,#447,.F.) ;
#457=EDGE_CURVE('',#449,#456,#454,.T.) ;
#464=EDGE_CURVE('',#463,#456,#461,.F.) ;
#469=EDGE_CURVE('',#214,#463,#468,.T.) ;
#476=EDGE_CURVE('',#216,#475,#473,.T.) ;
#483=EDGE_CURVE('',#475,#482,#480,.T.) ;
#488=EDGE_CURVE('',#430,#482,#487,.T.) ;
#513=EDGE_CURVE('',#463,#337,#512,.T.) ;
#520=EDGE_CURVE('',#519,#328,#517,.T.) ;
#527=EDGE_CURVE('',#526,#519,#524,.F.) ;
#534=EDGE_CURVE('',#533,#526,#531,.T.) ;
#539=EDGE_CURVE('',#223,#533,#538,.T.) ;
#558=EDGE_CURVE('',#555,#557,#553,.T.) ;
#563=EDGE_CURVE('',#557,#555,#562,.T.) ;
#576=EDGE_CURVE('',#573,#575,#571,.T.) ;
#581=EDGE_CURVE('',#575,#573,#580,.T.) ;
#594=EDGE_CURVE('',#591,#593,#589,.T.) ;
#599=EDGE_CURVE('',#593,#591,#598,.T.) ;
#612=EDGE_CURVE('',#609,#611,#607,.T.) ;
#617=EDGE_CURVE('',#611,#609,#616,.T.) ;
#636=EDGE_CURVE('',#633,#635,#631,.T.) ;
#641=EDGE_CURVE('',#230,#635,#640,.T.) ;
#648=EDGE_CURVE('',#533,#647,#645,.T.) ;
#655=EDGE_CURVE('',#654,#647,#652,.T.) ;
#662=EDGE_CURVE('',#654,#661,#659,.T.) ;
#667=EDGE_CURVE('',#661,#633,#666,.T.) ;
#690=EDGE_CURVE('',#635,#689,#687,.T.) ;
#697=EDGE_CURVE('',#689,#696,#694,.F.) ;
#702=EDGE_CURVE('',#696,#330,#701,.T.) ;
#707=EDGE_CURVE('',#475,#344,#706,.T.) ;
#726=EDGE_CURVE('',#723,#725,#721,.T.) ;
#731=EDGE_CURVE('',#725,#723,#730,.T.) ;
#744=EDGE_CURVE('',#741,#743,#739,.T.) ;
#749=EDGE_CURVE('',#743,#741,#748,.T.) ;
#762=EDGE_CURVE('',#759,#761,#757,.T.) ;
#767=EDGE_CURVE('',#761,#759,#766,.T.) ;
#780=EDGE_CURVE('',#777,#779,#775,.T.) ;
#785=EDGE_CURVE('',#779,#777,#784,.T.) ;
#800=EDGE_CURVE('',#255,#383,#799,.T.) ;
#817=EDGE_CURVE('',#262,#376,#816,.F.) ;
#834=EDGE_CURVE('',#269,#369,#833,.T.) ;
#865=EDGE_CURVE('',#519,#864,#862,.T.) ;
#872=EDGE_CURVE('',#871,#696,#869,.T.) ;
#879=EDGE_CURVE('',#878,#871,#876,.T.) ;
#886=EDGE_CURVE('',#885,#878,#883,.T.) ;
#891=EDGE_CURVE('',#885,#864,#890,.T.) ;
#907=EDGE_CURVE('',#482,#430,#906,.T.) ;
#920=EDGE_CURVE('',#456,#449,#919,.T.) ;
#962=EDGE_CURVE('',#959,#961,#957,.F.) ;
#969=EDGE_CURVE('',#968,#961,#966,.F.) ;
#974=EDGE_CURVE('',#968,#647,#973,.F.) ;
#981=EDGE_CURVE('',#526,#980,#978,.T.) ;
#988=EDGE_CURVE('',#980,#987,#985,.F.) ;
#993=EDGE_CURVE('',#987,#959,#992,.F.) ;
#1014=EDGE_CURVE('',#980,#864,#1013,.F.) ;
#1033=EDGE_CURVE('',#555,#1032,#1030,.F.) ;
#1040=EDGE_CURVE('',#557,#1039,#1037,.F.) ;
#1045=EDGE_CURVE('',#1032,#1039,#1044,.T.) ;
#1057=EDGE_CURVE('',#1039,#1032,#1056,.T.) ;
#1076=EDGE_CURVE('',#573,#1075,#1073,.F.) ;
#1083=EDGE_CURVE('',#575,#1082,#1080,.F.) ;
#1088=EDGE_CURVE('',#1075,#1082,#1087,.T.) ;
#1100=EDGE_CURVE('',#1082,#1075,#1099,.T.) ;
#1119=EDGE_CURVE('',#591,#1118,#1116,.F.) ;
#1126=EDGE_CURVE('',#593,#1125,#1123,.F.) ;
#1131=EDGE_CURVE('',#1118,#1125,#1130,.T.) ;
#1143=EDGE_CURVE('',#1125,#1118,#1142,.T.) ;
#1162=EDGE_CURVE('',#609,#1161,#1159,.F.) ;
#1169=EDGE_CURVE('',#611,#1168,#1166,.F.) ;
#1174=EDGE_CURVE('',#1161,#1168,#1173,.T.) ;
#1186=EDGE_CURVE('',#1168,#1161,#1185,.T.) ;
#1200=EDGE_CURVE('',#112,#1199,#1197,.T.) ;
#1205=EDGE_CURVE('',#1199,#689,#1204,.T.) ;
#1210=EDGE_CURVE('',#633,#81,#1209,.T.) ;
#1215=EDGE_CURVE('',#114,#83,#1214,.F.) ;
#1233=EDGE_CURVE('',#968,#1232,#1230,.F.) ;
#1240=EDGE_CURVE('',#1232,#1239,#1237,.T.) ;
#1245=EDGE_CURVE('',#1239,#987,#1244,.F.) ;
#1250=EDGE_CURVE('',#654,#885,#1249,.T.) ;
#1288=EDGE_CURVE('',#661,#878,#1287,.T.) ;
#1300=EDGE_CURVE('',#871,#1199,#1299,.T.) ;
#1320=EDGE_CURVE('',#1317,#1319,#1315,.T.) ;
#1325=EDGE_CURVE('',#1319,#1317,#1324,.T.) ;
#1338=EDGE_CURVE('',#1335,#1337,#1333,.T.) ;
#1343=EDGE_CURVE('',#1337,#1335,#1342,.T.) ;
#1356=EDGE_CURVE('',#1353,#1355,#1351,.T.) ;
#1361=EDGE_CURVE('',#1355,#1353,#1360,.T.) ;
#1374=EDGE_CURVE('',#1371,#1373,#1369,.T.) ;
#1379=EDGE_CURVE('',#1373,#1371,#1378,.T.) ;
#1396=EDGE_CURVE('',#1319,#723,#1395,.F.) ;
#1401=EDGE_CURVE('',#1317,#725,#1400,.F.) ;
#1420=EDGE_CURVE('',#1335,#741,#1419,.F.) ;
#1425=EDGE_CURVE('',#1337,#743,#1424,.F.) ;
#1444=EDGE_CURVE('',#1353,#759,#1443,.F.) ;
#1449=EDGE_CURVE('',#1355,#761,#1448,.F.) ;
#1468=EDGE_CURVE('',#1371,#777,#1467,.F.) ;
#1473=EDGE_CURVE('',#1373,#779,#1472,.F.) ;
#1508=EDGE_CURVE('',#1505,#1507,#1503,.T.) ;
#1513=EDGE_CURVE('',#1239,#1507,#1512,.T.) ;
#1518=EDGE_CURVE('',#1232,#1505,#1517,.T.) ;
#1530=EDGE_CURVE('',#961,#1505,#1529,.F.) ;
#1542=EDGE_CURVE('',#1507,#959,#1541,.F.) ;
#30=CLOSED_SHELL('Closed Shell',(#70,#101,#132,#172,#203,#293,#317,#400,#417,#503,#622,#678,#790,#807,#824,#841,#853,#902,#915,#928,#938,#948,#1004,#1021,#1052,#1064,#1095,#1107,#1138,#1150,#1181,#1193,#1226,#1278,#1295,#1384,#1391,#1408,#1415,#1432,#1439,#1456,#1463,#1480,#1487,#1499,#1525,#1537,#1549,#1561)) ;
#65=ORIENTED_EDGE('',*,*,#44,.F.) ;
#66=ORIENTED_EDGE('',*,*,#51,.T.) ;
#67=ORIENTED_EDGE('',*,*,#58,.T.) ;
#68=ORIENTED_EDGE('',*,*,#63,.F.) ;
#96=ORIENTED_EDGE('',*,*,#84,.F.) ;
#97=ORIENTED_EDGE('',*,*,#89,.T.) ;
#98=ORIENTED_EDGE('',*,*,#44,.T.) ;
#99=ORIENTED_EDGE('',*,*,#94,.F.) ;
#127=ORIENTED_EDGE('',*,*,#115,.T.) ;
#128=ORIENTED_EDGE('',*,*,#120,.F.) ;
#129=ORIENTED_EDGE('',*,*,#58,.F.) ;
#130=ORIENTED_EDGE('',*,*,#125,.T.) ;
#167=ORIENTED_EDGE('',*,*,#146,.T.) ;
#168=ORIENTED_EDGE('',*,*,#153,.F.) ;
#169=ORIENTED_EDGE('',*,*,#160,.T.) ;
#170=ORIENTED_EDGE('',*,*,#165,.T.) ;
#198=ORIENTED_EDGE('',*,*,#184,.T.) ;
#199=ORIENTED_EDGE('',*,*,#165,.F.) ;
#200=ORIENTED_EDGE('',*,*,#191,.T.) ;
#201=ORIENTED_EDGE('',*,*,#196,.T.) ;
#238=ORIENTED_EDGE('',*,*,#217,.F.) ;
#239=ORIENTED_EDGE('',*,*,#224,.T.) ;
#240=ORIENTED_EDGE('',*,*,#231,.T.) ;
#241=ORIENTED_EDGE('',*,*,#236,.F.) ;
#284=ORIENTED_EDGE('',*,*,#249,.F.) ;
#285=ORIENTED_EDGE('',*,*,#256,.F.) ;
#286=ORIENTED_EDGE('',*,*,#263,.F.) ;
#287=ORIENTED_EDGE('',*,*,#270,.F.) ;
#288=ORIENTED_EDGE('',*,*,#277,.F.) ;
#289=ORIENTED_EDGE('',*,*,#282,.F.) ;
#290=ORIENTED_EDGE('',*,*,#191,.F.) ;
#291=ORIENTED_EDGE('',*,*,#160,.F.) ;
#312=ORIENTED_EDGE('',*,*,#305,.T.) ;
#313=ORIENTED_EDGE('',*,*,#310,.F.) ;
#314=ORIENTED_EDGE('',*,*,#249,.T.) ;
#315=ORIENTED_EDGE('',*,*,#153,.T.) ;
#352=ORIENTED_EDGE('',*,*,#331,.F.) ;
#353=ORIENTED_EDGE('',*,*,#338,.T.) ;
#354=ORIENTED_EDGE('',*,*,#345,.T.) ;
#355=ORIENTED_EDGE('',*,*,#350,.F.) ;
#391=ORIENTED_EDGE('',*,*,#146,.F.) ;
#392=ORIENTED_EDGE('',*,*,#184,.F.) ;
#393=ORIENTED_EDGE('',*,*,#363,.F.) ;
#394=ORIENTED_EDGE('',*,*,#370,.F.) ;
#395=ORIENTED_EDGE('',*,*,#377,.F.) ;
#396=ORIENTED_EDGE('',*,*,#384,.F.) ;
#397=ORIENTED_EDGE('',*,*,#389,.T.) ;
#398=ORIENTED_EDGE('',*,*,#305,.F.) ;
#412=ORIENTED_EDGE('',*,*,#363,.T.) ;
#413=ORIENTED_EDGE('',*,*,#196,.F.) ;
#414=ORIENTED_EDGE('',*,*,#282,.T.) ;
#415=ORIENTED_EDGE('',*,*,#410,.T.) ;
#490=ORIENTED_EDGE('',*,*,#431,.F.) ;
#491=ORIENTED_EDGE('',*,*,#436,.F.) ;
#492=ORIENTED_EDGE('',*,*,#345,.F.) ;
#493=ORIENTED_EDGE('',*,*,#443,.T.) ;
#494=ORIENTED_EDGE('',*,*,#450,.T.) ;
#495=ORIENTED_EDGE('',*,*,#457,.T.) ;
#496=ORIENTED_EDGE('',*,*,#464,.F.) ;
#497=ORIENTED_EDGE('',*,*,#469,.F.) ;
#498=ORIENTED_EDGE('',*,*,#217,.T.) ;
#499=ORIENTED_EDGE('',*,*,#476,.T.) ;
#500=ORIENTED_EDGE('',*,*,#483,.T.) ;
#501=ORIENTED_EDGE('',*,*,#488,.F.) ;
#541=ORIENTED_EDGE('',*,*,#469,.T.) ;
#542=ORIENTED_EDGE('',*,*,#513,.T.) ;
#543=ORIENTED_EDGE('',*,*,#338,.F.) ;
#544=ORIENTED_EDGE('',*,*,#520,.F.) ;
#545=ORIENTED_EDGE('',*,*,#527,.F.) ;
#546=ORIENTED_EDGE('',*,*,#534,.F.) ;
#547=ORIENTED_EDGE('',*,*,#539,.F.) ;
#548=ORIENTED_EDGE('',*,*,#224,.F.) ;
#565=ORIENTED_EDGE('',*,*,#558,.T.) ;
#566=ORIENTED_EDGE('',*,*,#563,.T.) ;
#583=ORIENTED_EDGE('',*,*,#576,.T.) ;
#584=ORIENTED_EDGE('',*,*,#581,.T.) ;
#601=ORIENTED_EDGE('',*,*,#594,.T.) ;
#602=ORIENTED_EDGE('',*,*,#599,.T.) ;
#619=ORIENTED_EDGE('',*,*,#612,.T.) ;
#620=ORIENTED_EDGE('',*,*,#617,.T.) ;
#669=ORIENTED_EDGE('',*,*,#636,.T.) ;
#670=ORIENTED_EDGE('',*,*,#641,.F.) ;
#671=ORIENTED_EDGE('',*,*,#231,.F.) ;
#672=ORIENTED_EDGE('',*,*,#539,.T.) ;
#673=ORIENTED_EDGE('',*,*,#648,.T.) ;
#674=ORIENTED_EDGE('',*,*,#655,.F.) ;
#675=ORIENTED_EDGE('',*,*,#662,.T.) ;
#676=ORIENTED_EDGE('',*,*,#667,.T.) ;
#709=ORIENTED_EDGE('',*,*,#236,.T.) ;
#710=ORIENTED_EDGE('',*,*,#641,.T.) ;
#711=ORIENTED_EDGE('',*,*,#690,.T.) ;
#712=ORIENTED_EDGE('',*,*,#697,.T.) ;
#713=ORIENTED_EDGE('',*,*,#702,.T.) ;
#714=ORIENTED_EDGE('',*,*,#350,.T.) ;
#715=ORIENTED_EDGE('',*,*,#707,.F.) ;
#716=ORIENTED_EDGE('',*,*,#476,.F.) ;
#733=ORIENTED_EDGE('',*,*,#726,.F.) ;
#734=ORIENTED_EDGE('',*,*,#731,.F.) ;
#751=ORIENTED_EDGE('',*,*,#744,.F.) ;
#752=ORIENTED_EDGE('',*,*,#749,.F.) ;
#769=ORIENTED_EDGE('',*,*,#762,.F.) ;
#770=ORIENTED_EDGE('',*,*,#767,.F.) ;
#787=ORIENTED_EDGE('',*,*,#780,.F.) ;
#788=ORIENTED_EDGE('',*,*,#785,.F.) ;
#802=ORIENTED_EDGE('',*,*,#389,.F.) ;
#803=ORIENTED_EDGE('',*,*,#800,.F.) ;
#804=ORIENTED_EDGE('',*,*,#256,.T.) ;
#805=ORIENTED_EDGE('',*,*,#310,.T.) ;
#819=ORIENTED_EDGE('',*,*,#384,.T.) ;
#820=ORIENTED_EDGE('',*,*,#817,.F.) ;
#821=ORIENTED_EDGE('',*,*,#263,.T.) ;
#822=ORIENTED_EDGE('',*,*,#800,.T.) ;
#836=ORIENTED_EDGE('',*,*,#377,.T.) ;
#837=ORIENTED_EDGE('',*,*,#834,.F.) ;
#838=ORIENTED_EDGE('',*,*,#270,.T.) ;
#839=ORIENTED_EDGE('',*,*,#817,.T.) ;
#848=ORIENTED_EDGE('',*,*,#370,.T.) ;
#849=ORIENTED_EDGE('',*,*,#410,.F.) ;
#850=ORIENTED_EDGE('',*,*,#277,.T.) ;
#851=ORIENTED_EDGE('',*,*,#834,.T.) ;
#893=ORIENTED_EDGE('',*,*,#865,.F.) ;
#894=ORIENTED_EDGE('',*,*,#520,.T.) ;
#895=ORIENTED_EDGE('',*,*,#331,.T.) ;
#896=ORIENTED_EDGE('',*,*,#702,.F.) ;
#897=ORIENTED_EDGE('',*,*,#872,.F.) ;
#898=ORIENTED_EDGE('',*,*,#879,.F.) ;
#899=ORIENTED_EDGE('',*,*,#886,.F.) ;
#900=ORIENTED_EDGE('',*,*,#891,.T.) ;
#909=ORIENTED_EDGE('',*,*,#483,.F.) ;
#910=ORIENTED_EDGE('',*,*,#707,.T.) ;
#911=ORIENTED_EDGE('',*,*,#436,.T.) ;
#912=ORIENTED_EDGE('',*,*,#431,.T.) ;
#913=ORIENTED_EDGE('',*,*,#907,.F.) ;
#922=ORIENTED_EDGE('',*,*,#920,.T.) ;
#923=ORIENTED_EDGE('',*,*,#450,.F.) ;
#924=ORIENTED_EDGE('',*,*,#443,.F.) ;
#925=ORIENTED_EDGE('',*,*,#513,.F.) ;
#926=ORIENTED_EDGE('',*,*,#464,.T.) ;
#935=ORIENTED_EDGE('',*,*,#457,.F.) ;
#936=ORIENTED_EDGE('',*,*,#920,.F.) ;
#945=ORIENTED_EDGE('',*,*,#907,.T.) ;
#946=ORIENTED_EDGE('',*,*,#488,.T.) ;
#995=ORIENTED_EDGE('',*,*,#962,.T.) ;
#996=ORIENTED_EDGE('',*,*,#969,.F.) ;
#997=ORIENTED_EDGE('',*,*,#974,.T.) ;
#998=ORIENTED_EDGE('',*,*,#648,.F.) ;
#999=ORIENTED_EDGE('',*,*,#534,.T.) ;
#1000=ORIENTED_EDGE('',*,*,#981,.T.) ;
#1001=ORIENTED_EDGE('',*,*,#988,.T.) ;
#1002=ORIENTED_EDGE('',*,*,#993,.T.) ;
#1016=ORIENTED_EDGE('',*,*,#1014,.F.) ;
#1017=ORIENTED_EDGE('',*,*,#981,.F.) ;
#1018=ORIENTED_EDGE('',*,*,#527,.T.) ;
#1019=ORIENTED_EDGE('',*,*,#865,.T.) ;
#1047=ORIENTED_EDGE('',*,*,#1033,.F.) ;
#1048=ORIENTED_EDGE('',*,*,#563,.F.) ;
#1049=ORIENTED_EDGE('',*,*,#1040,.T.) ;
#1050=ORIENTED_EDGE('',*,*,#1045,.F.) ;
#1059=ORIENTED_EDGE('',*,*,#1040,.F.) ;
#1060=ORIENTED_EDGE('',*,*,#558,.F.) ;
#1061=ORIENTED_EDGE('',*,*,#1033,.T.) ;
#1062=ORIENTED_EDGE('',*,*,#1057,.F.) ;
#1090=ORIENTED_EDGE('',*,*,#1076,.F.) ;
#1091=ORIENTED_EDGE('',*,*,#581,.F.) ;
#1092=ORIENTED_EDGE('',*,*,#1083,.T.) ;
#1093=ORIENTED_EDGE('',*,*,#1088,.F.) ;
#1102=ORIENTED_EDGE('',*,*,#1083,.F.) ;
#1103=ORIENTED_EDGE('',*,*,#576,.F.) ;
#1104=ORIENTED_EDGE('',*,*,#1076,.T.) ;
#1105=ORIENTED_EDGE('',*,*,#1100,.F.) ;
#1133=ORIENTED_EDGE('',*,*,#1119,.F.) ;
#1134=ORIENTED_EDGE('',*,*,#599,.F.) ;
#1135=ORIENTED_EDGE('',*,*,#1126,.T.) ;
#1136=ORIENTED_EDGE('',*,*,#1131,.F.) ;
#1145=ORIENTED_EDGE('',*,*,#1126,.F.) ;
#1146=ORIENTED_EDGE('',*,*,#594,.F.) ;
#1147=ORIENTED_EDGE('',*,*,#1119,.T.) ;
#1148=ORIENTED_EDGE('',*,*,#1143,.F.) ;
#1176=ORIENTED_EDGE('',*,*,#1162,.F.) ;
#1177=ORIENTED_EDGE('',*,*,#617,.F.) ;
#1178=ORIENTED_EDGE('',*,*,#1169,.T.) ;
#1179=ORIENTED_EDGE('',*,*,#1174,.F.) ;
#1188=ORIENTED_EDGE('',*,*,#1169,.F.) ;
#1189=ORIENTED_EDGE('',*,*,#612,.F.) ;
#1190=ORIENTED_EDGE('',*,*,#1162,.T.) ;
#1191=ORIENTED_EDGE('',*,*,#1186,.F.) ;
#1217=ORIENTED_EDGE('',*,*,#1200,.T.) ;
#1218=ORIENTED_EDGE('',*,*,#1205,.T.) ;
#1219=ORIENTED_EDGE('',*,*,#690,.F.) ;
#1220=ORIENTED_EDGE('',*,*,#636,.F.) ;
#1221=ORIENTED_EDGE('',*,*,#1210,.T.) ;
#1222=ORIENTED_EDGE('',*,*,#84,.T.) ;
#1223=ORIENTED_EDGE('',*,*,#1215,.F.) ;
#1224=ORIENTED_EDGE('',*,*,#115,.F.) ;
#1252=ORIENTED_EDGE('',*,*,#1233,.T.) ;
#1253=ORIENTED_EDGE('',*,*,#1240,.T.) ;
#1254=ORIENTED_EDGE('',*,*,#1245,.T.) ;
#1255=ORIENTED_EDGE('',*,*,#988,.F.) ;
#1256=ORIENTED_EDGE('',*,*,#1014,.T.) ;
#1257=ORIENTED_EDGE('',*,*,#891,.F.) ;
#1258=ORIENTED_EDGE('',*,*,#1250,.F.) ;
#1259=ORIENTED_EDGE('',*,*,#655,.T.) ;
#1260=ORIENTED_EDGE('',*,*,#974,.F.) ;
#1263=ORIENTED_EDGE('',*,*,#1057,.T.) ;
#1264=ORIENTED_EDGE('',*,*,#1045,.T.) ;
#1267=ORIENTED_EDGE('',*,*,#1088,.T.) ;
#1268=ORIENTED_EDGE('',*,*,#1100,.T.) ;
#1271=ORIENTED_EDGE('',*,*,#1131,.T.) ;
#1272=ORIENTED_EDGE('',*,*,#1143,.T.) ;
#1275=ORIENTED_EDGE('',*,*,#1174,.T.) ;
#1276=ORIENTED_EDGE('',*,*,#1186,.T.) ;
#1290=ORIENTED_EDGE('',*,*,#1250,.T.) ;
#1291=ORIENTED_EDGE('',*,*,#886,.T.) ;
#1292=ORIENTED_EDGE('',*,*,#1288,.F.) ;
#1293=ORIENTED_EDGE('',*,*,#662,.F.) ;
#1302=ORIENTED_EDGE('',*,*,#125,.F.) ;
#1303=ORIENTED_EDGE('',*,*,#51,.F.) ;
#1304=ORIENTED_EDGE('',*,*,#89,.F.) ;
#1305=ORIENTED_EDGE('',*,*,#1210,.F.) ;
#1306=ORIENTED_EDGE('',*,*,#667,.F.) ;
#1307=ORIENTED_EDGE('',*,*,#1288,.T.) ;
#1308=ORIENTED_EDGE('',*,*,#879,.T.) ;
#1309=ORIENTED_EDGE('',*,*,#1300,.T.) ;
#1310=ORIENTED_EDGE('',*,*,#1200,.F.) ;
#1327=ORIENTED_EDGE('',*,*,#1320,.T.) ;
#1328=ORIENTED_EDGE('',*,*,#1325,.T.) ;
#1345=ORIENTED_EDGE('',*,*,#1338,.T.) ;
#1346=ORIENTED_EDGE('',*,*,#1343,.T.) ;
#1363=ORIENTED_EDGE('',*,*,#1356,.T.) ;
#1364=ORIENTED_EDGE('',*,*,#1361,.T.) ;
#1381=ORIENTED_EDGE('',*,*,#1374,.T.) ;
#1382=ORIENTED_EDGE('',*,*,#1379,.T.) ;
#1386=ORIENTED_EDGE('',*,*,#1300,.F.) ;
#1387=ORIENTED_EDGE('',*,*,#872,.T.) ;
#1388=ORIENTED_EDGE('',*,*,#697,.F.) ;
#1389=ORIENTED_EDGE('',*,*,#1205,.F.) ;
#1403=ORIENTED_EDGE('',*,*,#1396,.T.) ;
#1404=ORIENTED_EDGE('',*,*,#726,.T.) ;
#1405=ORIENTED_EDGE('',*,*,#1401,.F.) ;
#1406=ORIENTED_EDGE('',*,*,#1325,.F.) ;
#1410=ORIENTED_EDGE('',*,*,#1401,.T.) ;
#1411=ORIENTED_EDGE('',*,*,#731,.T.) ;
#1412=ORIENTED_EDGE('',*,*,#1396,.F.) ;
#1413=ORIENTED_EDGE('',*,*,#1320,.F.) ;
#1427=ORIENTED_EDGE('',*,*,#1420,.T.) ;
#1428=ORIENTED_EDGE('',*,*,#744,.T.) ;
#1429=ORIENTED_EDGE('',*,*,#1425,.F.) ;
#1430=ORIENTED_EDGE('',*,*,#1338,.F.) ;
#1434=ORIENTED_EDGE('',*,*,#1425,.T.) ;
#1435=ORIENTED_EDGE('',*,*,#749,.T.) ;
#1436=ORIENTED_EDGE('',*,*,#1420,.F.) ;
#1437=ORIENTED_EDGE('',*,*,#1343,.F.) ;
#1451=ORIENTED_EDGE('',*,*,#1444,.T.) ;
#1452=ORIENTED_EDGE('',*,*,#762,.T.) ;
#1453=ORIENTED_EDGE('',*,*,#1449,.F.) ;
#1454=ORIENTED_EDGE('',*,*,#1356,.F.) ;
#1458=ORIENTED_EDGE('',*,*,#1449,.T.) ;
#1459=ORIENTED_EDGE('',*,*,#767,.T.) ;
#1460=ORIENTED_EDGE('',*,*,#1444,.F.) ;
#1461=ORIENTED_EDGE('',*,*,#1361,.F.) ;
#1475=ORIENTED_EDGE('',*,*,#1468,.T.) ;
#1476=ORIENTED_EDGE('',*,*,#780,.T.) ;
#1477=ORIENTED_EDGE('',*,*,#1473,.F.) ;
#1478=ORIENTED_EDGE('',*,*,#1374,.F.) ;
#1482=ORIENTED_EDGE('',*,*,#1473,.T.) ;
#1483=ORIENTED_EDGE('',*,*,#785,.T.) ;
#1484=ORIENTED_EDGE('',*,*,#1468,.F.) ;
#1485=ORIENTED_EDGE('',*,*,#1379,.F.) ;
#1494=ORIENTED_EDGE('',*,*,#1215,.T.) ;
#1495=ORIENTED_EDGE('',*,*,#94,.T.) ;
#1496=ORIENTED_EDGE('',*,*,#63,.T.) ;
#1497=ORIENTED_EDGE('',*,*,#120,.T.) ;
#1520=ORIENTED_EDGE('',*,*,#1508,.T.) ;
#1521=ORIENTED_EDGE('',*,*,#1513,.F.) ;
#1522=ORIENTED_EDGE('',*,*,#1240,.F.) ;
#1523=ORIENTED_EDGE('',*,*,#1518,.T.) ;
#1532=ORIENTED_EDGE('',*,*,#1530,.T.) ;
#1533=ORIENTED_EDGE('',*,*,#1518,.F.) ;
#1534=ORIENTED_EDGE('',*,*,#1233,.F.) ;
#1535=ORIENTED_EDGE('',*,*,#969,.T.) ;
#1544=ORIENTED_EDGE('',*,*,#1245,.F.) ;
#1545=ORIENTED_EDGE('',*,*,#1513,.T.) ;
#1546=ORIENTED_EDGE('',*,*,#1542,.T.) ;
#1547=ORIENTED_EDGE('',*,*,#993,.F.) ;
#1556=ORIENTED_EDGE('',*,*,#962,.F.) ;
#1557=ORIENTED_EDGE('',*,*,#1542,.F.) ;
#1558=ORIENTED_EDGE('',*,*,#1508,.F.) ;
#1559=ORIENTED_EDGE('',*,*,#1530,.F.) ;
#64=EDGE_LOOP('',(#65,#66,#67,#68)) ;
#95=EDGE_LOOP('',(#96,#97,#98,#99)) ;
#126=EDGE_LOOP('',(#127,#128,#129,#130)) ;
#166=EDGE_LOOP('',(#167,#168,#169,#170)) ;
#197=EDGE_LOOP('',(#198,#199,#200,#201)) ;
#237=EDGE_LOOP('',(#238,#239,#240,#241)) ;
#283=EDGE_LOOP('',(#284,#285,#286,#287,#288,#289,#290,#291)) ;
#311=EDGE_LOOP('',(#312,#313,#314,#315)) ;
#351=EDGE_LOOP('',(#352,#353,#354,#355)) ;
#390=EDGE_LOOP('',(#391,#392,#393,#394,#395,#396,#397,#398)) ;
#411=EDGE_LOOP('',(#412,#413,#414,#415)) ;
#489=EDGE_LOOP('',(#490,#491,#492,#493,#494,#495,#496,#497,#498,#499,#500,#501)) ;
#540=EDGE_LOOP('',(#541,#542,#543,#544,#545,#546,#547,#548)) ;
#564=EDGE_LOOP('',(#565,#566)) ;
#582=EDGE_LOOP('',(#583,#584)) ;
#600=EDGE_LOOP('',(#601,#602)) ;
#618=EDGE_LOOP('',(#619,#620)) ;
#668=EDGE_LOOP('',(#669,#670,#671,#672,#673,#674,#675,#676)) ;
#708=EDGE_LOOP('',(#709,#710,#711,#712,#713,#714,#715,#716)) ;
#732=EDGE_LOOP('',(#733,#734)) ;
#750=EDGE_LOOP('',(#751,#752)) ;
#768=EDGE_LOOP('',(#769,#770)) ;
#786=EDGE_LOOP('',(#787,#788)) ;
#801=EDGE_LOOP('',(#802,#803,#804,#805)) ;
#818=EDGE_LOOP('',(#819,#820,#821,#822)) ;
#835=EDGE_LOOP('',(#836,#837,#838,#839)) ;
#847=EDGE_LOOP('',(#848,#849,#850,#851)) ;
#892=EDGE_LOOP('',(#893,#894,#895,#896,#897,#898,#899,#900)) ;
#908=EDGE_LOOP('',(#909,#910,#911,#912,#913)) ;
#921=EDGE_LOOP('',(#922,#923,#924,#925,#926)) ;
#934=EDGE_LOOP('',(#935,#936)) ;
#944=EDGE_LOOP('',(#945,#946)) ;
#994=EDGE_LOOP('',(#995,#996,#997,#998,#999,#1000,#1001,#1002)) ;
#1015=EDGE_LOOP('',(#1016,#1017,#1018,#1019)) ;
#1046=EDGE_LOOP('',(#1047,#1048,#1049,#1050)) ;
#1058=EDGE_LOOP('',(#1059,#1060,#1061,#1062)) ;
#1089=EDGE_LOOP('',(#1090,#1091,#1092,#1093)) ;
#1101=EDGE_LOOP('',(#1102,#1103,#1104,#1105)) ;
#1132=EDGE_LOOP('',(#1133,#1134,#1135,#1136)) ;
#1144=EDGE_LOOP('',(#1145,#1146,#1147,#1148)) ;
#1175=EDGE_LOOP('',(#1176,#1177,#1178,#1179)) ;
#1187=EDGE_LOOP('',(#1188,#1189,#1190,#1191)) ;
#1216=EDGE_LOOP('',(#1217,#1218,#1219,#1220,#1221,#1222,#1223,#1224)) ;
#1251=EDGE_LOOP('',(#1252,#1253,#1254,#1255,#1256,#1257,#1258,#1259,#1260)) ;
#1262=EDGE_LOOP('',(#1263,#1264)) ;
#1266=EDGE_LOOP('',(#1267,#1268)) ;
#1270=EDGE_LOOP('',(#1271,#1272)) ;
#1274=EDGE_LOOP('',(#1275,#1276)) ;
#1289=EDGE_LOOP('',(#1290,#1291,#1292,#1293)) ;
#1301=EDGE_LOOP('',(#1302,#1303,#1304,#1305,#1306,#1307,#1308,#1309,#1310)) ;
#1326=EDGE_LOOP('',(#1327,#1328)) ;
#1344=EDGE_LOOP('',(#1345,#1346)) ;
#1362=EDGE_LOOP('',(#1363,#1364)) ;
#1380=EDGE_LOOP('',(#1381,#1382)) ;
#1385=EDGE_LOOP('',(#1386,#1387,#1388,#1389)) ;
#1402=EDGE_LOOP('',(#1403,#1404,#1405,#1406)) ;
#1409=EDGE_LOOP('',(#1410,#1411,#1412,#1413)) ;
#1426=EDGE_LOOP('',(#1427,#1428,#1429,#1430)) ;
#1433=EDGE_LOOP('',(#1434,#1435,#1436,#1437)) ;
#1450=EDGE_LOOP('',(#1451,#1452,#1453,#1454)) ;
#1457=EDGE_LOOP('',(#1458,#1459,#1460,#1461)) ;
#1474=EDGE_LOOP('',(#1475,#1476,#1477,#1478)) ;
#1481=EDGE_LOOP('',(#1482,#1483,#1484,#1485)) ;
#1493=EDGE_LOOP('',(#1494,#1495,#1496,#1497)) ;
#1519=EDGE_LOOP('',(#1520,#1521,#1522,#1523)) ;
#1531=EDGE_LOOP('',(#1532,#1533,#1534,#1535)) ;
#1543=EDGE_LOOP('',(#1544,#1545,#1546,#1547)) ;
#1555=EDGE_LOOP('',(#1556,#1557,#1558,#1559)) ;
#21=MANIFOLD_SOLID_BREP('Corps principal',#30) ;
#41=VERTEX_POINT('',#40) ;
#43=VERTEX_POINT('',#42) ;
#50=VERTEX_POINT('',#49) ;
#57=VERTEX_POINT('',#56) ;
#81=VERTEX_POINT('',#80) ;
#83=VERTEX_POINT('',#82) ;
#112=VERTEX_POINT('',#111) ;
#114=VERTEX_POINT('',#113) ;
#143=VERTEX_POINT('',#142) ;
#145=VERTEX_POINT('',#144) ;
#152=VERTEX_POINT('',#151) ;
#159=VERTEX_POINT('',#158) ;
#183=VERTEX_POINT('',#182) ;
#190=VERTEX_POINT('',#189) ;
#214=VERTEX_POINT('',#213) ;
#216=VERTEX_POINT('',#215) ;
#223=VERTEX_POINT('',#222) ;
#230=VERTEX_POINT('',#229) ;
#248=VERTEX_POINT('',#247) ;
#255=VERTEX_POINT('',#254) ;
#262=VERTEX_POINT('',#261) ;
#269=VERTEX_POINT('',#268) ;
#276=VERTEX_POINT('',#275) ;
#304=VERTEX_POINT('',#303) ;
#328=VERTEX_POINT('',#327) ;
#330=VERTEX_POINT('',#329) ;
#337=VERTEX_POINT('',#336) ;
#344=VERTEX_POINT('',#343) ;
#362=VERTEX_POINT('',#361) ;
#369=VERTEX_POINT('',#368) ;
#376=VERTEX_POINT('',#375) ;
#383=VERTEX_POINT('',#382) ;
#428=VERTEX_POINT('',#427) ;
#430=VERTEX_POINT('',#429) ;
#442=VERTEX_POINT('',#441) ;
#449=VERTEX_POINT('',#448) ;
#456=VERTEX_POINT('',#455) ;
#463=VERTEX_POINT('',#462) ;
#475=VERTEX_POINT('',#474) ;
#482=VERTEX_POINT('',#481) ;
#519=VERTEX_POINT('',#518) ;
#526=VERTEX_POINT('',#525) ;
#533=VERTEX_POINT('',#532) ;
#555=VERTEX_POINT('',#554) ;
#557=VERTEX_POINT('',#556) ;
#573=VERTEX_POINT('',#572) ;
#575=VERTEX_POINT('',#574) ;
#591=VERTEX_POINT('',#590) ;
#593=VERTEX_POINT('',#592) ;
#609=VERTEX_POINT('',#608) ;
#611=VERTEX_POINT('',#610) ;
#633=VERTEX_POINT('',#632) ;
#635=VERTEX_POINT('',#634) ;
#647=VERTEX_POINT('',#646) ;
#654=VERTEX_POINT('',#653) ;
#661=VERTEX_POINT('',#660) ;
#689=VERTEX_POINT('',#688) ;
#696=VERTEX_POINT('',#695) ;
#723=VERTEX_POINT('',#722) ;
#725=VERTEX_POINT('',#724) ;
#741=VERTEX_POINT('',#740) ;
#743=VERTEX_POINT('',#742) ;
#759=VERTEX_POINT('',#758) ;
#761=VERTEX_POINT('',#760) ;
#777=VERTEX_POINT('',#776) ;
#779=VERTEX_POINT('',#778) ;
#864=VERTEX_POINT('',#863) ;
#871=VERTEX_POINT('',#870) ;
#878=VERTEX_POINT('',#877) ;
#885=VERTEX_POINT('',#884) ;
#959=VERTEX_POINT('',#958) ;
#961=VERTEX_POINT('',#960) ;
#968=VERTEX_POINT('',#967) ;
#980=VERTEX_POINT('',#979) ;
#987=VERTEX_POINT('',#986) ;
#1032=VERTEX_POINT('',#1031) ;
#1039=VERTEX_POINT('',#1038) ;
#1075=VERTEX_POINT('',#1074) ;
#1082=VERTEX_POINT('',#1081) ;
#1118=VERTEX_POINT('',#1117) ;
#1125=VERTEX_POINT('',#1124) ;
#1161=VERTEX_POINT('',#1160) ;
#1168=VERTEX_POINT('',#1167) ;
#1199=VERTEX_POINT('',#1198) ;
#1232=VERTEX_POINT('',#1231) ;
#1239=VERTEX_POINT('',#1238) ;
#1317=VERTEX_POINT('',#1316) ;
#1319=VERTEX_POINT('',#1318) ;
#1335=VERTEX_POINT('',#1334) ;
#1337=VERTEX_POINT('',#1336) ;
#1353=VERTEX_POINT('',#1352) ;
#1355=VERTEX_POINT('',#1354) ;
#1371=VERTEX_POINT('',#1370) ;
#1373=VERTEX_POINT('',#1372) ;
#1505=VERTEX_POINT('',#1504) ;
#1507=VERTEX_POINT('',#1506) ;
#1562=ADVANCED_BREP_SHAPE_REPRESENTATION('NONE',(#21),#16) ;
#70=ADVANCED_FACE('Corps principal',(#69),#35,.F.) ;
#101=ADVANCED_FACE('Corps principal',(#100),#75,.F.) ;
#132=ADVANCED_FACE('Corps principal',(#131),#106,.F.) ;
#172=ADVANCED_FACE('Corps principal',(#171),#137,.F.) ;
#203=ADVANCED_FACE('Corps principal',(#202),#177,.F.) ;
#293=ADVANCED_FACE('Corps principal',(#242,#292),#208,.T.) ;
#317=ADVANCED_FACE('Corps principal',(#316),#298,.F.) ;
#400=ADVANCED_FACE('Corps principal',(#356,#399),#322,.T.) ;
#417=ADVANCED_FACE('Corps principal',(#416),#405,.F.) ;
#503=ADVANCED_FACE('Corps principal',(#502),#422,.T.) ;
#622=ADVANCED_FACE('Corps principal',(#549,#567,#585,#603,#621),#508,.F.) ;
#678=ADVANCED_FACE('Corps principal',(#677),#627,.T.) ;
#790=ADVANCED_FACE('Corps principal',(#717,#735,#753,#771,#789),#683,.T.) ;
#807=ADVANCED_FACE('Corps principal',(#806),#795,.F.) ;
#824=ADVANCED_FACE('Corps principal',(#823),#812,.F.) ;
#841=ADVANCED_FACE('Corps principal',(#840),#829,.F.) ;
#853=ADVANCED_FACE('Corps principal',(#852),#846,.F.) ;
#902=ADVANCED_FACE('Corps principal',(#901),#858,.T.) ;
#915=ADVANCED_FACE('Corps principal',(#914),#422,.T.) ;
#928=ADVANCED_FACE('Corps principal',(#927),#422,.T.) ;
#938=ADVANCED_FACE('Corps principal',(#937),#933,.F.) ;
#948=ADVANCED_FACE('Corps principal',(#947),#943,.T.) ;
#1004=ADVANCED_FACE('Corps principal',(#1003),#953,.T.) ;
#1021=ADVANCED_FACE('Corps principal',(#1020),#1009,.F.) ;
#1052=ADVANCED_FACE('Corps principal',(#1051),#1026,.F.) ;
#1064=ADVANCED_FACE('Corps principal',(#1063),#1026,.F.) ;
#1095=ADVANCED_FACE('Corps principal',(#1094),#1069,.F.) ;
#1107=ADVANCED_FACE('Corps principal',(#1106),#1069,.F.) ;
#1138=ADVANCED_FACE('Corps principal',(#1137),#1112,.F.) ;
#1150=ADVANCED_FACE('Corps principal',(#1149),#1112,.F.) ;
#1181=ADVANCED_FACE('Corps principal',(#1180),#1155,.F.) ;
#1193=ADVANCED_FACE('Corps principal',(#1192),#1155,.F.) ;
#1226=ADVANCED_FACE('Corps principal',(#1225),#953,.T.) ;
#1278=ADVANCED_FACE('Corps principal',(#1261,#1265,#1269,#1273,#1277),#795,.F.) ;
#1295=ADVANCED_FACE('Corps principal',(#1294),#1283,.F.) ;
#1384=ADVANCED_FACE('Corps principal',(#1311,#1329,#1347,#1365,#1383),#405,.F.) ;
#1391=ADVANCED_FACE('Corps principal',(#1390),#1009,.F.) ;
#1408=ADVANCED_FACE('Corps principal',(#1407),#1026,.F.) ;
#1415=ADVANCED_FACE('Corps principal',(#1414),#1026,.F.) ;
#1432=ADVANCED_FACE('Corps principal',(#1431),#1069,.F.) ;
#1439=ADVANCED_FACE('Corps principal',(#1438),#1069,.F.) ;
#1456=ADVANCED_FACE('Corps principal',(#1455),#1112,.F.) ;
#1463=ADVANCED_FACE('Corps principal',(#1462),#1112,.F.) ;
#1480=ADVANCED_FACE('Corps principal',(#1479),#1155,.F.) ;
#1487=ADVANCED_FACE('Corps principal',(#1486),#1155,.F.) ;
#1499=ADVANCED_FACE('Corps principal',(#1498),#1492,.T.) ;
#1525=ADVANCED_FACE('Corps principal',(#1524),#35,.F.) ;
#1537=ADVANCED_FACE('Corps principal',(#1536),#75,.F.) ;
#1549=ADVANCED_FACE('Corps principal',(#1548),#106,.F.) ;
#1561=ADVANCED_FACE('Corps principal',(#1560),#1554,.F.) ;
#4=APPLICATION_PROTOCOL_DEFINITION('international standard','ap242_managed_model_based_3d_engineering',2014,#1) ;
#22=COLOUR_RGB('Colour',0.823529411765,0.823529411765,1.) ;
#69=FACE_OUTER_BOUND('',#64,.T.) ;
#100=FACE_OUTER_BOUND('',#95,.T.) ;
#131=FACE_OUTER_BOUND('',#126,.T.) ;
#171=FACE_OUTER_BOUND('',#166,.T.) ;
#202=FACE_OUTER_BOUND('',#197,.T.) ;
#242=FACE_OUTER_BOUND('',#237,.T.) ;
#316=FACE_OUTER_BOUND('',#311,.T.) ;
#356=FACE_OUTER_BOUND('',#351,.T.) ;
#416=FACE_OUTER_BOUND('',#411,.T.) ;
#502=FACE_OUTER_BOUND('',#489,.T.) ;
#549=FACE_OUTER_BOUND('',#540,.T.) ;
#677=FACE_OUTER_BOUND('',#668,.T.) ;
#717=FACE_OUTER_BOUND('',#708,.T.) ;
#806=FACE_OUTER_BOUND('',#801,.T.) ;
#823=FACE_OUTER_BOUND('',#818,.T.) ;
#840=FACE_OUTER_BOUND('',#835,.T.) ;
#852=FACE_OUTER_BOUND('',#847,.T.) ;
#901=FACE_OUTER_BOUND('',#892,.T.) ;
#914=FACE_OUTER_BOUND('',#908,.T.) ;
#927=FACE_OUTER_BOUND('',#921,.T.) ;
#937=FACE_OUTER_BOUND('',#934,.T.) ;
#947=FACE_OUTER_BOUND('',#944,.T.) ;
#1003=FACE_OUTER_BOUND('',#994,.T.) ;
#1020=FACE_OUTER_BOUND('',#1015,.T.) ;
#1051=FACE_OUTER_BOUND('',#1046,.T.) ;
#1063=FACE_OUTER_BOUND('',#1058,.T.) ;
#1094=FACE_OUTER_BOUND('',#1089,.T.) ;
#1106=FACE_OUTER_BOUND('',#1101,.T.) ;
#1137=FACE_OUTER_BOUND('',#1132,.T.) ;
#1149=FACE_OUTER_BOUND('',#1144,.T.) ;
#1180=FACE_OUTER_BOUND('',#1175,.T.) ;
#1192=FACE_OUTER_BOUND('',#1187,.T.) ;
#1225=FACE_OUTER_BOUND('',#1216,.T.) ;
#1261=FACE_OUTER_BOUND('',#1251,.T.) ;
#1294=FACE_OUTER_BOUND('',#1289,.T.) ;
#1311=FACE_OUTER_BOUND('',#1301,.T.) ;
#1390=FACE_OUTER_BOUND('',#1385,.T.) ;
#1407=FACE_OUTER_BOUND('',#1402,.T.) ;
#1414=FACE_OUTER_BOUND('',#1409,.T.) ;
#1431=FACE_OUTER_BOUND('',#1426,.T.) ;
#1438=FACE_OUTER_BOUND('',#1433,.T.) ;
#1455=FACE_OUTER_BOUND('',#1450,.T.) ;
#1462=FACE_OUTER_BOUND('',#1457,.T.) ;
#1479=FACE_OUTER_BOUND('',#1474,.T.) ;
#1486=FACE_OUTER_BOUND('',#1481,.T.) ;
#1498=FACE_OUTER_BOUND('',#1493,.T.) ;
#1524=FACE_OUTER_BOUND('',#1519,.T.) ;
#1536=FACE_OUTER_BOUND('',#1531,.T.) ;
#1548=FACE_OUTER_BOUND('',#1543,.T.) ;
#1560=FACE_OUTER_BOUND('',#1555,.T.) ;
#9=PRODUCT_CATEGORY_RELATIONSHIP(' ',' ',#7,#8) ;
#6=PRODUCT_DEFINITION_FORMATION_WITH_SPECIFIED_SOURCE('',' ',#5,.NOT_KNOWN.) ;
#20=SHAPE_DEFINITION_REPRESENTATION(#11,#19) ;
#12=(LENGTH_UNIT()NAMED_UNIT(*)SI_UNIT(.MILLI.,.METRE.)) ;
#13=(NAMED_UNIT(*)PLANE_ANGLE_UNIT()SI_UNIT($,.RADIAN.)) ;
#14=(NAMED_UNIT(*)SI_UNIT($,.STERADIAN.)SOLID_ANGLE_UNIT()) ;
#16=(GEOMETRIC_REPRESENTATION_CONTEXT(3)GLOBAL_UNCERTAINTY_ASSIGNED_CONTEXT((#15))GLOBAL_UNIT_ASSIGNED_CONTEXT((#12,#13,#14))REPRESENTATION_CONTEXT(' ',' ')) ;
ENDSEC;
END-ISO-10303-21;
