ISO-10303-21;
HEADER;
/* Generated by software containing ST-Developer
 * from STEP Tools, Inc. (www.steptools.com) 
 */

FILE_DESCRIPTION(
/* description */ (''),
/* implementation_level */ '2;1');

FILE_NAME(
/* name */ 'arbre_roue.stp',
/* time_stamp */ '2025-04-08T16:53:36+02:00',
/* author */ ('enezl'),
/* organization */ (''),
/* preprocessor_version */ 'ST-DEVELOPER v20',
/* originating_system */ 'Autodesk Inventor 2025',
/* authorisation */ '');

FILE_SCHEMA (('AUTOMOTIVE_DESIGN { 1 0 10303 214 3 1 1 }'));
ENDSEC;

DATA;
#10=MECHANICAL_DESIGN_GEOMETRIC_PRESENTATION_REPRESENTATION('',(#13),#544);
#11=SHAPE_REPRESENTATION_RELATIONSHIP('SRR','None',#551,#12);
#12=ADVANCED_BREP_SHAPE_REPRESENTATION('',(#14),#543);
#13=STYLED_ITEM('',(#560),#14);
#14=MANIFOLD_SOLID_BREP('Solide1',#297);
#15=FACE_BOUND('',#60,.T.);
#16=FACE_BOUND('',#63,.T.);
#17=PLANE('',#327);
#18=PLANE('',#332);
#19=PLANE('',#335);
#20=PLANE('',#336);
#21=PLANE('',#338);
#22=PLANE('',#342);
#23=PLANE('',#347);
#24=PLANE('',#351);
#25=PLANE('',#355);
#26=CYLINDRICAL_SURFACE('',#324,3.00000000000003);
#27=CYLINDRICAL_SURFACE('',#333,3.00000000000005);
#28=CYLINDRICAL_SURFACE('',#340,2.50000000000004);
#29=CYLINDRICAL_SURFACE('',#344,3.00000000000004);
#30=CYLINDRICAL_SURFACE('',#349,4.00000000000004);
#31=CYLINDRICAL_SURFACE('',#353,5.00000000000004);
#32=CYLINDRICAL_SURFACE('',#357,4.00000000000004);
#33=FACE_OUTER_BOUND('',#51,.T.);
#34=FACE_OUTER_BOUND('',#52,.T.);
#35=FACE_OUTER_BOUND('',#53,.T.);
#36=FACE_OUTER_BOUND('',#54,.T.);
#37=FACE_OUTER_BOUND('',#55,.T.);
#38=FACE_OUTER_BOUND('',#56,.T.);
#39=FACE_OUTER_BOUND('',#57,.T.);
#40=FACE_OUTER_BOUND('',#58,.T.);
#41=FACE_OUTER_BOUND('',#59,.T.);
#42=FACE_OUTER_BOUND('',#61,.T.);
#43=FACE_OUTER_BOUND('',#62,.T.);
#44=FACE_OUTER_BOUND('',#64,.T.);
#45=FACE_OUTER_BOUND('',#65,.T.);
#46=FACE_OUTER_BOUND('',#66,.T.);
#47=FACE_OUTER_BOUND('',#67,.T.);
#48=FACE_OUTER_BOUND('',#68,.T.);
#49=FACE_OUTER_BOUND('',#69,.T.);
#50=FACE_OUTER_BOUND('',#70,.T.);
#51=EDGE_LOOP('',(#197,#198,#199,#200,#201));
#52=EDGE_LOOP('',(#202,#203,#204,#205,#206,#207));
#53=EDGE_LOOP('',(#208));
#54=EDGE_LOOP('',(#209,#210,#211,#212,#213));
#55=EDGE_LOOP('',(#214));
#56=EDGE_LOOP('',(#215,#216,#217,#218,#219));
#57=EDGE_LOOP('',(#220,#221,#222,#223,#224,#225,#226,#227,#228,#229,#230,
#231,#232,#233));
#58=EDGE_LOOP('',(#234,#235,#236,#237,#238));
#59=EDGE_LOOP('',(#239));
#60=EDGE_LOOP('',(#240));
#61=EDGE_LOOP('',(#241,#242,#243,#244));
#62=EDGE_LOOP('',(#245));
#63=EDGE_LOOP('',(#246));
#64=EDGE_LOOP('',(#247,#248,#249,#250,#251));
#65=EDGE_LOOP('',(#252,#253,#254,#255,#256));
#66=EDGE_LOOP('',(#257,#258,#259,#260));
#67=EDGE_LOOP('',(#261,#262,#263,#264));
#68=EDGE_LOOP('',(#265,#266,#267,#268));
#69=EDGE_LOOP('',(#269,#270,#271,#272));
#70=EDGE_LOOP('',(#273,#274,#275,#276));
#71=LINE('',#461,#91);
#72=LINE('',#467,#92);
#73=LINE('',#478,#93);
#74=LINE('',#484,#94);
#75=LINE('',#488,#95);
#76=LINE('',#490,#96);
#77=LINE('',#492,#97);
#78=LINE('',#494,#98);
#79=LINE('',#496,#99);
#80=LINE('',#498,#100);
#81=LINE('',#500,#101);
#82=LINE('',#502,#102);
#83=LINE('',#504,#103);
#84=LINE('',#506,#104);
#85=LINE('',#508,#105);
#86=LINE('',#510,#106);
#87=LINE('',#511,#107);
#88=LINE('',#512,#108);
#89=LINE('',#521,#109);
#90=LINE('',#529,#110);
#91=VECTOR('',#364,2.75000000000003);
#92=VECTOR('',#371,3.00000000000003);
#93=VECTOR('',#384,2.75000000000004);
#94=VECTOR('',#393,3.00000000000005);
#95=VECTOR('',#396,10.);
#96=VECTOR('',#397,10.);
#97=VECTOR('',#398,10.);
#98=VECTOR('',#399,10.);
#99=VECTOR('',#400,10.);
#100=VECTOR('',#401,10.);
#101=VECTOR('',#402,10.);
#102=VECTOR('',#403,10.);
#103=VECTOR('',#404,10.);
#104=VECTOR('',#405,10.);
#105=VECTOR('',#406,10.);
#106=VECTOR('',#407,10.);
#107=VECTOR('',#408,10.);
#108=VECTOR('',#409,10.);
#109=VECTOR('',#422,2.50000000000004);
#110=VECTOR('',#433,3.00000000000004);
#111=CIRCLE('',#321,2.50000000000003);
#112=CIRCLE('',#322,3.00000000000003);
#113=CIRCLE('',#323,3.00000000000003);
#114=CIRCLE('',#325,3.00000000000003);
#115=CIRCLE('',#326,3.00000000000003);
#116=CIRCLE('',#329,3.00000000000005);
#117=CIRCLE('',#330,3.00000000000005);
#118=CIRCLE('',#331,2.50000000000005);
#119=CIRCLE('',#334,3.00000000000004);
#120=CIRCLE('',#337,4.00000000000003);
#121=CIRCLE('',#339,2.50000000000004);
#122=CIRCLE('',#341,2.50000000000004);
#123=CIRCLE('',#343,3.00000000000004);
#124=CIRCLE('',#345,3.00000000000004);
#125=CIRCLE('',#346,3.00000000000004);
#126=CIRCLE('',#348,4.00000000000004);
#127=CIRCLE('',#350,4.00000000000004);
#128=CIRCLE('',#352,5.00000000000004);
#129=CIRCLE('',#354,5.00000000000004);
#130=CIRCLE('',#356,4.00000000000004);
#131=VERTEX_POINT('',#458);
#132=VERTEX_POINT('',#460);
#133=VERTEX_POINT('',#462);
#134=VERTEX_POINT('',#466);
#135=VERTEX_POINT('',#468);
#136=VERTEX_POINT('',#473);
#137=VERTEX_POINT('',#474);
#138=VERTEX_POINT('',#477);
#139=VERTEX_POINT('',#482);
#140=VERTEX_POINT('',#486);
#141=VERTEX_POINT('',#487);
#142=VERTEX_POINT('',#489);
#143=VERTEX_POINT('',#491);
#144=VERTEX_POINT('',#493);
#145=VERTEX_POINT('',#495);
#146=VERTEX_POINT('',#497);
#147=VERTEX_POINT('',#499);
#148=VERTEX_POINT('',#501);
#149=VERTEX_POINT('',#503);
#150=VERTEX_POINT('',#505);
#151=VERTEX_POINT('',#507);
#152=VERTEX_POINT('',#509);
#153=VERTEX_POINT('',#516);
#154=VERTEX_POINT('',#519);
#155=VERTEX_POINT('',#523);
#156=VERTEX_POINT('',#526);
#157=EDGE_CURVE('',#131,#131,#111,.T.);
#158=EDGE_CURVE('',#131,#132,#71,.T.);
#159=EDGE_CURVE('',#132,#133,#112,.T.);
#160=EDGE_CURVE('',#133,#132,#113,.T.);
#161=EDGE_CURVE('',#133,#134,#72,.T.);
#162=EDGE_CURVE('',#134,#135,#114,.T.);
#163=EDGE_CURVE('',#135,#134,#115,.T.);
#164=EDGE_CURVE('',#136,#137,#116,.T.);
#165=EDGE_CURVE('',#137,#136,#117,.T.);
#166=EDGE_CURVE('',#136,#138,#73,.T.);
#167=EDGE_CURVE('',#138,#138,#118,.T.);
#168=EDGE_CURVE('',#139,#139,#119,.T.);
#169=EDGE_CURVE('',#139,#137,#74,.T.);
#170=EDGE_CURVE('',#140,#141,#75,.T.);
#171=EDGE_CURVE('',#142,#140,#76,.T.);
#172=EDGE_CURVE('',#143,#142,#77,.T.);
#173=EDGE_CURVE('',#144,#143,#78,.T.);
#174=EDGE_CURVE('',#145,#144,#79,.T.);
#175=EDGE_CURVE('',#146,#145,#80,.T.);
#176=EDGE_CURVE('',#147,#146,#81,.T.);
#177=EDGE_CURVE('',#148,#147,#82,.T.);
#178=EDGE_CURVE('',#149,#148,#83,.T.);
#179=EDGE_CURVE('',#150,#149,#84,.T.);
#180=EDGE_CURVE('',#151,#150,#85,.T.);
#181=EDGE_CURVE('',#152,#151,#86,.T.);
#182=EDGE_CURVE('',#135,#152,#87,.T.);
#183=EDGE_CURVE('',#141,#135,#88,.T.);
#184=EDGE_CURVE('',#152,#141,#120,.T.);
#185=EDGE_CURVE('',#153,#153,#121,.T.);
#186=EDGE_CURVE('',#154,#154,#122,.T.);
#187=EDGE_CURVE('',#154,#153,#89,.T.);
#188=EDGE_CURVE('',#155,#155,#123,.T.);
#189=EDGE_CURVE('',#146,#156,#124,.T.);
#190=EDGE_CURVE('',#156,#146,#125,.T.);
#191=EDGE_CURVE('',#156,#155,#90,.T.);
#192=EDGE_CURVE('',#147,#145,#126,.T.);
#193=EDGE_CURVE('',#148,#144,#127,.T.);
#194=EDGE_CURVE('',#149,#143,#128,.T.);
#195=EDGE_CURVE('',#150,#142,#129,.T.);
#196=EDGE_CURVE('',#151,#140,#130,.T.);
#197=ORIENTED_EDGE('',*,*,#157,.T.);
#198=ORIENTED_EDGE('',*,*,#158,.T.);
#199=ORIENTED_EDGE('',*,*,#159,.T.);
#200=ORIENTED_EDGE('',*,*,#160,.T.);
#201=ORIENTED_EDGE('',*,*,#158,.F.);
#202=ORIENTED_EDGE('',*,*,#159,.F.);
#203=ORIENTED_EDGE('',*,*,#160,.F.);
#204=ORIENTED_EDGE('',*,*,#161,.T.);
#205=ORIENTED_EDGE('',*,*,#162,.T.);
#206=ORIENTED_EDGE('',*,*,#163,.T.);
#207=ORIENTED_EDGE('',*,*,#161,.F.);
#208=ORIENTED_EDGE('',*,*,#157,.F.);
#209=ORIENTED_EDGE('',*,*,#164,.T.);
#210=ORIENTED_EDGE('',*,*,#165,.T.);
#211=ORIENTED_EDGE('',*,*,#166,.T.);
#212=ORIENTED_EDGE('',*,*,#167,.T.);
#213=ORIENTED_EDGE('',*,*,#166,.F.);
#214=ORIENTED_EDGE('',*,*,#167,.F.);
#215=ORIENTED_EDGE('',*,*,#168,.F.);
#216=ORIENTED_EDGE('',*,*,#169,.T.);
#217=ORIENTED_EDGE('',*,*,#164,.F.);
#218=ORIENTED_EDGE('',*,*,#165,.F.);
#219=ORIENTED_EDGE('',*,*,#169,.F.);
#220=ORIENTED_EDGE('',*,*,#170,.F.);
#221=ORIENTED_EDGE('',*,*,#171,.F.);
#222=ORIENTED_EDGE('',*,*,#172,.F.);
#223=ORIENTED_EDGE('',*,*,#173,.F.);
#224=ORIENTED_EDGE('',*,*,#174,.F.);
#225=ORIENTED_EDGE('',*,*,#175,.F.);
#226=ORIENTED_EDGE('',*,*,#176,.F.);
#227=ORIENTED_EDGE('',*,*,#177,.F.);
#228=ORIENTED_EDGE('',*,*,#178,.F.);
#229=ORIENTED_EDGE('',*,*,#179,.F.);
#230=ORIENTED_EDGE('',*,*,#180,.F.);
#231=ORIENTED_EDGE('',*,*,#181,.F.);
#232=ORIENTED_EDGE('',*,*,#182,.F.);
#233=ORIENTED_EDGE('',*,*,#183,.F.);
#234=ORIENTED_EDGE('',*,*,#183,.T.);
#235=ORIENTED_EDGE('',*,*,#162,.F.);
#236=ORIENTED_EDGE('',*,*,#163,.F.);
#237=ORIENTED_EDGE('',*,*,#182,.T.);
#238=ORIENTED_EDGE('',*,*,#184,.T.);
#239=ORIENTED_EDGE('',*,*,#168,.T.);
#240=ORIENTED_EDGE('',*,*,#185,.F.);
#241=ORIENTED_EDGE('',*,*,#186,.F.);
#242=ORIENTED_EDGE('',*,*,#187,.T.);
#243=ORIENTED_EDGE('',*,*,#185,.T.);
#244=ORIENTED_EDGE('',*,*,#187,.F.);
#245=ORIENTED_EDGE('',*,*,#188,.F.);
#246=ORIENTED_EDGE('',*,*,#186,.T.);
#247=ORIENTED_EDGE('',*,*,#189,.F.);
#248=ORIENTED_EDGE('',*,*,#190,.F.);
#249=ORIENTED_EDGE('',*,*,#191,.T.);
#250=ORIENTED_EDGE('',*,*,#188,.T.);
#251=ORIENTED_EDGE('',*,*,#191,.F.);
#252=ORIENTED_EDGE('',*,*,#175,.T.);
#253=ORIENTED_EDGE('',*,*,#192,.F.);
#254=ORIENTED_EDGE('',*,*,#176,.T.);
#255=ORIENTED_EDGE('',*,*,#189,.T.);
#256=ORIENTED_EDGE('',*,*,#190,.T.);
#257=ORIENTED_EDGE('',*,*,#174,.T.);
#258=ORIENTED_EDGE('',*,*,#193,.F.);
#259=ORIENTED_EDGE('',*,*,#177,.T.);
#260=ORIENTED_EDGE('',*,*,#192,.T.);
#261=ORIENTED_EDGE('',*,*,#173,.T.);
#262=ORIENTED_EDGE('',*,*,#194,.F.);
#263=ORIENTED_EDGE('',*,*,#178,.T.);
#264=ORIENTED_EDGE('',*,*,#193,.T.);
#265=ORIENTED_EDGE('',*,*,#172,.T.);
#266=ORIENTED_EDGE('',*,*,#195,.F.);
#267=ORIENTED_EDGE('',*,*,#179,.T.);
#268=ORIENTED_EDGE('',*,*,#194,.T.);
#269=ORIENTED_EDGE('',*,*,#171,.T.);
#270=ORIENTED_EDGE('',*,*,#196,.F.);
#271=ORIENTED_EDGE('',*,*,#180,.T.);
#272=ORIENTED_EDGE('',*,*,#195,.T.);
#273=ORIENTED_EDGE('',*,*,#170,.T.);
#274=ORIENTED_EDGE('',*,*,#184,.F.);
#275=ORIENTED_EDGE('',*,*,#181,.T.);
#276=ORIENTED_EDGE('',*,*,#196,.T.);
#277=CONICAL_SURFACE('',#320,2.75000000000003,0.785398163397456);
#278=CONICAL_SURFACE('',#328,2.75000000000005,0.785398163397447);
#279=ADVANCED_FACE('',(#33),#277,.T.);
#280=ADVANCED_FACE('',(#34),#26,.T.);
#281=ADVANCED_FACE('',(#35),#17,.T.);
#282=ADVANCED_FACE('',(#36),#278,.T.);
#283=ADVANCED_FACE('',(#37),#18,.T.);
#284=ADVANCED_FACE('',(#38),#27,.T.);
#285=ADVANCED_FACE('',(#39),#19,.F.);
#286=ADVANCED_FACE('',(#40),#20,.T.);
#287=ADVANCED_FACE('',(#41,#15),#21,.T.);
#288=ADVANCED_FACE('',(#42),#28,.T.);
#289=ADVANCED_FACE('',(#43,#16),#22,.T.);
#290=ADVANCED_FACE('',(#44),#29,.T.);
#291=ADVANCED_FACE('',(#45),#23,.T.);
#292=ADVANCED_FACE('',(#46),#30,.T.);
#293=ADVANCED_FACE('',(#47),#24,.T.);
#294=ADVANCED_FACE('',(#48),#31,.T.);
#295=ADVANCED_FACE('',(#49),#25,.T.);
#296=ADVANCED_FACE('',(#50),#32,.T.);
#297=CLOSED_SHELL('',(#279,#280,#281,#282,#283,#284,#285,#286,#287,#288,
#289,#290,#291,#292,#293,#294,#295,#296));
#298=DERIVED_UNIT_ELEMENT(#301,1.);
#299=DERIVED_UNIT_ELEMENT(#546,-3.);
#300=DIMENSIONAL_EXPONENTS(0.,1.,0.,0.,0.,0.,0.);
#301=(
CONVERSION_BASED_UNIT('gram',#303)
MASS_UNIT()
NAMED_UNIT(#300)
);
#302=(
MASS_UNIT()
NAMED_UNIT(*)
SI_UNIT(.KILO.,.GRAM.)
);
#303=MASS_MEASURE_WITH_UNIT(MASS_MEASURE(0.001),#302);
#304=DERIVED_UNIT((#298,#299));
#305=MEASURE_REPRESENTATION_ITEM('density measure',
POSITIVE_RATIO_MEASURE(1.),#304);
#306=PROPERTY_DEFINITION_REPRESENTATION(#311,#308);
#307=PROPERTY_DEFINITION_REPRESENTATION(#312,#309);
#308=REPRESENTATION('material name',(#310),#543);
#309=REPRESENTATION('density',(#305),#543);
#310=DESCRIPTIVE_REPRESENTATION_ITEM('G\X\E9n\X\E9rique','G\X\E9n\X\E9
rique');
#311=PROPERTY_DEFINITION('material property','material name',#553);
#312=PROPERTY_DEFINITION('material property','density of part',#553);
#313=DATE_TIME_ROLE('creation_date');
#314=APPLIED_DATE_AND_TIME_ASSIGNMENT(#315,#313,(#553));
#315=DATE_AND_TIME(#316,#317);
#316=CALENDAR_DATE(2025,27,3);
#317=LOCAL_TIME(0,0,0.,#318);
#318=COORDINATED_UNIVERSAL_TIME_OFFSET(0,0,.BEHIND.);
#319=AXIS2_PLACEMENT_3D('',#456,#358,#359);
#320=AXIS2_PLACEMENT_3D('',#457,#360,#361);
#321=AXIS2_PLACEMENT_3D('',#459,#362,#363);
#322=AXIS2_PLACEMENT_3D('',#463,#365,#366);
#323=AXIS2_PLACEMENT_3D('',#464,#367,#368);
#324=AXIS2_PLACEMENT_3D('',#465,#369,#370);
#325=AXIS2_PLACEMENT_3D('',#469,#372,#373);
#326=AXIS2_PLACEMENT_3D('',#470,#374,#375);
#327=AXIS2_PLACEMENT_3D('',#471,#376,#377);
#328=AXIS2_PLACEMENT_3D('',#472,#378,#379);
#329=AXIS2_PLACEMENT_3D('',#475,#380,#381);
#330=AXIS2_PLACEMENT_3D('',#476,#382,#383);
#331=AXIS2_PLACEMENT_3D('',#479,#385,#386);
#332=AXIS2_PLACEMENT_3D('',#480,#387,#388);
#333=AXIS2_PLACEMENT_3D('',#481,#389,#390);
#334=AXIS2_PLACEMENT_3D('',#483,#391,#392);
#335=AXIS2_PLACEMENT_3D('',#485,#394,#395);
#336=AXIS2_PLACEMENT_3D('',#513,#410,#411);
#337=AXIS2_PLACEMENT_3D('',#514,#412,#413);
#338=AXIS2_PLACEMENT_3D('',#515,#414,#415);
#339=AXIS2_PLACEMENT_3D('',#517,#416,#417);
#340=AXIS2_PLACEMENT_3D('',#518,#418,#419);
#341=AXIS2_PLACEMENT_3D('',#520,#420,#421);
#342=AXIS2_PLACEMENT_3D('',#522,#423,#424);
#343=AXIS2_PLACEMENT_3D('',#524,#425,#426);
#344=AXIS2_PLACEMENT_3D('',#525,#427,#428);
#345=AXIS2_PLACEMENT_3D('',#527,#429,#430);
#346=AXIS2_PLACEMENT_3D('',#528,#431,#432);
#347=AXIS2_PLACEMENT_3D('',#530,#434,#435);
#348=AXIS2_PLACEMENT_3D('',#531,#436,#437);
#349=AXIS2_PLACEMENT_3D('',#532,#438,#439);
#350=AXIS2_PLACEMENT_3D('',#533,#440,#441);
#351=AXIS2_PLACEMENT_3D('',#534,#442,#443);
#352=AXIS2_PLACEMENT_3D('',#535,#444,#445);
#353=AXIS2_PLACEMENT_3D('',#536,#446,#447);
#354=AXIS2_PLACEMENT_3D('',#537,#448,#449);
#355=AXIS2_PLACEMENT_3D('',#538,#450,#451);
#356=AXIS2_PLACEMENT_3D('',#539,#452,#453);
#357=AXIS2_PLACEMENT_3D('',#540,#454,#455);
#358=DIRECTION('axis',(0.,0.,1.));
#359=DIRECTION('refdir',(1.,0.,0.));
#360=DIRECTION('center_axis',(0.,-6.12323399573679E-16,1.));
#361=DIRECTION('ref_axis',(0.,-1.,-2.78328817988035E-16));
#362=DIRECTION('center_axis',(0.,-6.12323399573677E-16,1.));
#363=DIRECTION('ref_axis',(0.,-1.,-6.12323399573677E-16));
#364=DIRECTION('',(8.65956056235499E-17,0.707106781186551,0.707106781186544));
#365=DIRECTION('center_axis',(0.,6.12323399573677E-16,-1.));
#366=DIRECTION('ref_axis',(0.,-1.,0.));
#367=DIRECTION('center_axis',(0.,6.12323399573677E-16,-1.));
#368=DIRECTION('ref_axis',(0.,-1.,0.));
#369=DIRECTION('center_axis',(0.,6.12323399573677E-16,-1.));
#370=DIRECTION('ref_axis',(0.,1.,0.));
#371=DIRECTION('',(0.,-6.12323399573677E-16,1.));
#372=DIRECTION('center_axis',(0.,6.12323399573677E-16,-1.));
#373=DIRECTION('ref_axis',(1.,0.,0.));
#374=DIRECTION('center_axis',(0.,6.12323399573677E-16,-1.));
#375=DIRECTION('ref_axis',(1.,0.,0.));
#376=DIRECTION('center_axis',(0.,6.12323399573677E-16,-1.));
#377=DIRECTION('ref_axis',(-1.,0.,0.));
#378=DIRECTION('center_axis',(0.,6.12323399573678E-16,-1.));
#379=DIRECTION('ref_axis',(0.,-1.,-2.78328817988035E-16));
#380=DIRECTION('center_axis',(0.,-6.12323399573677E-16,1.));
#381=DIRECTION('ref_axis',(0.,-1.,0.));
#382=DIRECTION('center_axis',(0.,-6.12323399573677E-16,1.));
#383=DIRECTION('ref_axis',(0.,-1.,0.));
#384=DIRECTION('',(-8.65956056235494E-17,-0.707106781186548,0.707106781186547));
#385=DIRECTION('center_axis',(0.,6.12323399573677E-16,-1.));
#386=DIRECTION('ref_axis',(0.,-1.,-6.12323399573677E-16));
#387=DIRECTION('center_axis',(0.,-6.12323399573677E-16,1.));
#388=DIRECTION('ref_axis',(1.,0.,0.));
#389=DIRECTION('center_axis',(0.,6.12323399573677E-16,-1.));
#390=DIRECTION('ref_axis',(0.,1.,0.));
#391=DIRECTION('center_axis',(0.,6.12323399573677E-16,-1.));
#392=DIRECTION('ref_axis',(1.,0.,0.));
#393=DIRECTION('',(0.,-6.12323399573677E-16,1.));
#394=DIRECTION('center_axis',(0.,-1.,-2.77555756156289E-16));
#395=DIRECTION('ref_axis',(0.,2.77555756156289E-16,-1.));
#396=DIRECTION('',(0.,6.12323399573677E-16,-1.));
#397=DIRECTION('',(1.,0.,0.));
#398=DIRECTION('',(0.,6.12323399573677E-16,-1.));
#399=DIRECTION('',(-1.,0.,0.));
#400=DIRECTION('',(0.,6.12323399573677E-16,-1.));
#401=DIRECTION('',(-1.,0.,0.));
#402=DIRECTION('',(-1.,0.,0.));
#403=DIRECTION('',(0.,-6.12323399573677E-16,1.));
#404=DIRECTION('',(-1.,0.,0.));
#405=DIRECTION('',(0.,-6.12323399573677E-16,1.));
#406=DIRECTION('',(1.,0.,0.));
#407=DIRECTION('',(0.,-6.12323399573677E-16,1.));
#408=DIRECTION('',(1.,0.,0.));
#409=DIRECTION('',(1.,0.,0.));
#410=DIRECTION('center_axis',(0.,6.12323399573677E-16,-1.));
#411=DIRECTION('ref_axis',(-1.,0.,0.));
#412=DIRECTION('center_axis',(0.,6.12323399573677E-16,-1.));
#413=DIRECTION('ref_axis',(1.,0.,0.));
#414=DIRECTION('center_axis',(0.,6.12323399573677E-16,-1.));
#415=DIRECTION('ref_axis',(-1.,0.,0.));
#416=DIRECTION('center_axis',(0.,6.12323399573677E-16,-1.));
#417=DIRECTION('ref_axis',(1.,0.,0.));
#418=DIRECTION('center_axis',(0.,6.12323399573677E-16,-1.));
#419=DIRECTION('ref_axis',(0.,1.,0.));
#420=DIRECTION('center_axis',(0.,6.12323399573677E-16,-1.));
#421=DIRECTION('ref_axis',(1.,0.,0.));
#422=DIRECTION('',(0.,-6.12323399573677E-16,1.));
#423=DIRECTION('center_axis',(0.,-6.12323399573677E-16,1.));
#424=DIRECTION('ref_axis',(1.,0.,0.));
#425=DIRECTION('center_axis',(0.,6.12323399573677E-16,-1.));
#426=DIRECTION('ref_axis',(1.,0.,0.));
#427=DIRECTION('center_axis',(0.,6.12323399573677E-16,-1.));
#428=DIRECTION('ref_axis',(0.,1.,0.));
#429=DIRECTION('center_axis',(0.,6.12323399573677E-16,-1.));
#430=DIRECTION('ref_axis',(1.,0.,0.));
#431=DIRECTION('center_axis',(0.,6.12323399573677E-16,-1.));
#432=DIRECTION('ref_axis',(1.,0.,0.));
#433=DIRECTION('',(0.,-6.12323399573677E-16,1.));
#434=DIRECTION('center_axis',(0.,-6.12323399573677E-16,1.));
#435=DIRECTION('ref_axis',(1.,0.,0.));
#436=DIRECTION('center_axis',(0.,6.12323399573677E-16,-1.));
#437=DIRECTION('ref_axis',(1.,0.,0.));
#438=DIRECTION('center_axis',(0.,6.12323399573677E-16,-1.));
#439=DIRECTION('ref_axis',(-1.22464679914735E-16,-1.,-1.22464679914735E-15));
#440=DIRECTION('center_axis',(0.,6.12323399573677E-16,-1.));
#441=DIRECTION('ref_axis',(1.,0.,0.));
#442=DIRECTION('center_axis',(0.,-6.12323399573677E-16,1.));
#443=DIRECTION('ref_axis',(1.,0.,0.));
#444=DIRECTION('center_axis',(0.,6.12323399573677E-16,-1.));
#445=DIRECTION('ref_axis',(1.,0.,0.));
#446=DIRECTION('center_axis',(0.,6.12323399573677E-16,-1.));
#447=DIRECTION('ref_axis',(-1.22464679914735E-16,-1.,-1.22464679914735E-15));
#448=DIRECTION('center_axis',(0.,6.12323399573677E-16,-1.));
#449=DIRECTION('ref_axis',(1.,0.,0.));
#450=DIRECTION('center_axis',(0.,6.12323399573677E-16,-1.));
#451=DIRECTION('ref_axis',(-1.,0.,0.));
#452=DIRECTION('center_axis',(0.,6.12323399573677E-16,-1.));
#453=DIRECTION('ref_axis',(1.,0.,0.));
#454=DIRECTION('center_axis',(0.,6.12323399573677E-16,-1.));
#455=DIRECTION('ref_axis',(-1.22464679914735E-16,-1.,-1.22464679914735E-15));
#456=CARTESIAN_POINT('',(0.,0.,0.));
#457=CARTESIAN_POINT('Origin',(0.,-2.81288991097423E-14,-5.75));
#458=CARTESIAN_POINT('',(-3.06161699786842E-16,2.5,-6.));
#459=CARTESIAN_POINT('Origin',(0.,-2.79758182598489E-14,-6.));
#460=CARTESIAN_POINT('',(3.6739403974421E-16,3.,-5.5));
#461=CARTESIAN_POINT('',(3.36777869765526E-16,2.75,-5.75));
#462=CARTESIAN_POINT('',(-3.6739403974421E-16,-3.00000000000006,-5.5));
#463=CARTESIAN_POINT('Origin',(0.,-2.82819799596357E-14,-5.5));
#464=CARTESIAN_POINT('Origin',(0.,-2.82819799596357E-14,-5.5));
#465=CARTESIAN_POINT('Origin',(0.,-2.98127884585699E-14,-3.));
#466=CARTESIAN_POINT('',(-3.6739403974421E-16,-3.00000000000006,1.66533453693773E-15));
#467=CARTESIAN_POINT('',(-3.6739403974421E-16,-3.00000000000006,-3.));
#468=CARTESIAN_POINT('',(0.,3.,2.22044604925031E-15));
#469=CARTESIAN_POINT('Origin',(0.,-3.16497586572909E-14,3.83475850529263E-16));
#470=CARTESIAN_POINT('Origin',(0.,-3.16497586572909E-14,3.83475850529263E-16));
#471=CARTESIAN_POINT('Origin',(0.,7.34788079488412E-16,-6.));
#472=CARTESIAN_POINT('Origin',(0.,-6.33374945852287E-14,51.75));
#473=CARTESIAN_POINT('',(-3.67394039744212E-16,2.99999999999998,51.5));
#474=CARTESIAN_POINT('',(-3.67394039744212E-16,-3.00000000000011,51.5));
#475=CARTESIAN_POINT('Origin',(0.,-6.31844137353353E-14,51.5));
#476=CARTESIAN_POINT('Origin',(0.,-6.31844137353353E-14,51.5));
#477=CARTESIAN_POINT('',(3.06161699786844E-16,2.49999999999998,52.));
#478=CARTESIAN_POINT('',(3.36777869765528E-16,2.74999999999998,51.75));
#479=CARTESIAN_POINT('Origin',(0.,-6.34905754351221E-14,52.));
#480=CARTESIAN_POINT('Origin',(0.,2.99999999999998,52.));
#481=CARTESIAN_POINT('Origin',(0.,-6.0888200986934E-14,47.75));
#482=CARTESIAN_POINT('',(-3.67394039744212E-16,-3.0000000000001,43.5));
#483=CARTESIAN_POINT('Origin',(0.,-5.82858265387459E-14,43.5));
#484=CARTESIAN_POINT('',(-3.67394039744212E-16,-3.00000000000011,47.75));
#485=CARTESIAN_POINT('Origin',(0.,2.99999999999998,32.));
#486=CARTESIAN_POINT('',(-2.64575131106462,2.99999999999999,13.));
#487=CARTESIAN_POINT('',(-2.64575131106462,2.99999999999999,2.22044604925031E-15));
#488=CARTESIAN_POINT('',(-2.64575131106462,2.99999999999999,6.5));
#489=CARTESIAN_POINT('',(-4.00000000000003,2.99999999999999,13.));
#490=CARTESIAN_POINT('',(0.,2.99999999999999,13.));
#491=CARTESIAN_POINT('',(-4.00000000000003,2.99999999999999,15.));
#492=CARTESIAN_POINT('',(-4.00000000000003,2.99999999999999,14.));
#493=CARTESIAN_POINT('',(-2.64575131106462,2.99999999999999,15.));
#494=CARTESIAN_POINT('',(0.,2.99999999999999,15.));
#495=CARTESIAN_POINT('',(-2.64575131106461,2.99999999999998,32.));
#496=CARTESIAN_POINT('',(-2.64575131106462,2.99999999999998,23.5));
#497=CARTESIAN_POINT('',(0.,2.99999999999999,32.));
#498=CARTESIAN_POINT('',(0.,2.99999999999998,32.));
#499=CARTESIAN_POINT('',(2.64575131106461,2.99999999999998,32.));
#500=CARTESIAN_POINT('',(0.,2.99999999999998,32.));
#501=CARTESIAN_POINT('',(2.64575131106462,2.99999999999999,15.));
#502=CARTESIAN_POINT('',(2.64575131106462,2.99999999999998,23.5));
#503=CARTESIAN_POINT('',(4.00000000000003,2.99999999999999,15.));
#504=CARTESIAN_POINT('',(0.,2.99999999999999,15.));
#505=CARTESIAN_POINT('',(4.00000000000003,2.99999999999999,13.));
#506=CARTESIAN_POINT('',(4.00000000000003,2.99999999999999,14.));
#507=CARTESIAN_POINT('',(2.64575131106462,2.99999999999999,13.));
#508=CARTESIAN_POINT('',(0.,2.99999999999999,13.));
#509=CARTESIAN_POINT('',(2.64575131106462,2.99999999999999,2.22044604925031E-15));
#510=CARTESIAN_POINT('',(2.64575131106462,2.99999999999999,6.5));
#511=CARTESIAN_POINT('',(0.,2.99999999999999,2.22044604925031E-15));
#512=CARTESIAN_POINT('',(0.,2.99999999999999,2.22044604925031E-15));
#513=CARTESIAN_POINT('Origin',(0.,3.,2.22044604925031E-15));
#514=CARTESIAN_POINT('Origin',(0.,-3.16497586572909E-14,-2.28847549044415E-16));
#515=CARTESIAN_POINT('Origin',(0.,2.49999999999999,43.5));
#516=CARTESIAN_POINT('',(-3.06161699786844E-16,-2.5000000000001,43.5));
#517=CARTESIAN_POINT('Origin',(0.,-5.82858265387459E-14,43.5));
#518=CARTESIAN_POINT('Origin',(0.,-5.62957754901314E-14,40.25));
#519=CARTESIAN_POINT('',(-3.06161699786844E-16,-2.5000000000001,37.));
#520=CARTESIAN_POINT('Origin',(0.,-5.4305724441517E-14,37.));
#521=CARTESIAN_POINT('',(-3.06161699786844E-16,-2.5000000000001,40.25));
#522=CARTESIAN_POINT('Origin',(0.,2.99999999999999,37.));
#523=CARTESIAN_POINT('',(-3.67394039744211E-16,-3.0000000000001,37.));
#524=CARTESIAN_POINT('Origin',(0.,-5.4305724441517E-14,37.));
#525=CARTESIAN_POINT('Origin',(0.,-5.27749159425828E-14,34.5));
#526=CARTESIAN_POINT('',(-3.67394039744211E-16,-3.00000000000009,32.));
#527=CARTESIAN_POINT('Origin',(0.,-5.12441074436486E-14,32.));
#528=CARTESIAN_POINT('Origin',(0.,-5.12441074436486E-14,32.));
#529=CARTESIAN_POINT('',(-3.67394039744211E-16,-3.0000000000001,34.5));
#530=CARTESIAN_POINT('Origin',(0.,3.99999999999999,32.));
#531=CARTESIAN_POINT('Origin',(0.,-5.12441074436486E-14,32.));
#532=CARTESIAN_POINT('Origin',(0.,-4.60393585472723E-14,23.5));
#533=CARTESIAN_POINT('Origin',(0.,-4.08346096508961E-14,15.));
#534=CARTESIAN_POINT('Origin',(0.,5.,15.));
#535=CARTESIAN_POINT('Origin',(0.,-4.08346096508961E-14,15.));
#536=CARTESIAN_POINT('Origin',(0.,-4.02222862513224E-14,14.));
#537=CARTESIAN_POINT('Origin',(0.,-3.96099628517487E-14,13.));
#538=CARTESIAN_POINT('Origin',(0.,4.,13.));
#539=CARTESIAN_POINT('Origin',(0.,-3.96099628517487E-14,13.));
#540=CARTESIAN_POINT('Origin',(0.,-3.56298607545198E-14,6.5));
#541=UNCERTAINTY_MEASURE_WITH_UNIT(LENGTH_MEASURE(0.01),#545,
'DISTANCE_ACCURACY_VALUE',
'Maximum model space distance between geometric entities at asserted c
onnectivities');
#542=UNCERTAINTY_MEASURE_WITH_UNIT(LENGTH_MEASURE(0.01),#545,
'DISTANCE_ACCURACY_VALUE',
'Maximum model space distance between geometric entities at asserted c
onnectivities');
#543=(
GEOMETRIC_REPRESENTATION_CONTEXT(3)
GLOBAL_UNCERTAINTY_ASSIGNED_CONTEXT((#541))
GLOBAL_UNIT_ASSIGNED_CONTEXT((#545,#547,#548))
REPRESENTATION_CONTEXT('','3D')
);
#544=(
GEOMETRIC_REPRESENTATION_CONTEXT(3)
GLOBAL_UNCERTAINTY_ASSIGNED_CONTEXT((#542))
GLOBAL_UNIT_ASSIGNED_CONTEXT((#545,#547,#548))
REPRESENTATION_CONTEXT('','3D')
);
#545=(
LENGTH_UNIT()
NAMED_UNIT(*)
SI_UNIT(.MILLI.,.METRE.)
);
#546=(
LENGTH_UNIT()
NAMED_UNIT(*)
SI_UNIT(.CENTI.,.METRE.)
);
#547=(
NAMED_UNIT(*)
PLANE_ANGLE_UNIT()
SI_UNIT($,.RADIAN.)
);
#548=(
NAMED_UNIT(*)
SI_UNIT($,.STERADIAN.)
SOLID_ANGLE_UNIT()
);
#549=SHAPE_DEFINITION_REPRESENTATION(#550,#551);
#550=PRODUCT_DEFINITION_SHAPE('',$,#553);
#551=SHAPE_REPRESENTATION('',(#319),#543);
#552=PRODUCT_DEFINITION_CONTEXT('part definition',#557,'design');
#553=PRODUCT_DEFINITION('arbre_roue','arbre_roue',#554,#552);
#554=PRODUCT_DEFINITION_FORMATION('',$,#559);
#555=PRODUCT_RELATED_PRODUCT_CATEGORY('arbre_roue','arbre_roue',(#559));
#556=APPLICATION_PROTOCOL_DEFINITION('international standard',
'automotive_design',2009,#557);
#557=APPLICATION_CONTEXT(
'Core Data for Automotive Mechanical Design Process');
#558=PRODUCT_CONTEXT('part definition',#557,'mechanical');
#559=PRODUCT('arbre_roue','arbre_roue',$,(#558));
#560=PRESENTATION_STYLE_ASSIGNMENT((#561));
#561=SURFACE_STYLE_USAGE(.BOTH.,#564);
#562=SURFACE_STYLE_RENDERING_WITH_PROPERTIES($,#568,(#563));
#563=SURFACE_STYLE_TRANSPARENT(0.);
#564=SURFACE_SIDE_STYLE('',(#565,#562));
#565=SURFACE_STYLE_FILL_AREA(#566);
#566=FILL_AREA_STYLE('',(#567));
#567=FILL_AREA_STYLE_COLOUR('',#568);
#568=COLOUR_RGB('',0.749019607843137,0.749019607843137,0.749019607843137);
ENDSEC;
END-ISO-10303-21;
