ISO-10303-21;
HEADER;
/* Generated by software containing ST-Developer
 * from STEP Tools, Inc. (www.steptools.com) 
 */

FILE_DESCRIPTION(
/* description */ (''),
/* implementation_level */ '2;1');

FILE_NAME(
/* name */ 'entretoise moteur roues.stp',
/* time_stamp */ '2025-04-08T16:54:10+02:00',
/* author */ ('enezl'),
/* organization */ (''),
/* preprocessor_version */ 'ST-DEVELOPER v20',
/* originating_system */ 'Autodesk Inventor 2025',
/* authorisation */ '');

FILE_SCHEMA (('AUTOMOTIVE_DESIGN { 1 0 10303 214 3 1 1 }'));
ENDSEC;

DATA;
#10=MECHANICAL_DESIGN_GEOMETRIC_PRESENTATION_REPRESENTATION('',(#13),#249);
#11=SHAPE_REPRESENTATION_RELATIONSHIP('SRR','None',#256,#12);
#12=ADVANCED_BREP_SHAPE_REPRESENTATION('',(#14),#248);
#13=STYLED_ITEM('',(#265),#14);
#14=MANIFOLD_SOLID_BREP('Solide1',#98);
#15=PLANE('',#125);
#16=PLANE('',#129);
#17=FACE_BOUND('',#32,.T.);
#18=FACE_BOUND('',#34,.T.);
#19=FACE_BOUND('',#36,.T.);
#20=FACE_BOUND('',#38,.T.);
#21=CIRCLE('',#123,3.);
#22=CIRCLE('',#124,3.);
#23=CIRCLE('',#126,5.);
#24=CIRCLE('',#128,5.);
#25=FACE_OUTER_BOUND('',#30,.T.);
#26=FACE_OUTER_BOUND('',#31,.T.);
#27=FACE_OUTER_BOUND('',#33,.T.);
#28=FACE_OUTER_BOUND('',#35,.T.);
#29=FACE_OUTER_BOUND('',#37,.T.);
#30=EDGE_LOOP('',(#68,#69,#70,#71,#72,#73));
#31=EDGE_LOOP('',(#74,#75,#76,#77));
#32=EDGE_LOOP('',(#78));
#33=EDGE_LOOP('',(#79));
#34=EDGE_LOOP('',(#80));
#35=EDGE_LOOP('',(#81,#82,#83,#84));
#36=EDGE_LOOP('',(#85,#86,#87));
#37=EDGE_LOOP('',(#88));
#38=EDGE_LOOP('',(#89));
#39=LINE('',#187,#42);
#40=LINE('',#236,#43);
#41=LINE('',#244,#44);
#42=VECTOR('',#134,1.5);
#43=VECTOR('',#139,3.);
#44=VECTOR('',#150,5.);
#45=B_SPLINE_CURVE_WITH_KNOTS('',3,(#157,#158,#159,#160,#161,#162,#163,
#164,#165,#166,#167,#168,#169,#170,#171,#172,#173,#174),.UNSPECIFIED.,.F.,
 .F.,(4,2,2,2,2,2,2,2,4),(0.227532455784376,0.284407095578176,0.341281735371976,
0.398173323470364,0.455064911568751,0.511956499667139,0.568848087765526,
0.625722727559327,0.682597367353127),.UNSPECIFIED.);
#46=B_SPLINE_CURVE_WITH_KNOTS('',3,(#176,#177,#178,#179,#180,#181,#182,
#183,#184,#185),.UNSPECIFIED.,.F.,.F.,(4,2,2,2,4),(0.910129823137503,0.96702141123589,
1.02391299933428,1.08078763912808,1.13766227892188),.UNSPECIFIED.);
#47=B_SPLINE_CURVE_WITH_KNOTS('',3,(#188,#189,#190,#191,#192,#193,#194,
#195,#196,#197,#198,#199,#200,#201,#202,#203,#204,#205,#206,#207,#208,#209,
#210,#211,#212,#213,#214,#215,#216,#217,#218,#219,#220,#221),
 .UNSPECIFIED.,.T.,.F.,(4,2,2,2,2,2,2,2,2,2,2,2,2,2,2,2,4),(0.,0.057737280132221,
0.115474560264442,0.173054445763352,0.230634331262262,0.288214216761172,
0.345794102260082,0.403531382392303,0.461268662524524,0.519005942656745,
0.576743222788966,0.634323108287876,0.691902993786786,0.749482879285696,
0.807062764784606,0.864800044916827,0.922537325049048),.UNSPECIFIED.);
#48=B_SPLINE_CURVE_WITH_KNOTS('',3,(#222,#223,#224,#225,#226,#227,#228,
#229,#230,#231),.UNSPECIFIED.,.F.,.F.,(4,2,2,2,4),(0.682597367353127,0.739472007146927,
0.796346646940728,0.853238235039115,0.910129823137503),.UNSPECIFIED.);
#49=VERTEX_POINT('',#155);
#50=VERTEX_POINT('',#156);
#51=VERTEX_POINT('',#175);
#52=VERTEX_POINT('',#186);
#53=VERTEX_POINT('',#233);
#54=VERTEX_POINT('',#235);
#55=VERTEX_POINT('',#239);
#56=VERTEX_POINT('',#242);
#57=EDGE_CURVE('',#49,#50,#45,.T.);
#58=EDGE_CURVE('',#51,#49,#46,.T.);
#59=EDGE_CURVE('',#51,#52,#39,.T.);
#60=EDGE_CURVE('',#52,#52,#47,.T.);
#61=EDGE_CURVE('',#50,#51,#48,.T.);
#62=EDGE_CURVE('',#53,#53,#21,.T.);
#63=EDGE_CURVE('',#53,#54,#40,.T.);
#64=EDGE_CURVE('',#54,#54,#22,.T.);
#65=EDGE_CURVE('',#55,#55,#23,.T.);
#66=EDGE_CURVE('',#56,#56,#24,.T.);
#67=EDGE_CURVE('',#56,#55,#41,.T.);
#68=ORIENTED_EDGE('',*,*,#57,.F.);
#69=ORIENTED_EDGE('',*,*,#58,.F.);
#70=ORIENTED_EDGE('',*,*,#59,.T.);
#71=ORIENTED_EDGE('',*,*,#60,.F.);
#72=ORIENTED_EDGE('',*,*,#59,.F.);
#73=ORIENTED_EDGE('',*,*,#61,.F.);
#74=ORIENTED_EDGE('',*,*,#62,.T.);
#75=ORIENTED_EDGE('',*,*,#63,.T.);
#76=ORIENTED_EDGE('',*,*,#64,.F.);
#77=ORIENTED_EDGE('',*,*,#63,.F.);
#78=ORIENTED_EDGE('',*,*,#60,.T.);
#79=ORIENTED_EDGE('',*,*,#65,.F.);
#80=ORIENTED_EDGE('',*,*,#64,.T.);
#81=ORIENTED_EDGE('',*,*,#66,.F.);
#82=ORIENTED_EDGE('',*,*,#67,.T.);
#83=ORIENTED_EDGE('',*,*,#65,.T.);
#84=ORIENTED_EDGE('',*,*,#67,.F.);
#85=ORIENTED_EDGE('',*,*,#57,.T.);
#86=ORIENTED_EDGE('',*,*,#61,.T.);
#87=ORIENTED_EDGE('',*,*,#58,.T.);
#88=ORIENTED_EDGE('',*,*,#66,.T.);
#89=ORIENTED_EDGE('',*,*,#62,.F.);
#90=CYLINDRICAL_SURFACE('',#121,1.5);
#91=CYLINDRICAL_SURFACE('',#122,3.);
#92=CYLINDRICAL_SURFACE('',#127,5.);
#93=ADVANCED_FACE('',(#25),#90,.F.);
#94=ADVANCED_FACE('',(#26,#17),#91,.F.);
#95=ADVANCED_FACE('',(#27,#18),#15,.T.);
#96=ADVANCED_FACE('',(#28,#19),#92,.T.);
#97=ADVANCED_FACE('',(#29,#20),#16,.T.);
#98=CLOSED_SHELL('',(#93,#94,#95,#96,#97));
#99=DERIVED_UNIT_ELEMENT(#102,1.);
#100=DERIVED_UNIT_ELEMENT(#251,-3.);
#101=DIMENSIONAL_EXPONENTS(0.,1.,0.,0.,0.,0.,0.);
#102=(
CONVERSION_BASED_UNIT('gram',#104)
MASS_UNIT()
NAMED_UNIT(#101)
);
#103=(
MASS_UNIT()
NAMED_UNIT(*)
SI_UNIT(.KILO.,.GRAM.)
);
#104=MASS_MEASURE_WITH_UNIT(MASS_MEASURE(0.001),#103);
#105=DERIVED_UNIT((#99,#100));
#106=MEASURE_REPRESENTATION_ITEM('density measure',
POSITIVE_RATIO_MEASURE(1.),#105);
#107=PROPERTY_DEFINITION_REPRESENTATION(#112,#109);
#108=PROPERTY_DEFINITION_REPRESENTATION(#113,#110);
#109=REPRESENTATION('material name',(#111),#248);
#110=REPRESENTATION('density',(#106),#248);
#111=DESCRIPTIVE_REPRESENTATION_ITEM('G\X\E9n\X\E9rique','G\X\E9n\X\E9
rique');
#112=PROPERTY_DEFINITION('material property','material name',#258);
#113=PROPERTY_DEFINITION('material property','density of part',#258);
#114=DATE_TIME_ROLE('creation_date');
#115=APPLIED_DATE_AND_TIME_ASSIGNMENT(#116,#114,(#258));
#116=DATE_AND_TIME(#117,#118);
#117=CALENDAR_DATE(2025,30,3);
#118=LOCAL_TIME(0,0,0.,#119);
#119=COORDINATED_UNIVERSAL_TIME_OFFSET(0,0,.BEHIND.);
#120=AXIS2_PLACEMENT_3D('',#153,#130,#131);
#121=AXIS2_PLACEMENT_3D('',#154,#132,#133);
#122=AXIS2_PLACEMENT_3D('',#232,#135,#136);
#123=AXIS2_PLACEMENT_3D('',#234,#137,#138);
#124=AXIS2_PLACEMENT_3D('',#237,#140,#141);
#125=AXIS2_PLACEMENT_3D('',#238,#142,#143);
#126=AXIS2_PLACEMENT_3D('',#240,#144,#145);
#127=AXIS2_PLACEMENT_3D('',#241,#146,#147);
#128=AXIS2_PLACEMENT_3D('',#243,#148,#149);
#129=AXIS2_PLACEMENT_3D('',#245,#151,#152);
#130=DIRECTION('axis',(0.,0.,1.));
#131=DIRECTION('refdir',(1.,0.,0.));
#132=DIRECTION('center_axis',(0.,1.,0.));
#133=DIRECTION('ref_axis',(-1.,0.,0.));
#134=DIRECTION('',(0.,-1.,0.));
#135=DIRECTION('center_axis',(0.,3.06161699786838E-16,-1.));
#136=DIRECTION('ref_axis',(0.,1.,0.));
#137=DIRECTION('center_axis',(0.,3.06161699786838E-16,-1.));
#138=DIRECTION('ref_axis',(1.,0.,0.));
#139=DIRECTION('',(0.,-3.06161699786838E-16,1.));
#140=DIRECTION('center_axis',(0.,3.06161699786838E-16,-1.));
#141=DIRECTION('ref_axis',(1.,0.,0.));
#142=DIRECTION('center_axis',(0.,-3.06161699786838E-16,1.));
#143=DIRECTION('ref_axis',(1.,0.,0.));
#144=DIRECTION('center_axis',(0.,3.06161699786838E-16,-1.));
#145=DIRECTION('ref_axis',(1.,0.,0.));
#146=DIRECTION('center_axis',(0.,3.06161699786838E-16,-1.));
#147=DIRECTION('ref_axis',(0.,1.,0.));
#148=DIRECTION('center_axis',(0.,3.06161699786838E-16,-1.));
#149=DIRECTION('ref_axis',(1.,0.,0.));
#150=DIRECTION('',(0.,-3.06161699786838E-16,1.));
#151=DIRECTION('center_axis',(0.,3.06161699786838E-16,-1.));
#152=DIRECTION('ref_axis',(-1.,0.,0.));
#153=CARTESIAN_POINT('',(0.,0.,0.));
#154=CARTESIAN_POINT('Origin',(0.,-13.5472369909914,-3.));
#155=CARTESIAN_POINT('',(0.,5.,-1.5));
#156=CARTESIAN_POINT('',(0.,5.,-4.5));
#157=CARTESIAN_POINT('Ctrl Pts',(-4.85722573273506E-16,5.,-1.5));
#158=CARTESIAN_POINT('Ctrl Pts',(-0.189582132646002,5.,-1.5));
#159=CARTESIAN_POINT('Ctrl Pts',(-0.391018858740939,4.98815066693916,-1.53812587674466));
#160=CARTESIAN_POINT('Ctrl Pts',(-0.760261209503112,4.9453559749504,-1.69157554648352));
#161=CARTESIAN_POINT('Ctrl Pts',(-0.92815717235854,4.91496781307491,-1.8068368287989));
#162=CARTESIAN_POINT('Ctrl Pts',(-1.19320265630731,4.85743375864508,-2.07188231274767));
#163=CARTESIAN_POINT('Ctrl Pts',(-1.30843336307883,4.82642478051604,-2.23976223114193));
#164=CARTESIAN_POINT('Ctrl Pts',(-1.46186045804961,4.78218969528744,-2.60894625728588));
#165=CARTESIAN_POINT('Ctrl Pts',(-1.5,4.76969600708473,-2.81036137300538));
#166=CARTESIAN_POINT('Ctrl Pts',(-1.5,4.76969600708473,-3.18963862699463));
#167=CARTESIAN_POINT('Ctrl Pts',(-1.46186045804961,4.78218969528744,-3.39105374271412));
#168=CARTESIAN_POINT('Ctrl Pts',(-1.30843336307883,4.82642478051604,-3.76023776885807));
#169=CARTESIAN_POINT('Ctrl Pts',(-1.19320265630731,4.85743375864508,-3.92811768725233));
#170=CARTESIAN_POINT('Ctrl Pts',(-0.928157172358539,4.91496781307491,-4.1931631712011));
#171=CARTESIAN_POINT('Ctrl Pts',(-0.760261209503111,4.9453559749504,-4.30842445351649));
#172=CARTESIAN_POINT('Ctrl Pts',(-0.391018858740939,4.98815066693916,-4.46187412325534));
#173=CARTESIAN_POINT('Ctrl Pts',(-0.189582132646001,5.,-4.5));
#174=CARTESIAN_POINT('Ctrl Pts',(2.08166817117217E-16,5.,-4.5));
#175=CARTESIAN_POINT('',(1.5,4.76969600708473,-3.));
#176=CARTESIAN_POINT('Ctrl Pts',(1.5,4.76969600708473,-3.));
#177=CARTESIAN_POINT('Ctrl Pts',(1.5,4.76969600708473,-2.81036137300538));
#178=CARTESIAN_POINT('Ctrl Pts',(1.46186045804961,4.78218969528744,-2.60894625728588));
#179=CARTESIAN_POINT('Ctrl Pts',(1.30843336307883,4.82642478051604,-2.23976223114193));
#180=CARTESIAN_POINT('Ctrl Pts',(1.19320265630731,4.85743375864508,-2.07188231274767));
#181=CARTESIAN_POINT('Ctrl Pts',(0.928157172358538,4.91496781307491,-1.8068368287989));
#182=CARTESIAN_POINT('Ctrl Pts',(0.76026120950311,4.9453559749504,-1.69157554648351));
#183=CARTESIAN_POINT('Ctrl Pts',(0.391018858740938,4.98815066693916,-1.53812587674466));
#184=CARTESIAN_POINT('Ctrl Pts',(0.189582132646,5.,-1.5));
#185=CARTESIAN_POINT('Ctrl Pts',(-4.85722573273506E-16,5.,-1.5));
#186=CARTESIAN_POINT('',(1.5,2.59807621135332,-3.));
#187=CARTESIAN_POINT('',(1.5,-13.5472369909914,-3.));
#188=CARTESIAN_POINT('Ctrl Pts',(1.5,2.59807621135332,-3.));
#189=CARTESIAN_POINT('Ctrl Pts',(1.5,2.59807621135332,-3.19245760044074));
#190=CARTESIAN_POINT('Ctrl Pts',(1.46082837671514,2.62173815392941,-3.39470790189493));
#191=CARTESIAN_POINT('Ctrl Pts',(1.30684306460434,2.70179401869102,-3.76287353926173));
#192=CARTESIAN_POINT('Ctrl Pts',(1.19213374219655,2.75655070132326,-3.92918660136309));
#193=CARTESIAN_POINT('Ctrl Pts',(0.929545004709394,2.85579991510575,-4.19177533885025));
#194=CARTESIAN_POINT('Ctrl Pts',(0.763111137171562,2.90739726155922,-4.30674761988687));
#195=CARTESIAN_POINT('Ctrl Pts',(0.394417613233283,2.97988795252598,-4.46094585880369));
#196=CARTESIAN_POINT('Ctrl Pts',(0.191932951663033,3.,-4.5));
#197=CARTESIAN_POINT('Ctrl Pts',(-0.191932951663033,3.,-4.5));
#198=CARTESIAN_POINT('Ctrl Pts',(-0.394417613233283,2.97988795252598,-4.46094585880369));
#199=CARTESIAN_POINT('Ctrl Pts',(-0.763111137171562,2.90739726155922,-4.30674761988687));
#200=CARTESIAN_POINT('Ctrl Pts',(-0.929545004709394,2.85579991510575,-4.19177533885025));
#201=CARTESIAN_POINT('Ctrl Pts',(-1.19213374219655,2.75655070132326,-3.92918660136309));
#202=CARTESIAN_POINT('Ctrl Pts',(-1.30684306460434,2.70179401869102,-3.76287353926173));
#203=CARTESIAN_POINT('Ctrl Pts',(-1.46082837671514,2.62173815392941,-3.39470790189493));
#204=CARTESIAN_POINT('Ctrl Pts',(-1.5,2.59807621135332,-3.19245760044074));
#205=CARTESIAN_POINT('Ctrl Pts',(-1.5,2.59807621135332,-2.80754239955926));
#206=CARTESIAN_POINT('Ctrl Pts',(-1.46082837671514,2.6217381539294,-2.60529209810507));
#207=CARTESIAN_POINT('Ctrl Pts',(-1.30684306460434,2.70179401869102,-2.23712646073827));
#208=CARTESIAN_POINT('Ctrl Pts',(-1.19213374219655,2.75655070132326,-2.07081339863691));
#209=CARTESIAN_POINT('Ctrl Pts',(-0.929545004709394,2.85579991510575,-1.80822466114975));
#210=CARTESIAN_POINT('Ctrl Pts',(-0.763111137171562,2.90739726155922,-1.69325238011313));
#211=CARTESIAN_POINT('Ctrl Pts',(-0.394417613233283,2.97988795252598,-1.53905414119631));
#212=CARTESIAN_POINT('Ctrl Pts',(-0.191932951663033,3.,-1.5));
#213=CARTESIAN_POINT('Ctrl Pts',(0.191932951663034,3.,-1.5));
#214=CARTESIAN_POINT('Ctrl Pts',(0.394417613233283,2.97988795252598,-1.53905414119631));
#215=CARTESIAN_POINT('Ctrl Pts',(0.763111137171562,2.90739726155922,-1.69325238011313));
#216=CARTESIAN_POINT('Ctrl Pts',(0.929545004709394,2.85579991510575,-1.80822466114975));
#217=CARTESIAN_POINT('Ctrl Pts',(1.19213374219655,2.75655070132326,-2.07081339863691));
#218=CARTESIAN_POINT('Ctrl Pts',(1.30684306460434,2.70179401869102,-2.23712646073827));
#219=CARTESIAN_POINT('Ctrl Pts',(1.46082837671514,2.6217381539294,-2.60529209810507));
#220=CARTESIAN_POINT('Ctrl Pts',(1.5,2.59807621135332,-2.80754239955926));
#221=CARTESIAN_POINT('Ctrl Pts',(1.5,2.59807621135332,-3.));
#222=CARTESIAN_POINT('Ctrl Pts',(2.77555756156289E-16,5.,-4.5));
#223=CARTESIAN_POINT('Ctrl Pts',(0.189582132646001,5.,-4.5));
#224=CARTESIAN_POINT('Ctrl Pts',(0.391018858740939,4.98815066693916,-4.46187412325534));
#225=CARTESIAN_POINT('Ctrl Pts',(0.760261209503112,4.9453559749504,-4.30842445351649));
#226=CARTESIAN_POINT('Ctrl Pts',(0.92815717235854,4.91496781307491,-4.1931631712011));
#227=CARTESIAN_POINT('Ctrl Pts',(1.19320265630731,4.85743375864508,-3.92811768725233));
#228=CARTESIAN_POINT('Ctrl Pts',(1.30843336307883,4.82642478051604,-3.76023776885807));
#229=CARTESIAN_POINT('Ctrl Pts',(1.46186045804961,4.78218969528744,-3.39105374271412));
#230=CARTESIAN_POINT('Ctrl Pts',(1.5,4.76969600708473,-3.18963862699463));
#231=CARTESIAN_POINT('Ctrl Pts',(1.5,4.76969600708473,-3.));
#232=CARTESIAN_POINT('Origin',(0.,-2.28497176375438E-15,-9.71445146547012E-16));
#233=CARTESIAN_POINT('',(-3.67394039744206E-16,-3.,-6.));
#234=CARTESIAN_POINT('Origin',(0.,-4.48001565033352E-16,-6.));
#235=CARTESIAN_POINT('',(-3.67394039744206E-16,-3.00000000000001,6.));
#236=CARTESIAN_POINT('',(-3.67394039744206E-16,-3.,-9.71445146547012E-16));
#237=CARTESIAN_POINT('Origin',(0.,-4.12194196247541E-15,6.));
#238=CARTESIAN_POINT('Origin',(0.,5.,6.));
#239=CARTESIAN_POINT('',(-6.12323399573677E-16,-5.00000000000001,6.));
#240=CARTESIAN_POINT('Origin',(0.,-4.12194196247541E-15,6.));
#241=CARTESIAN_POINT('Origin',(0.,-2.28497176375438E-15,-1.52655665885959E-15));
#242=CARTESIAN_POINT('',(-6.12323399573677E-16,-5.,-6.));
#243=CARTESIAN_POINT('Origin',(0.,-4.48001565033352E-16,-6.));
#244=CARTESIAN_POINT('',(-6.12323399573677E-16,-5.,-1.52655665885959E-15));
#245=CARTESIAN_POINT('Origin',(0.,3.,-6.));
#246=UNCERTAINTY_MEASURE_WITH_UNIT(LENGTH_MEASURE(0.01),#250,
'DISTANCE_ACCURACY_VALUE',
'Maximum model space distance between geometric entities at asserted c
onnectivities');
#247=UNCERTAINTY_MEASURE_WITH_UNIT(LENGTH_MEASURE(0.01),#250,
'DISTANCE_ACCURACY_VALUE',
'Maximum model space distance between geometric entities at asserted c
onnectivities');
#248=(
GEOMETRIC_REPRESENTATION_CONTEXT(3)
GLOBAL_UNCERTAINTY_ASSIGNED_CONTEXT((#246))
GLOBAL_UNIT_ASSIGNED_CONTEXT((#250,#252,#253))
REPRESENTATION_CONTEXT('','3D')
);
#249=(
GEOMETRIC_REPRESENTATION_CONTEXT(3)
GLOBAL_UNCERTAINTY_ASSIGNED_CONTEXT((#247))
GLOBAL_UNIT_ASSIGNED_CONTEXT((#250,#252,#253))
REPRESENTATION_CONTEXT('','3D')
);
#250=(
LENGTH_UNIT()
NAMED_UNIT(*)
SI_UNIT(.MILLI.,.METRE.)
);
#251=(
LENGTH_UNIT()
NAMED_UNIT(*)
SI_UNIT(.CENTI.,.METRE.)
);
#252=(
NAMED_UNIT(*)
PLANE_ANGLE_UNIT()
SI_UNIT($,.RADIAN.)
);
#253=(
NAMED_UNIT(*)
SI_UNIT($,.STERADIAN.)
SOLID_ANGLE_UNIT()
);
#254=SHAPE_DEFINITION_REPRESENTATION(#255,#256);
#255=PRODUCT_DEFINITION_SHAPE('',$,#258);
#256=SHAPE_REPRESENTATION('',(#120),#248);
#257=PRODUCT_DEFINITION_CONTEXT('part definition',#262,'design');
#258=PRODUCT_DEFINITION('entretoise moteur roues',
'entretoise moteur roues',#259,#257);
#259=PRODUCT_DEFINITION_FORMATION('',$,#264);
#260=PRODUCT_RELATED_PRODUCT_CATEGORY('entretoise moteur roues',
'entretoise moteur roues',(#264));
#261=APPLICATION_PROTOCOL_DEFINITION('international standard',
'automotive_design',2009,#262);
#262=APPLICATION_CONTEXT(
'Core Data for Automotive Mechanical Design Process');
#263=PRODUCT_CONTEXT('part definition',#262,'mechanical');
#264=PRODUCT('entretoise moteur roues','entretoise moteur roues',$,(#263));
#265=PRESENTATION_STYLE_ASSIGNMENT((#266));
#266=SURFACE_STYLE_USAGE(.BOTH.,#269);
#267=SURFACE_STYLE_RENDERING_WITH_PROPERTIES($,#273,(#268));
#268=SURFACE_STYLE_TRANSPARENT(0.);
#269=SURFACE_SIDE_STYLE('',(#270,#267));
#270=SURFACE_STYLE_FILL_AREA(#271);
#271=FILL_AREA_STYLE('',(#272));
#272=FILL_AREA_STYLE_COLOUR('',#273);
#273=COLOUR_RGB('',0.749019607843137,0.749019607843137,0.749019607843137);
ENDSEC;
END-ISO-10303-21;
