ISO-10303-21;
HEADER;
/* Generated by software containing ST-Developer
 * from STEP Tools, Inc. (www.steptools.com) 
 */

FILE_DESCRIPTION(
/* description */ (''),
/* implementation_level */ '2;1');

FILE_NAME(
/* name */ 'plaque mobile.stp',
/* time_stamp */ '2025-03-31T23:50:27+02:00',
/* author */ ('enezl'),
/* organization */ (''),
/* preprocessor_version */ 'ST-DEVELOPER v20',
/* originating_system */ 'Autodesk Inventor 2025',
/* authorisation */ '');

FILE_SCHEMA (('AUTOMOTIVE_DESIGN { 1 0 10303 214 3 1 1 }'));
ENDSEC;

DATA;
#10=MECHANICAL_DESIGN_GEOMETRIC_PRESENTATION_REPRESENTATION('',(#13),#1640);
#11=SHAPE_REPRESENTATION_RELATIONSHIP('SRR','None',#1647,#12);
#12=ADVANCED_BREP_SHAPE_REPRESENTATION('',(#14),#1639);
#13=STYLED_ITEM('',(#1657),#14);
#14=MANIFOLD_SOLID_BREP('Solide1',#955);
#15=FACE_BOUND('',#113,.T.);
#16=FACE_BOUND('',#114,.T.);
#17=FACE_BOUND('',#115,.T.);
#18=FACE_BOUND('',#116,.T.);
#19=FACE_BOUND('',#117,.T.);
#20=FACE_BOUND('',#118,.T.);
#21=FACE_BOUND('',#119,.T.);
#22=FACE_BOUND('',#120,.T.);
#23=FACE_BOUND('',#121,.T.);
#24=FACE_BOUND('',#122,.T.);
#25=FACE_BOUND('',#123,.T.);
#26=FACE_BOUND('',#124,.T.);
#27=FACE_BOUND('',#125,.T.);
#28=FACE_BOUND('',#126,.T.);
#29=FACE_BOUND('',#127,.T.);
#30=FACE_BOUND('',#128,.T.);
#31=FACE_BOUND('',#129,.T.);
#32=FACE_BOUND('',#167,.T.);
#33=FACE_BOUND('',#168,.T.);
#34=FACE_BOUND('',#169,.T.);
#35=FACE_BOUND('',#170,.T.);
#36=FACE_BOUND('',#171,.T.);
#37=FACE_BOUND('',#172,.T.);
#38=FACE_BOUND('',#173,.T.);
#39=FACE_BOUND('',#174,.T.);
#40=FACE_BOUND('',#175,.T.);
#41=FACE_BOUND('',#176,.T.);
#42=FACE_BOUND('',#177,.T.);
#43=FACE_BOUND('',#178,.T.);
#44=FACE_BOUND('',#179,.T.);
#45=FACE_BOUND('',#180,.T.);
#46=FACE_BOUND('',#181,.T.);
#47=FACE_BOUND('',#182,.T.);
#48=FACE_BOUND('',#183,.T.);
#49=PLANE('',#981);
#50=PLANE('',#1013);
#51=PLANE('',#1016);
#52=PLANE('',#1019);
#53=PLANE('',#1022);
#54=PLANE('',#1025);
#55=PLANE('',#1028);
#56=PLANE('',#1031);
#57=PLANE('',#1034);
#58=PLANE('',#1039);
#59=PLANE('',#1042);
#60=PLANE('',#1045);
#61=PLANE('',#1048);
#62=PLANE('',#1051);
#63=PLANE('',#1054);
#64=PLANE('',#1069);
#65=FACE_OUTER_BOUND('',#111,.T.);
#66=FACE_OUTER_BOUND('',#112,.T.);
#67=FACE_OUTER_BOUND('',#130,.T.);
#68=FACE_OUTER_BOUND('',#131,.T.);
#69=FACE_OUTER_BOUND('',#132,.T.);
#70=FACE_OUTER_BOUND('',#133,.T.);
#71=FACE_OUTER_BOUND('',#134,.T.);
#72=FACE_OUTER_BOUND('',#135,.T.);
#73=FACE_OUTER_BOUND('',#136,.T.);
#74=FACE_OUTER_BOUND('',#137,.T.);
#75=FACE_OUTER_BOUND('',#138,.T.);
#76=FACE_OUTER_BOUND('',#139,.T.);
#77=FACE_OUTER_BOUND('',#140,.T.);
#78=FACE_OUTER_BOUND('',#141,.T.);
#79=FACE_OUTER_BOUND('',#142,.T.);
#80=FACE_OUTER_BOUND('',#143,.T.);
#81=FACE_OUTER_BOUND('',#144,.T.);
#82=FACE_OUTER_BOUND('',#145,.T.);
#83=FACE_OUTER_BOUND('',#146,.T.);
#84=FACE_OUTER_BOUND('',#147,.T.);
#85=FACE_OUTER_BOUND('',#148,.T.);
#86=FACE_OUTER_BOUND('',#149,.T.);
#87=FACE_OUTER_BOUND('',#150,.T.);
#88=FACE_OUTER_BOUND('',#151,.T.);
#89=FACE_OUTER_BOUND('',#152,.T.);
#90=FACE_OUTER_BOUND('',#153,.T.);
#91=FACE_OUTER_BOUND('',#154,.T.);
#92=FACE_OUTER_BOUND('',#155,.T.);
#93=FACE_OUTER_BOUND('',#156,.T.);
#94=FACE_OUTER_BOUND('',#157,.T.);
#95=FACE_OUTER_BOUND('',#158,.T.);
#96=FACE_OUTER_BOUND('',#159,.T.);
#97=FACE_OUTER_BOUND('',#160,.T.);
#98=FACE_OUTER_BOUND('',#161,.T.);
#99=FACE_OUTER_BOUND('',#162,.T.);
#100=FACE_OUTER_BOUND('',#163,.T.);
#101=FACE_OUTER_BOUND('',#164,.T.);
#102=FACE_OUTER_BOUND('',#165,.T.);
#103=FACE_OUTER_BOUND('',#166,.T.);
#104=FACE_OUTER_BOUND('',#184,.T.);
#105=FACE_OUTER_BOUND('',#185,.T.);
#106=FACE_OUTER_BOUND('',#186,.T.);
#107=FACE_OUTER_BOUND('',#187,.T.);
#108=FACE_OUTER_BOUND('',#188,.T.);
#109=FACE_OUTER_BOUND('',#189,.T.);
#110=FACE_OUTER_BOUND('',#190,.T.);
#111=EDGE_LOOP('',(#615,#616,#617,#618));
#112=EDGE_LOOP('',(#619,#620,#621,#622,#623,#624,#625,#626,#627,#628,#629,
#630,#631,#632,#633,#634));
#113=EDGE_LOOP('',(#635));
#114=EDGE_LOOP('',(#636));
#115=EDGE_LOOP('',(#637));
#116=EDGE_LOOP('',(#638));
#117=EDGE_LOOP('',(#639));
#118=EDGE_LOOP('',(#640));
#119=EDGE_LOOP('',(#641));
#120=EDGE_LOOP('',(#642));
#121=EDGE_LOOP('',(#643));
#122=EDGE_LOOP('',(#644));
#123=EDGE_LOOP('',(#645,#646,#647,#648,#649,#650,#651,#652,#653,#654,#655,
#656));
#124=EDGE_LOOP('',(#657));
#125=EDGE_LOOP('',(#658));
#126=EDGE_LOOP('',(#659));
#127=EDGE_LOOP('',(#660));
#128=EDGE_LOOP('',(#661));
#129=EDGE_LOOP('',(#662));
#130=EDGE_LOOP('',(#663,#664,#665,#666));
#131=EDGE_LOOP('',(#667,#668,#669,#670));
#132=EDGE_LOOP('',(#671,#672,#673,#674));
#133=EDGE_LOOP('',(#675,#676,#677,#678));
#134=EDGE_LOOP('',(#679,#680,#681,#682));
#135=EDGE_LOOP('',(#683,#684,#685,#686));
#136=EDGE_LOOP('',(#687,#688,#689,#690));
#137=EDGE_LOOP('',(#691,#692,#693,#694));
#138=EDGE_LOOP('',(#695,#696,#697,#698));
#139=EDGE_LOOP('',(#699,#700,#701,#702));
#140=EDGE_LOOP('',(#703,#704,#705,#706));
#141=EDGE_LOOP('',(#707,#708,#709,#710));
#142=EDGE_LOOP('',(#711,#712,#713,#714));
#143=EDGE_LOOP('',(#715,#716,#717,#718));
#144=EDGE_LOOP('',(#719,#720,#721,#722));
#145=EDGE_LOOP('',(#723,#724,#725,#726));
#146=EDGE_LOOP('',(#727,#728,#729,#730));
#147=EDGE_LOOP('',(#731,#732,#733,#734));
#148=EDGE_LOOP('',(#735,#736,#737,#738));
#149=EDGE_LOOP('',(#739,#740,#741,#742));
#150=EDGE_LOOP('',(#743,#744,#745,#746));
#151=EDGE_LOOP('',(#747,#748,#749,#750));
#152=EDGE_LOOP('',(#751,#752,#753,#754));
#153=EDGE_LOOP('',(#755,#756,#757,#758));
#154=EDGE_LOOP('',(#759,#760,#761,#762));
#155=EDGE_LOOP('',(#763,#764,#765,#766));
#156=EDGE_LOOP('',(#767,#768,#769,#770));
#157=EDGE_LOOP('',(#771,#772,#773,#774));
#158=EDGE_LOOP('',(#775,#776,#777,#778));
#159=EDGE_LOOP('',(#779,#780,#781,#782));
#160=EDGE_LOOP('',(#783,#784,#785,#786));
#161=EDGE_LOOP('',(#787,#788,#789,#790));
#162=EDGE_LOOP('',(#791,#792,#793,#794));
#163=EDGE_LOOP('',(#795,#796,#797,#798));
#164=EDGE_LOOP('',(#799,#800,#801,#802));
#165=EDGE_LOOP('',(#803,#804,#805,#806));
#166=EDGE_LOOP('',(#807,#808,#809,#810,#811,#812,#813,#814,#815,#816,#817,
#818,#819,#820,#821,#822));
#167=EDGE_LOOP('',(#823));
#168=EDGE_LOOP('',(#824));
#169=EDGE_LOOP('',(#825));
#170=EDGE_LOOP('',(#826));
#171=EDGE_LOOP('',(#827));
#172=EDGE_LOOP('',(#828));
#173=EDGE_LOOP('',(#829));
#174=EDGE_LOOP('',(#830));
#175=EDGE_LOOP('',(#831));
#176=EDGE_LOOP('',(#832));
#177=EDGE_LOOP('',(#833,#834,#835,#836,#837,#838,#839,#840,#841,#842,#843,
#844));
#178=EDGE_LOOP('',(#845));
#179=EDGE_LOOP('',(#846));
#180=EDGE_LOOP('',(#847));
#181=EDGE_LOOP('',(#848));
#182=EDGE_LOOP('',(#849));
#183=EDGE_LOOP('',(#850));
#184=EDGE_LOOP('',(#851,#852,#853,#854));
#185=EDGE_LOOP('',(#855,#856,#857,#858));
#186=EDGE_LOOP('',(#859,#860,#861,#862));
#187=EDGE_LOOP('',(#863,#864,#865,#866));
#188=EDGE_LOOP('',(#867,#868,#869,#870));
#189=EDGE_LOOP('',(#871,#872,#873,#874));
#190=EDGE_LOOP('',(#875,#876,#877,#878));
#191=LINE('',#1375,#263);
#192=LINE('',#1382,#264);
#193=LINE('',#1386,#265);
#194=LINE('',#1390,#266);
#195=LINE('',#1394,#267);
#196=LINE('',#1398,#268);
#197=LINE('',#1402,#269);
#198=LINE('',#1406,#270);
#199=LINE('',#1409,#271);
#200=LINE('',#1430,#272);
#201=LINE('',#1434,#273);
#202=LINE('',#1438,#274);
#203=LINE('',#1442,#275);
#204=LINE('',#1446,#276);
#205=LINE('',#1450,#277);
#206=LINE('',#1466,#278);
#207=LINE('',#1469,#279);
#208=LINE('',#1472,#280);
#209=LINE('',#1473,#281);
#210=LINE('',#1477,#282);
#211=LINE('',#1480,#283);
#212=LINE('',#1481,#284);
#213=LINE('',#1485,#285);
#214=LINE('',#1488,#286);
#215=LINE('',#1489,#287);
#216=LINE('',#1493,#288);
#217=LINE('',#1496,#289);
#218=LINE('',#1497,#290);
#219=LINE('',#1501,#291);
#220=LINE('',#1504,#292);
#221=LINE('',#1505,#293);
#222=LINE('',#1509,#294);
#223=LINE('',#1512,#295);
#224=LINE('',#1513,#296);
#225=LINE('',#1517,#297);
#226=LINE('',#1520,#298);
#227=LINE('',#1521,#299);
#228=LINE('',#1525,#300);
#229=LINE('',#1527,#301);
#230=LINE('',#1531,#302);
#231=LINE('',#1534,#303);
#232=LINE('',#1536,#304);
#233=LINE('',#1540,#305);
#234=LINE('',#1541,#306);
#235=LINE('',#1544,#307);
#236=LINE('',#1548,#308);
#237=LINE('',#1549,#309);
#238=LINE('',#1552,#310);
#239=LINE('',#1556,#311);
#240=LINE('',#1557,#312);
#241=LINE('',#1560,#313);
#242=LINE('',#1564,#314);
#243=LINE('',#1565,#315);
#244=LINE('',#1568,#316);
#245=LINE('',#1572,#317);
#246=LINE('',#1573,#318);
#247=LINE('',#1576,#319);
#248=LINE('',#1579,#320);
#249=LINE('',#1583,#321);
#250=LINE('',#1587,#322);
#251=LINE('',#1591,#323);
#252=LINE('',#1595,#324);
#253=LINE('',#1599,#325);
#254=LINE('',#1603,#326);
#255=LINE('',#1606,#327);
#256=LINE('',#1624,#328);
#257=LINE('',#1626,#329);
#258=LINE('',#1628,#330);
#259=LINE('',#1630,#331);
#260=LINE('',#1632,#332);
#261=LINE('',#1634,#333);
#262=LINE('',#1636,#334);
#263=VECTOR('',#1090,1.621);
#264=VECTOR('',#1097,275.);
#265=VECTOR('',#1100,53.);
#266=VECTOR('',#1103,1.91264385836399);
#267=VECTOR('',#1106,22.665287716728);
#268=VECTOR('',#1109,221.992794171752);
#269=VECTOR('',#1112,22.6652877167279);
#270=VECTOR('',#1115,1.91264385836399);
#271=VECTOR('',#1118,53.);
#272=VECTOR('',#1137,7.32233047033632);
#273=VECTOR('',#1140,17.9289321881345);
#274=VECTOR('',#1143,29.6446609406726);
#275=VECTOR('',#1146,17.9289321881345);
#276=VECTOR('',#1149,7.32233047033633);
#277=VECTOR('',#1152,55.);
#278=VECTOR('',#1169,4.);
#279=VECTOR('',#1172,4.);
#280=VECTOR('',#1175,275.);
#281=VECTOR('',#1176,4.);
#282=VECTOR('',#1181,4.);
#283=VECTOR('',#1184,53.);
#284=VECTOR('',#1185,4.);
#285=VECTOR('',#1190,4.);
#286=VECTOR('',#1193,1.91264385836399);
#287=VECTOR('',#1194,4.);
#288=VECTOR('',#1199,4.);
#289=VECTOR('',#1202,22.665287716728);
#290=VECTOR('',#1203,4.);
#291=VECTOR('',#1208,4.);
#292=VECTOR('',#1211,221.992794171752);
#293=VECTOR('',#1212,4.);
#294=VECTOR('',#1217,4.);
#295=VECTOR('',#1220,22.6652877167279);
#296=VECTOR('',#1221,4.);
#297=VECTOR('',#1226,4.);
#298=VECTOR('',#1229,1.91264385730028);
#299=VECTOR('',#1230,4.);
#300=VECTOR('',#1235,4.);
#301=VECTOR('',#1238,53.);
#302=VECTOR('',#1243,2.5);
#303=VECTOR('',#1246,4.);
#304=VECTOR('',#1247,4.);
#305=VECTOR('',#1252,4.);
#306=VECTOR('',#1253,55.);
#307=VECTOR('',#1256,4.);
#308=VECTOR('',#1261,4.);
#309=VECTOR('',#1262,7.32233047033633);
#310=VECTOR('',#1265,4.);
#311=VECTOR('',#1270,4.);
#312=VECTOR('',#1271,17.9289321881345);
#313=VECTOR('',#1274,4.);
#314=VECTOR('',#1279,4.);
#315=VECTOR('',#1280,29.6446609406726);
#316=VECTOR('',#1283,4.);
#317=VECTOR('',#1288,4.);
#318=VECTOR('',#1289,17.9289321881345);
#319=VECTOR('',#1292,4.);
#320=VECTOR('',#1297,7.32233047033632);
#321=VECTOR('',#1302,2.5);
#322=VECTOR('',#1307,2.5);
#323=VECTOR('',#1312,2.5);
#324=VECTOR('',#1317,2.5);
#325=VECTOR('',#1322,2.5);
#326=VECTOR('',#1327,2.5);
#327=VECTOR('',#1330,2.5);
#328=VECTOR('',#1351,1.621);
#329=VECTOR('',#1354,1.621);
#330=VECTOR('',#1357,1.621);
#331=VECTOR('',#1360,1.621);
#332=VECTOR('',#1363,1.621);
#333=VECTOR('',#1366,1.621);
#334=VECTOR('',#1369,1.621);
#335=CIRCLE('',#979,1.621);
#336=CIRCLE('',#980,1.621);
#337=CIRCLE('',#982,5.00000000000003);
#338=CIRCLE('',#983,5.);
#339=CIRCLE('',#984,5.);
#340=CIRCLE('',#985,4.99999999999994);
#341=CIRCLE('',#986,4.99999999999999);
#342=CIRCLE('',#987,4.99999999999999);
#343=CIRCLE('',#988,5.00000000000019);
#344=CIRCLE('',#989,5.);
#345=CIRCLE('',#990,1.621);
#346=CIRCLE('',#991,2.5);
#347=CIRCLE('',#992,2.5);
#348=CIRCLE('',#993,2.5);
#349=CIRCLE('',#994,2.5);
#350=CIRCLE('',#995,2.5);
#351=CIRCLE('',#996,2.5);
#352=CIRCLE('',#997,2.5);
#353=CIRCLE('',#998,2.5);
#354=CIRCLE('',#999,2.50000000000002);
#355=CIRCLE('',#1000,2.5);
#356=CIRCLE('',#1001,2.50000000000001);
#357=CIRCLE('',#1002,2.50000000000001);
#358=CIRCLE('',#1003,2.5);
#359=CIRCLE('',#1004,2.5);
#360=CIRCLE('',#1005,1.621);
#361=CIRCLE('',#1006,1.621);
#362=CIRCLE('',#1007,1.621);
#363=CIRCLE('',#1008,1.621);
#364=CIRCLE('',#1009,1.621);
#365=CIRCLE('',#1010,1.621);
#366=CIRCLE('',#1012,5.);
#367=CIRCLE('',#1015,5.);
#368=CIRCLE('',#1018,5.);
#369=CIRCLE('',#1021,4.99999999999994);
#370=CIRCLE('',#1024,4.99999999999999);
#371=CIRCLE('',#1027,4.99999999999999);
#372=CIRCLE('',#1030,5.00000000000019);
#373=CIRCLE('',#1033,5.);
#374=CIRCLE('',#1036,2.5);
#375=CIRCLE('',#1038,2.5);
#376=CIRCLE('',#1041,2.5);
#377=CIRCLE('',#1044,2.50000000000001);
#378=CIRCLE('',#1047,2.50000000000001);
#379=CIRCLE('',#1050,2.5);
#380=CIRCLE('',#1053,2.50000000000002);
#381=CIRCLE('',#1056,2.5);
#382=CIRCLE('',#1058,2.5);
#383=CIRCLE('',#1060,2.5);
#384=CIRCLE('',#1062,2.5);
#385=CIRCLE('',#1064,2.5);
#386=CIRCLE('',#1066,2.5);
#387=CIRCLE('',#1068,2.5);
#388=CIRCLE('',#1070,1.621);
#389=CIRCLE('',#1071,1.621);
#390=CIRCLE('',#1072,1.621);
#391=CIRCLE('',#1073,1.621);
#392=CIRCLE('',#1074,1.621);
#393=CIRCLE('',#1075,1.621);
#394=CIRCLE('',#1076,1.621);
#395=VERTEX_POINT('',#1372);
#396=VERTEX_POINT('',#1374);
#397=VERTEX_POINT('',#1378);
#398=VERTEX_POINT('',#1379);
#399=VERTEX_POINT('',#1381);
#400=VERTEX_POINT('',#1383);
#401=VERTEX_POINT('',#1385);
#402=VERTEX_POINT('',#1387);
#403=VERTEX_POINT('',#1389);
#404=VERTEX_POINT('',#1391);
#405=VERTEX_POINT('',#1393);
#406=VERTEX_POINT('',#1395);
#407=VERTEX_POINT('',#1397);
#408=VERTEX_POINT('',#1399);
#409=VERTEX_POINT('',#1401);
#410=VERTEX_POINT('',#1403);
#411=VERTEX_POINT('',#1405);
#412=VERTEX_POINT('',#1407);
#413=VERTEX_POINT('',#1410);
#414=VERTEX_POINT('',#1412);
#415=VERTEX_POINT('',#1414);
#416=VERTEX_POINT('',#1416);
#417=VERTEX_POINT('',#1418);
#418=VERTEX_POINT('',#1420);
#419=VERTEX_POINT('',#1422);
#420=VERTEX_POINT('',#1424);
#421=VERTEX_POINT('',#1426);
#422=VERTEX_POINT('',#1428);
#423=VERTEX_POINT('',#1429);
#424=VERTEX_POINT('',#1431);
#425=VERTEX_POINT('',#1433);
#426=VERTEX_POINT('',#1435);
#427=VERTEX_POINT('',#1437);
#428=VERTEX_POINT('',#1439);
#429=VERTEX_POINT('',#1441);
#430=VERTEX_POINT('',#1443);
#431=VERTEX_POINT('',#1445);
#432=VERTEX_POINT('',#1447);
#433=VERTEX_POINT('',#1449);
#434=VERTEX_POINT('',#1452);
#435=VERTEX_POINT('',#1454);
#436=VERTEX_POINT('',#1456);
#437=VERTEX_POINT('',#1458);
#438=VERTEX_POINT('',#1460);
#439=VERTEX_POINT('',#1462);
#440=VERTEX_POINT('',#1465);
#441=VERTEX_POINT('',#1467);
#442=VERTEX_POINT('',#1471);
#443=VERTEX_POINT('',#1475);
#444=VERTEX_POINT('',#1479);
#445=VERTEX_POINT('',#1483);
#446=VERTEX_POINT('',#1487);
#447=VERTEX_POINT('',#1491);
#448=VERTEX_POINT('',#1495);
#449=VERTEX_POINT('',#1499);
#450=VERTEX_POINT('',#1503);
#451=VERTEX_POINT('',#1507);
#452=VERTEX_POINT('',#1511);
#453=VERTEX_POINT('',#1515);
#454=VERTEX_POINT('',#1519);
#455=VERTEX_POINT('',#1523);
#456=VERTEX_POINT('',#1529);
#457=VERTEX_POINT('',#1533);
#458=VERTEX_POINT('',#1535);
#459=VERTEX_POINT('',#1539);
#460=VERTEX_POINT('',#1543);
#461=VERTEX_POINT('',#1547);
#462=VERTEX_POINT('',#1551);
#463=VERTEX_POINT('',#1555);
#464=VERTEX_POINT('',#1559);
#465=VERTEX_POINT('',#1563);
#466=VERTEX_POINT('',#1567);
#467=VERTEX_POINT('',#1571);
#468=VERTEX_POINT('',#1575);
#469=VERTEX_POINT('',#1581);
#470=VERTEX_POINT('',#1585);
#471=VERTEX_POINT('',#1589);
#472=VERTEX_POINT('',#1593);
#473=VERTEX_POINT('',#1597);
#474=VERTEX_POINT('',#1601);
#475=VERTEX_POINT('',#1605);
#476=VERTEX_POINT('',#1609);
#477=VERTEX_POINT('',#1611);
#478=VERTEX_POINT('',#1613);
#479=VERTEX_POINT('',#1615);
#480=VERTEX_POINT('',#1617);
#481=VERTEX_POINT('',#1619);
#482=VERTEX_POINT('',#1621);
#483=EDGE_CURVE('',#395,#395,#335,.T.);
#484=EDGE_CURVE('',#395,#396,#191,.T.);
#485=EDGE_CURVE('',#396,#396,#336,.T.);
#486=EDGE_CURVE('',#397,#398,#337,.T.);
#487=EDGE_CURVE('',#398,#399,#192,.T.);
#488=EDGE_CURVE('',#399,#400,#338,.T.);
#489=EDGE_CURVE('',#400,#401,#193,.T.);
#490=EDGE_CURVE('',#401,#402,#339,.T.);
#491=EDGE_CURVE('',#402,#403,#194,.T.);
#492=EDGE_CURVE('',#403,#404,#340,.T.);
#493=EDGE_CURVE('',#404,#405,#195,.T.);
#494=EDGE_CURVE('',#405,#406,#341,.T.);
#495=EDGE_CURVE('',#406,#407,#196,.T.);
#496=EDGE_CURVE('',#407,#408,#342,.T.);
#497=EDGE_CURVE('',#408,#409,#197,.T.);
#498=EDGE_CURVE('',#409,#410,#343,.T.);
#499=EDGE_CURVE('',#410,#411,#198,.T.);
#500=EDGE_CURVE('',#411,#412,#344,.T.);
#501=EDGE_CURVE('',#412,#397,#199,.T.);
#502=EDGE_CURVE('',#413,#413,#345,.T.);
#503=EDGE_CURVE('',#414,#414,#346,.T.);
#504=EDGE_CURVE('',#415,#415,#347,.T.);
#505=EDGE_CURVE('',#416,#416,#348,.T.);
#506=EDGE_CURVE('',#417,#417,#349,.T.);
#507=EDGE_CURVE('',#418,#418,#350,.T.);
#508=EDGE_CURVE('',#419,#419,#351,.T.);
#509=EDGE_CURVE('',#420,#420,#352,.T.);
#510=EDGE_CURVE('',#421,#421,#353,.T.);
#511=EDGE_CURVE('',#422,#423,#200,.T.);
#512=EDGE_CURVE('',#424,#422,#354,.T.);
#513=EDGE_CURVE('',#425,#424,#201,.T.);
#514=EDGE_CURVE('',#426,#425,#355,.T.);
#515=EDGE_CURVE('',#427,#426,#202,.T.);
#516=EDGE_CURVE('',#428,#427,#356,.T.);
#517=EDGE_CURVE('',#429,#428,#203,.T.);
#518=EDGE_CURVE('',#430,#429,#357,.T.);
#519=EDGE_CURVE('',#431,#430,#204,.T.);
#520=EDGE_CURVE('',#432,#431,#358,.T.);
#521=EDGE_CURVE('',#433,#432,#205,.T.);
#522=EDGE_CURVE('',#423,#433,#359,.T.);
#523=EDGE_CURVE('',#434,#434,#360,.T.);
#524=EDGE_CURVE('',#435,#435,#361,.T.);
#525=EDGE_CURVE('',#436,#436,#362,.T.);
#526=EDGE_CURVE('',#437,#437,#363,.T.);
#527=EDGE_CURVE('',#438,#438,#364,.T.);
#528=EDGE_CURVE('',#439,#439,#365,.T.);
#529=EDGE_CURVE('',#440,#397,#206,.T.);
#530=EDGE_CURVE('',#440,#441,#366,.T.);
#531=EDGE_CURVE('',#441,#398,#207,.T.);
#532=EDGE_CURVE('',#441,#442,#208,.T.);
#533=EDGE_CURVE('',#442,#399,#209,.T.);
#534=EDGE_CURVE('',#442,#443,#367,.T.);
#535=EDGE_CURVE('',#443,#400,#210,.T.);
#536=EDGE_CURVE('',#443,#444,#211,.T.);
#537=EDGE_CURVE('',#444,#401,#212,.T.);
#538=EDGE_CURVE('',#444,#445,#368,.T.);
#539=EDGE_CURVE('',#445,#402,#213,.T.);
#540=EDGE_CURVE('',#445,#446,#214,.T.);
#541=EDGE_CURVE('',#446,#403,#215,.T.);
#542=EDGE_CURVE('',#446,#447,#369,.T.);
#543=EDGE_CURVE('',#447,#404,#216,.T.);
#544=EDGE_CURVE('',#447,#448,#217,.T.);
#545=EDGE_CURVE('',#448,#405,#218,.T.);
#546=EDGE_CURVE('',#448,#449,#370,.T.);
#547=EDGE_CURVE('',#449,#406,#219,.T.);
#548=EDGE_CURVE('',#449,#450,#220,.T.);
#549=EDGE_CURVE('',#450,#407,#221,.T.);
#550=EDGE_CURVE('',#450,#451,#371,.T.);
#551=EDGE_CURVE('',#451,#408,#222,.T.);
#552=EDGE_CURVE('',#451,#452,#223,.T.);
#553=EDGE_CURVE('',#452,#409,#224,.T.);
#554=EDGE_CURVE('',#452,#453,#372,.T.);
#555=EDGE_CURVE('',#453,#410,#225,.T.);
#556=EDGE_CURVE('',#453,#454,#226,.T.);
#557=EDGE_CURVE('',#454,#411,#227,.T.);
#558=EDGE_CURVE('',#454,#455,#373,.T.);
#559=EDGE_CURVE('',#455,#412,#228,.T.);
#560=EDGE_CURVE('',#455,#440,#229,.T.);
#561=EDGE_CURVE('',#456,#456,#374,.T.);
#562=EDGE_CURVE('',#456,#414,#230,.T.);
#563=EDGE_CURVE('',#457,#423,#231,.T.);
#564=EDGE_CURVE('',#458,#433,#232,.T.);
#565=EDGE_CURVE('',#457,#458,#375,.T.);
#566=EDGE_CURVE('',#459,#432,#233,.T.);
#567=EDGE_CURVE('',#458,#459,#234,.T.);
#568=EDGE_CURVE('',#460,#431,#235,.T.);
#569=EDGE_CURVE('',#459,#460,#376,.T.);
#570=EDGE_CURVE('',#461,#430,#236,.T.);
#571=EDGE_CURVE('',#460,#461,#237,.T.);
#572=EDGE_CURVE('',#462,#429,#238,.T.);
#573=EDGE_CURVE('',#461,#462,#377,.T.);
#574=EDGE_CURVE('',#463,#428,#239,.T.);
#575=EDGE_CURVE('',#462,#463,#240,.T.);
#576=EDGE_CURVE('',#464,#427,#241,.T.);
#577=EDGE_CURVE('',#463,#464,#378,.T.);
#578=EDGE_CURVE('',#465,#426,#242,.T.);
#579=EDGE_CURVE('',#464,#465,#243,.T.);
#580=EDGE_CURVE('',#466,#425,#244,.T.);
#581=EDGE_CURVE('',#465,#466,#379,.T.);
#582=EDGE_CURVE('',#467,#424,#245,.T.);
#583=EDGE_CURVE('',#466,#467,#246,.T.);
#584=EDGE_CURVE('',#468,#422,#247,.T.);
#585=EDGE_CURVE('',#467,#468,#380,.T.);
#586=EDGE_CURVE('',#468,#457,#248,.T.);
#587=EDGE_CURVE('',#469,#469,#381,.T.);
#588=EDGE_CURVE('',#469,#421,#249,.T.);
#589=EDGE_CURVE('',#470,#470,#382,.T.);
#590=EDGE_CURVE('',#470,#420,#250,.T.);
#591=EDGE_CURVE('',#471,#471,#383,.T.);
#592=EDGE_CURVE('',#471,#419,#251,.T.);
#593=EDGE_CURVE('',#472,#472,#384,.T.);
#594=EDGE_CURVE('',#472,#418,#252,.T.);
#595=EDGE_CURVE('',#473,#473,#385,.T.);
#596=EDGE_CURVE('',#473,#417,#253,.T.);
#597=EDGE_CURVE('',#474,#474,#386,.T.);
#598=EDGE_CURVE('',#474,#416,#254,.T.);
#599=EDGE_CURVE('',#415,#475,#255,.T.);
#600=EDGE_CURVE('',#475,#475,#387,.T.);
#601=EDGE_CURVE('',#476,#476,#388,.T.);
#602=EDGE_CURVE('',#477,#477,#389,.T.);
#603=EDGE_CURVE('',#478,#478,#390,.T.);
#604=EDGE_CURVE('',#479,#479,#391,.T.);
#605=EDGE_CURVE('',#480,#480,#392,.T.);
#606=EDGE_CURVE('',#481,#481,#393,.T.);
#607=EDGE_CURVE('',#482,#482,#394,.T.);
#608=EDGE_CURVE('',#434,#477,#256,.T.);
#609=EDGE_CURVE('',#435,#478,#257,.T.);
#610=EDGE_CURVE('',#436,#479,#258,.T.);
#611=EDGE_CURVE('',#437,#480,#259,.T.);
#612=EDGE_CURVE('',#438,#481,#260,.T.);
#613=EDGE_CURVE('',#413,#476,#261,.T.);
#614=EDGE_CURVE('',#439,#482,#262,.T.);
#615=ORIENTED_EDGE('',*,*,#483,.T.);
#616=ORIENTED_EDGE('',*,*,#484,.T.);
#617=ORIENTED_EDGE('',*,*,#485,.F.);
#618=ORIENTED_EDGE('',*,*,#484,.F.);
#619=ORIENTED_EDGE('',*,*,#486,.T.);
#620=ORIENTED_EDGE('',*,*,#487,.T.);
#621=ORIENTED_EDGE('',*,*,#488,.T.);
#622=ORIENTED_EDGE('',*,*,#489,.T.);
#623=ORIENTED_EDGE('',*,*,#490,.T.);
#624=ORIENTED_EDGE('',*,*,#491,.T.);
#625=ORIENTED_EDGE('',*,*,#492,.T.);
#626=ORIENTED_EDGE('',*,*,#493,.T.);
#627=ORIENTED_EDGE('',*,*,#494,.T.);
#628=ORIENTED_EDGE('',*,*,#495,.T.);
#629=ORIENTED_EDGE('',*,*,#496,.T.);
#630=ORIENTED_EDGE('',*,*,#497,.T.);
#631=ORIENTED_EDGE('',*,*,#498,.T.);
#632=ORIENTED_EDGE('',*,*,#499,.T.);
#633=ORIENTED_EDGE('',*,*,#500,.T.);
#634=ORIENTED_EDGE('',*,*,#501,.T.);
#635=ORIENTED_EDGE('',*,*,#502,.F.);
#636=ORIENTED_EDGE('',*,*,#483,.F.);
#637=ORIENTED_EDGE('',*,*,#503,.T.);
#638=ORIENTED_EDGE('',*,*,#504,.F.);
#639=ORIENTED_EDGE('',*,*,#505,.F.);
#640=ORIENTED_EDGE('',*,*,#506,.F.);
#641=ORIENTED_EDGE('',*,*,#507,.F.);
#642=ORIENTED_EDGE('',*,*,#508,.F.);
#643=ORIENTED_EDGE('',*,*,#509,.F.);
#644=ORIENTED_EDGE('',*,*,#510,.F.);
#645=ORIENTED_EDGE('',*,*,#511,.F.);
#646=ORIENTED_EDGE('',*,*,#512,.F.);
#647=ORIENTED_EDGE('',*,*,#513,.F.);
#648=ORIENTED_EDGE('',*,*,#514,.F.);
#649=ORIENTED_EDGE('',*,*,#515,.F.);
#650=ORIENTED_EDGE('',*,*,#516,.F.);
#651=ORIENTED_EDGE('',*,*,#517,.F.);
#652=ORIENTED_EDGE('',*,*,#518,.F.);
#653=ORIENTED_EDGE('',*,*,#519,.F.);
#654=ORIENTED_EDGE('',*,*,#520,.F.);
#655=ORIENTED_EDGE('',*,*,#521,.F.);
#656=ORIENTED_EDGE('',*,*,#522,.F.);
#657=ORIENTED_EDGE('',*,*,#523,.F.);
#658=ORIENTED_EDGE('',*,*,#524,.F.);
#659=ORIENTED_EDGE('',*,*,#525,.F.);
#660=ORIENTED_EDGE('',*,*,#526,.F.);
#661=ORIENTED_EDGE('',*,*,#527,.F.);
#662=ORIENTED_EDGE('',*,*,#528,.F.);
#663=ORIENTED_EDGE('',*,*,#529,.F.);
#664=ORIENTED_EDGE('',*,*,#530,.T.);
#665=ORIENTED_EDGE('',*,*,#531,.T.);
#666=ORIENTED_EDGE('',*,*,#486,.F.);
#667=ORIENTED_EDGE('',*,*,#487,.F.);
#668=ORIENTED_EDGE('',*,*,#531,.F.);
#669=ORIENTED_EDGE('',*,*,#532,.T.);
#670=ORIENTED_EDGE('',*,*,#533,.T.);
#671=ORIENTED_EDGE('',*,*,#533,.F.);
#672=ORIENTED_EDGE('',*,*,#534,.T.);
#673=ORIENTED_EDGE('',*,*,#535,.T.);
#674=ORIENTED_EDGE('',*,*,#488,.F.);
#675=ORIENTED_EDGE('',*,*,#489,.F.);
#676=ORIENTED_EDGE('',*,*,#535,.F.);
#677=ORIENTED_EDGE('',*,*,#536,.T.);
#678=ORIENTED_EDGE('',*,*,#537,.T.);
#679=ORIENTED_EDGE('',*,*,#537,.F.);
#680=ORIENTED_EDGE('',*,*,#538,.T.);
#681=ORIENTED_EDGE('',*,*,#539,.T.);
#682=ORIENTED_EDGE('',*,*,#490,.F.);
#683=ORIENTED_EDGE('',*,*,#539,.F.);
#684=ORIENTED_EDGE('',*,*,#540,.T.);
#685=ORIENTED_EDGE('',*,*,#541,.T.);
#686=ORIENTED_EDGE('',*,*,#491,.F.);
#687=ORIENTED_EDGE('',*,*,#541,.F.);
#688=ORIENTED_EDGE('',*,*,#542,.T.);
#689=ORIENTED_EDGE('',*,*,#543,.T.);
#690=ORIENTED_EDGE('',*,*,#492,.F.);
#691=ORIENTED_EDGE('',*,*,#543,.F.);
#692=ORIENTED_EDGE('',*,*,#544,.T.);
#693=ORIENTED_EDGE('',*,*,#545,.T.);
#694=ORIENTED_EDGE('',*,*,#493,.F.);
#695=ORIENTED_EDGE('',*,*,#494,.F.);
#696=ORIENTED_EDGE('',*,*,#545,.F.);
#697=ORIENTED_EDGE('',*,*,#546,.T.);
#698=ORIENTED_EDGE('',*,*,#547,.T.);
#699=ORIENTED_EDGE('',*,*,#495,.F.);
#700=ORIENTED_EDGE('',*,*,#547,.F.);
#701=ORIENTED_EDGE('',*,*,#548,.T.);
#702=ORIENTED_EDGE('',*,*,#549,.T.);
#703=ORIENTED_EDGE('',*,*,#496,.F.);
#704=ORIENTED_EDGE('',*,*,#549,.F.);
#705=ORIENTED_EDGE('',*,*,#550,.T.);
#706=ORIENTED_EDGE('',*,*,#551,.T.);
#707=ORIENTED_EDGE('',*,*,#497,.F.);
#708=ORIENTED_EDGE('',*,*,#551,.F.);
#709=ORIENTED_EDGE('',*,*,#552,.T.);
#710=ORIENTED_EDGE('',*,*,#553,.T.);
#711=ORIENTED_EDGE('',*,*,#553,.F.);
#712=ORIENTED_EDGE('',*,*,#554,.T.);
#713=ORIENTED_EDGE('',*,*,#555,.T.);
#714=ORIENTED_EDGE('',*,*,#498,.F.);
#715=ORIENTED_EDGE('',*,*,#499,.F.);
#716=ORIENTED_EDGE('',*,*,#555,.F.);
#717=ORIENTED_EDGE('',*,*,#556,.T.);
#718=ORIENTED_EDGE('',*,*,#557,.T.);
#719=ORIENTED_EDGE('',*,*,#557,.F.);
#720=ORIENTED_EDGE('',*,*,#558,.T.);
#721=ORIENTED_EDGE('',*,*,#559,.T.);
#722=ORIENTED_EDGE('',*,*,#500,.F.);
#723=ORIENTED_EDGE('',*,*,#501,.F.);
#724=ORIENTED_EDGE('',*,*,#559,.F.);
#725=ORIENTED_EDGE('',*,*,#560,.T.);
#726=ORIENTED_EDGE('',*,*,#529,.T.);
#727=ORIENTED_EDGE('',*,*,#561,.T.);
#728=ORIENTED_EDGE('',*,*,#562,.T.);
#729=ORIENTED_EDGE('',*,*,#503,.F.);
#730=ORIENTED_EDGE('',*,*,#562,.F.);
#731=ORIENTED_EDGE('',*,*,#563,.T.);
#732=ORIENTED_EDGE('',*,*,#522,.T.);
#733=ORIENTED_EDGE('',*,*,#564,.F.);
#734=ORIENTED_EDGE('',*,*,#565,.F.);
#735=ORIENTED_EDGE('',*,*,#521,.T.);
#736=ORIENTED_EDGE('',*,*,#566,.F.);
#737=ORIENTED_EDGE('',*,*,#567,.F.);
#738=ORIENTED_EDGE('',*,*,#564,.T.);
#739=ORIENTED_EDGE('',*,*,#566,.T.);
#740=ORIENTED_EDGE('',*,*,#520,.T.);
#741=ORIENTED_EDGE('',*,*,#568,.F.);
#742=ORIENTED_EDGE('',*,*,#569,.F.);
#743=ORIENTED_EDGE('',*,*,#519,.T.);
#744=ORIENTED_EDGE('',*,*,#570,.F.);
#745=ORIENTED_EDGE('',*,*,#571,.F.);
#746=ORIENTED_EDGE('',*,*,#568,.T.);
#747=ORIENTED_EDGE('',*,*,#570,.T.);
#748=ORIENTED_EDGE('',*,*,#518,.T.);
#749=ORIENTED_EDGE('',*,*,#572,.F.);
#750=ORIENTED_EDGE('',*,*,#573,.F.);
#751=ORIENTED_EDGE('',*,*,#517,.T.);
#752=ORIENTED_EDGE('',*,*,#574,.F.);
#753=ORIENTED_EDGE('',*,*,#575,.F.);
#754=ORIENTED_EDGE('',*,*,#572,.T.);
#755=ORIENTED_EDGE('',*,*,#574,.T.);
#756=ORIENTED_EDGE('',*,*,#516,.T.);
#757=ORIENTED_EDGE('',*,*,#576,.F.);
#758=ORIENTED_EDGE('',*,*,#577,.F.);
#759=ORIENTED_EDGE('',*,*,#515,.T.);
#760=ORIENTED_EDGE('',*,*,#578,.F.);
#761=ORIENTED_EDGE('',*,*,#579,.F.);
#762=ORIENTED_EDGE('',*,*,#576,.T.);
#763=ORIENTED_EDGE('',*,*,#578,.T.);
#764=ORIENTED_EDGE('',*,*,#514,.T.);
#765=ORIENTED_EDGE('',*,*,#580,.F.);
#766=ORIENTED_EDGE('',*,*,#581,.F.);
#767=ORIENTED_EDGE('',*,*,#513,.T.);
#768=ORIENTED_EDGE('',*,*,#582,.F.);
#769=ORIENTED_EDGE('',*,*,#583,.F.);
#770=ORIENTED_EDGE('',*,*,#580,.T.);
#771=ORIENTED_EDGE('',*,*,#582,.T.);
#772=ORIENTED_EDGE('',*,*,#512,.T.);
#773=ORIENTED_EDGE('',*,*,#584,.F.);
#774=ORIENTED_EDGE('',*,*,#585,.F.);
#775=ORIENTED_EDGE('',*,*,#511,.T.);
#776=ORIENTED_EDGE('',*,*,#563,.F.);
#777=ORIENTED_EDGE('',*,*,#586,.F.);
#778=ORIENTED_EDGE('',*,*,#584,.T.);
#779=ORIENTED_EDGE('',*,*,#587,.F.);
#780=ORIENTED_EDGE('',*,*,#588,.T.);
#781=ORIENTED_EDGE('',*,*,#510,.T.);
#782=ORIENTED_EDGE('',*,*,#588,.F.);
#783=ORIENTED_EDGE('',*,*,#589,.F.);
#784=ORIENTED_EDGE('',*,*,#590,.T.);
#785=ORIENTED_EDGE('',*,*,#509,.T.);
#786=ORIENTED_EDGE('',*,*,#590,.F.);
#787=ORIENTED_EDGE('',*,*,#591,.F.);
#788=ORIENTED_EDGE('',*,*,#592,.T.);
#789=ORIENTED_EDGE('',*,*,#508,.T.);
#790=ORIENTED_EDGE('',*,*,#592,.F.);
#791=ORIENTED_EDGE('',*,*,#593,.F.);
#792=ORIENTED_EDGE('',*,*,#594,.T.);
#793=ORIENTED_EDGE('',*,*,#507,.T.);
#794=ORIENTED_EDGE('',*,*,#594,.F.);
#795=ORIENTED_EDGE('',*,*,#595,.F.);
#796=ORIENTED_EDGE('',*,*,#596,.T.);
#797=ORIENTED_EDGE('',*,*,#506,.T.);
#798=ORIENTED_EDGE('',*,*,#596,.F.);
#799=ORIENTED_EDGE('',*,*,#597,.F.);
#800=ORIENTED_EDGE('',*,*,#598,.T.);
#801=ORIENTED_EDGE('',*,*,#505,.T.);
#802=ORIENTED_EDGE('',*,*,#598,.F.);
#803=ORIENTED_EDGE('',*,*,#504,.T.);
#804=ORIENTED_EDGE('',*,*,#599,.T.);
#805=ORIENTED_EDGE('',*,*,#600,.F.);
#806=ORIENTED_EDGE('',*,*,#599,.F.);
#807=ORIENTED_EDGE('',*,*,#530,.F.);
#808=ORIENTED_EDGE('',*,*,#560,.F.);
#809=ORIENTED_EDGE('',*,*,#558,.F.);
#810=ORIENTED_EDGE('',*,*,#556,.F.);
#811=ORIENTED_EDGE('',*,*,#554,.F.);
#812=ORIENTED_EDGE('',*,*,#552,.F.);
#813=ORIENTED_EDGE('',*,*,#550,.F.);
#814=ORIENTED_EDGE('',*,*,#548,.F.);
#815=ORIENTED_EDGE('',*,*,#546,.F.);
#816=ORIENTED_EDGE('',*,*,#544,.F.);
#817=ORIENTED_EDGE('',*,*,#542,.F.);
#818=ORIENTED_EDGE('',*,*,#540,.F.);
#819=ORIENTED_EDGE('',*,*,#538,.F.);
#820=ORIENTED_EDGE('',*,*,#536,.F.);
#821=ORIENTED_EDGE('',*,*,#534,.F.);
#822=ORIENTED_EDGE('',*,*,#532,.F.);
#823=ORIENTED_EDGE('',*,*,#601,.T.);
#824=ORIENTED_EDGE('',*,*,#485,.T.);
#825=ORIENTED_EDGE('',*,*,#561,.F.);
#826=ORIENTED_EDGE('',*,*,#600,.T.);
#827=ORIENTED_EDGE('',*,*,#597,.T.);
#828=ORIENTED_EDGE('',*,*,#595,.T.);
#829=ORIENTED_EDGE('',*,*,#593,.T.);
#830=ORIENTED_EDGE('',*,*,#591,.T.);
#831=ORIENTED_EDGE('',*,*,#589,.T.);
#832=ORIENTED_EDGE('',*,*,#587,.T.);
#833=ORIENTED_EDGE('',*,*,#586,.T.);
#834=ORIENTED_EDGE('',*,*,#565,.T.);
#835=ORIENTED_EDGE('',*,*,#567,.T.);
#836=ORIENTED_EDGE('',*,*,#569,.T.);
#837=ORIENTED_EDGE('',*,*,#571,.T.);
#838=ORIENTED_EDGE('',*,*,#573,.T.);
#839=ORIENTED_EDGE('',*,*,#575,.T.);
#840=ORIENTED_EDGE('',*,*,#577,.T.);
#841=ORIENTED_EDGE('',*,*,#579,.T.);
#842=ORIENTED_EDGE('',*,*,#581,.T.);
#843=ORIENTED_EDGE('',*,*,#583,.T.);
#844=ORIENTED_EDGE('',*,*,#585,.T.);
#845=ORIENTED_EDGE('',*,*,#602,.T.);
#846=ORIENTED_EDGE('',*,*,#603,.T.);
#847=ORIENTED_EDGE('',*,*,#604,.T.);
#848=ORIENTED_EDGE('',*,*,#605,.T.);
#849=ORIENTED_EDGE('',*,*,#606,.T.);
#850=ORIENTED_EDGE('',*,*,#607,.T.);
#851=ORIENTED_EDGE('',*,*,#523,.T.);
#852=ORIENTED_EDGE('',*,*,#608,.T.);
#853=ORIENTED_EDGE('',*,*,#602,.F.);
#854=ORIENTED_EDGE('',*,*,#608,.F.);
#855=ORIENTED_EDGE('',*,*,#524,.T.);
#856=ORIENTED_EDGE('',*,*,#609,.T.);
#857=ORIENTED_EDGE('',*,*,#603,.F.);
#858=ORIENTED_EDGE('',*,*,#609,.F.);
#859=ORIENTED_EDGE('',*,*,#525,.T.);
#860=ORIENTED_EDGE('',*,*,#610,.T.);
#861=ORIENTED_EDGE('',*,*,#604,.F.);
#862=ORIENTED_EDGE('',*,*,#610,.F.);
#863=ORIENTED_EDGE('',*,*,#526,.T.);
#864=ORIENTED_EDGE('',*,*,#611,.T.);
#865=ORIENTED_EDGE('',*,*,#605,.F.);
#866=ORIENTED_EDGE('',*,*,#611,.F.);
#867=ORIENTED_EDGE('',*,*,#527,.T.);
#868=ORIENTED_EDGE('',*,*,#612,.T.);
#869=ORIENTED_EDGE('',*,*,#606,.F.);
#870=ORIENTED_EDGE('',*,*,#612,.F.);
#871=ORIENTED_EDGE('',*,*,#502,.T.);
#872=ORIENTED_EDGE('',*,*,#613,.T.);
#873=ORIENTED_EDGE('',*,*,#601,.F.);
#874=ORIENTED_EDGE('',*,*,#613,.F.);
#875=ORIENTED_EDGE('',*,*,#528,.T.);
#876=ORIENTED_EDGE('',*,*,#614,.T.);
#877=ORIENTED_EDGE('',*,*,#607,.F.);
#878=ORIENTED_EDGE('',*,*,#614,.F.);
#879=CYLINDRICAL_SURFACE('',#978,1.621);
#880=CYLINDRICAL_SURFACE('',#1011,5.);
#881=CYLINDRICAL_SURFACE('',#1014,5.);
#882=CYLINDRICAL_SURFACE('',#1017,5.);
#883=CYLINDRICAL_SURFACE('',#1020,5.);
#884=CYLINDRICAL_SURFACE('',#1023,5.);
#885=CYLINDRICAL_SURFACE('',#1026,5.);
#886=CYLINDRICAL_SURFACE('',#1029,5.);
#887=CYLINDRICAL_SURFACE('',#1032,5.);
#888=CYLINDRICAL_SURFACE('',#1035,2.5);
#889=CYLINDRICAL_SURFACE('',#1037,2.5);
#890=CYLINDRICAL_SURFACE('',#1040,2.5);
#891=CYLINDRICAL_SURFACE('',#1043,2.5);
#892=CYLINDRICAL_SURFACE('',#1046,2.5);
#893=CYLINDRICAL_SURFACE('',#1049,2.5);
#894=CYLINDRICAL_SURFACE('',#1052,2.5);
#895=CYLINDRICAL_SURFACE('',#1055,2.5);
#896=CYLINDRICAL_SURFACE('',#1057,2.5);
#897=CYLINDRICAL_SURFACE('',#1059,2.5);
#898=CYLINDRICAL_SURFACE('',#1061,2.5);
#899=CYLINDRICAL_SURFACE('',#1063,2.5);
#900=CYLINDRICAL_SURFACE('',#1065,2.5);
#901=CYLINDRICAL_SURFACE('',#1067,2.5);
#902=CYLINDRICAL_SURFACE('',#1077,1.621);
#903=CYLINDRICAL_SURFACE('',#1078,1.621);
#904=CYLINDRICAL_SURFACE('',#1079,1.621);
#905=CYLINDRICAL_SURFACE('',#1080,1.621);
#906=CYLINDRICAL_SURFACE('',#1081,1.621);
#907=CYLINDRICAL_SURFACE('',#1082,1.621);
#908=CYLINDRICAL_SURFACE('',#1083,1.621);
#909=ADVANCED_FACE('',(#65),#879,.F.);
#910=ADVANCED_FACE('',(#66,#15,#16,#17,#18,#19,#20,#21,#22,#23,#24,#25,
#26,#27,#28,#29,#30,#31),#49,.T.);
#911=ADVANCED_FACE('',(#67),#880,.T.);
#912=ADVANCED_FACE('',(#68),#50,.F.);
#913=ADVANCED_FACE('',(#69),#881,.T.);
#914=ADVANCED_FACE('',(#70),#51,.F.);
#915=ADVANCED_FACE('',(#71),#882,.T.);
#916=ADVANCED_FACE('',(#72),#52,.T.);
#917=ADVANCED_FACE('',(#73),#883,.T.);
#918=ADVANCED_FACE('',(#74),#53,.T.);
#919=ADVANCED_FACE('',(#75),#884,.F.);
#920=ADVANCED_FACE('',(#76),#54,.F.);
#921=ADVANCED_FACE('',(#77),#885,.F.);
#922=ADVANCED_FACE('',(#78),#55,.F.);
#923=ADVANCED_FACE('',(#79),#886,.T.);
#924=ADVANCED_FACE('',(#80),#56,.T.);
#925=ADVANCED_FACE('',(#81),#887,.T.);
#926=ADVANCED_FACE('',(#82),#57,.F.);
#927=ADVANCED_FACE('',(#83),#888,.F.);
#928=ADVANCED_FACE('',(#84),#889,.F.);
#929=ADVANCED_FACE('',(#85),#58,.T.);
#930=ADVANCED_FACE('',(#86),#890,.F.);
#931=ADVANCED_FACE('',(#87),#59,.T.);
#932=ADVANCED_FACE('',(#88),#891,.F.);
#933=ADVANCED_FACE('',(#89),#60,.T.);
#934=ADVANCED_FACE('',(#90),#892,.F.);
#935=ADVANCED_FACE('',(#91),#61,.T.);
#936=ADVANCED_FACE('',(#92),#893,.F.);
#937=ADVANCED_FACE('',(#93),#62,.T.);
#938=ADVANCED_FACE('',(#94),#894,.F.);
#939=ADVANCED_FACE('',(#95),#63,.T.);
#940=ADVANCED_FACE('',(#96),#895,.F.);
#941=ADVANCED_FACE('',(#97),#896,.F.);
#942=ADVANCED_FACE('',(#98),#897,.F.);
#943=ADVANCED_FACE('',(#99),#898,.F.);
#944=ADVANCED_FACE('',(#100),#899,.F.);
#945=ADVANCED_FACE('',(#101),#900,.F.);
#946=ADVANCED_FACE('',(#102),#901,.F.);
#947=ADVANCED_FACE('',(#103,#32,#33,#34,#35,#36,#37,#38,#39,#40,#41,#42,
#43,#44,#45,#46,#47,#48),#64,.F.);
#948=ADVANCED_FACE('',(#104),#902,.F.);
#949=ADVANCED_FACE('',(#105),#903,.F.);
#950=ADVANCED_FACE('',(#106),#904,.F.);
#951=ADVANCED_FACE('',(#107),#905,.F.);
#952=ADVANCED_FACE('',(#108),#906,.F.);
#953=ADVANCED_FACE('',(#109),#907,.F.);
#954=ADVANCED_FACE('',(#110),#908,.F.);
#955=CLOSED_SHELL('',(#909,#910,#911,#912,#913,#914,#915,#916,#917,#918,
#919,#920,#921,#922,#923,#924,#925,#926,#927,#928,#929,#930,#931,#932,#933,
#934,#935,#936,#937,#938,#939,#940,#941,#942,#943,#944,#945,#946,#947,#948,
#949,#950,#951,#952,#953,#954));
#956=DERIVED_UNIT_ELEMENT(#959,1.);
#957=DERIVED_UNIT_ELEMENT(#1642,-3.);
#958=DIMENSIONAL_EXPONENTS(0.,1.,0.,0.,0.,0.,0.);
#959=(
CONVERSION_BASED_UNIT('gram',#961)
MASS_UNIT()
NAMED_UNIT(#958)
);
#960=(
MASS_UNIT()
NAMED_UNIT(*)
SI_UNIT(.KILO.,.GRAM.)
);
#961=MASS_MEASURE_WITH_UNIT(MASS_MEASURE(0.001),#960);
#962=DERIVED_UNIT((#956,#957));
#963=MEASURE_REPRESENTATION_ITEM('density measure',
POSITIVE_RATIO_MEASURE(1.),#962);
#964=PROPERTY_DEFINITION_REPRESENTATION(#969,#966);
#965=PROPERTY_DEFINITION_REPRESENTATION(#970,#967);
#966=REPRESENTATION('material name',(#968),#1639);
#967=REPRESENTATION('density',(#963),#1639);
#968=DESCRIPTIVE_REPRESENTATION_ITEM('G\X\E9n\X\E9rique','G\X\E9n\X\E9
rique');
#969=PROPERTY_DEFINITION('material property','material name',#1649);
#970=PROPERTY_DEFINITION('material property','density of part',#1649);
#971=DATE_TIME_ROLE('creation_date');
#972=APPLIED_DATE_AND_TIME_ASSIGNMENT(#973,#971,(#1649));
#973=DATE_AND_TIME(#974,#975);
#974=CALENDAR_DATE(2025,31,3);
#975=LOCAL_TIME(0,0,0.,#976);
#976=COORDINATED_UNIVERSAL_TIME_OFFSET(0,0,.BEHIND.);
#977=AXIS2_PLACEMENT_3D('',#1370,#1084,#1085);
#978=AXIS2_PLACEMENT_3D('',#1371,#1086,#1087);
#979=AXIS2_PLACEMENT_3D('',#1373,#1088,#1089);
#980=AXIS2_PLACEMENT_3D('',#1376,#1091,#1092);
#981=AXIS2_PLACEMENT_3D('',#1377,#1093,#1094);
#982=AXIS2_PLACEMENT_3D('',#1380,#1095,#1096);
#983=AXIS2_PLACEMENT_3D('',#1384,#1098,#1099);
#984=AXIS2_PLACEMENT_3D('',#1388,#1101,#1102);
#985=AXIS2_PLACEMENT_3D('',#1392,#1104,#1105);
#986=AXIS2_PLACEMENT_3D('',#1396,#1107,#1108);
#987=AXIS2_PLACEMENT_3D('',#1400,#1110,#1111);
#988=AXIS2_PLACEMENT_3D('',#1404,#1113,#1114);
#989=AXIS2_PLACEMENT_3D('',#1408,#1116,#1117);
#990=AXIS2_PLACEMENT_3D('',#1411,#1119,#1120);
#991=AXIS2_PLACEMENT_3D('',#1413,#1121,#1122);
#992=AXIS2_PLACEMENT_3D('',#1415,#1123,#1124);
#993=AXIS2_PLACEMENT_3D('',#1417,#1125,#1126);
#994=AXIS2_PLACEMENT_3D('',#1419,#1127,#1128);
#995=AXIS2_PLACEMENT_3D('',#1421,#1129,#1130);
#996=AXIS2_PLACEMENT_3D('',#1423,#1131,#1132);
#997=AXIS2_PLACEMENT_3D('',#1425,#1133,#1134);
#998=AXIS2_PLACEMENT_3D('',#1427,#1135,#1136);
#999=AXIS2_PLACEMENT_3D('',#1432,#1138,#1139);
#1000=AXIS2_PLACEMENT_3D('',#1436,#1141,#1142);
#1001=AXIS2_PLACEMENT_3D('',#1440,#1144,#1145);
#1002=AXIS2_PLACEMENT_3D('',#1444,#1147,#1148);
#1003=AXIS2_PLACEMENT_3D('',#1448,#1150,#1151);
#1004=AXIS2_PLACEMENT_3D('',#1451,#1153,#1154);
#1005=AXIS2_PLACEMENT_3D('',#1453,#1155,#1156);
#1006=AXIS2_PLACEMENT_3D('',#1455,#1157,#1158);
#1007=AXIS2_PLACEMENT_3D('',#1457,#1159,#1160);
#1008=AXIS2_PLACEMENT_3D('',#1459,#1161,#1162);
#1009=AXIS2_PLACEMENT_3D('',#1461,#1163,#1164);
#1010=AXIS2_PLACEMENT_3D('',#1463,#1165,#1166);
#1011=AXIS2_PLACEMENT_3D('',#1464,#1167,#1168);
#1012=AXIS2_PLACEMENT_3D('',#1468,#1170,#1171);
#1013=AXIS2_PLACEMENT_3D('',#1470,#1173,#1174);
#1014=AXIS2_PLACEMENT_3D('',#1474,#1177,#1178);
#1015=AXIS2_PLACEMENT_3D('',#1476,#1179,#1180);
#1016=AXIS2_PLACEMENT_3D('',#1478,#1182,#1183);
#1017=AXIS2_PLACEMENT_3D('',#1482,#1186,#1187);
#1018=AXIS2_PLACEMENT_3D('',#1484,#1188,#1189);
#1019=AXIS2_PLACEMENT_3D('',#1486,#1191,#1192);
#1020=AXIS2_PLACEMENT_3D('',#1490,#1195,#1196);
#1021=AXIS2_PLACEMENT_3D('',#1492,#1197,#1198);
#1022=AXIS2_PLACEMENT_3D('',#1494,#1200,#1201);
#1023=AXIS2_PLACEMENT_3D('',#1498,#1204,#1205);
#1024=AXIS2_PLACEMENT_3D('',#1500,#1206,#1207);
#1025=AXIS2_PLACEMENT_3D('',#1502,#1209,#1210);
#1026=AXIS2_PLACEMENT_3D('',#1506,#1213,#1214);
#1027=AXIS2_PLACEMENT_3D('',#1508,#1215,#1216);
#1028=AXIS2_PLACEMENT_3D('',#1510,#1218,#1219);
#1029=AXIS2_PLACEMENT_3D('',#1514,#1222,#1223);
#1030=AXIS2_PLACEMENT_3D('',#1516,#1224,#1225);
#1031=AXIS2_PLACEMENT_3D('',#1518,#1227,#1228);
#1032=AXIS2_PLACEMENT_3D('',#1522,#1231,#1232);
#1033=AXIS2_PLACEMENT_3D('',#1524,#1233,#1234);
#1034=AXIS2_PLACEMENT_3D('',#1526,#1236,#1237);
#1035=AXIS2_PLACEMENT_3D('',#1528,#1239,#1240);
#1036=AXIS2_PLACEMENT_3D('',#1530,#1241,#1242);
#1037=AXIS2_PLACEMENT_3D('',#1532,#1244,#1245);
#1038=AXIS2_PLACEMENT_3D('',#1537,#1248,#1249);
#1039=AXIS2_PLACEMENT_3D('',#1538,#1250,#1251);
#1040=AXIS2_PLACEMENT_3D('',#1542,#1254,#1255);
#1041=AXIS2_PLACEMENT_3D('',#1545,#1257,#1258);
#1042=AXIS2_PLACEMENT_3D('',#1546,#1259,#1260);
#1043=AXIS2_PLACEMENT_3D('',#1550,#1263,#1264);
#1044=AXIS2_PLACEMENT_3D('',#1553,#1266,#1267);
#1045=AXIS2_PLACEMENT_3D('',#1554,#1268,#1269);
#1046=AXIS2_PLACEMENT_3D('',#1558,#1272,#1273);
#1047=AXIS2_PLACEMENT_3D('',#1561,#1275,#1276);
#1048=AXIS2_PLACEMENT_3D('',#1562,#1277,#1278);
#1049=AXIS2_PLACEMENT_3D('',#1566,#1281,#1282);
#1050=AXIS2_PLACEMENT_3D('',#1569,#1284,#1285);
#1051=AXIS2_PLACEMENT_3D('',#1570,#1286,#1287);
#1052=AXIS2_PLACEMENT_3D('',#1574,#1290,#1291);
#1053=AXIS2_PLACEMENT_3D('',#1577,#1293,#1294);
#1054=AXIS2_PLACEMENT_3D('',#1578,#1295,#1296);
#1055=AXIS2_PLACEMENT_3D('',#1580,#1298,#1299);
#1056=AXIS2_PLACEMENT_3D('',#1582,#1300,#1301);
#1057=AXIS2_PLACEMENT_3D('',#1584,#1303,#1304);
#1058=AXIS2_PLACEMENT_3D('',#1586,#1305,#1306);
#1059=AXIS2_PLACEMENT_3D('',#1588,#1308,#1309);
#1060=AXIS2_PLACEMENT_3D('',#1590,#1310,#1311);
#1061=AXIS2_PLACEMENT_3D('',#1592,#1313,#1314);
#1062=AXIS2_PLACEMENT_3D('',#1594,#1315,#1316);
#1063=AXIS2_PLACEMENT_3D('',#1596,#1318,#1319);
#1064=AXIS2_PLACEMENT_3D('',#1598,#1320,#1321);
#1065=AXIS2_PLACEMENT_3D('',#1600,#1323,#1324);
#1066=AXIS2_PLACEMENT_3D('',#1602,#1325,#1326);
#1067=AXIS2_PLACEMENT_3D('',#1604,#1328,#1329);
#1068=AXIS2_PLACEMENT_3D('',#1607,#1331,#1332);
#1069=AXIS2_PLACEMENT_3D('',#1608,#1333,#1334);
#1070=AXIS2_PLACEMENT_3D('',#1610,#1335,#1336);
#1071=AXIS2_PLACEMENT_3D('',#1612,#1337,#1338);
#1072=AXIS2_PLACEMENT_3D('',#1614,#1339,#1340);
#1073=AXIS2_PLACEMENT_3D('',#1616,#1341,#1342);
#1074=AXIS2_PLACEMENT_3D('',#1618,#1343,#1344);
#1075=AXIS2_PLACEMENT_3D('',#1620,#1345,#1346);
#1076=AXIS2_PLACEMENT_3D('',#1622,#1347,#1348);
#1077=AXIS2_PLACEMENT_3D('',#1623,#1349,#1350);
#1078=AXIS2_PLACEMENT_3D('',#1625,#1352,#1353);
#1079=AXIS2_PLACEMENT_3D('',#1627,#1355,#1356);
#1080=AXIS2_PLACEMENT_3D('',#1629,#1358,#1359);
#1081=AXIS2_PLACEMENT_3D('',#1631,#1361,#1362);
#1082=AXIS2_PLACEMENT_3D('',#1633,#1364,#1365);
#1083=AXIS2_PLACEMENT_3D('',#1635,#1367,#1368);
#1084=DIRECTION('axis',(0.,0.,1.));
#1085=DIRECTION('refdir',(1.,0.,0.));
#1086=DIRECTION('center_axis',(-1.,0.,0.));
#1087=DIRECTION('ref_axis',(0.,1.,0.));
#1088=DIRECTION('center_axis',(1.,0.,0.));
#1089=DIRECTION('ref_axis',(0.,1.,0.));
#1090=DIRECTION('',(-1.,0.,0.));
#1091=DIRECTION('center_axis',(1.,0.,0.));
#1092=DIRECTION('ref_axis',(0.,1.,0.));
#1093=DIRECTION('center_axis',(1.,0.,0.));
#1094=DIRECTION('ref_axis',(0.,1.,0.));
#1095=DIRECTION('center_axis',(1.,0.,0.));
#1096=DIRECTION('ref_axis',(0.,1.,2.13162820728029E-15));
#1097=DIRECTION('',(0.,-1.,0.));
#1098=DIRECTION('center_axis',(1.,0.,0.));
#1099=DIRECTION('ref_axis',(0.,0.,1.));
#1100=DIRECTION('',(0.,0.,-1.));
#1101=DIRECTION('center_axis',(1.,0.,0.));
#1102=DIRECTION('ref_axis',(0.,-1.,0.));
#1103=DIRECTION('',(0.,1.,0.));
#1104=DIRECTION('center_axis',(1.,0.,0.));
#1105=DIRECTION('ref_axis',(0.,0.,-1.));
#1106=DIRECTION('',(0.,0.859292884409707,0.511483859767683));
#1107=DIRECTION('center_axis',(-1.,0.,0.));
#1108=DIRECTION('ref_axis',(0.,-0.511483859767683,0.859292884409706));
#1109=DIRECTION('',(0.,1.,0.));
#1110=DIRECTION('center_axis',(-1.,0.,0.));
#1111=DIRECTION('ref_axis',(0.,0.,1.));
#1112=DIRECTION('',(0.,0.859292884409707,-0.511483859767683));
#1113=DIRECTION('center_axis',(1.,0.,0.));
#1114=DIRECTION('ref_axis',(0.,-0.511483859767672,-0.859292884409713));
#1115=DIRECTION('',(0.,1.,0.));
#1116=DIRECTION('center_axis',(1.,0.,0.));
#1117=DIRECTION('ref_axis',(0.,0.,-1.));
#1118=DIRECTION('',(0.,0.,1.));
#1119=DIRECTION('center_axis',(1.,0.,0.));
#1120=DIRECTION('ref_axis',(0.,1.,0.));
#1121=DIRECTION('center_axis',(-1.,0.,0.));
#1122=DIRECTION('ref_axis',(0.,-1.,3.5527136788005E-16));
#1123=DIRECTION('center_axis',(1.,0.,0.));
#1124=DIRECTION('ref_axis',(0.,-1.,0.));
#1125=DIRECTION('center_axis',(1.,0.,0.));
#1126=DIRECTION('ref_axis',(0.,-1.,0.));
#1127=DIRECTION('center_axis',(1.,0.,0.));
#1128=DIRECTION('ref_axis',(0.,-1.,0.));
#1129=DIRECTION('center_axis',(1.,0.,0.));
#1130=DIRECTION('ref_axis',(0.,-1.,-5.51710040252897E-17));
#1131=DIRECTION('center_axis',(1.,0.,0.));
#1132=DIRECTION('ref_axis',(0.,1.,0.));
#1133=DIRECTION('center_axis',(1.,0.,0.));
#1134=DIRECTION('ref_axis',(0.,1.,-2.44929359829471E-16));
#1135=DIRECTION('center_axis',(1.,0.,0.));
#1136=DIRECTION('ref_axis',(0.,1.,0.));
#1137=DIRECTION('',(0.,0.,1.));
#1138=DIRECTION('center_axis',(1.,0.,0.));
#1139=DIRECTION('ref_axis',(0.,0.70710678118655,-0.707106781186545));
#1140=DIRECTION('',(0.,0.707106781186548,0.707106781186547));
#1141=DIRECTION('center_axis',(1.,0.,0.));
#1142=DIRECTION('ref_axis',(0.,0.,-1.));
#1143=DIRECTION('',(0.,1.,0.));
#1144=DIRECTION('center_axis',(1.,0.,0.));
#1145=DIRECTION('ref_axis',(0.,-0.707106781186546,-0.70710678118655));
#1146=DIRECTION('',(0.,0.707106781186548,-0.707106781186546));
#1147=DIRECTION('center_axis',(1.,0.,0.));
#1148=DIRECTION('ref_axis',(0.,-1.,-1.42108547152019E-15));
#1149=DIRECTION('',(0.,0.,-1.));
#1150=DIRECTION('center_axis',(1.,0.,0.));
#1151=DIRECTION('ref_axis',(0.,0.,1.));
#1152=DIRECTION('',(0.,-1.,0.));
#1153=DIRECTION('center_axis',(1.,0.,0.));
#1154=DIRECTION('ref_axis',(0.,1.,0.));
#1155=DIRECTION('center_axis',(1.,0.,0.));
#1156=DIRECTION('ref_axis',(0.,1.,0.));
#1157=DIRECTION('center_axis',(1.,0.,0.));
#1158=DIRECTION('ref_axis',(0.,1.,0.));
#1159=DIRECTION('center_axis',(1.,0.,0.));
#1160=DIRECTION('ref_axis',(0.,1.,0.));
#1161=DIRECTION('center_axis',(1.,0.,0.));
#1162=DIRECTION('ref_axis',(0.,1.,0.));
#1163=DIRECTION('center_axis',(1.,0.,0.));
#1164=DIRECTION('ref_axis',(0.,1.,0.));
#1165=DIRECTION('center_axis',(1.,0.,0.));
#1166=DIRECTION('ref_axis',(0.,1.,0.));
#1167=DIRECTION('center_axis',(1.,0.,0.));
#1168=DIRECTION('ref_axis',(0.,1.,0.));
#1169=DIRECTION('',(1.,0.,0.));
#1170=DIRECTION('center_axis',(1.,0.,0.));
#1171=DIRECTION('ref_axis',(0.,1.,2.1316282072803E-15));
#1172=DIRECTION('',(1.,0.,0.));
#1173=DIRECTION('center_axis',(0.,0.,-1.));
#1174=DIRECTION('ref_axis',(0.,1.,0.));
#1175=DIRECTION('',(0.,-1.,0.));
#1176=DIRECTION('',(1.,0.,0.));
#1177=DIRECTION('center_axis',(1.,0.,0.));
#1178=DIRECTION('ref_axis',(0.,1.,0.));
#1179=DIRECTION('center_axis',(1.,0.,0.));
#1180=DIRECTION('ref_axis',(0.,0.,1.));
#1181=DIRECTION('',(1.,0.,0.));
#1182=DIRECTION('center_axis',(0.,1.,0.));
#1183=DIRECTION('ref_axis',(0.,0.,1.));
#1184=DIRECTION('',(0.,0.,-1.));
#1185=DIRECTION('',(1.,0.,0.));
#1186=DIRECTION('center_axis',(1.,0.,0.));
#1187=DIRECTION('ref_axis',(0.,1.,0.));
#1188=DIRECTION('center_axis',(1.,0.,0.));
#1189=DIRECTION('ref_axis',(0.,-1.,-1.4210854715202E-15));
#1190=DIRECTION('',(1.,0.,0.));
#1191=DIRECTION('center_axis',(0.,0.,-1.));
#1192=DIRECTION('ref_axis',(0.,1.,0.));
#1193=DIRECTION('',(0.,1.,0.));
#1194=DIRECTION('',(1.,0.,0.));
#1195=DIRECTION('center_axis',(1.,0.,0.));
#1196=DIRECTION('ref_axis',(0.,1.,0.));
#1197=DIRECTION('center_axis',(1.,0.,0.));
#1198=DIRECTION('ref_axis',(0.,0.,-1.));
#1199=DIRECTION('',(1.,0.,0.));
#1200=DIRECTION('center_axis',(0.,0.511483859767683,-0.859292884409707));
#1201=DIRECTION('ref_axis',(0.,0.859292884409707,0.511483859767683));
#1202=DIRECTION('',(0.,0.859292884409707,0.511483859767683));
#1203=DIRECTION('',(1.,0.,0.));
#1204=DIRECTION('center_axis',(1.,0.,0.));
#1205=DIRECTION('ref_axis',(0.,1.,0.));
#1206=DIRECTION('center_axis',(-1.,0.,0.));
#1207=DIRECTION('ref_axis',(0.,-0.511483859767683,0.859292884409706));
#1208=DIRECTION('',(1.,0.,0.));
#1209=DIRECTION('center_axis',(0.,0.,1.));
#1210=DIRECTION('ref_axis',(0.,-1.,0.));
#1211=DIRECTION('',(0.,1.,0.));
#1212=DIRECTION('',(1.,0.,0.));
#1213=DIRECTION('center_axis',(1.,0.,0.));
#1214=DIRECTION('ref_axis',(0.,1.,0.));
#1215=DIRECTION('center_axis',(-1.,0.,0.));
#1216=DIRECTION('ref_axis',(0.,0.,1.));
#1217=DIRECTION('',(1.,0.,0.));
#1218=DIRECTION('center_axis',(0.,0.511483859767683,0.859292884409707));
#1219=DIRECTION('ref_axis',(0.,-0.859292884409707,0.511483859767683));
#1220=DIRECTION('',(0.,0.859292884409707,-0.511483859767683));
#1221=DIRECTION('',(1.,0.,0.));
#1222=DIRECTION('center_axis',(1.,0.,0.));
#1223=DIRECTION('ref_axis',(0.,1.,0.));
#1224=DIRECTION('center_axis',(1.,0.,0.));
#1225=DIRECTION('ref_axis',(0.,-0.511483859767672,-0.859292884409713));
#1226=DIRECTION('',(1.,0.,0.));
#1227=DIRECTION('center_axis',(0.,0.,-1.));
#1228=DIRECTION('ref_axis',(0.,1.,0.));
#1229=DIRECTION('',(0.,1.,0.));
#1230=DIRECTION('',(1.,0.,0.));
#1231=DIRECTION('center_axis',(1.,0.,0.));
#1232=DIRECTION('ref_axis',(0.,1.,0.));
#1233=DIRECTION('center_axis',(1.,0.,0.));
#1234=DIRECTION('ref_axis',(0.,0.,-1.));
#1235=DIRECTION('',(1.,0.,0.));
#1236=DIRECTION('center_axis',(0.,-1.,0.));
#1237=DIRECTION('ref_axis',(0.,0.,-1.));
#1238=DIRECTION('',(0.,0.,1.));
#1239=DIRECTION('center_axis',(1.,0.,0.));
#1240=DIRECTION('ref_axis',(0.,-1.,0.));
#1241=DIRECTION('center_axis',(-1.,0.,0.));
#1242=DIRECTION('ref_axis',(0.,-1.,3.5527136788005E-16));
#1243=DIRECTION('',(1.,0.,0.));
#1244=DIRECTION('center_axis',(1.,0.,0.));
#1245=DIRECTION('ref_axis',(0.,1.,0.));
#1246=DIRECTION('',(1.,0.,0.));
#1247=DIRECTION('',(1.,0.,0.));
#1248=DIRECTION('center_axis',(1.,0.,0.));
#1249=DIRECTION('ref_axis',(0.,1.,0.));
#1250=DIRECTION('center_axis',(0.,0.,-1.));
#1251=DIRECTION('ref_axis',(0.,1.,0.));
#1252=DIRECTION('',(1.,0.,0.));
#1253=DIRECTION('',(0.,-1.,0.));
#1254=DIRECTION('center_axis',(1.,0.,0.));
#1255=DIRECTION('ref_axis',(0.,1.,0.));
#1256=DIRECTION('',(1.,0.,0.));
#1257=DIRECTION('center_axis',(1.,0.,0.));
#1258=DIRECTION('ref_axis',(0.,0.,1.));
#1259=DIRECTION('center_axis',(0.,1.,0.));
#1260=DIRECTION('ref_axis',(0.,0.,1.));
#1261=DIRECTION('',(1.,0.,0.));
#1262=DIRECTION('',(0.,0.,-1.));
#1263=DIRECTION('center_axis',(1.,0.,0.));
#1264=DIRECTION('ref_axis',(0.,1.,0.));
#1265=DIRECTION('',(1.,0.,0.));
#1266=DIRECTION('center_axis',(1.,0.,0.));
#1267=DIRECTION('ref_axis',(0.,-1.,-1.42108547152019E-15));
#1268=DIRECTION('center_axis',(0.,0.707106781186547,0.707106781186549));
#1269=DIRECTION('ref_axis',(0.,-0.707106781186549,0.707106781186547));
#1270=DIRECTION('',(1.,0.,0.));
#1271=DIRECTION('',(0.,0.707106781186548,-0.707106781186546));
#1272=DIRECTION('center_axis',(1.,0.,0.));
#1273=DIRECTION('ref_axis',(0.,1.,0.));
#1274=DIRECTION('',(1.,0.,0.));
#1275=DIRECTION('center_axis',(1.,0.,0.));
#1276=DIRECTION('ref_axis',(0.,-0.707106781186546,-0.70710678118655));
#1277=DIRECTION('center_axis',(0.,0.,1.));
#1278=DIRECTION('ref_axis',(0.,-1.,0.));
#1279=DIRECTION('',(1.,0.,0.));
#1280=DIRECTION('',(0.,1.,0.));
#1281=DIRECTION('center_axis',(1.,0.,0.));
#1282=DIRECTION('ref_axis',(0.,1.,0.));
#1283=DIRECTION('',(1.,0.,0.));
#1284=DIRECTION('center_axis',(1.,0.,0.));
#1285=DIRECTION('ref_axis',(0.,0.,-1.));
#1286=DIRECTION('center_axis',(0.,-0.707106781186547,0.707106781186548));
#1287=DIRECTION('ref_axis',(0.,-0.707106781186548,-0.707106781186547));
#1288=DIRECTION('',(1.,0.,0.));
#1289=DIRECTION('',(0.,0.707106781186548,0.707106781186547));
#1290=DIRECTION('center_axis',(1.,0.,0.));
#1291=DIRECTION('ref_axis',(0.,1.,0.));
#1292=DIRECTION('',(1.,0.,0.));
#1293=DIRECTION('center_axis',(1.,0.,0.));
#1294=DIRECTION('ref_axis',(0.,0.70710678118655,-0.707106781186545));
#1295=DIRECTION('center_axis',(0.,-1.,0.));
#1296=DIRECTION('ref_axis',(0.,0.,-1.));
#1297=DIRECTION('',(0.,0.,1.));
#1298=DIRECTION('center_axis',(1.,0.,0.));
#1299=DIRECTION('ref_axis',(0.,1.,0.));
#1300=DIRECTION('center_axis',(1.,0.,0.));
#1301=DIRECTION('ref_axis',(0.,1.,0.));
#1302=DIRECTION('',(1.,0.,0.));
#1303=DIRECTION('center_axis',(1.,0.,0.));
#1304=DIRECTION('ref_axis',(0.,1.,0.));
#1305=DIRECTION('center_axis',(1.,0.,0.));
#1306=DIRECTION('ref_axis',(0.,1.,-2.44929359829471E-16));
#1307=DIRECTION('',(1.,0.,0.));
#1308=DIRECTION('center_axis',(1.,0.,0.));
#1309=DIRECTION('ref_axis',(0.,1.,0.));
#1310=DIRECTION('center_axis',(1.,0.,0.));
#1311=DIRECTION('ref_axis',(0.,1.,0.));
#1312=DIRECTION('',(1.,0.,0.));
#1313=DIRECTION('center_axis',(1.,0.,0.));
#1314=DIRECTION('ref_axis',(0.,1.,0.));
#1315=DIRECTION('center_axis',(1.,0.,0.));
#1316=DIRECTION('ref_axis',(0.,-1.,-5.51710040252897E-17));
#1317=DIRECTION('',(1.,0.,0.));
#1318=DIRECTION('center_axis',(1.,0.,0.));
#1319=DIRECTION('ref_axis',(0.,1.,0.));
#1320=DIRECTION('center_axis',(1.,0.,0.));
#1321=DIRECTION('ref_axis',(0.,-1.,0.));
#1322=DIRECTION('',(1.,0.,0.));
#1323=DIRECTION('center_axis',(1.,0.,0.));
#1324=DIRECTION('ref_axis',(0.,1.,0.));
#1325=DIRECTION('center_axis',(1.,0.,0.));
#1326=DIRECTION('ref_axis',(0.,-1.,0.));
#1327=DIRECTION('',(1.,0.,0.));
#1328=DIRECTION('center_axis',(-1.,0.,0.));
#1329=DIRECTION('ref_axis',(0.,1.,0.));
#1330=DIRECTION('',(-1.,0.,0.));
#1331=DIRECTION('center_axis',(1.,0.,0.));
#1332=DIRECTION('ref_axis',(0.,1.,3.5527136788005E-16));
#1333=DIRECTION('center_axis',(1.,0.,0.));
#1334=DIRECTION('ref_axis',(0.,1.,0.));
#1335=DIRECTION('center_axis',(1.,0.,0.));
#1336=DIRECTION('ref_axis',(0.,1.,0.));
#1337=DIRECTION('center_axis',(1.,0.,0.));
#1338=DIRECTION('ref_axis',(0.,1.,0.));
#1339=DIRECTION('center_axis',(1.,0.,0.));
#1340=DIRECTION('ref_axis',(0.,1.,0.));
#1341=DIRECTION('center_axis',(1.,0.,0.));
#1342=DIRECTION('ref_axis',(0.,1.,0.));
#1343=DIRECTION('center_axis',(1.,0.,0.));
#1344=DIRECTION('ref_axis',(0.,1.,0.));
#1345=DIRECTION('center_axis',(1.,0.,0.));
#1346=DIRECTION('ref_axis',(0.,1.,0.));
#1347=DIRECTION('center_axis',(1.,0.,0.));
#1348=DIRECTION('ref_axis',(0.,1.,0.));
#1349=DIRECTION('center_axis',(-1.,0.,0.));
#1350=DIRECTION('ref_axis',(0.,1.,0.));
#1351=DIRECTION('',(-1.,0.,0.));
#1352=DIRECTION('center_axis',(-1.,0.,0.));
#1353=DIRECTION('ref_axis',(0.,1.,0.));
#1354=DIRECTION('',(-1.,0.,0.));
#1355=DIRECTION('center_axis',(-1.,0.,0.));
#1356=DIRECTION('ref_axis',(0.,1.,0.));
#1357=DIRECTION('',(-1.,0.,0.));
#1358=DIRECTION('center_axis',(-1.,0.,0.));
#1359=DIRECTION('ref_axis',(0.,1.,0.));
#1360=DIRECTION('',(-1.,0.,0.));
#1361=DIRECTION('center_axis',(-1.,0.,0.));
#1362=DIRECTION('ref_axis',(0.,1.,0.));
#1363=DIRECTION('',(-1.,0.,0.));
#1364=DIRECTION('center_axis',(-1.,0.,0.));
#1365=DIRECTION('ref_axis',(0.,1.,0.));
#1366=DIRECTION('',(-1.,0.,0.));
#1367=DIRECTION('center_axis',(-1.,0.,0.));
#1368=DIRECTION('ref_axis',(0.,1.,0.));
#1369=DIRECTION('',(-1.,0.,0.));
#1370=CARTESIAN_POINT('',(0.,0.,0.));
#1371=CARTESIAN_POINT('Origin',(4.,76.5000000000004,27.5));
#1372=CARTESIAN_POINT('',(4.,74.8790000000004,27.5));
#1373=CARTESIAN_POINT('Origin',(4.,76.5000000000004,27.5));
#1374=CARTESIAN_POINT('',(0.,74.8790000000004,27.5));
#1375=CARTESIAN_POINT('',(4.,74.8790000000004,27.5));
#1376=CARTESIAN_POINT('Origin',(0.,76.5000000000004,27.5));
#1377=CARTESIAN_POINT('Origin',(4.,0.,0.));
#1378=CARTESIAN_POINT('',(4.,142.5,26.5));
#1379=CARTESIAN_POINT('',(4.,137.5,31.5));
#1380=CARTESIAN_POINT('Origin',(4.,137.5,26.5));
#1381=CARTESIAN_POINT('',(4.,-137.5,31.5));
#1382=CARTESIAN_POINT('',(4.,137.5,31.5));
#1383=CARTESIAN_POINT('',(4.,-142.5,26.5));
#1384=CARTESIAN_POINT('Origin',(4.,-137.5,26.5));
#1385=CARTESIAN_POINT('',(4.,-142.5,-26.5));
#1386=CARTESIAN_POINT('',(4.,-142.5,26.5));
#1387=CARTESIAN_POINT('',(4.,-137.5,-31.5));
#1388=CARTESIAN_POINT('Origin',(4.,-137.5,-26.5));
#1389=CARTESIAN_POINT('',(4.,-135.587356141636,-31.5));
#1390=CARTESIAN_POINT('',(4.,-137.5,-31.5));
#1391=CARTESIAN_POINT('',(4.,-133.029936842798,-30.7964644220485));
#1392=CARTESIAN_POINT('Origin',(4.,-135.587356141636,-26.5000000000001));
#1393=CARTESIAN_POINT('',(4.,-113.553816384715,-19.2035355779515));
#1394=CARTESIAN_POINT('',(4.,-133.029936842798,-30.7964644220485));
#1395=CARTESIAN_POINT('',(4.,-110.996397085876,-18.5));
#1396=CARTESIAN_POINT('Origin',(4.,-110.996397085876,-23.5));
#1397=CARTESIAN_POINT('',(4.,110.996397085876,-18.5));
#1398=CARTESIAN_POINT('',(4.,-110.996397085876,-18.5));
#1399=CARTESIAN_POINT('',(4.,113.553816384715,-19.2035355779515));
#1400=CARTESIAN_POINT('Origin',(4.,110.996397085876,-23.5));
#1401=CARTESIAN_POINT('',(4.,133.029936842798,-30.7964644220485));
#1402=CARTESIAN_POINT('',(4.,113.553816384715,-19.2035355779515));
#1403=CARTESIAN_POINT('',(4.,135.587356141636,-31.5));
#1404=CARTESIAN_POINT('Origin',(4.,135.587356141636,-26.4999999999998));
#1405=CARTESIAN_POINT('',(4.,137.5,-31.5));
#1406=CARTESIAN_POINT('',(4.,135.587356141636,-31.5));
#1407=CARTESIAN_POINT('',(4.,142.5,-26.5));
#1408=CARTESIAN_POINT('Origin',(4.,137.5,-26.5));
#1409=CARTESIAN_POINT('',(4.,142.5,-26.5));
#1410=CARTESIAN_POINT('',(4.,39.8790000000004,17.5));
#1411=CARTESIAN_POINT('Origin',(4.,41.5000000000004,17.5));
#1412=CARTESIAN_POINT('',(4.,-27.5,-4.99999999999999));
#1413=CARTESIAN_POINT('Origin',(4.,-30.,-4.99999999999999));
#1414=CARTESIAN_POINT('',(4.,27.5,-4.99999999999999));
#1415=CARTESIAN_POINT('Origin',(4.,30.,-4.99999999999999));
#1416=CARTESIAN_POINT('',(4.,133.5,25.));
#1417=CARTESIAN_POINT('Origin',(4.,136.,25.));
#1418=CARTESIAN_POINT('',(4.,133.5,-25.));
#1419=CARTESIAN_POINT('Origin',(4.,136.,-25.));
#1420=CARTESIAN_POINT('',(4.,91.5,3.06161699786838E-16));
#1421=CARTESIAN_POINT('Origin',(4.,94.,4.44089209850063E-16));
#1422=CARTESIAN_POINT('',(4.,-138.5,-25.));
#1423=CARTESIAN_POINT('Origin',(4.,-136.,-25.));
#1424=CARTESIAN_POINT('',(4.,-96.5,-3.06161699786838E-16));
#1425=CARTESIAN_POINT('Origin',(4.,-94.,0.));
#1426=CARTESIAN_POINT('',(4.,-138.5,25.));
#1427=CARTESIAN_POINT('Origin',(4.,-136.,25.));
#1428=CARTESIAN_POINT('',(4.,30.,15.1776695296637));
#1429=CARTESIAN_POINT('',(4.,30.,22.5));
#1430=CARTESIAN_POINT('',(4.,30.,15.1776695296637));
#1431=CARTESIAN_POINT('',(4.,29.2677669529664,13.4099025766973));
#1432=CARTESIAN_POINT('Origin',(4.,27.5,15.1776695296637));
#1433=CARTESIAN_POINT('',(4.,16.5900974233027,0.732233047033635));
#1434=CARTESIAN_POINT('',(4.,16.5900974233027,0.732233047033635));
#1435=CARTESIAN_POINT('',(4.,14.8223304703363,1.33226762955019E-15));
#1436=CARTESIAN_POINT('Origin',(4.,14.8223304703363,2.5));
#1437=CARTESIAN_POINT('',(4.,-14.8223304703363,8.88178419700125E-16));
#1438=CARTESIAN_POINT('',(4.,-14.8223304703363,8.88178419700125E-16));
#1439=CARTESIAN_POINT('',(4.,-16.5900974233027,0.73223304703363));
#1440=CARTESIAN_POINT('Origin',(4.,-14.8223304703363,2.50000000000001));
#1441=CARTESIAN_POINT('',(4.,-29.2677669529664,13.4099025766973));
#1442=CARTESIAN_POINT('',(4.,-29.2677669529664,13.4099025766973));
#1443=CARTESIAN_POINT('',(4.,-30.,15.1776695296637));
#1444=CARTESIAN_POINT('Origin',(4.,-27.5,15.1776695296637));
#1445=CARTESIAN_POINT('',(4.,-30.,22.5));
#1446=CARTESIAN_POINT('',(4.,-30.,22.5));
#1447=CARTESIAN_POINT('',(4.,-27.5,25.));
#1448=CARTESIAN_POINT('Origin',(4.,-27.5,22.5));
#1449=CARTESIAN_POINT('',(4.,27.5,25.));
#1450=CARTESIAN_POINT('',(4.,27.5,25.));
#1451=CARTESIAN_POINT('Origin',(4.,27.5,22.5));
#1452=CARTESIAN_POINT('',(4.,39.8790000000004,27.5));
#1453=CARTESIAN_POINT('Origin',(4.,41.5000000000004,27.5));
#1454=CARTESIAN_POINT('',(4.,74.8790000000004,17.5));
#1455=CARTESIAN_POINT('Origin',(4.,76.5000000000004,17.5));
#1456=CARTESIAN_POINT('',(4.,-43.1210000000004,27.5));
#1457=CARTESIAN_POINT('Origin',(4.,-41.5000000000004,27.5));
#1458=CARTESIAN_POINT('',(4.,-78.1210000000004,27.5));
#1459=CARTESIAN_POINT('Origin',(4.,-76.5000000000004,27.5));
#1460=CARTESIAN_POINT('',(4.,-78.1210000000004,17.5));
#1461=CARTESIAN_POINT('Origin',(4.,-76.5000000000004,17.5));
#1462=CARTESIAN_POINT('',(4.,-43.1210000000004,17.5));
#1463=CARTESIAN_POINT('Origin',(4.,-41.5000000000004,17.5));
#1464=CARTESIAN_POINT('Origin',(2.,137.5,26.5));
#1465=CARTESIAN_POINT('',(0.,142.5,26.5));
#1466=CARTESIAN_POINT('',(0.,142.5,26.5));
#1467=CARTESIAN_POINT('',(0.,137.5,31.5));
#1468=CARTESIAN_POINT('Origin',(0.,137.5,26.5));
#1469=CARTESIAN_POINT('',(0.,137.5,31.5));
#1470=CARTESIAN_POINT('Origin',(0.,-137.5,31.5));
#1471=CARTESIAN_POINT('',(0.,-137.5,31.5));
#1472=CARTESIAN_POINT('',(0.,137.5,31.5));
#1473=CARTESIAN_POINT('',(0.,-137.5,31.5));
#1474=CARTESIAN_POINT('Origin',(2.,-137.5,26.5));
#1475=CARTESIAN_POINT('',(0.,-142.5,26.5));
#1476=CARTESIAN_POINT('Origin',(0.,-137.5,26.5));
#1477=CARTESIAN_POINT('',(0.,-142.5,26.5));
#1478=CARTESIAN_POINT('Origin',(0.,-142.5,-26.5));
#1479=CARTESIAN_POINT('',(0.,-142.5,-26.5));
#1480=CARTESIAN_POINT('',(0.,-142.5,26.5));
#1481=CARTESIAN_POINT('',(0.,-142.5,-26.5));
#1482=CARTESIAN_POINT('Origin',(2.,-137.5,-26.5));
#1483=CARTESIAN_POINT('',(0.,-137.5,-31.5));
#1484=CARTESIAN_POINT('Origin',(0.,-137.5,-26.5));
#1485=CARTESIAN_POINT('',(0.,-137.5,-31.5));
#1486=CARTESIAN_POINT('Origin',(0.,-137.5,-31.5));
#1487=CARTESIAN_POINT('',(0.,-135.587356141636,-31.5));
#1488=CARTESIAN_POINT('',(0.,-137.5,-31.5));
#1489=CARTESIAN_POINT('',(0.,-135.587356141636,-31.5));
#1490=CARTESIAN_POINT('Origin',(2.,-135.587356141636,-26.5));
#1491=CARTESIAN_POINT('',(0.,-133.029936842798,-30.7964644220485));
#1492=CARTESIAN_POINT('Origin',(0.,-135.587356141636,-26.5000000000001));
#1493=CARTESIAN_POINT('',(0.,-133.029936842798,-30.7964644220485));
#1494=CARTESIAN_POINT('Origin',(0.,-133.029936842798,-30.7964644220485));
#1495=CARTESIAN_POINT('',(0.,-113.553816384715,-19.2035355779515));
#1496=CARTESIAN_POINT('',(0.,-133.029936842798,-30.7964644220485));
#1497=CARTESIAN_POINT('',(0.,-113.553816384715,-19.2035355779515));
#1498=CARTESIAN_POINT('Origin',(2.,-110.996397085876,-23.5));
#1499=CARTESIAN_POINT('',(0.,-110.996397085876,-18.5));
#1500=CARTESIAN_POINT('Origin',(0.,-110.996397085876,-23.5));
#1501=CARTESIAN_POINT('',(0.,-110.996397085876,-18.5));
#1502=CARTESIAN_POINT('Origin',(0.,110.996397085876,-18.5));
#1503=CARTESIAN_POINT('',(0.,110.996397085876,-18.5));
#1504=CARTESIAN_POINT('',(0.,-110.996397085876,-18.5));
#1505=CARTESIAN_POINT('',(0.,110.996397085876,-18.5));
#1506=CARTESIAN_POINT('Origin',(2.,110.996397085876,-23.5));
#1507=CARTESIAN_POINT('',(0.,113.553816384715,-19.2035355779515));
#1508=CARTESIAN_POINT('Origin',(0.,110.996397085876,-23.5));
#1509=CARTESIAN_POINT('',(0.,113.553816384715,-19.2035355779515));
#1510=CARTESIAN_POINT('Origin',(0.,133.029936842798,-30.7964644220485));
#1511=CARTESIAN_POINT('',(0.,133.029936842798,-30.7964644220485));
#1512=CARTESIAN_POINT('',(0.,113.553816384715,-19.2035355779515));
#1513=CARTESIAN_POINT('',(0.,133.029936842798,-30.7964644220485));
#1514=CARTESIAN_POINT('Origin',(2.,135.587356141636,-26.5));
#1515=CARTESIAN_POINT('',(0.,135.587356141636,-31.5));
#1516=CARTESIAN_POINT('Origin',(0.,135.587356141636,-26.4999999999998));
#1517=CARTESIAN_POINT('',(0.,135.587356141636,-31.5));
#1518=CARTESIAN_POINT('Origin',(0.,-137.5,-31.5));
#1519=CARTESIAN_POINT('',(0.,137.5,-31.5));
#1520=CARTESIAN_POINT('',(0.,135.587356142168,-31.5));
#1521=CARTESIAN_POINT('',(0.,137.5,-31.5));
#1522=CARTESIAN_POINT('Origin',(2.,137.5,-26.5));
#1523=CARTESIAN_POINT('',(0.,142.5,-26.5));
#1524=CARTESIAN_POINT('Origin',(0.,137.5,-26.5));
#1525=CARTESIAN_POINT('',(0.,142.5,-26.5));
#1526=CARTESIAN_POINT('Origin',(0.,142.5,26.5));
#1527=CARTESIAN_POINT('',(0.,142.5,-26.5));
#1528=CARTESIAN_POINT('Origin',(4.,-30.,-4.99999999999999));
#1529=CARTESIAN_POINT('',(0.,-27.5,-4.99999999999999));
#1530=CARTESIAN_POINT('Origin',(0.,-30.,-4.99999999999999));
#1531=CARTESIAN_POINT('',(4.,-27.5,-4.99999999999999));
#1532=CARTESIAN_POINT('Origin',(2.,27.5,22.5));
#1533=CARTESIAN_POINT('',(0.,30.,22.5));
#1534=CARTESIAN_POINT('',(0.,30.,22.5));
#1535=CARTESIAN_POINT('',(0.,27.5,25.));
#1536=CARTESIAN_POINT('',(0.,27.5,25.));
#1537=CARTESIAN_POINT('Origin',(0.,27.5,22.5));
#1538=CARTESIAN_POINT('Origin',(0.,-27.5,25.));
#1539=CARTESIAN_POINT('',(0.,-27.5,25.));
#1540=CARTESIAN_POINT('',(0.,-27.5,25.));
#1541=CARTESIAN_POINT('',(0.,27.5,25.));
#1542=CARTESIAN_POINT('Origin',(2.,-27.5,22.5));
#1543=CARTESIAN_POINT('',(0.,-30.,22.5));
#1544=CARTESIAN_POINT('',(0.,-30.,22.5));
#1545=CARTESIAN_POINT('Origin',(0.,-27.5,22.5));
#1546=CARTESIAN_POINT('Origin',(0.,-30.,15.1776695296637));
#1547=CARTESIAN_POINT('',(0.,-30.,15.1776695296637));
#1548=CARTESIAN_POINT('',(0.,-30.,15.1776695296637));
#1549=CARTESIAN_POINT('',(0.,-30.,22.5));
#1550=CARTESIAN_POINT('Origin',(2.,-27.5,15.1776695296637));
#1551=CARTESIAN_POINT('',(0.,-29.2677669529664,13.4099025766973));
#1552=CARTESIAN_POINT('',(0.,-29.2677669529664,13.4099025766973));
#1553=CARTESIAN_POINT('Origin',(0.,-27.5,15.1776695296637));
#1554=CARTESIAN_POINT('Origin',(0.,-16.5900974233027,0.73223304703363));
#1555=CARTESIAN_POINT('',(0.,-16.5900974233027,0.73223304703363));
#1556=CARTESIAN_POINT('',(0.,-16.5900974233027,0.73223304703363));
#1557=CARTESIAN_POINT('',(0.,-29.2677669529664,13.4099025766973));
#1558=CARTESIAN_POINT('Origin',(2.,-14.8223304703363,2.5));
#1559=CARTESIAN_POINT('',(0.,-14.8223304703363,1.33226762955019E-15));
#1560=CARTESIAN_POINT('',(0.,-14.8223304703363,1.33226762955019E-15));
#1561=CARTESIAN_POINT('Origin',(0.,-14.8223304703363,2.50000000000001));
#1562=CARTESIAN_POINT('Origin',(0.,14.8223304703363,8.88178419700125E-16));
#1563=CARTESIAN_POINT('',(0.,14.8223304703363,8.88178419700125E-16));
#1564=CARTESIAN_POINT('',(0.,14.8223304703363,8.88178419700125E-16));
#1565=CARTESIAN_POINT('',(0.,-14.8223304703363,8.88178419700125E-16));
#1566=CARTESIAN_POINT('Origin',(2.,14.8223304703363,2.5));
#1567=CARTESIAN_POINT('',(0.,16.5900974233027,0.732233047033631));
#1568=CARTESIAN_POINT('',(0.,16.5900974233027,0.732233047033631));
#1569=CARTESIAN_POINT('Origin',(0.,14.8223304703363,2.5));
#1570=CARTESIAN_POINT('Origin',(0.,29.2677669529664,13.4099025766973));
#1571=CARTESIAN_POINT('',(0.,29.2677669529664,13.4099025766973));
#1572=CARTESIAN_POINT('',(0.,29.2677669529664,13.4099025766973));
#1573=CARTESIAN_POINT('',(0.,16.5900974233027,0.732233047033635));
#1574=CARTESIAN_POINT('Origin',(2.,27.5,15.1776695296637));
#1575=CARTESIAN_POINT('',(0.,30.,15.1776695296637));
#1576=CARTESIAN_POINT('',(0.,30.,15.1776695296637));
#1577=CARTESIAN_POINT('Origin',(0.,27.5,15.1776695296637));
#1578=CARTESIAN_POINT('Origin',(0.,30.,22.5));
#1579=CARTESIAN_POINT('',(0.,30.,15.1776695296637));
#1580=CARTESIAN_POINT('Origin',(2.,-136.,25.));
#1581=CARTESIAN_POINT('',(0.,-138.5,25.));
#1582=CARTESIAN_POINT('Origin',(0.,-136.,25.));
#1583=CARTESIAN_POINT('',(2.,-138.5,25.));
#1584=CARTESIAN_POINT('Origin',(2.,-94.,0.));
#1585=CARTESIAN_POINT('',(0.,-96.5,-3.06161699786838E-16));
#1586=CARTESIAN_POINT('Origin',(0.,-94.,0.));
#1587=CARTESIAN_POINT('',(2.,-96.5,-3.06161699786838E-16));
#1588=CARTESIAN_POINT('Origin',(2.,-136.,-25.));
#1589=CARTESIAN_POINT('',(0.,-138.5,-25.));
#1590=CARTESIAN_POINT('Origin',(0.,-136.,-25.));
#1591=CARTESIAN_POINT('',(2.,-138.5,-25.));
#1592=CARTESIAN_POINT('Origin',(2.,94.,0.));
#1593=CARTESIAN_POINT('',(0.,91.5,3.06161699786838E-16));
#1594=CARTESIAN_POINT('Origin',(0.,94.,4.44089209850063E-16));
#1595=CARTESIAN_POINT('',(2.,91.5,-3.06161699786838E-16));
#1596=CARTESIAN_POINT('Origin',(2.,136.,-25.));
#1597=CARTESIAN_POINT('',(0.,133.5,-25.));
#1598=CARTESIAN_POINT('Origin',(0.,136.,-25.));
#1599=CARTESIAN_POINT('',(2.,133.5,-25.));
#1600=CARTESIAN_POINT('Origin',(2.,136.,25.));
#1601=CARTESIAN_POINT('',(0.,133.5,25.));
#1602=CARTESIAN_POINT('Origin',(0.,136.,25.));
#1603=CARTESIAN_POINT('',(2.,133.5,25.));
#1604=CARTESIAN_POINT('Origin',(4.,30.,-4.99999999999999));
#1605=CARTESIAN_POINT('',(0.,27.5,-4.99999999999999));
#1606=CARTESIAN_POINT('',(4.,27.5,-4.99999999999999));
#1607=CARTESIAN_POINT('Origin',(0.,30.,-4.99999999999999));
#1608=CARTESIAN_POINT('Origin',(0.,0.,0.));
#1609=CARTESIAN_POINT('',(0.,39.8790000000004,17.5));
#1610=CARTESIAN_POINT('Origin',(0.,41.5000000000004,17.5));
#1611=CARTESIAN_POINT('',(0.,39.8790000000004,27.5));
#1612=CARTESIAN_POINT('Origin',(0.,41.5000000000004,27.5));
#1613=CARTESIAN_POINT('',(0.,74.8790000000004,17.5));
#1614=CARTESIAN_POINT('Origin',(0.,76.5000000000004,17.5));
#1615=CARTESIAN_POINT('',(0.,-43.1210000000004,27.5));
#1616=CARTESIAN_POINT('Origin',(0.,-41.5000000000004,27.5));
#1617=CARTESIAN_POINT('',(0.,-78.1210000000004,27.5));
#1618=CARTESIAN_POINT('Origin',(0.,-76.5000000000004,27.5));
#1619=CARTESIAN_POINT('',(0.,-78.1210000000004,17.5));
#1620=CARTESIAN_POINT('Origin',(0.,-76.5000000000004,17.5));
#1621=CARTESIAN_POINT('',(0.,-43.1210000000004,17.5));
#1622=CARTESIAN_POINT('Origin',(0.,-41.5000000000004,17.5));
#1623=CARTESIAN_POINT('Origin',(4.,41.5000000000004,27.5));
#1624=CARTESIAN_POINT('',(4.,39.8790000000004,27.5));
#1625=CARTESIAN_POINT('Origin',(4.,76.5000000000004,17.5));
#1626=CARTESIAN_POINT('',(4.,74.8790000000004,17.5));
#1627=CARTESIAN_POINT('Origin',(4.,-41.5000000000004,27.5));
#1628=CARTESIAN_POINT('',(4.,-43.1210000000004,27.5));
#1629=CARTESIAN_POINT('Origin',(4.,-76.5000000000004,27.5));
#1630=CARTESIAN_POINT('',(4.,-78.1210000000004,27.5));
#1631=CARTESIAN_POINT('Origin',(4.,-76.5000000000004,17.5));
#1632=CARTESIAN_POINT('',(4.,-78.1210000000004,17.5));
#1633=CARTESIAN_POINT('Origin',(4.,41.5000000000004,17.5));
#1634=CARTESIAN_POINT('',(4.,39.8790000000004,17.5));
#1635=CARTESIAN_POINT('Origin',(4.,-41.5000000000004,17.5));
#1636=CARTESIAN_POINT('',(4.,-43.1210000000004,17.5));
#1637=UNCERTAINTY_MEASURE_WITH_UNIT(LENGTH_MEASURE(0.01),#1641,
'DISTANCE_ACCURACY_VALUE',
'Maximum model space distance between geometric entities at asserted c
onnectivities');
#1638=UNCERTAINTY_MEASURE_WITH_UNIT(LENGTH_MEASURE(0.01),#1641,
'DISTANCE_ACCURACY_VALUE',
'Maximum model space distance between geometric entities at asserted c
onnectivities');
#1639=(
GEOMETRIC_REPRESENTATION_CONTEXT(3)
GLOBAL_UNCERTAINTY_ASSIGNED_CONTEXT((#1637))
GLOBAL_UNIT_ASSIGNED_CONTEXT((#1641,#1643,#1644))
REPRESENTATION_CONTEXT('','3D')
);
#1640=(
GEOMETRIC_REPRESENTATION_CONTEXT(3)
GLOBAL_UNCERTAINTY_ASSIGNED_CONTEXT((#1638))
GLOBAL_UNIT_ASSIGNED_CONTEXT((#1641,#1643,#1644))
REPRESENTATION_CONTEXT('','3D')
);
#1641=(
LENGTH_UNIT()
NAMED_UNIT(*)
SI_UNIT(.MILLI.,.METRE.)
);
#1642=(
LENGTH_UNIT()
NAMED_UNIT(*)
SI_UNIT(.CENTI.,.METRE.)
);
#1643=(
NAMED_UNIT(*)
PLANE_ANGLE_UNIT()
SI_UNIT($,.RADIAN.)
);
#1644=(
NAMED_UNIT(*)
SI_UNIT($,.STERADIAN.)
SOLID_ANGLE_UNIT()
);
#1645=SHAPE_DEFINITION_REPRESENTATION(#1646,#1647);
#1646=PRODUCT_DEFINITION_SHAPE('',$,#1649);
#1647=SHAPE_REPRESENTATION('',(#977),#1639);
#1648=PRODUCT_DEFINITION_CONTEXT('part definition',#1653,'design');
#1649=PRODUCT_DEFINITION('plaque mobile','plaque mobile',#1650,#1648);
#1650=PRODUCT_DEFINITION_FORMATION('',$,#1655);
#1651=PRODUCT_RELATED_PRODUCT_CATEGORY('plaque mobile','plaque mobile',
(#1655));
#1652=APPLICATION_PROTOCOL_DEFINITION('international standard',
'automotive_design',2009,#1653);
#1653=APPLICATION_CONTEXT(
'Core Data for Automotive Mechanical Design Process');
#1654=PRODUCT_CONTEXT('part definition',#1653,'mechanical');
#1655=PRODUCT('plaque mobile','plaque mobile',$,(#1654));
#1656=PRESENTATION_STYLE_ASSIGNMENT((#1658));
#1657=PRESENTATION_STYLE_ASSIGNMENT((#1659));
#1658=SURFACE_STYLE_USAGE(.BOTH.,#1664);
#1659=SURFACE_STYLE_USAGE(.BOTH.,#1665);
#1660=SURFACE_STYLE_RENDERING_WITH_PROPERTIES($,#1672,(#1662));
#1661=SURFACE_STYLE_RENDERING_WITH_PROPERTIES($,#1673,(#1663));
#1662=SURFACE_STYLE_TRANSPARENT(0.);
#1663=SURFACE_STYLE_TRANSPARENT(0.);
#1664=SURFACE_SIDE_STYLE('',(#1666,#1660));
#1665=SURFACE_SIDE_STYLE('',(#1667,#1661));
#1666=SURFACE_STYLE_FILL_AREA(#1668);
#1667=SURFACE_STYLE_FILL_AREA(#1669);
#1668=FILL_AREA_STYLE('',(#1670));
#1669=FILL_AREA_STYLE('',(#1671));
#1670=FILL_AREA_STYLE_COLOUR('',#1672);
#1671=FILL_AREA_STYLE_COLOUR('',#1673);
#1672=COLOUR_RGB('',0.749019607843137,0.749019607843137,0.749019607843137);
#1673=COLOUR_RGB('',0.823529411764706,0.823529411764706,1.);
ENDSEC;
END-ISO-10303-21;
