ISO-10303-21;
HEADER;
/* Generated by software containing ST-Developer
 * from STEP Tools, Inc. (www.steptools.com) 
 */

FILE_DESCRIPTION(
/* description */ (''),
/* implementation_level */ '2;1');

FILE_NAME(
/* name */ 'support_m_v.stp',
/* time_stamp */ '2025-03-31T23:49:44+02:00',
/* author */ ('enezl'),
/* organization */ (''),
/* preprocessor_version */ 'ST-DEVELOPER v20',
/* originating_system */ 'Autodesk Inventor 2025',
/* authorisation */ '');

FILE_SCHEMA (('AUTOMOTIVE_DESIGN { 1 0 10303 214 3 1 1 }'));
ENDSEC;

DATA;
#10=MECHANICAL_DESIGN_GEOMETRIC_PRESENTATION_REPRESENTATION('',(#13),#877);
#11=SHAPE_REPRESENTATION_RELATIONSHIP('SRR','None',#884,#12);
#12=ADVANCED_BREP_SHAPE_REPRESENTATION('',(#14),#876);
#13=STYLED_ITEM('',(#894),#14);
#14=MANIFOLD_SOLID_BREP('Solide1',#504);
#15=FACE_BOUND('',#66,.T.);
#16=FACE_BOUND('',#67,.T.);
#17=FACE_BOUND('',#68,.T.);
#18=FACE_BOUND('',#69,.T.);
#19=FACE_BOUND('',#70,.T.);
#20=FACE_BOUND('',#71,.T.);
#21=FACE_BOUND('',#72,.T.);
#22=FACE_BOUND('',#74,.T.);
#23=FACE_BOUND('',#75,.T.);
#24=FACE_BOUND('',#76,.T.);
#25=FACE_BOUND('',#77,.T.);
#26=FACE_BOUND('',#78,.T.);
#27=FACE_BOUND('',#79,.T.);
#28=FACE_BOUND('',#80,.T.);
#29=PLANE('',#530);
#30=PLANE('',#545);
#31=PLANE('',#560);
#32=PLANE('',#562);
#33=PLANE('',#564);
#34=PLANE('',#566);
#35=PLANE('',#568);
#36=PLANE('',#570);
#37=PLANE('',#572);
#38=PLANE('',#574);
#39=FACE_OUTER_BOUND('',#64,.T.);
#40=FACE_OUTER_BOUND('',#65,.T.);
#41=FACE_OUTER_BOUND('',#73,.T.);
#42=FACE_OUTER_BOUND('',#81,.T.);
#43=FACE_OUTER_BOUND('',#82,.T.);
#44=FACE_OUTER_BOUND('',#83,.T.);
#45=FACE_OUTER_BOUND('',#84,.T.);
#46=FACE_OUTER_BOUND('',#85,.T.);
#47=FACE_OUTER_BOUND('',#86,.T.);
#48=FACE_OUTER_BOUND('',#87,.T.);
#49=FACE_OUTER_BOUND('',#88,.T.);
#50=FACE_OUTER_BOUND('',#89,.T.);
#51=FACE_OUTER_BOUND('',#90,.T.);
#52=FACE_OUTER_BOUND('',#91,.T.);
#53=FACE_OUTER_BOUND('',#92,.T.);
#54=FACE_OUTER_BOUND('',#93,.T.);
#55=FACE_OUTER_BOUND('',#94,.T.);
#56=FACE_OUTER_BOUND('',#95,.T.);
#57=FACE_OUTER_BOUND('',#96,.T.);
#58=FACE_OUTER_BOUND('',#97,.T.);
#59=FACE_OUTER_BOUND('',#98,.T.);
#60=FACE_OUTER_BOUND('',#99,.T.);
#61=FACE_OUTER_BOUND('',#100,.T.);
#62=FACE_OUTER_BOUND('',#101,.T.);
#63=FACE_OUTER_BOUND('',#102,.T.);
#64=EDGE_LOOP('',(#326,#327,#328,#329));
#65=EDGE_LOOP('',(#330,#331,#332,#333,#334,#335,#336,#337,#338,#339,#340,
#341,#342,#343,#344,#345));
#66=EDGE_LOOP('',(#346));
#67=EDGE_LOOP('',(#347));
#68=EDGE_LOOP('',(#348));
#69=EDGE_LOOP('',(#349));
#70=EDGE_LOOP('',(#350));
#71=EDGE_LOOP('',(#351));
#72=EDGE_LOOP('',(#352));
#73=EDGE_LOOP('',(#353,#354,#355,#356,#357,#358,#359,#360,#361,#362,#363,
#364,#365,#366,#367,#368));
#74=EDGE_LOOP('',(#369));
#75=EDGE_LOOP('',(#370));
#76=EDGE_LOOP('',(#371));
#77=EDGE_LOOP('',(#372));
#78=EDGE_LOOP('',(#373));
#79=EDGE_LOOP('',(#374));
#80=EDGE_LOOP('',(#375));
#81=EDGE_LOOP('',(#376,#377,#378,#379));
#82=EDGE_LOOP('',(#380,#381,#382,#383));
#83=EDGE_LOOP('',(#384,#385,#386,#387));
#84=EDGE_LOOP('',(#388,#389,#390,#391));
#85=EDGE_LOOP('',(#392,#393,#394,#395));
#86=EDGE_LOOP('',(#396,#397,#398,#399));
#87=EDGE_LOOP('',(#400,#401,#402,#403));
#88=EDGE_LOOP('',(#404,#405,#406,#407));
#89=EDGE_LOOP('',(#408,#409,#410,#411));
#90=EDGE_LOOP('',(#412,#413,#414,#415));
#91=EDGE_LOOP('',(#416,#417,#418,#419));
#92=EDGE_LOOP('',(#420,#421,#422,#423));
#93=EDGE_LOOP('',(#424,#425,#426,#427));
#94=EDGE_LOOP('',(#428,#429,#430,#431));
#95=EDGE_LOOP('',(#432,#433,#434,#435));
#96=EDGE_LOOP('',(#436,#437,#438,#439));
#97=EDGE_LOOP('',(#440,#441,#442,#443));
#98=EDGE_LOOP('',(#444,#445,#446,#447));
#99=EDGE_LOOP('',(#448,#449,#450,#451));
#100=EDGE_LOOP('',(#452,#453,#454,#455));
#101=EDGE_LOOP('',(#456,#457,#458,#459));
#102=EDGE_LOOP('',(#460,#461,#462,#463));
#103=LINE('',#738,#142);
#104=LINE('',#743,#143);
#105=LINE('',#747,#144);
#106=LINE('',#751,#145);
#107=LINE('',#755,#146);
#108=LINE('',#759,#147);
#109=LINE('',#763,#148);
#110=LINE('',#767,#149);
#111=LINE('',#771,#150);
#112=LINE('',#788,#151);
#113=LINE('',#792,#152);
#114=LINE('',#796,#153);
#115=LINE('',#800,#154);
#116=LINE('',#804,#155);
#117=LINE('',#808,#156);
#118=LINE('',#812,#157);
#119=LINE('',#816,#158);
#120=LINE('',#831,#159);
#121=LINE('',#832,#160);
#122=LINE('',#834,#161);
#123=LINE('',#836,#162);
#124=LINE('',#838,#163);
#125=LINE('',#840,#164);
#126=LINE('',#842,#165);
#127=LINE('',#844,#166);
#128=LINE('',#846,#167);
#129=LINE('',#848,#168);
#130=LINE('',#850,#169);
#131=LINE('',#852,#170);
#132=LINE('',#854,#171);
#133=LINE('',#856,#172);
#134=LINE('',#858,#173);
#135=LINE('',#860,#174);
#136=LINE('',#863,#175);
#137=LINE('',#865,#176);
#138=LINE('',#867,#177);
#139=LINE('',#869,#178);
#140=LINE('',#871,#179);
#141=LINE('',#873,#180);
#142=VECTOR('',#588,1.55);
#143=VECTOR('',#593,5.);
#144=VECTOR('',#596,2.25);
#145=VECTOR('',#599,24.);
#146=VECTOR('',#602,32.5);
#147=VECTOR('',#605,24.);
#148=VECTOR('',#608,2.25);
#149=VECTOR('',#611,5.);
#150=VECTOR('',#614,57.);
#151=VECTOR('',#631,5.);
#152=VECTOR('',#634,57.);
#153=VECTOR('',#637,5.);
#154=VECTOR('',#640,2.25);
#155=VECTOR('',#643,24.);
#156=VECTOR('',#646,32.5);
#157=VECTOR('',#649,24.);
#158=VECTOR('',#652,2.25);
#159=VECTOR('',#669,3.);
#160=VECTOR('',#670,3.);
#161=VECTOR('',#673,3.);
#162=VECTOR('',#676,3.);
#163=VECTOR('',#679,3.);
#164=VECTOR('',#682,3.);
#165=VECTOR('',#685,3.);
#166=VECTOR('',#688,3.);
#167=VECTOR('',#691,3.);
#168=VECTOR('',#694,3.);
#169=VECTOR('',#697,3.);
#170=VECTOR('',#700,3.);
#171=VECTOR('',#703,3.);
#172=VECTOR('',#706,3.);
#173=VECTOR('',#709,3.);
#174=VECTOR('',#712,3.);
#175=VECTOR('',#717,2.6);
#176=VECTOR('',#720,2.6);
#177=VECTOR('',#723,12.);
#178=VECTOR('',#726,1.55);
#179=VECTOR('',#729,1.55);
#180=VECTOR('',#732,1.55);
#181=CIRCLE('',#528,1.55);
#182=CIRCLE('',#529,1.55);
#183=CIRCLE('',#531,5.);
#184=CIRCLE('',#532,5.);
#185=CIRCLE('',#533,5.);
#186=CIRCLE('',#534,5.);
#187=CIRCLE('',#535,5.);
#188=CIRCLE('',#536,5.);
#189=CIRCLE('',#537,5.);
#190=CIRCLE('',#538,5.);
#191=CIRCLE('',#539,2.6);
#192=CIRCLE('',#540,2.6);
#193=CIRCLE('',#541,12.);
#194=CIRCLE('',#542,1.55);
#195=CIRCLE('',#543,1.55);
#196=CIRCLE('',#544,1.55);
#197=CIRCLE('',#546,5.);
#198=CIRCLE('',#547,5.);
#199=CIRCLE('',#548,5.);
#200=CIRCLE('',#549,5.);
#201=CIRCLE('',#550,5.);
#202=CIRCLE('',#551,5.);
#203=CIRCLE('',#552,5.);
#204=CIRCLE('',#553,5.);
#205=CIRCLE('',#554,2.6);
#206=CIRCLE('',#555,2.6);
#207=CIRCLE('',#556,12.);
#208=CIRCLE('',#557,1.55);
#209=CIRCLE('',#558,1.55);
#210=CIRCLE('',#559,1.55);
#211=VERTEX_POINT('',#735);
#212=VERTEX_POINT('',#737);
#213=VERTEX_POINT('',#741);
#214=VERTEX_POINT('',#742);
#215=VERTEX_POINT('',#744);
#216=VERTEX_POINT('',#746);
#217=VERTEX_POINT('',#748);
#218=VERTEX_POINT('',#750);
#219=VERTEX_POINT('',#752);
#220=VERTEX_POINT('',#754);
#221=VERTEX_POINT('',#756);
#222=VERTEX_POINT('',#758);
#223=VERTEX_POINT('',#760);
#224=VERTEX_POINT('',#762);
#225=VERTEX_POINT('',#764);
#226=VERTEX_POINT('',#766);
#227=VERTEX_POINT('',#768);
#228=VERTEX_POINT('',#770);
#229=VERTEX_POINT('',#773);
#230=VERTEX_POINT('',#775);
#231=VERTEX_POINT('',#777);
#232=VERTEX_POINT('',#779);
#233=VERTEX_POINT('',#781);
#234=VERTEX_POINT('',#783);
#235=VERTEX_POINT('',#786);
#236=VERTEX_POINT('',#787);
#237=VERTEX_POINT('',#789);
#238=VERTEX_POINT('',#791);
#239=VERTEX_POINT('',#793);
#240=VERTEX_POINT('',#795);
#241=VERTEX_POINT('',#797);
#242=VERTEX_POINT('',#799);
#243=VERTEX_POINT('',#801);
#244=VERTEX_POINT('',#803);
#245=VERTEX_POINT('',#805);
#246=VERTEX_POINT('',#807);
#247=VERTEX_POINT('',#809);
#248=VERTEX_POINT('',#811);
#249=VERTEX_POINT('',#813);
#250=VERTEX_POINT('',#815);
#251=VERTEX_POINT('',#818);
#252=VERTEX_POINT('',#820);
#253=VERTEX_POINT('',#822);
#254=VERTEX_POINT('',#824);
#255=VERTEX_POINT('',#826);
#256=VERTEX_POINT('',#828);
#257=EDGE_CURVE('',#211,#211,#181,.T.);
#258=EDGE_CURVE('',#211,#212,#103,.T.);
#259=EDGE_CURVE('',#212,#212,#182,.T.);
#260=EDGE_CURVE('',#213,#214,#104,.T.);
#261=EDGE_CURVE('',#215,#214,#183,.T.);
#262=EDGE_CURVE('',#215,#216,#105,.T.);
#263=EDGE_CURVE('',#216,#217,#184,.T.);
#264=EDGE_CURVE('',#217,#218,#106,.T.);
#265=EDGE_CURVE('',#219,#218,#185,.T.);
#266=EDGE_CURVE('',#219,#220,#107,.T.);
#267=EDGE_CURVE('',#221,#220,#186,.T.);
#268=EDGE_CURVE('',#221,#222,#108,.T.);
#269=EDGE_CURVE('',#222,#223,#187,.T.);
#270=EDGE_CURVE('',#223,#224,#109,.T.);
#271=EDGE_CURVE('',#225,#224,#188,.T.);
#272=EDGE_CURVE('',#225,#226,#110,.T.);
#273=EDGE_CURVE('',#227,#226,#189,.T.);
#274=EDGE_CURVE('',#227,#228,#111,.T.);
#275=EDGE_CURVE('',#213,#228,#190,.T.);
#276=EDGE_CURVE('',#229,#229,#191,.T.);
#277=EDGE_CURVE('',#230,#230,#192,.T.);
#278=EDGE_CURVE('',#231,#231,#193,.T.);
#279=EDGE_CURVE('',#232,#232,#194,.T.);
#280=EDGE_CURVE('',#233,#233,#195,.T.);
#281=EDGE_CURVE('',#234,#234,#196,.T.);
#282=EDGE_CURVE('',#235,#236,#112,.T.);
#283=EDGE_CURVE('',#235,#237,#197,.T.);
#284=EDGE_CURVE('',#238,#237,#113,.T.);
#285=EDGE_CURVE('',#238,#239,#198,.T.);
#286=EDGE_CURVE('',#240,#239,#114,.T.);
#287=EDGE_CURVE('',#240,#241,#199,.T.);
#288=EDGE_CURVE('',#242,#241,#115,.T.);
#289=EDGE_CURVE('',#243,#242,#200,.T.);
#290=EDGE_CURVE('',#244,#243,#116,.T.);
#291=EDGE_CURVE('',#244,#245,#201,.T.);
#292=EDGE_CURVE('',#246,#245,#117,.T.);
#293=EDGE_CURVE('',#246,#247,#202,.T.);
#294=EDGE_CURVE('',#248,#247,#118,.T.);
#295=EDGE_CURVE('',#249,#248,#203,.T.);
#296=EDGE_CURVE('',#250,#249,#119,.T.);
#297=EDGE_CURVE('',#250,#236,#204,.T.);
#298=EDGE_CURVE('',#251,#251,#205,.T.);
#299=EDGE_CURVE('',#252,#252,#206,.T.);
#300=EDGE_CURVE('',#253,#253,#207,.T.);
#301=EDGE_CURVE('',#254,#254,#208,.T.);
#302=EDGE_CURVE('',#255,#255,#209,.T.);
#303=EDGE_CURVE('',#256,#256,#210,.T.);
#304=EDGE_CURVE('',#213,#235,#120,.T.);
#305=EDGE_CURVE('',#236,#214,#121,.T.);
#306=EDGE_CURVE('',#228,#237,#122,.T.);
#307=EDGE_CURVE('',#227,#238,#123,.T.);
#308=EDGE_CURVE('',#226,#239,#124,.T.);
#309=EDGE_CURVE('',#225,#240,#125,.T.);
#310=EDGE_CURVE('',#224,#241,#126,.T.);
#311=EDGE_CURVE('',#223,#242,#127,.T.);
#312=EDGE_CURVE('',#222,#243,#128,.T.);
#313=EDGE_CURVE('',#221,#244,#129,.T.);
#314=EDGE_CURVE('',#220,#245,#130,.T.);
#315=EDGE_CURVE('',#219,#246,#131,.T.);
#316=EDGE_CURVE('',#218,#247,#132,.T.);
#317=EDGE_CURVE('',#217,#248,#133,.T.);
#318=EDGE_CURVE('',#216,#249,#134,.T.);
#319=EDGE_CURVE('',#215,#250,#135,.T.);
#320=EDGE_CURVE('',#229,#251,#136,.T.);
#321=EDGE_CURVE('',#230,#252,#137,.T.);
#322=EDGE_CURVE('',#231,#253,#138,.T.);
#323=EDGE_CURVE('',#232,#254,#139,.T.);
#324=EDGE_CURVE('',#233,#255,#140,.T.);
#325=EDGE_CURVE('',#234,#256,#141,.T.);
#326=ORIENTED_EDGE('',*,*,#257,.F.);
#327=ORIENTED_EDGE('',*,*,#258,.T.);
#328=ORIENTED_EDGE('',*,*,#259,.T.);
#329=ORIENTED_EDGE('',*,*,#258,.F.);
#330=ORIENTED_EDGE('',*,*,#260,.T.);
#331=ORIENTED_EDGE('',*,*,#261,.F.);
#332=ORIENTED_EDGE('',*,*,#262,.T.);
#333=ORIENTED_EDGE('',*,*,#263,.T.);
#334=ORIENTED_EDGE('',*,*,#264,.T.);
#335=ORIENTED_EDGE('',*,*,#265,.F.);
#336=ORIENTED_EDGE('',*,*,#266,.T.);
#337=ORIENTED_EDGE('',*,*,#267,.F.);
#338=ORIENTED_EDGE('',*,*,#268,.T.);
#339=ORIENTED_EDGE('',*,*,#269,.T.);
#340=ORIENTED_EDGE('',*,*,#270,.T.);
#341=ORIENTED_EDGE('',*,*,#271,.F.);
#342=ORIENTED_EDGE('',*,*,#272,.T.);
#343=ORIENTED_EDGE('',*,*,#273,.F.);
#344=ORIENTED_EDGE('',*,*,#274,.T.);
#345=ORIENTED_EDGE('',*,*,#275,.F.);
#346=ORIENTED_EDGE('',*,*,#276,.T.);
#347=ORIENTED_EDGE('',*,*,#277,.T.);
#348=ORIENTED_EDGE('',*,*,#278,.T.);
#349=ORIENTED_EDGE('',*,*,#279,.T.);
#350=ORIENTED_EDGE('',*,*,#280,.T.);
#351=ORIENTED_EDGE('',*,*,#281,.T.);
#352=ORIENTED_EDGE('',*,*,#257,.T.);
#353=ORIENTED_EDGE('',*,*,#282,.F.);
#354=ORIENTED_EDGE('',*,*,#283,.T.);
#355=ORIENTED_EDGE('',*,*,#284,.F.);
#356=ORIENTED_EDGE('',*,*,#285,.T.);
#357=ORIENTED_EDGE('',*,*,#286,.F.);
#358=ORIENTED_EDGE('',*,*,#287,.T.);
#359=ORIENTED_EDGE('',*,*,#288,.F.);
#360=ORIENTED_EDGE('',*,*,#289,.F.);
#361=ORIENTED_EDGE('',*,*,#290,.F.);
#362=ORIENTED_EDGE('',*,*,#291,.T.);
#363=ORIENTED_EDGE('',*,*,#292,.F.);
#364=ORIENTED_EDGE('',*,*,#293,.T.);
#365=ORIENTED_EDGE('',*,*,#294,.F.);
#366=ORIENTED_EDGE('',*,*,#295,.F.);
#367=ORIENTED_EDGE('',*,*,#296,.F.);
#368=ORIENTED_EDGE('',*,*,#297,.T.);
#369=ORIENTED_EDGE('',*,*,#298,.F.);
#370=ORIENTED_EDGE('',*,*,#299,.F.);
#371=ORIENTED_EDGE('',*,*,#300,.F.);
#372=ORIENTED_EDGE('',*,*,#301,.F.);
#373=ORIENTED_EDGE('',*,*,#302,.F.);
#374=ORIENTED_EDGE('',*,*,#303,.F.);
#375=ORIENTED_EDGE('',*,*,#259,.F.);
#376=ORIENTED_EDGE('',*,*,#260,.F.);
#377=ORIENTED_EDGE('',*,*,#304,.T.);
#378=ORIENTED_EDGE('',*,*,#282,.T.);
#379=ORIENTED_EDGE('',*,*,#305,.T.);
#380=ORIENTED_EDGE('',*,*,#275,.T.);
#381=ORIENTED_EDGE('',*,*,#306,.T.);
#382=ORIENTED_EDGE('',*,*,#283,.F.);
#383=ORIENTED_EDGE('',*,*,#304,.F.);
#384=ORIENTED_EDGE('',*,*,#274,.F.);
#385=ORIENTED_EDGE('',*,*,#307,.T.);
#386=ORIENTED_EDGE('',*,*,#284,.T.);
#387=ORIENTED_EDGE('',*,*,#306,.F.);
#388=ORIENTED_EDGE('',*,*,#273,.T.);
#389=ORIENTED_EDGE('',*,*,#308,.T.);
#390=ORIENTED_EDGE('',*,*,#285,.F.);
#391=ORIENTED_EDGE('',*,*,#307,.F.);
#392=ORIENTED_EDGE('',*,*,#272,.F.);
#393=ORIENTED_EDGE('',*,*,#309,.T.);
#394=ORIENTED_EDGE('',*,*,#286,.T.);
#395=ORIENTED_EDGE('',*,*,#308,.F.);
#396=ORIENTED_EDGE('',*,*,#271,.T.);
#397=ORIENTED_EDGE('',*,*,#310,.T.);
#398=ORIENTED_EDGE('',*,*,#287,.F.);
#399=ORIENTED_EDGE('',*,*,#309,.F.);
#400=ORIENTED_EDGE('',*,*,#270,.F.);
#401=ORIENTED_EDGE('',*,*,#311,.T.);
#402=ORIENTED_EDGE('',*,*,#288,.T.);
#403=ORIENTED_EDGE('',*,*,#310,.F.);
#404=ORIENTED_EDGE('',*,*,#311,.F.);
#405=ORIENTED_EDGE('',*,*,#269,.F.);
#406=ORIENTED_EDGE('',*,*,#312,.T.);
#407=ORIENTED_EDGE('',*,*,#289,.T.);
#408=ORIENTED_EDGE('',*,*,#268,.F.);
#409=ORIENTED_EDGE('',*,*,#313,.T.);
#410=ORIENTED_EDGE('',*,*,#290,.T.);
#411=ORIENTED_EDGE('',*,*,#312,.F.);
#412=ORIENTED_EDGE('',*,*,#267,.T.);
#413=ORIENTED_EDGE('',*,*,#314,.T.);
#414=ORIENTED_EDGE('',*,*,#291,.F.);
#415=ORIENTED_EDGE('',*,*,#313,.F.);
#416=ORIENTED_EDGE('',*,*,#266,.F.);
#417=ORIENTED_EDGE('',*,*,#315,.T.);
#418=ORIENTED_EDGE('',*,*,#292,.T.);
#419=ORIENTED_EDGE('',*,*,#314,.F.);
#420=ORIENTED_EDGE('',*,*,#265,.T.);
#421=ORIENTED_EDGE('',*,*,#316,.T.);
#422=ORIENTED_EDGE('',*,*,#293,.F.);
#423=ORIENTED_EDGE('',*,*,#315,.F.);
#424=ORIENTED_EDGE('',*,*,#264,.F.);
#425=ORIENTED_EDGE('',*,*,#317,.T.);
#426=ORIENTED_EDGE('',*,*,#294,.T.);
#427=ORIENTED_EDGE('',*,*,#316,.F.);
#428=ORIENTED_EDGE('',*,*,#317,.F.);
#429=ORIENTED_EDGE('',*,*,#263,.F.);
#430=ORIENTED_EDGE('',*,*,#318,.T.);
#431=ORIENTED_EDGE('',*,*,#295,.T.);
#432=ORIENTED_EDGE('',*,*,#262,.F.);
#433=ORIENTED_EDGE('',*,*,#319,.T.);
#434=ORIENTED_EDGE('',*,*,#296,.T.);
#435=ORIENTED_EDGE('',*,*,#318,.F.);
#436=ORIENTED_EDGE('',*,*,#261,.T.);
#437=ORIENTED_EDGE('',*,*,#305,.F.);
#438=ORIENTED_EDGE('',*,*,#297,.F.);
#439=ORIENTED_EDGE('',*,*,#319,.F.);
#440=ORIENTED_EDGE('',*,*,#276,.F.);
#441=ORIENTED_EDGE('',*,*,#320,.T.);
#442=ORIENTED_EDGE('',*,*,#298,.T.);
#443=ORIENTED_EDGE('',*,*,#320,.F.);
#444=ORIENTED_EDGE('',*,*,#277,.F.);
#445=ORIENTED_EDGE('',*,*,#321,.T.);
#446=ORIENTED_EDGE('',*,*,#299,.T.);
#447=ORIENTED_EDGE('',*,*,#321,.F.);
#448=ORIENTED_EDGE('',*,*,#278,.F.);
#449=ORIENTED_EDGE('',*,*,#322,.T.);
#450=ORIENTED_EDGE('',*,*,#300,.T.);
#451=ORIENTED_EDGE('',*,*,#322,.F.);
#452=ORIENTED_EDGE('',*,*,#279,.F.);
#453=ORIENTED_EDGE('',*,*,#323,.T.);
#454=ORIENTED_EDGE('',*,*,#301,.T.);
#455=ORIENTED_EDGE('',*,*,#323,.F.);
#456=ORIENTED_EDGE('',*,*,#280,.F.);
#457=ORIENTED_EDGE('',*,*,#324,.T.);
#458=ORIENTED_EDGE('',*,*,#302,.T.);
#459=ORIENTED_EDGE('',*,*,#324,.F.);
#460=ORIENTED_EDGE('',*,*,#281,.F.);
#461=ORIENTED_EDGE('',*,*,#325,.T.);
#462=ORIENTED_EDGE('',*,*,#303,.T.);
#463=ORIENTED_EDGE('',*,*,#325,.F.);
#464=CYLINDRICAL_SURFACE('',#527,1.55);
#465=CYLINDRICAL_SURFACE('',#561,5.);
#466=CYLINDRICAL_SURFACE('',#563,5.);
#467=CYLINDRICAL_SURFACE('',#565,5.);
#468=CYLINDRICAL_SURFACE('',#567,5.);
#469=CYLINDRICAL_SURFACE('',#569,5.);
#470=CYLINDRICAL_SURFACE('',#571,5.);
#471=CYLINDRICAL_SURFACE('',#573,5.);
#472=CYLINDRICAL_SURFACE('',#575,5.);
#473=CYLINDRICAL_SURFACE('',#576,2.6);
#474=CYLINDRICAL_SURFACE('',#577,2.6);
#475=CYLINDRICAL_SURFACE('',#578,12.);
#476=CYLINDRICAL_SURFACE('',#579,1.55);
#477=CYLINDRICAL_SURFACE('',#580,1.55);
#478=CYLINDRICAL_SURFACE('',#581,1.55);
#479=ADVANCED_FACE('',(#39),#464,.F.);
#480=ADVANCED_FACE('',(#40,#15,#16,#17,#18,#19,#20,#21),#29,.F.);
#481=ADVANCED_FACE('',(#41,#22,#23,#24,#25,#26,#27,#28),#30,.T.);
#482=ADVANCED_FACE('',(#42),#31,.T.);
#483=ADVANCED_FACE('',(#43),#465,.T.);
#484=ADVANCED_FACE('',(#44),#32,.T.);
#485=ADVANCED_FACE('',(#45),#466,.T.);
#486=ADVANCED_FACE('',(#46),#33,.T.);
#487=ADVANCED_FACE('',(#47),#467,.T.);
#488=ADVANCED_FACE('',(#48),#34,.T.);
#489=ADVANCED_FACE('',(#49),#468,.F.);
#490=ADVANCED_FACE('',(#50),#35,.T.);
#491=ADVANCED_FACE('',(#51),#469,.T.);
#492=ADVANCED_FACE('',(#52),#36,.T.);
#493=ADVANCED_FACE('',(#53),#470,.T.);
#494=ADVANCED_FACE('',(#54),#37,.T.);
#495=ADVANCED_FACE('',(#55),#471,.F.);
#496=ADVANCED_FACE('',(#56),#38,.T.);
#497=ADVANCED_FACE('',(#57),#472,.T.);
#498=ADVANCED_FACE('',(#58),#473,.F.);
#499=ADVANCED_FACE('',(#59),#474,.F.);
#500=ADVANCED_FACE('',(#60),#475,.F.);
#501=ADVANCED_FACE('',(#61),#476,.F.);
#502=ADVANCED_FACE('',(#62),#477,.F.);
#503=ADVANCED_FACE('',(#63),#478,.F.);
#504=CLOSED_SHELL('',(#479,#480,#481,#482,#483,#484,#485,#486,#487,#488,
#489,#490,#491,#492,#493,#494,#495,#496,#497,#498,#499,#500,#501,#502,#503));
#505=DERIVED_UNIT_ELEMENT(#508,1.);
#506=DERIVED_UNIT_ELEMENT(#879,-3.);
#507=DIMENSIONAL_EXPONENTS(0.,1.,0.,0.,0.,0.,0.);
#508=(
CONVERSION_BASED_UNIT('gram',#510)
MASS_UNIT()
NAMED_UNIT(#507)
);
#509=(
MASS_UNIT()
NAMED_UNIT(*)
SI_UNIT(.KILO.,.GRAM.)
);
#510=MASS_MEASURE_WITH_UNIT(MASS_MEASURE(0.001),#509);
#511=DERIVED_UNIT((#505,#506));
#512=MEASURE_REPRESENTATION_ITEM('density measure',
POSITIVE_RATIO_MEASURE(1.),#511);
#513=PROPERTY_DEFINITION_REPRESENTATION(#518,#515);
#514=PROPERTY_DEFINITION_REPRESENTATION(#519,#516);
#515=REPRESENTATION('material name',(#517),#876);
#516=REPRESENTATION('density',(#512),#876);
#517=DESCRIPTIVE_REPRESENTATION_ITEM('G\X\E9n\X\E9rique','G\X\E9n\X\E9
rique');
#518=PROPERTY_DEFINITION('material property','material name',#886);
#519=PROPERTY_DEFINITION('material property','density of part',#886);
#520=DATE_TIME_ROLE('creation_date');
#521=APPLIED_DATE_AND_TIME_ASSIGNMENT(#522,#520,(#886));
#522=DATE_AND_TIME(#523,#524);
#523=CALENDAR_DATE(2025,31,3);
#524=LOCAL_TIME(0,0,0.,#525);
#525=COORDINATED_UNIVERSAL_TIME_OFFSET(0,0,.BEHIND.);
#526=AXIS2_PLACEMENT_3D('',#733,#582,#583);
#527=AXIS2_PLACEMENT_3D('',#734,#584,#585);
#528=AXIS2_PLACEMENT_3D('',#736,#586,#587);
#529=AXIS2_PLACEMENT_3D('',#739,#589,#590);
#530=AXIS2_PLACEMENT_3D('',#740,#591,#592);
#531=AXIS2_PLACEMENT_3D('',#745,#594,#595);
#532=AXIS2_PLACEMENT_3D('',#749,#597,#598);
#533=AXIS2_PLACEMENT_3D('',#753,#600,#601);
#534=AXIS2_PLACEMENT_3D('',#757,#603,#604);
#535=AXIS2_PLACEMENT_3D('',#761,#606,#607);
#536=AXIS2_PLACEMENT_3D('',#765,#609,#610);
#537=AXIS2_PLACEMENT_3D('',#769,#612,#613);
#538=AXIS2_PLACEMENT_3D('',#772,#615,#616);
#539=AXIS2_PLACEMENT_3D('',#774,#617,#618);
#540=AXIS2_PLACEMENT_3D('',#776,#619,#620);
#541=AXIS2_PLACEMENT_3D('',#778,#621,#622);
#542=AXIS2_PLACEMENT_3D('',#780,#623,#624);
#543=AXIS2_PLACEMENT_3D('',#782,#625,#626);
#544=AXIS2_PLACEMENT_3D('',#784,#627,#628);
#545=AXIS2_PLACEMENT_3D('',#785,#629,#630);
#546=AXIS2_PLACEMENT_3D('',#790,#632,#633);
#547=AXIS2_PLACEMENT_3D('',#794,#635,#636);
#548=AXIS2_PLACEMENT_3D('',#798,#638,#639);
#549=AXIS2_PLACEMENT_3D('',#802,#641,#642);
#550=AXIS2_PLACEMENT_3D('',#806,#644,#645);
#551=AXIS2_PLACEMENT_3D('',#810,#647,#648);
#552=AXIS2_PLACEMENT_3D('',#814,#650,#651);
#553=AXIS2_PLACEMENT_3D('',#817,#653,#654);
#554=AXIS2_PLACEMENT_3D('',#819,#655,#656);
#555=AXIS2_PLACEMENT_3D('',#821,#657,#658);
#556=AXIS2_PLACEMENT_3D('',#823,#659,#660);
#557=AXIS2_PLACEMENT_3D('',#825,#661,#662);
#558=AXIS2_PLACEMENT_3D('',#827,#663,#664);
#559=AXIS2_PLACEMENT_3D('',#829,#665,#666);
#560=AXIS2_PLACEMENT_3D('',#830,#667,#668);
#561=AXIS2_PLACEMENT_3D('',#833,#671,#672);
#562=AXIS2_PLACEMENT_3D('',#835,#674,#675);
#563=AXIS2_PLACEMENT_3D('',#837,#677,#678);
#564=AXIS2_PLACEMENT_3D('',#839,#680,#681);
#565=AXIS2_PLACEMENT_3D('',#841,#683,#684);
#566=AXIS2_PLACEMENT_3D('',#843,#686,#687);
#567=AXIS2_PLACEMENT_3D('',#845,#689,#690);
#568=AXIS2_PLACEMENT_3D('',#847,#692,#693);
#569=AXIS2_PLACEMENT_3D('',#849,#695,#696);
#570=AXIS2_PLACEMENT_3D('',#851,#698,#699);
#571=AXIS2_PLACEMENT_3D('',#853,#701,#702);
#572=AXIS2_PLACEMENT_3D('',#855,#704,#705);
#573=AXIS2_PLACEMENT_3D('',#857,#707,#708);
#574=AXIS2_PLACEMENT_3D('',#859,#710,#711);
#575=AXIS2_PLACEMENT_3D('',#861,#713,#714);
#576=AXIS2_PLACEMENT_3D('',#862,#715,#716);
#577=AXIS2_PLACEMENT_3D('',#864,#718,#719);
#578=AXIS2_PLACEMENT_3D('',#866,#721,#722);
#579=AXIS2_PLACEMENT_3D('',#868,#724,#725);
#580=AXIS2_PLACEMENT_3D('',#870,#727,#728);
#581=AXIS2_PLACEMENT_3D('',#872,#730,#731);
#582=DIRECTION('axis',(0.,0.,1.));
#583=DIRECTION('refdir',(1.,0.,0.));
#584=DIRECTION('center_axis',(0.,0.,1.));
#585=DIRECTION('ref_axis',(1.,0.,0.));
#586=DIRECTION('center_axis',(0.,0.,1.));
#587=DIRECTION('ref_axis',(1.,0.,0.));
#588=DIRECTION('',(0.,0.,1.));
#589=DIRECTION('center_axis',(0.,0.,1.));
#590=DIRECTION('ref_axis',(-1.,0.,0.));
#591=DIRECTION('center_axis',(0.,0.,1.));
#592=DIRECTION('ref_axis',(1.,0.,0.));
#593=DIRECTION('',(0.,1.,0.));
#594=DIRECTION('center_axis',(0.,0.,1.));
#595=DIRECTION('ref_axis',(0.,1.,0.));
#596=DIRECTION('',(1.,0.,0.));
#597=DIRECTION('center_axis',(0.,0.,1.));
#598=DIRECTION('ref_axis',(0.,-1.,0.));
#599=DIRECTION('',(0.,1.,0.));
#600=DIRECTION('center_axis',(0.,0.,1.));
#601=DIRECTION('ref_axis',(0.,1.,0.));
#602=DIRECTION('',(1.,0.,0.));
#603=DIRECTION('center_axis',(0.,0.,1.));
#604=DIRECTION('ref_axis',(1.,-1.4210854715202E-15,0.));
#605=DIRECTION('',(0.,-1.,0.));
#606=DIRECTION('center_axis',(0.,0.,1.));
#607=DIRECTION('ref_axis',(-1.,3.5527136788005E-16,0.));
#608=DIRECTION('',(1.,0.,0.));
#609=DIRECTION('center_axis',(0.,0.,1.));
#610=DIRECTION('ref_axis',(1.,6.21724893790087E-16,0.));
#611=DIRECTION('',(0.,-1.,0.));
#612=DIRECTION('center_axis',(0.,0.,1.));
#613=DIRECTION('ref_axis',(-7.105427357601E-16,-1.,0.));
#614=DIRECTION('',(-1.,0.,0.));
#615=DIRECTION('center_axis',(0.,0.,1.));
#616=DIRECTION('ref_axis',(-1.,-8.88178419700125E-17,0.));
#617=DIRECTION('center_axis',(0.,0.,1.));
#618=DIRECTION('ref_axis',(-1.,-5.60749489085361E-16,0.));
#619=DIRECTION('center_axis',(0.,0.,1.));
#620=DIRECTION('ref_axis',(1.,6.83214169000096E-16,0.));
#621=DIRECTION('center_axis',(0.,0.,1.));
#622=DIRECTION('ref_axis',(1.,2.96059473233375E-16,0.));
#623=DIRECTION('center_axis',(0.,0.,1.));
#624=DIRECTION('ref_axis',(0.999999983508639,0.000181611456462696,0.));
#625=DIRECTION('center_axis',(0.,0.,1.));
#626=DIRECTION('ref_axis',(1.,0.,0.));
#627=DIRECTION('center_axis',(0.,0.,1.));
#628=DIRECTION('ref_axis',(1.,0.,0.));
#629=DIRECTION('center_axis',(0.,0.,1.));
#630=DIRECTION('ref_axis',(1.,0.,0.));
#631=DIRECTION('',(0.,1.,0.));
#632=DIRECTION('center_axis',(0.,0.,1.));
#633=DIRECTION('ref_axis',(-1.,-8.88178419700125E-17,0.));
#634=DIRECTION('',(-1.,0.,0.));
#635=DIRECTION('center_axis',(0.,0.,1.));
#636=DIRECTION('ref_axis',(-7.105427357601E-16,-1.,0.));
#637=DIRECTION('',(0.,-1.,0.));
#638=DIRECTION('center_axis',(0.,0.,1.));
#639=DIRECTION('ref_axis',(1.,6.21724893790087E-16,0.));
#640=DIRECTION('',(1.,0.,0.));
#641=DIRECTION('center_axis',(0.,0.,1.));
#642=DIRECTION('ref_axis',(-1.,3.5527136788005E-16,0.));
#643=DIRECTION('',(0.,-1.,0.));
#644=DIRECTION('center_axis',(0.,0.,1.));
#645=DIRECTION('ref_axis',(1.,-1.4210854715202E-15,0.));
#646=DIRECTION('',(1.,0.,0.));
#647=DIRECTION('center_axis',(0.,0.,1.));
#648=DIRECTION('ref_axis',(0.,1.,0.));
#649=DIRECTION('',(0.,1.,0.));
#650=DIRECTION('center_axis',(0.,0.,1.));
#651=DIRECTION('ref_axis',(0.,-1.,0.));
#652=DIRECTION('',(1.,0.,0.));
#653=DIRECTION('center_axis',(0.,0.,1.));
#654=DIRECTION('ref_axis',(0.,1.,0.));
#655=DIRECTION('center_axis',(0.,0.,1.));
#656=DIRECTION('ref_axis',(-1.,-5.60749489085361E-16,0.));
#657=DIRECTION('center_axis',(0.,0.,1.));
#658=DIRECTION('ref_axis',(1.,6.83214169000096E-16,0.));
#659=DIRECTION('center_axis',(0.,0.,1.));
#660=DIRECTION('ref_axis',(1.,2.96059473233375E-16,0.));
#661=DIRECTION('center_axis',(0.,0.,1.));
#662=DIRECTION('ref_axis',(0.999999983508639,0.000181611456462696,0.));
#663=DIRECTION('center_axis',(0.,0.,1.));
#664=DIRECTION('ref_axis',(1.,0.,0.));
#665=DIRECTION('center_axis',(0.,0.,1.));
#666=DIRECTION('ref_axis',(1.,0.,0.));
#667=DIRECTION('center_axis',(-1.,0.,0.));
#668=DIRECTION('ref_axis',(0.,-1.,0.));
#669=DIRECTION('',(0.,0.,1.));
#670=DIRECTION('',(0.,0.,-1.));
#671=DIRECTION('center_axis',(0.,0.,1.));
#672=DIRECTION('ref_axis',(1.,0.,0.));
#673=DIRECTION('',(0.,0.,1.));
#674=DIRECTION('center_axis',(0.,-1.,0.));
#675=DIRECTION('ref_axis',(1.,0.,0.));
#676=DIRECTION('',(0.,0.,1.));
#677=DIRECTION('center_axis',(0.,0.,1.));
#678=DIRECTION('ref_axis',(1.,0.,0.));
#679=DIRECTION('',(0.,0.,1.));
#680=DIRECTION('center_axis',(1.,0.,0.));
#681=DIRECTION('ref_axis',(0.,1.,0.));
#682=DIRECTION('',(0.,0.,1.));
#683=DIRECTION('center_axis',(0.,0.,1.));
#684=DIRECTION('ref_axis',(1.,0.,0.));
#685=DIRECTION('',(0.,0.,1.));
#686=DIRECTION('center_axis',(0.,1.,0.));
#687=DIRECTION('ref_axis',(-1.,0.,0.));
#688=DIRECTION('',(0.,0.,1.));
#689=DIRECTION('center_axis',(0.,0.,1.));
#690=DIRECTION('ref_axis',(1.,0.,0.));
#691=DIRECTION('',(0.,0.,1.));
#692=DIRECTION('center_axis',(1.,0.,0.));
#693=DIRECTION('ref_axis',(0.,1.,0.));
#694=DIRECTION('',(0.,0.,1.));
#695=DIRECTION('center_axis',(0.,0.,1.));
#696=DIRECTION('ref_axis',(1.,0.,0.));
#697=DIRECTION('',(0.,0.,1.));
#698=DIRECTION('center_axis',(0.,1.,0.));
#699=DIRECTION('ref_axis',(-1.,0.,0.));
#700=DIRECTION('',(0.,0.,1.));
#701=DIRECTION('center_axis',(0.,0.,1.));
#702=DIRECTION('ref_axis',(1.,0.,0.));
#703=DIRECTION('',(0.,0.,1.));
#704=DIRECTION('center_axis',(-1.,0.,0.));
#705=DIRECTION('ref_axis',(0.,-1.,0.));
#706=DIRECTION('',(0.,0.,1.));
#707=DIRECTION('center_axis',(0.,0.,1.));
#708=DIRECTION('ref_axis',(1.,0.,0.));
#709=DIRECTION('',(0.,0.,1.));
#710=DIRECTION('center_axis',(0.,1.,0.));
#711=DIRECTION('ref_axis',(-1.,0.,0.));
#712=DIRECTION('',(0.,0.,1.));
#713=DIRECTION('center_axis',(0.,0.,1.));
#714=DIRECTION('ref_axis',(1.,0.,0.));
#715=DIRECTION('center_axis',(0.,0.,1.));
#716=DIRECTION('ref_axis',(1.,0.,0.));
#717=DIRECTION('',(0.,0.,1.));
#718=DIRECTION('center_axis',(0.,0.,1.));
#719=DIRECTION('ref_axis',(1.,0.,0.));
#720=DIRECTION('',(0.,0.,1.));
#721=DIRECTION('center_axis',(0.,0.,1.));
#722=DIRECTION('ref_axis',(1.,0.,0.));
#723=DIRECTION('',(0.,0.,1.));
#724=DIRECTION('center_axis',(0.,0.,1.));
#725=DIRECTION('ref_axis',(1.,0.,0.));
#726=DIRECTION('',(0.,0.,1.));
#727=DIRECTION('center_axis',(0.,0.,1.));
#728=DIRECTION('ref_axis',(1.,0.,0.));
#729=DIRECTION('',(0.,0.,1.));
#730=DIRECTION('center_axis',(0.,0.,1.));
#731=DIRECTION('ref_axis',(1.,0.,0.));
#732=DIRECTION('',(0.,0.,1.));
#733=CARTESIAN_POINT('',(0.,0.,0.));
#734=CARTESIAN_POINT('Origin',(15.5,35.75,-1.5));
#735=CARTESIAN_POINT('',(13.95,35.75,-1.5));
#736=CARTESIAN_POINT('Origin',(15.5,35.75,-1.5));
#737=CARTESIAN_POINT('',(13.95,35.75,1.5));
#738=CARTESIAN_POINT('',(13.95,35.75,-1.5));
#739=CARTESIAN_POINT('Origin',(15.5,35.75,1.5));
#740=CARTESIAN_POINT('Origin',(0.,0.,-1.5));
#741=CARTESIAN_POINT('',(-33.5,-2.5,-1.5));
#742=CARTESIAN_POINT('',(-33.5,2.5,-1.5));
#743=CARTESIAN_POINT('',(-33.5,-2.5,-1.5));
#744=CARTESIAN_POINT('',(-28.5,7.5,-1.5));
#745=CARTESIAN_POINT('Origin',(-28.5,2.5,-1.5));
#746=CARTESIAN_POINT('',(-26.25,7.5,-1.5));
#747=CARTESIAN_POINT('',(-28.5,7.5,-1.5));
#748=CARTESIAN_POINT('',(-21.25,12.5,-1.5));
#749=CARTESIAN_POINT('Origin',(-26.25,12.5,-1.5));
#750=CARTESIAN_POINT('',(-21.25,36.5,-1.5));
#751=CARTESIAN_POINT('',(-21.25,12.5,-1.5));
#752=CARTESIAN_POINT('',(-16.25,41.5,-1.5));
#753=CARTESIAN_POINT('Origin',(-16.25,36.5,-1.5));
#754=CARTESIAN_POINT('',(16.25,41.5,-1.5));
#755=CARTESIAN_POINT('',(-16.25,41.5,-1.5));
#756=CARTESIAN_POINT('',(21.25,36.5,-1.5));
#757=CARTESIAN_POINT('Origin',(16.25,36.5,-1.5));
#758=CARTESIAN_POINT('',(21.25,12.5,-1.5));
#759=CARTESIAN_POINT('',(21.25,36.5,-1.5));
#760=CARTESIAN_POINT('',(26.25,7.5,-1.5));
#761=CARTESIAN_POINT('Origin',(26.25,12.5,-1.5));
#762=CARTESIAN_POINT('',(28.5,7.5,-1.5));
#763=CARTESIAN_POINT('',(26.25,7.5,-1.5));
#764=CARTESIAN_POINT('',(33.5,2.5,-1.5));
#765=CARTESIAN_POINT('Origin',(28.5,2.5,-1.5));
#766=CARTESIAN_POINT('',(33.5,-2.5,-1.5));
#767=CARTESIAN_POINT('',(33.5,2.5,-1.5));
#768=CARTESIAN_POINT('',(28.5,-7.5,-1.5));
#769=CARTESIAN_POINT('Origin',(28.5,-2.5,-1.5));
#770=CARTESIAN_POINT('',(-28.5,-7.5,-1.5));
#771=CARTESIAN_POINT('',(28.5,-7.5,-1.5));
#772=CARTESIAN_POINT('Origin',(-28.5,-2.5,-1.5));
#773=CARTESIAN_POINT('',(-29.1,3.18408167778312E-16,-1.5));
#774=CARTESIAN_POINT('Origin',(-26.5,1.77635683940025E-15,-1.5));
#775=CARTESIAN_POINT('',(23.9,-3.18408167778312E-16,-1.5));
#776=CARTESIAN_POINT('Origin',(26.5,-1.77635683940025E-15,-1.5));
#777=CARTESIAN_POINT('',(-12.,20.25,-1.5));
#778=CARTESIAN_POINT('Origin',(7.34788079488412E-16,20.25,-1.5));
#779=CARTESIAN_POINT('',(13.95,4.75000000000001,-1.5));
#780=CARTESIAN_POINT('Origin',(15.5,4.75000000000001,-1.5));
#781=CARTESIAN_POINT('',(-17.05,4.75000000000001,-1.5));
#782=CARTESIAN_POINT('Origin',(-15.5,4.75000000000001,-1.5));
#783=CARTESIAN_POINT('',(-17.05,35.75,-1.5));
#784=CARTESIAN_POINT('Origin',(-15.5,35.75,-1.5));
#785=CARTESIAN_POINT('Origin',(0.,0.,1.5));
#786=CARTESIAN_POINT('',(-33.5,-2.5,1.5));
#787=CARTESIAN_POINT('',(-33.5,2.5,1.5));
#788=CARTESIAN_POINT('',(-33.5,-2.5,1.5));
#789=CARTESIAN_POINT('',(-28.5,-7.5,1.5));
#790=CARTESIAN_POINT('Origin',(-28.5,-2.5,1.5));
#791=CARTESIAN_POINT('',(28.5,-7.5,1.5));
#792=CARTESIAN_POINT('',(28.5,-7.5,1.5));
#793=CARTESIAN_POINT('',(33.5,-2.5,1.5));
#794=CARTESIAN_POINT('Origin',(28.5,-2.5,1.5));
#795=CARTESIAN_POINT('',(33.5,2.5,1.5));
#796=CARTESIAN_POINT('',(33.5,2.5,1.5));
#797=CARTESIAN_POINT('',(28.5,7.5,1.5));
#798=CARTESIAN_POINT('Origin',(28.5,2.5,1.5));
#799=CARTESIAN_POINT('',(26.25,7.5,1.5));
#800=CARTESIAN_POINT('',(26.25,7.5,1.5));
#801=CARTESIAN_POINT('',(21.25,12.5,1.5));
#802=CARTESIAN_POINT('Origin',(26.25,12.5,1.5));
#803=CARTESIAN_POINT('',(21.25,36.5,1.5));
#804=CARTESIAN_POINT('',(21.25,36.5,1.5));
#805=CARTESIAN_POINT('',(16.25,41.5,1.5));
#806=CARTESIAN_POINT('Origin',(16.25,36.5,1.5));
#807=CARTESIAN_POINT('',(-16.25,41.5,1.5));
#808=CARTESIAN_POINT('',(-16.25,41.5,1.5));
#809=CARTESIAN_POINT('',(-21.25,36.5,1.5));
#810=CARTESIAN_POINT('Origin',(-16.25,36.5,1.5));
#811=CARTESIAN_POINT('',(-21.25,12.5,1.5));
#812=CARTESIAN_POINT('',(-21.25,12.5,1.5));
#813=CARTESIAN_POINT('',(-26.25,7.5,1.5));
#814=CARTESIAN_POINT('Origin',(-26.25,12.5,1.5));
#815=CARTESIAN_POINT('',(-28.5,7.5,1.5));
#816=CARTESIAN_POINT('',(-28.5,7.5,1.5));
#817=CARTESIAN_POINT('Origin',(-28.5,2.5,1.5));
#818=CARTESIAN_POINT('',(-29.1,3.18408167778312E-16,1.5));
#819=CARTESIAN_POINT('Origin',(-26.5,1.77635683940025E-15,1.5));
#820=CARTESIAN_POINT('',(23.9,-3.18408167778312E-16,1.5));
#821=CARTESIAN_POINT('Origin',(26.5,-1.77635683940025E-15,1.5));
#822=CARTESIAN_POINT('',(-12.,20.25,1.5));
#823=CARTESIAN_POINT('Origin',(7.34788079488412E-16,20.25,1.5));
#824=CARTESIAN_POINT('',(13.95,4.75000000000001,1.5));
#825=CARTESIAN_POINT('Origin',(15.5,4.75000000000001,1.5));
#826=CARTESIAN_POINT('',(-17.05,4.75000000000001,1.5));
#827=CARTESIAN_POINT('Origin',(-15.5,4.75000000000001,1.5));
#828=CARTESIAN_POINT('',(-17.05,35.75,1.5));
#829=CARTESIAN_POINT('Origin',(-15.5,35.75,1.5));
#830=CARTESIAN_POINT('Origin',(-33.5,2.5,-1.5));
#831=CARTESIAN_POINT('',(-33.5,-2.5,-1.5));
#832=CARTESIAN_POINT('',(-33.5,2.5,1.5));
#833=CARTESIAN_POINT('Origin',(-28.5,-2.5,-1.5));
#834=CARTESIAN_POINT('',(-28.5,-7.5,-1.5));
#835=CARTESIAN_POINT('Origin',(-28.5,-7.5,-1.5));
#836=CARTESIAN_POINT('',(28.5,-7.5,-1.5));
#837=CARTESIAN_POINT('Origin',(28.5,-2.5,-1.5));
#838=CARTESIAN_POINT('',(33.5,-2.5,-1.5));
#839=CARTESIAN_POINT('Origin',(33.5,-2.5,-1.5));
#840=CARTESIAN_POINT('',(33.5,2.5,-1.5));
#841=CARTESIAN_POINT('Origin',(28.5,2.5,-1.5));
#842=CARTESIAN_POINT('',(28.5,7.5,-1.5));
#843=CARTESIAN_POINT('Origin',(28.5,7.5,-1.5));
#844=CARTESIAN_POINT('',(26.25,7.5,-1.5));
#845=CARTESIAN_POINT('Origin',(26.25,12.5,-1.5));
#846=CARTESIAN_POINT('',(21.25,12.5,-1.5));
#847=CARTESIAN_POINT('Origin',(21.25,12.5,-1.5));
#848=CARTESIAN_POINT('',(21.25,36.5,-1.5));
#849=CARTESIAN_POINT('Origin',(16.25,36.5,-1.5));
#850=CARTESIAN_POINT('',(16.25,41.5,-1.5));
#851=CARTESIAN_POINT('Origin',(16.25,41.5,-1.5));
#852=CARTESIAN_POINT('',(-16.25,41.5,-1.5));
#853=CARTESIAN_POINT('Origin',(-16.25,36.5,-1.5));
#854=CARTESIAN_POINT('',(-21.25,36.5,-1.5));
#855=CARTESIAN_POINT('Origin',(-21.25,36.5,-1.5));
#856=CARTESIAN_POINT('',(-21.25,12.5,-1.5));
#857=CARTESIAN_POINT('Origin',(-26.25,12.5,-1.5));
#858=CARTESIAN_POINT('',(-26.25,7.5,-1.5));
#859=CARTESIAN_POINT('Origin',(-26.25,7.5,-1.5));
#860=CARTESIAN_POINT('',(-28.5,7.5,-1.5));
#861=CARTESIAN_POINT('Origin',(-28.5,2.5,-1.5));
#862=CARTESIAN_POINT('Origin',(-26.5,0.,-1.5));
#863=CARTESIAN_POINT('',(-29.1,-3.18408167778312E-16,-1.5));
#864=CARTESIAN_POINT('Origin',(26.5,0.,-1.5));
#865=CARTESIAN_POINT('',(23.9,-3.18408167778312E-16,-1.5));
#866=CARTESIAN_POINT('Origin',(0.,20.25,-1.5));
#867=CARTESIAN_POINT('',(-12.,20.25,-1.5));
#868=CARTESIAN_POINT('Origin',(15.5,4.75000000000001,-1.5));
#869=CARTESIAN_POINT('',(13.95,4.75000000000001,-1.5));
#870=CARTESIAN_POINT('Origin',(-15.5,4.75000000000001,-1.5));
#871=CARTESIAN_POINT('',(-17.05,4.75000000000001,-1.5));
#872=CARTESIAN_POINT('Origin',(-15.5,35.75,-1.5));
#873=CARTESIAN_POINT('',(-17.05,35.75,-1.5));
#874=UNCERTAINTY_MEASURE_WITH_UNIT(LENGTH_MEASURE(0.01),#878,
'DISTANCE_ACCURACY_VALUE',
'Maximum model space distance between geometric entities at asserted c
onnectivities');
#875=UNCERTAINTY_MEASURE_WITH_UNIT(LENGTH_MEASURE(0.01),#878,
'DISTANCE_ACCURACY_VALUE',
'Maximum model space distance between geometric entities at asserted c
onnectivities');
#876=(
GEOMETRIC_REPRESENTATION_CONTEXT(3)
GLOBAL_UNCERTAINTY_ASSIGNED_CONTEXT((#874))
GLOBAL_UNIT_ASSIGNED_CONTEXT((#878,#880,#881))
REPRESENTATION_CONTEXT('','3D')
);
#877=(
GEOMETRIC_REPRESENTATION_CONTEXT(3)
GLOBAL_UNCERTAINTY_ASSIGNED_CONTEXT((#875))
GLOBAL_UNIT_ASSIGNED_CONTEXT((#878,#880,#881))
REPRESENTATION_CONTEXT('','3D')
);
#878=(
LENGTH_UNIT()
NAMED_UNIT(*)
SI_UNIT(.MILLI.,.METRE.)
);
#879=(
LENGTH_UNIT()
NAMED_UNIT(*)
SI_UNIT(.CENTI.,.METRE.)
);
#880=(
NAMED_UNIT(*)
PLANE_ANGLE_UNIT()
SI_UNIT($,.RADIAN.)
);
#881=(
NAMED_UNIT(*)
SI_UNIT($,.STERADIAN.)
SOLID_ANGLE_UNIT()
);
#882=SHAPE_DEFINITION_REPRESENTATION(#883,#884);
#883=PRODUCT_DEFINITION_SHAPE('',$,#886);
#884=SHAPE_REPRESENTATION('',(#526),#876);
#885=PRODUCT_DEFINITION_CONTEXT('part definition',#890,'design');
#886=PRODUCT_DEFINITION('support_m_v','support_m_v',#887,#885);
#887=PRODUCT_DEFINITION_FORMATION('',$,#892);
#888=PRODUCT_RELATED_PRODUCT_CATEGORY('support_m_v','support_m_v',(#892));
#889=APPLICATION_PROTOCOL_DEFINITION('international standard',
'automotive_design',2009,#890);
#890=APPLICATION_CONTEXT(
'Core Data for Automotive Mechanical Design Process');
#891=PRODUCT_CONTEXT('part definition',#890,'mechanical');
#892=PRODUCT('support_m_v','support_m_v',$,(#891));
#893=PRESENTATION_STYLE_ASSIGNMENT((#895));
#894=PRESENTATION_STYLE_ASSIGNMENT((#896));
#895=SURFACE_STYLE_USAGE(.BOTH.,#901);
#896=SURFACE_STYLE_USAGE(.BOTH.,#902);
#897=SURFACE_STYLE_RENDERING_WITH_PROPERTIES($,#909,(#899));
#898=SURFACE_STYLE_RENDERING_WITH_PROPERTIES($,#910,(#900));
#899=SURFACE_STYLE_TRANSPARENT(0.);
#900=SURFACE_STYLE_TRANSPARENT(0.);
#901=SURFACE_SIDE_STYLE('',(#903,#897));
#902=SURFACE_SIDE_STYLE('',(#904,#898));
#903=SURFACE_STYLE_FILL_AREA(#905);
#904=SURFACE_STYLE_FILL_AREA(#906);
#905=FILL_AREA_STYLE('',(#907));
#906=FILL_AREA_STYLE('',(#908));
#907=FILL_AREA_STYLE_COLOUR('',#909);
#908=FILL_AREA_STYLE_COLOUR('',#910);
#909=COLOUR_RGB('',0.749019607843137,0.749019607843137,0.749019607843137);
#910=COLOUR_RGB('',0.823529411764706,0.823529411764706,1.);
ENDSEC;
END-ISO-10303-21;
