ISO-10303-21;
HEADER;
/* Generated by software containing ST-Developer
 * from STEP Tools, Inc. (www.steptools.com) 
 */

FILE_DESCRIPTION(
/* description */ (''),
/* implementation_level */ '2;1');

FILE_NAME(
/* name */ 'support_codeur.stp',
/* time_stamp */ '2025-03-30T19:31:29+02:00',
/* author */ ('enezl'),
/* organization */ (''),
/* preprocessor_version */ 'ST-DEVELOPER v20',
/* originating_system */ 'Autodesk Inventor 2025',
/* authorisation */ '');

FILE_SCHEMA (('AUTOMOTIVE_DESIGN { 1 0 10303 214 3 1 1 }'));
ENDSEC;

DATA;
#10=MECHANICAL_DESIGN_GEOMETRIC_PRESENTATION_REPRESENTATION('',(#13),#1178);
#11=SHAPE_REPRESENTATION_RELATIONSHIP('SRR','None',#1185,#12);
#12=ADVANCED_BREP_SHAPE_REPRESENTATION('',(#14),#1177);
#13=STYLED_ITEM('',(#1194),#14);
#14=MANIFOLD_SOLID_BREP('Solide1',#675);
#15=CONICAL_SURFACE('',#705,2.55,0.785398163397448);
#16=CONICAL_SURFACE('',#709,2.55,0.785398163397448);
#17=FACE_BOUND('',#82,.T.);
#18=FACE_BOUND('',#89,.T.);
#19=FACE_BOUND('',#95,.T.);
#20=FACE_BOUND('',#96,.T.);
#21=FACE_BOUND('',#101,.T.);
#22=FACE_BOUND('',#111,.T.);
#23=FACE_BOUND('',#112,.T.);
#24=FACE_BOUND('',#113,.T.);
#25=FACE_BOUND('',#121,.T.);
#26=PLANE('',#701);
#27=PLANE('',#717);
#28=PLANE('',#725);
#29=PLANE('',#731);
#30=PLANE('',#732);
#31=PLANE('',#738);
#32=PLANE('',#741);
#33=PLANE('',#746);
#34=PLANE('',#750);
#35=PLANE('',#752);
#36=PLANE('',#753);
#37=PLANE('',#758);
#38=PLANE('',#759);
#39=PLANE('',#762);
#40=PLANE('',#765);
#41=PLANE('',#766);
#42=PLANE('',#772);
#43=FACE_OUTER_BOUND('',#80,.T.);
#44=FACE_OUTER_BOUND('',#81,.T.);
#45=FACE_OUTER_BOUND('',#83,.T.);
#46=FACE_OUTER_BOUND('',#84,.T.);
#47=FACE_OUTER_BOUND('',#85,.T.);
#48=FACE_OUTER_BOUND('',#86,.T.);
#49=FACE_OUTER_BOUND('',#87,.T.);
#50=FACE_OUTER_BOUND('',#88,.T.);
#51=FACE_OUTER_BOUND('',#90,.T.);
#52=FACE_OUTER_BOUND('',#91,.T.);
#53=FACE_OUTER_BOUND('',#92,.T.);
#54=FACE_OUTER_BOUND('',#93,.T.);
#55=FACE_OUTER_BOUND('',#94,.T.);
#56=FACE_OUTER_BOUND('',#97,.T.);
#57=FACE_OUTER_BOUND('',#98,.T.);
#58=FACE_OUTER_BOUND('',#99,.T.);
#59=FACE_OUTER_BOUND('',#100,.T.);
#60=FACE_OUTER_BOUND('',#102,.T.);
#61=FACE_OUTER_BOUND('',#103,.T.);
#62=FACE_OUTER_BOUND('',#104,.T.);
#63=FACE_OUTER_BOUND('',#105,.T.);
#64=FACE_OUTER_BOUND('',#106,.T.);
#65=FACE_OUTER_BOUND('',#107,.T.);
#66=FACE_OUTER_BOUND('',#108,.T.);
#67=FACE_OUTER_BOUND('',#109,.T.);
#68=FACE_OUTER_BOUND('',#110,.T.);
#69=FACE_OUTER_BOUND('',#114,.T.);
#70=FACE_OUTER_BOUND('',#115,.T.);
#71=FACE_OUTER_BOUND('',#116,.T.);
#72=FACE_OUTER_BOUND('',#117,.T.);
#73=FACE_OUTER_BOUND('',#118,.T.);
#74=FACE_OUTER_BOUND('',#119,.T.);
#75=FACE_OUTER_BOUND('',#120,.T.);
#76=FACE_OUTER_BOUND('',#122,.T.);
#77=FACE_OUTER_BOUND('',#123,.T.);
#78=FACE_OUTER_BOUND('',#124,.T.);
#79=FACE_OUTER_BOUND('',#125,.T.);
#80=EDGE_LOOP('',(#432,#433,#434,#435));
#81=EDGE_LOOP('',(#436,#437,#438,#439,#440,#441,#442,#443));
#82=EDGE_LOOP('',(#444));
#83=EDGE_LOOP('',(#445,#446,#447,#448));
#84=EDGE_LOOP('',(#449,#450,#451,#452));
#85=EDGE_LOOP('',(#453,#454,#455,#456));
#86=EDGE_LOOP('',(#457,#458,#459,#460));
#87=EDGE_LOOP('',(#461,#462,#463,#464));
#88=EDGE_LOOP('',(#465,#466,#467,#468,#469,#470,#471,#472,#473,#474,#475,
#476,#477,#478,#479,#480,#481,#482));
#89=EDGE_LOOP('',(#483));
#90=EDGE_LOOP('',(#484,#485,#486,#487));
#91=EDGE_LOOP('',(#488,#489,#490,#491));
#92=EDGE_LOOP('',(#492,#493,#494,#495));
#93=EDGE_LOOP('',(#496,#497,#498,#499,#500,#501));
#94=EDGE_LOOP('',(#502,#503,#504,#505,#506,#507,#508,#509,#510,#511,#512,
#513));
#95=EDGE_LOOP('',(#514));
#96=EDGE_LOOP('',(#515));
#97=EDGE_LOOP('',(#516,#517,#518,#519));
#98=EDGE_LOOP('',(#520,#521,#522,#523));
#99=EDGE_LOOP('',(#524,#525,#526,#527));
#100=EDGE_LOOP('',(#528,#529,#530,#531,#532,#533,#534,#535));
#101=EDGE_LOOP('',(#536));
#102=EDGE_LOOP('',(#537,#538,#539,#540));
#103=EDGE_LOOP('',(#541,#542,#543,#544));
#104=EDGE_LOOP('',(#545,#546,#547,#548));
#105=EDGE_LOOP('',(#549,#550,#551,#552));
#106=EDGE_LOOP('',(#553,#554,#555,#556));
#107=EDGE_LOOP('',(#557,#558,#559,#560));
#108=EDGE_LOOP('',(#561,#562,#563,#564));
#109=EDGE_LOOP('',(#565,#566,#567,#568));
#110=EDGE_LOOP('',(#569,#570,#571,#572,#573,#574,#575,#576));
#111=EDGE_LOOP('',(#577));
#112=EDGE_LOOP('',(#578));
#113=EDGE_LOOP('',(#579));
#114=EDGE_LOOP('',(#580,#581,#582,#583));
#115=EDGE_LOOP('',(#584,#585,#586,#587));
#116=EDGE_LOOP('',(#588,#589,#590,#591));
#117=EDGE_LOOP('',(#592));
#118=EDGE_LOOP('',(#593,#594,#595,#596));
#119=EDGE_LOOP('',(#597));
#120=EDGE_LOOP('',(#598));
#121=EDGE_LOOP('',(#599));
#122=EDGE_LOOP('',(#600,#601,#602,#603));
#123=EDGE_LOOP('',(#604,#605,#606,#607));
#124=EDGE_LOOP('',(#608,#609,#610,#611));
#125=EDGE_LOOP('',(#612,#613,#614,#615,#616,#617,#618,#619));
#126=CIRCLE('',#699,11.75);
#127=CIRCLE('',#700,11.75);
#128=CIRCLE('',#702,2.);
#129=CIRCLE('',#703,2.);
#130=CIRCLE('',#704,3.);
#131=CIRCLE('',#706,2.1);
#132=CIRCLE('',#708,2.1);
#133=CIRCLE('',#710,3.);
#134=CIRCLE('',#711,2.1);
#135=CIRCLE('',#713,2.1);
#136=CIRCLE('',#715,2.);
#137=CIRCLE('',#716,2.);
#138=CIRCLE('',#718,2.);
#139=CIRCLE('',#719,2.);
#140=CIRCLE('',#720,2.);
#141=CIRCLE('',#721,11.5);
#142=CIRCLE('',#722,2.);
#143=CIRCLE('',#723,2.);
#144=CIRCLE('',#724,7.5);
#145=CIRCLE('',#727,2.);
#146=CIRCLE('',#729,2.);
#147=CIRCLE('',#730,2.);
#148=CIRCLE('',#733,2.);
#149=CIRCLE('',#734,2.);
#150=CIRCLE('',#735,2.);
#151=CIRCLE('',#737,2.);
#152=CIRCLE('',#740,2.);
#153=CIRCLE('',#743,2.);
#154=CIRCLE('',#745,2.);
#155=CIRCLE('',#748,2.);
#156=CIRCLE('',#754,11.5);
#157=CIRCLE('',#755,1.6);
#158=CIRCLE('',#756,1.6);
#159=CIRCLE('',#757,5.);
#160=CIRCLE('',#761,1.6);
#161=CIRCLE('',#764,1.6);
#162=CIRCLE('',#767,7.5);
#163=CIRCLE('',#768,5.);
#164=LINE('',#985,#220);
#165=LINE('',#989,#221);
#166=LINE('',#993,#222);
#167=LINE('',#997,#223);
#168=LINE('',#1001,#224);
#169=LINE('',#1003,#225);
#170=LINE('',#1004,#226);
#171=LINE('',#1009,#227);
#172=LINE('',#1013,#228);
#173=LINE('',#1019,#229);
#174=LINE('',#1023,#230);
#175=LINE('',#1030,#231);
#176=LINE('',#1033,#232);
#177=LINE('',#1036,#233);
#178=LINE('',#1040,#234);
#179=LINE('',#1044,#235);
#180=LINE('',#1046,#236);
#181=LINE('',#1048,#237);
#182=LINE('',#1052,#238);
#183=LINE('',#1056,#239);
#184=LINE('',#1059,#240);
#185=LINE('',#1061,#241);
#186=LINE('',#1064,#242);
#187=LINE('',#1069,#243);
#188=LINE('',#1070,#244);
#189=LINE('',#1074,#245);
#190=LINE('',#1080,#246);
#191=LINE('',#1083,#247);
#192=LINE('',#1085,#248);
#193=LINE('',#1087,#249);
#194=LINE('',#1088,#250);
#195=LINE('',#1091,#251);
#196=LINE('',#1094,#252);
#197=LINE('',#1096,#253);
#198=LINE('',#1097,#254);
#199=LINE('',#1101,#255);
#200=LINE('',#1107,#256);
#201=LINE('',#1108,#257);
#202=LINE('',#1111,#258);
#203=LINE('',#1112,#259);
#204=LINE('',#1116,#260);
#205=LINE('',#1118,#261);
#206=LINE('',#1119,#262);
#207=LINE('',#1123,#263);
#208=LINE('',#1127,#264);
#209=LINE('',#1129,#265);
#210=LINE('',#1133,#266);
#211=LINE('',#1135,#267);
#212=LINE('',#1137,#268);
#213=LINE('',#1142,#269);
#214=LINE('',#1151,#270);
#215=LINE('',#1153,#271);
#216=LINE('',#1156,#272);
#217=LINE('',#1161,#273);
#218=LINE('',#1170,#274);
#219=LINE('',#1172,#275);
#220=VECTOR('',#777,10.);
#221=VECTOR('',#780,10.);
#222=VECTOR('',#785,10.);
#223=VECTOR('',#788,10.);
#224=VECTOR('',#791,10.);
#225=VECTOR('',#792,10.);
#226=VECTOR('',#793,10.);
#227=VECTOR('',#798,2.55);
#228=VECTOR('',#803,2.1);
#229=VECTOR('',#810,2.55);
#230=VECTOR('',#815,2.1);
#231=VECTOR('',#822,10.);
#232=VECTOR('',#825,10.);
#233=VECTOR('',#828,10.);
#234=VECTOR('',#831,10.);
#235=VECTOR('',#834,10.);
#236=VECTOR('',#835,10.);
#237=VECTOR('',#836,10.);
#238=VECTOR('',#839,10.);
#239=VECTOR('',#842,10.);
#240=VECTOR('',#845,10.);
#241=VECTOR('',#846,10.);
#242=VECTOR('',#849,10.);
#243=VECTOR('',#854,10.);
#244=VECTOR('',#855,10.);
#245=VECTOR('',#860,10.);
#246=VECTOR('',#865,10.);
#247=VECTOR('',#868,10.);
#248=VECTOR('',#871,10.);
#249=VECTOR('',#872,10.);
#250=VECTOR('',#873,10.);
#251=VECTOR('',#876,10.);
#252=VECTOR('',#879,10.);
#253=VECTOR('',#880,10.);
#254=VECTOR('',#881,10.);
#255=VECTOR('',#884,10.);
#256=VECTOR('',#891,10.);
#257=VECTOR('',#892,10.);
#258=VECTOR('',#895,10.);
#259=VECTOR('',#896,10.);
#260=VECTOR('',#901,10.);
#261=VECTOR('',#904,10.);
#262=VECTOR('',#905,10.);
#263=VECTOR('',#910,10.);
#264=VECTOR('',#915,10.);
#265=VECTOR('',#918,10.);
#266=VECTOR('',#923,10.);
#267=VECTOR('',#926,10.);
#268=VECTOR('',#929,10.);
#269=VECTOR('',#936,10.);
#270=VECTOR('',#947,10.);
#271=VECTOR('',#950,10.);
#272=VECTOR('',#953,1.6);
#273=VECTOR('',#960,1.6);
#274=VECTOR('',#973,7.5);
#275=VECTOR('',#976,5.);
#276=VERTEX_POINT('',#983);
#277=VERTEX_POINT('',#984);
#278=VERTEX_POINT('',#986);
#279=VERTEX_POINT('',#988);
#280=VERTEX_POINT('',#992);
#281=VERTEX_POINT('',#994);
#282=VERTEX_POINT('',#996);
#283=VERTEX_POINT('',#998);
#284=VERTEX_POINT('',#1000);
#285=VERTEX_POINT('',#1002);
#286=VERTEX_POINT('',#1005);
#287=VERTEX_POINT('',#1008);
#288=VERTEX_POINT('',#1012);
#289=VERTEX_POINT('',#1016);
#290=VERTEX_POINT('',#1018);
#291=VERTEX_POINT('',#1022);
#292=VERTEX_POINT('',#1026);
#293=VERTEX_POINT('',#1027);
#294=VERTEX_POINT('',#1029);
#295=VERTEX_POINT('',#1031);
#296=VERTEX_POINT('',#1035);
#297=VERTEX_POINT('',#1037);
#298=VERTEX_POINT('',#1039);
#299=VERTEX_POINT('',#1041);
#300=VERTEX_POINT('',#1043);
#301=VERTEX_POINT('',#1045);
#302=VERTEX_POINT('',#1047);
#303=VERTEX_POINT('',#1049);
#304=VERTEX_POINT('',#1051);
#305=VERTEX_POINT('',#1053);
#306=VERTEX_POINT('',#1055);
#307=VERTEX_POINT('',#1058);
#308=VERTEX_POINT('',#1060);
#309=VERTEX_POINT('',#1062);
#310=VERTEX_POINT('',#1065);
#311=VERTEX_POINT('',#1068);
#312=VERTEX_POINT('',#1072);
#313=VERTEX_POINT('',#1076);
#314=VERTEX_POINT('',#1077);
#315=VERTEX_POINT('',#1079);
#316=VERTEX_POINT('',#1081);
#317=VERTEX_POINT('',#1086);
#318=VERTEX_POINT('',#1090);
#319=VERTEX_POINT('',#1093);
#320=VERTEX_POINT('',#1095);
#321=VERTEX_POINT('',#1098);
#322=VERTEX_POINT('',#1100);
#323=VERTEX_POINT('',#1104);
#324=VERTEX_POINT('',#1105);
#325=VERTEX_POINT('',#1110);
#326=VERTEX_POINT('',#1114);
#327=VERTEX_POINT('',#1121);
#328=VERTEX_POINT('',#1125);
#329=VERTEX_POINT('',#1131);
#330=VERTEX_POINT('',#1141);
#331=VERTEX_POINT('',#1144);
#332=VERTEX_POINT('',#1146);
#333=VERTEX_POINT('',#1148);
#334=VERTEX_POINT('',#1155);
#335=VERTEX_POINT('',#1160);
#336=VERTEX_POINT('',#1165);
#337=VERTEX_POINT('',#1167);
#338=EDGE_CURVE('',#276,#277,#164,.T.);
#339=EDGE_CURVE('',#278,#276,#126,.T.);
#340=EDGE_CURVE('',#279,#278,#165,.T.);
#341=EDGE_CURVE('',#277,#279,#127,.T.);
#342=EDGE_CURVE('',#280,#278,#166,.T.);
#343=EDGE_CURVE('',#281,#280,#128,.T.);
#344=EDGE_CURVE('',#282,#281,#167,.T.);
#345=EDGE_CURVE('',#283,#282,#129,.T.);
#346=EDGE_CURVE('',#284,#283,#168,.T.);
#347=EDGE_CURVE('',#285,#284,#169,.T.);
#348=EDGE_CURVE('',#279,#285,#170,.T.);
#349=EDGE_CURVE('',#286,#286,#130,.T.);
#350=EDGE_CURVE('',#286,#287,#171,.T.);
#351=EDGE_CURVE('',#287,#287,#131,.T.);
#352=EDGE_CURVE('',#287,#288,#172,.T.);
#353=EDGE_CURVE('',#288,#288,#132,.T.);
#354=EDGE_CURVE('',#289,#289,#133,.T.);
#355=EDGE_CURVE('',#289,#290,#173,.T.);
#356=EDGE_CURVE('',#290,#290,#134,.T.);
#357=EDGE_CURVE('',#290,#291,#174,.T.);
#358=EDGE_CURVE('',#291,#291,#135,.T.);
#359=EDGE_CURVE('',#292,#293,#136,.T.);
#360=EDGE_CURVE('',#293,#294,#175,.T.);
#361=EDGE_CURVE('',#294,#295,#137,.T.);
#362=EDGE_CURVE('',#295,#292,#176,.T.);
#363=EDGE_CURVE('',#292,#296,#177,.T.);
#364=EDGE_CURVE('',#297,#296,#138,.T.);
#365=EDGE_CURVE('',#297,#298,#178,.T.);
#366=EDGE_CURVE('',#299,#298,#139,.T.);
#367=EDGE_CURVE('',#299,#300,#179,.T.);
#368=EDGE_CURVE('',#301,#300,#180,.T.);
#369=EDGE_CURVE('',#301,#302,#181,.T.);
#370=EDGE_CURVE('',#303,#302,#140,.T.);
#371=EDGE_CURVE('',#303,#304,#182,.T.);
#372=EDGE_CURVE('',#304,#305,#141,.T.);
#373=EDGE_CURVE('',#305,#306,#183,.T.);
#374=EDGE_CURVE('',#284,#306,#142,.T.);
#375=EDGE_CURVE('',#307,#283,#184,.T.);
#376=EDGE_CURVE('',#307,#308,#185,.T.);
#377=EDGE_CURVE('',#309,#308,#143,.T.);
#378=EDGE_CURVE('',#309,#293,#186,.T.);
#379=EDGE_CURVE('',#310,#310,#144,.T.);
#380=EDGE_CURVE('',#295,#311,#187,.T.);
#381=EDGE_CURVE('',#296,#311,#188,.T.);
#382=EDGE_CURVE('',#311,#312,#145,.T.);
#383=EDGE_CURVE('',#312,#297,#189,.T.);
#384=EDGE_CURVE('',#313,#314,#146,.T.);
#385=EDGE_CURVE('',#314,#315,#190,.T.);
#386=EDGE_CURVE('',#315,#316,#147,.T.);
#387=EDGE_CURVE('',#316,#313,#191,.T.);
#388=EDGE_CURVE('',#276,#315,#192,.T.);
#389=EDGE_CURVE('',#314,#317,#193,.T.);
#390=EDGE_CURVE('',#280,#317,#194,.T.);
#391=EDGE_CURVE('',#318,#313,#195,.T.);
#392=EDGE_CURVE('',#300,#318,#148,.T.);
#393=EDGE_CURVE('',#319,#299,#196,.T.);
#394=EDGE_CURVE('',#320,#319,#197,.T.);
#395=EDGE_CURVE('',#308,#320,#198,.T.);
#396=EDGE_CURVE('',#321,#307,#149,.T.);
#397=EDGE_CURVE('',#321,#322,#199,.T.);
#398=EDGE_CURVE('',#317,#322,#150,.T.);
#399=EDGE_CURVE('',#323,#324,#151,.T.);
#400=EDGE_CURVE('',#324,#303,#200,.T.);
#401=EDGE_CURVE('',#302,#323,#201,.T.);
#402=EDGE_CURVE('',#325,#324,#202,.T.);
#403=EDGE_CURVE('',#325,#304,#203,.T.);
#404=EDGE_CURVE('',#326,#301,#152,.T.);
#405=EDGE_CURVE('',#318,#326,#204,.T.);
#406=EDGE_CURVE('',#323,#277,#205,.T.);
#407=EDGE_CURVE('',#326,#316,#206,.T.);
#408=EDGE_CURVE('',#327,#319,#153,.T.);
#409=EDGE_CURVE('',#298,#327,#207,.T.);
#410=EDGE_CURVE('',#320,#328,#154,.T.);
#411=EDGE_CURVE('',#328,#309,#208,.T.);
#412=EDGE_CURVE('',#328,#294,#209,.T.);
#413=EDGE_CURVE('',#329,#285,#155,.T.);
#414=EDGE_CURVE('',#306,#329,#210,.T.);
#415=EDGE_CURVE('',#322,#281,#211,.T.);
#416=EDGE_CURVE('',#282,#321,#212,.T.);
#417=EDGE_CURVE('',#329,#330,#213,.T.);
#418=EDGE_CURVE('',#330,#325,#156,.T.);
#419=EDGE_CURVE('',#331,#331,#157,.T.);
#420=EDGE_CURVE('',#332,#332,#158,.T.);
#421=EDGE_CURVE('',#333,#333,#159,.T.);
#422=EDGE_CURVE('',#312,#327,#214,.T.);
#423=EDGE_CURVE('',#305,#330,#215,.T.);
#424=EDGE_CURVE('',#331,#334,#216,.T.);
#425=EDGE_CURVE('',#334,#334,#160,.T.);
#426=EDGE_CURVE('',#332,#335,#217,.T.);
#427=EDGE_CURVE('',#335,#335,#161,.T.);
#428=EDGE_CURVE('',#336,#336,#162,.T.);
#429=EDGE_CURVE('',#337,#337,#163,.T.);
#430=EDGE_CURVE('',#310,#336,#218,.T.);
#431=EDGE_CURVE('',#337,#333,#219,.T.);
#432=ORIENTED_EDGE('',*,*,#338,.F.);
#433=ORIENTED_EDGE('',*,*,#339,.F.);
#434=ORIENTED_EDGE('',*,*,#340,.F.);
#435=ORIENTED_EDGE('',*,*,#341,.F.);
#436=ORIENTED_EDGE('',*,*,#340,.T.);
#437=ORIENTED_EDGE('',*,*,#342,.F.);
#438=ORIENTED_EDGE('',*,*,#343,.F.);
#439=ORIENTED_EDGE('',*,*,#344,.F.);
#440=ORIENTED_EDGE('',*,*,#345,.F.);
#441=ORIENTED_EDGE('',*,*,#346,.F.);
#442=ORIENTED_EDGE('',*,*,#347,.F.);
#443=ORIENTED_EDGE('',*,*,#348,.F.);
#444=ORIENTED_EDGE('',*,*,#349,.T.);
#445=ORIENTED_EDGE('',*,*,#349,.F.);
#446=ORIENTED_EDGE('',*,*,#350,.T.);
#447=ORIENTED_EDGE('',*,*,#351,.F.);
#448=ORIENTED_EDGE('',*,*,#350,.F.);
#449=ORIENTED_EDGE('',*,*,#351,.T.);
#450=ORIENTED_EDGE('',*,*,#352,.T.);
#451=ORIENTED_EDGE('',*,*,#353,.F.);
#452=ORIENTED_EDGE('',*,*,#352,.F.);
#453=ORIENTED_EDGE('',*,*,#354,.F.);
#454=ORIENTED_EDGE('',*,*,#355,.T.);
#455=ORIENTED_EDGE('',*,*,#356,.F.);
#456=ORIENTED_EDGE('',*,*,#355,.F.);
#457=ORIENTED_EDGE('',*,*,#356,.T.);
#458=ORIENTED_EDGE('',*,*,#357,.T.);
#459=ORIENTED_EDGE('',*,*,#358,.F.);
#460=ORIENTED_EDGE('',*,*,#357,.F.);
#461=ORIENTED_EDGE('',*,*,#359,.T.);
#462=ORIENTED_EDGE('',*,*,#360,.T.);
#463=ORIENTED_EDGE('',*,*,#361,.T.);
#464=ORIENTED_EDGE('',*,*,#362,.T.);
#465=ORIENTED_EDGE('',*,*,#359,.F.);
#466=ORIENTED_EDGE('',*,*,#363,.T.);
#467=ORIENTED_EDGE('',*,*,#364,.F.);
#468=ORIENTED_EDGE('',*,*,#365,.T.);
#469=ORIENTED_EDGE('',*,*,#366,.F.);
#470=ORIENTED_EDGE('',*,*,#367,.T.);
#471=ORIENTED_EDGE('',*,*,#368,.F.);
#472=ORIENTED_EDGE('',*,*,#369,.T.);
#473=ORIENTED_EDGE('',*,*,#370,.F.);
#474=ORIENTED_EDGE('',*,*,#371,.T.);
#475=ORIENTED_EDGE('',*,*,#372,.T.);
#476=ORIENTED_EDGE('',*,*,#373,.T.);
#477=ORIENTED_EDGE('',*,*,#374,.F.);
#478=ORIENTED_EDGE('',*,*,#346,.T.);
#479=ORIENTED_EDGE('',*,*,#375,.F.);
#480=ORIENTED_EDGE('',*,*,#376,.T.);
#481=ORIENTED_EDGE('',*,*,#377,.F.);
#482=ORIENTED_EDGE('',*,*,#378,.T.);
#483=ORIENTED_EDGE('',*,*,#379,.T.);
#484=ORIENTED_EDGE('',*,*,#362,.F.);
#485=ORIENTED_EDGE('',*,*,#380,.T.);
#486=ORIENTED_EDGE('',*,*,#381,.F.);
#487=ORIENTED_EDGE('',*,*,#363,.F.);
#488=ORIENTED_EDGE('',*,*,#364,.T.);
#489=ORIENTED_EDGE('',*,*,#381,.T.);
#490=ORIENTED_EDGE('',*,*,#382,.T.);
#491=ORIENTED_EDGE('',*,*,#383,.T.);
#492=ORIENTED_EDGE('',*,*,#384,.T.);
#493=ORIENTED_EDGE('',*,*,#385,.T.);
#494=ORIENTED_EDGE('',*,*,#386,.T.);
#495=ORIENTED_EDGE('',*,*,#387,.T.);
#496=ORIENTED_EDGE('',*,*,#339,.T.);
#497=ORIENTED_EDGE('',*,*,#388,.T.);
#498=ORIENTED_EDGE('',*,*,#385,.F.);
#499=ORIENTED_EDGE('',*,*,#389,.T.);
#500=ORIENTED_EDGE('',*,*,#390,.F.);
#501=ORIENTED_EDGE('',*,*,#342,.T.);
#502=ORIENTED_EDGE('',*,*,#384,.F.);
#503=ORIENTED_EDGE('',*,*,#391,.F.);
#504=ORIENTED_EDGE('',*,*,#392,.F.);
#505=ORIENTED_EDGE('',*,*,#367,.F.);
#506=ORIENTED_EDGE('',*,*,#393,.F.);
#507=ORIENTED_EDGE('',*,*,#394,.F.);
#508=ORIENTED_EDGE('',*,*,#395,.F.);
#509=ORIENTED_EDGE('',*,*,#376,.F.);
#510=ORIENTED_EDGE('',*,*,#396,.F.);
#511=ORIENTED_EDGE('',*,*,#397,.T.);
#512=ORIENTED_EDGE('',*,*,#398,.F.);
#513=ORIENTED_EDGE('',*,*,#389,.F.);
#514=ORIENTED_EDGE('',*,*,#353,.T.);
#515=ORIENTED_EDGE('',*,*,#358,.T.);
#516=ORIENTED_EDGE('',*,*,#399,.T.);
#517=ORIENTED_EDGE('',*,*,#400,.T.);
#518=ORIENTED_EDGE('',*,*,#370,.T.);
#519=ORIENTED_EDGE('',*,*,#401,.T.);
#520=ORIENTED_EDGE('',*,*,#400,.F.);
#521=ORIENTED_EDGE('',*,*,#402,.F.);
#522=ORIENTED_EDGE('',*,*,#403,.T.);
#523=ORIENTED_EDGE('',*,*,#371,.F.);
#524=ORIENTED_EDGE('',*,*,#404,.T.);
#525=ORIENTED_EDGE('',*,*,#368,.T.);
#526=ORIENTED_EDGE('',*,*,#392,.T.);
#527=ORIENTED_EDGE('',*,*,#405,.T.);
#528=ORIENTED_EDGE('',*,*,#338,.T.);
#529=ORIENTED_EDGE('',*,*,#406,.F.);
#530=ORIENTED_EDGE('',*,*,#401,.F.);
#531=ORIENTED_EDGE('',*,*,#369,.F.);
#532=ORIENTED_EDGE('',*,*,#404,.F.);
#533=ORIENTED_EDGE('',*,*,#407,.T.);
#534=ORIENTED_EDGE('',*,*,#386,.F.);
#535=ORIENTED_EDGE('',*,*,#388,.F.);
#536=ORIENTED_EDGE('',*,*,#354,.T.);
#537=ORIENTED_EDGE('',*,*,#408,.T.);
#538=ORIENTED_EDGE('',*,*,#393,.T.);
#539=ORIENTED_EDGE('',*,*,#366,.T.);
#540=ORIENTED_EDGE('',*,*,#409,.T.);
#541=ORIENTED_EDGE('',*,*,#410,.T.);
#542=ORIENTED_EDGE('',*,*,#411,.T.);
#543=ORIENTED_EDGE('',*,*,#377,.T.);
#544=ORIENTED_EDGE('',*,*,#395,.T.);
#545=ORIENTED_EDGE('',*,*,#360,.F.);
#546=ORIENTED_EDGE('',*,*,#378,.F.);
#547=ORIENTED_EDGE('',*,*,#411,.F.);
#548=ORIENTED_EDGE('',*,*,#412,.T.);
#549=ORIENTED_EDGE('',*,*,#413,.T.);
#550=ORIENTED_EDGE('',*,*,#347,.T.);
#551=ORIENTED_EDGE('',*,*,#374,.T.);
#552=ORIENTED_EDGE('',*,*,#414,.T.);
#553=ORIENTED_EDGE('',*,*,#343,.T.);
#554=ORIENTED_EDGE('',*,*,#390,.T.);
#555=ORIENTED_EDGE('',*,*,#398,.T.);
#556=ORIENTED_EDGE('',*,*,#415,.T.);
#557=ORIENTED_EDGE('',*,*,#415,.F.);
#558=ORIENTED_EDGE('',*,*,#397,.F.);
#559=ORIENTED_EDGE('',*,*,#416,.F.);
#560=ORIENTED_EDGE('',*,*,#344,.T.);
#561=ORIENTED_EDGE('',*,*,#396,.T.);
#562=ORIENTED_EDGE('',*,*,#375,.T.);
#563=ORIENTED_EDGE('',*,*,#345,.T.);
#564=ORIENTED_EDGE('',*,*,#416,.T.);
#565=ORIENTED_EDGE('',*,*,#387,.F.);
#566=ORIENTED_EDGE('',*,*,#407,.F.);
#567=ORIENTED_EDGE('',*,*,#405,.F.);
#568=ORIENTED_EDGE('',*,*,#391,.T.);
#569=ORIENTED_EDGE('',*,*,#402,.T.);
#570=ORIENTED_EDGE('',*,*,#399,.F.);
#571=ORIENTED_EDGE('',*,*,#406,.T.);
#572=ORIENTED_EDGE('',*,*,#341,.T.);
#573=ORIENTED_EDGE('',*,*,#348,.T.);
#574=ORIENTED_EDGE('',*,*,#413,.F.);
#575=ORIENTED_EDGE('',*,*,#417,.T.);
#576=ORIENTED_EDGE('',*,*,#418,.T.);
#577=ORIENTED_EDGE('',*,*,#419,.T.);
#578=ORIENTED_EDGE('',*,*,#420,.T.);
#579=ORIENTED_EDGE('',*,*,#421,.T.);
#580=ORIENTED_EDGE('',*,*,#383,.F.);
#581=ORIENTED_EDGE('',*,*,#422,.T.);
#582=ORIENTED_EDGE('',*,*,#409,.F.);
#583=ORIENTED_EDGE('',*,*,#365,.F.);
#584=ORIENTED_EDGE('',*,*,#414,.F.);
#585=ORIENTED_EDGE('',*,*,#373,.F.);
#586=ORIENTED_EDGE('',*,*,#423,.T.);
#587=ORIENTED_EDGE('',*,*,#417,.F.);
#588=ORIENTED_EDGE('',*,*,#419,.F.);
#589=ORIENTED_EDGE('',*,*,#424,.T.);
#590=ORIENTED_EDGE('',*,*,#425,.F.);
#591=ORIENTED_EDGE('',*,*,#424,.F.);
#592=ORIENTED_EDGE('',*,*,#425,.T.);
#593=ORIENTED_EDGE('',*,*,#420,.F.);
#594=ORIENTED_EDGE('',*,*,#426,.T.);
#595=ORIENTED_EDGE('',*,*,#427,.F.);
#596=ORIENTED_EDGE('',*,*,#426,.F.);
#597=ORIENTED_EDGE('',*,*,#427,.T.);
#598=ORIENTED_EDGE('',*,*,#428,.T.);
#599=ORIENTED_EDGE('',*,*,#429,.F.);
#600=ORIENTED_EDGE('',*,*,#379,.F.);
#601=ORIENTED_EDGE('',*,*,#430,.T.);
#602=ORIENTED_EDGE('',*,*,#428,.F.);
#603=ORIENTED_EDGE('',*,*,#430,.F.);
#604=ORIENTED_EDGE('',*,*,#429,.T.);
#605=ORIENTED_EDGE('',*,*,#431,.T.);
#606=ORIENTED_EDGE('',*,*,#421,.F.);
#607=ORIENTED_EDGE('',*,*,#431,.F.);
#608=ORIENTED_EDGE('',*,*,#423,.F.);
#609=ORIENTED_EDGE('',*,*,#372,.F.);
#610=ORIENTED_EDGE('',*,*,#403,.F.);
#611=ORIENTED_EDGE('',*,*,#418,.F.);
#612=ORIENTED_EDGE('',*,*,#361,.F.);
#613=ORIENTED_EDGE('',*,*,#412,.F.);
#614=ORIENTED_EDGE('',*,*,#410,.F.);
#615=ORIENTED_EDGE('',*,*,#394,.T.);
#616=ORIENTED_EDGE('',*,*,#408,.F.);
#617=ORIENTED_EDGE('',*,*,#422,.F.);
#618=ORIENTED_EDGE('',*,*,#382,.F.);
#619=ORIENTED_EDGE('',*,*,#380,.F.);
#620=CYLINDRICAL_SURFACE('',#698,11.75);
#621=CYLINDRICAL_SURFACE('',#707,2.1);
#622=CYLINDRICAL_SURFACE('',#712,2.1);
#623=CYLINDRICAL_SURFACE('',#714,2.);
#624=CYLINDRICAL_SURFACE('',#726,2.);
#625=CYLINDRICAL_SURFACE('',#728,2.);
#626=CYLINDRICAL_SURFACE('',#736,2.);
#627=CYLINDRICAL_SURFACE('',#739,2.);
#628=CYLINDRICAL_SURFACE('',#742,2.);
#629=CYLINDRICAL_SURFACE('',#744,2.);
#630=CYLINDRICAL_SURFACE('',#747,2.);
#631=CYLINDRICAL_SURFACE('',#749,2.);
#632=CYLINDRICAL_SURFACE('',#751,2.);
#633=CYLINDRICAL_SURFACE('',#760,1.6);
#634=CYLINDRICAL_SURFACE('',#763,1.6);
#635=CYLINDRICAL_SURFACE('',#769,7.5);
#636=CYLINDRICAL_SURFACE('',#770,5.);
#637=CYLINDRICAL_SURFACE('',#771,11.5);
#638=ADVANCED_FACE('',(#43),#620,.F.);
#639=ADVANCED_FACE('',(#44,#17),#26,.T.);
#640=ADVANCED_FACE('',(#45),#15,.F.);
#641=ADVANCED_FACE('',(#46),#621,.F.);
#642=ADVANCED_FACE('',(#47),#16,.F.);
#643=ADVANCED_FACE('',(#48),#622,.F.);
#644=ADVANCED_FACE('',(#49),#623,.T.);
#645=ADVANCED_FACE('',(#50,#18),#27,.T.);
#646=ADVANCED_FACE('',(#51),#28,.T.);
#647=ADVANCED_FACE('',(#52),#624,.T.);
#648=ADVANCED_FACE('',(#53),#625,.T.);
#649=ADVANCED_FACE('',(#54),#29,.T.);
#650=ADVANCED_FACE('',(#55,#19,#20),#30,.T.);
#651=ADVANCED_FACE('',(#56),#626,.F.);
#652=ADVANCED_FACE('',(#57),#31,.T.);
#653=ADVANCED_FACE('',(#58),#627,.T.);
#654=ADVANCED_FACE('',(#59,#21),#32,.T.);
#655=ADVANCED_FACE('',(#60),#628,.F.);
#656=ADVANCED_FACE('',(#61),#629,.F.);
#657=ADVANCED_FACE('',(#62),#33,.T.);
#658=ADVANCED_FACE('',(#63),#630,.F.);
#659=ADVANCED_FACE('',(#64),#631,.T.);
#660=ADVANCED_FACE('',(#65),#34,.T.);
#661=ADVANCED_FACE('',(#66),#632,.T.);
#662=ADVANCED_FACE('',(#67),#35,.T.);
#663=ADVANCED_FACE('',(#68,#22,#23,#24),#36,.F.);
#664=ADVANCED_FACE('',(#69),#37,.T.);
#665=ADVANCED_FACE('',(#70),#38,.T.);
#666=ADVANCED_FACE('',(#71),#633,.F.);
#667=ADVANCED_FACE('',(#72),#39,.T.);
#668=ADVANCED_FACE('',(#73),#634,.F.);
#669=ADVANCED_FACE('',(#74),#40,.T.);
#670=ADVANCED_FACE('',(#75,#25),#41,.T.);
#671=ADVANCED_FACE('',(#76),#635,.F.);
#672=ADVANCED_FACE('',(#77),#636,.F.);
#673=ADVANCED_FACE('',(#78),#637,.T.);
#674=ADVANCED_FACE('',(#79),#42,.F.);
#675=CLOSED_SHELL('',(#638,#639,#640,#641,#642,#643,#644,#645,#646,#647,
#648,#649,#650,#651,#652,#653,#654,#655,#656,#657,#658,#659,#660,#661,#662,
#663,#664,#665,#666,#667,#668,#669,#670,#671,#672,#673,#674));
#676=DERIVED_UNIT_ELEMENT(#679,1.);
#677=DERIVED_UNIT_ELEMENT(#1180,-3.);
#678=DIMENSIONAL_EXPONENTS(0.,1.,0.,0.,0.,0.,0.);
#679=(
CONVERSION_BASED_UNIT('gram',#681)
MASS_UNIT()
NAMED_UNIT(#678)
);
#680=(
MASS_UNIT()
NAMED_UNIT(*)
SI_UNIT(.KILO.,.GRAM.)
);
#681=MASS_MEASURE_WITH_UNIT(MASS_MEASURE(0.001),#680);
#682=DERIVED_UNIT((#676,#677));
#683=MEASURE_REPRESENTATION_ITEM('density measure',
POSITIVE_RATIO_MEASURE(1.),#682);
#684=PROPERTY_DEFINITION_REPRESENTATION(#689,#686);
#685=PROPERTY_DEFINITION_REPRESENTATION(#690,#687);
#686=REPRESENTATION('material name',(#688),#1177);
#687=REPRESENTATION('density',(#683),#1177);
#688=DESCRIPTIVE_REPRESENTATION_ITEM('G\X\E9n\X\E9rique','G\X\E9n\X\E9
rique');
#689=PROPERTY_DEFINITION('material property','material name',#1187);
#690=PROPERTY_DEFINITION('material property','density of part',#1187);
#691=DATE_TIME_ROLE('creation_date');
#692=APPLIED_DATE_AND_TIME_ASSIGNMENT(#693,#691,(#1187));
#693=DATE_AND_TIME(#694,#695);
#694=CALENDAR_DATE(2025,27,3);
#695=LOCAL_TIME(0,0,0.,#696);
#696=COORDINATED_UNIVERSAL_TIME_OFFSET(0,0,.BEHIND.);
#697=AXIS2_PLACEMENT_3D('',#981,#773,#774);
#698=AXIS2_PLACEMENT_3D('',#982,#775,#776);
#699=AXIS2_PLACEMENT_3D('',#987,#778,#779);
#700=AXIS2_PLACEMENT_3D('',#990,#781,#782);
#701=AXIS2_PLACEMENT_3D('',#991,#783,#784);
#702=AXIS2_PLACEMENT_3D('',#995,#786,#787);
#703=AXIS2_PLACEMENT_3D('',#999,#789,#790);
#704=AXIS2_PLACEMENT_3D('',#1006,#794,#795);
#705=AXIS2_PLACEMENT_3D('',#1007,#796,#797);
#706=AXIS2_PLACEMENT_3D('',#1010,#799,#800);
#707=AXIS2_PLACEMENT_3D('',#1011,#801,#802);
#708=AXIS2_PLACEMENT_3D('',#1014,#804,#805);
#709=AXIS2_PLACEMENT_3D('',#1015,#806,#807);
#710=AXIS2_PLACEMENT_3D('',#1017,#808,#809);
#711=AXIS2_PLACEMENT_3D('',#1020,#811,#812);
#712=AXIS2_PLACEMENT_3D('',#1021,#813,#814);
#713=AXIS2_PLACEMENT_3D('',#1024,#816,#817);
#714=AXIS2_PLACEMENT_3D('',#1025,#818,#819);
#715=AXIS2_PLACEMENT_3D('',#1028,#820,#821);
#716=AXIS2_PLACEMENT_3D('',#1032,#823,#824);
#717=AXIS2_PLACEMENT_3D('',#1034,#826,#827);
#718=AXIS2_PLACEMENT_3D('',#1038,#829,#830);
#719=AXIS2_PLACEMENT_3D('',#1042,#832,#833);
#720=AXIS2_PLACEMENT_3D('',#1050,#837,#838);
#721=AXIS2_PLACEMENT_3D('',#1054,#840,#841);
#722=AXIS2_PLACEMENT_3D('',#1057,#843,#844);
#723=AXIS2_PLACEMENT_3D('',#1063,#847,#848);
#724=AXIS2_PLACEMENT_3D('',#1066,#850,#851);
#725=AXIS2_PLACEMENT_3D('',#1067,#852,#853);
#726=AXIS2_PLACEMENT_3D('',#1071,#856,#857);
#727=AXIS2_PLACEMENT_3D('',#1073,#858,#859);
#728=AXIS2_PLACEMENT_3D('',#1075,#861,#862);
#729=AXIS2_PLACEMENT_3D('',#1078,#863,#864);
#730=AXIS2_PLACEMENT_3D('',#1082,#866,#867);
#731=AXIS2_PLACEMENT_3D('',#1084,#869,#870);
#732=AXIS2_PLACEMENT_3D('',#1089,#874,#875);
#733=AXIS2_PLACEMENT_3D('',#1092,#877,#878);
#734=AXIS2_PLACEMENT_3D('',#1099,#882,#883);
#735=AXIS2_PLACEMENT_3D('',#1102,#885,#886);
#736=AXIS2_PLACEMENT_3D('',#1103,#887,#888);
#737=AXIS2_PLACEMENT_3D('',#1106,#889,#890);
#738=AXIS2_PLACEMENT_3D('',#1109,#893,#894);
#739=AXIS2_PLACEMENT_3D('',#1113,#897,#898);
#740=AXIS2_PLACEMENT_3D('',#1115,#899,#900);
#741=AXIS2_PLACEMENT_3D('',#1117,#902,#903);
#742=AXIS2_PLACEMENT_3D('',#1120,#906,#907);
#743=AXIS2_PLACEMENT_3D('',#1122,#908,#909);
#744=AXIS2_PLACEMENT_3D('',#1124,#911,#912);
#745=AXIS2_PLACEMENT_3D('',#1126,#913,#914);
#746=AXIS2_PLACEMENT_3D('',#1128,#916,#917);
#747=AXIS2_PLACEMENT_3D('',#1130,#919,#920);
#748=AXIS2_PLACEMENT_3D('',#1132,#921,#922);
#749=AXIS2_PLACEMENT_3D('',#1134,#924,#925);
#750=AXIS2_PLACEMENT_3D('',#1136,#927,#928);
#751=AXIS2_PLACEMENT_3D('',#1138,#930,#931);
#752=AXIS2_PLACEMENT_3D('',#1139,#932,#933);
#753=AXIS2_PLACEMENT_3D('',#1140,#934,#935);
#754=AXIS2_PLACEMENT_3D('',#1143,#937,#938);
#755=AXIS2_PLACEMENT_3D('',#1145,#939,#940);
#756=AXIS2_PLACEMENT_3D('',#1147,#941,#942);
#757=AXIS2_PLACEMENT_3D('',#1149,#943,#944);
#758=AXIS2_PLACEMENT_3D('',#1150,#945,#946);
#759=AXIS2_PLACEMENT_3D('',#1152,#948,#949);
#760=AXIS2_PLACEMENT_3D('',#1154,#951,#952);
#761=AXIS2_PLACEMENT_3D('',#1157,#954,#955);
#762=AXIS2_PLACEMENT_3D('',#1158,#956,#957);
#763=AXIS2_PLACEMENT_3D('',#1159,#958,#959);
#764=AXIS2_PLACEMENT_3D('',#1162,#961,#962);
#765=AXIS2_PLACEMENT_3D('',#1163,#963,#964);
#766=AXIS2_PLACEMENT_3D('',#1164,#965,#966);
#767=AXIS2_PLACEMENT_3D('',#1166,#967,#968);
#768=AXIS2_PLACEMENT_3D('',#1168,#969,#970);
#769=AXIS2_PLACEMENT_3D('',#1169,#971,#972);
#770=AXIS2_PLACEMENT_3D('',#1171,#974,#975);
#771=AXIS2_PLACEMENT_3D('',#1173,#977,#978);
#772=AXIS2_PLACEMENT_3D('',#1174,#979,#980);
#773=DIRECTION('axis',(0.,0.,1.));
#774=DIRECTION('refdir',(1.,0.,0.));
#775=DIRECTION('center_axis',(-1.,0.,0.));
#776=DIRECTION('ref_axis',(0.,0.,1.));
#777=DIRECTION('',(1.,0.,0.));
#778=DIRECTION('center_axis',(1.,0.,0.));
#779=DIRECTION('ref_axis',(0.,0.,1.));
#780=DIRECTION('',(-1.,0.,0.));
#781=DIRECTION('center_axis',(-1.,0.,0.));
#782=DIRECTION('ref_axis',(0.,0.,1.));
#783=DIRECTION('center_axis',(0.,1.,5.85951040774388E-16));
#784=DIRECTION('ref_axis',(0.,5.85951040774388E-16,-1.));
#785=DIRECTION('',(0.,5.85951040774388E-16,-1.));
#786=DIRECTION('center_axis',(0.,-1.,-5.85951040774388E-16));
#787=DIRECTION('ref_axis',(-0.707106781186548,-1.96261557335472E-16,0.707106781186547));
#788=DIRECTION('',(-1.,0.,0.));
#789=DIRECTION('center_axis',(0.,-1.,-5.85951040774388E-16));
#790=DIRECTION('ref_axis',(0.707106781186547,-1.96261557335472E-16,0.707106781186548));
#791=DIRECTION('',(0.,-5.85951040774388E-16,1.));
#792=DIRECTION('',(1.,0.,0.));
#793=DIRECTION('',(0.,-5.85951040774388E-16,1.));
#794=DIRECTION('center_axis',(0.,-1.,-5.85951040774388E-16));
#795=DIRECTION('ref_axis',(1.,0.,0.));
#796=DIRECTION('center_axis',(0.,1.,5.85951040774388E-16));
#797=DIRECTION('ref_axis',(1.,0.,0.));
#798=DIRECTION('',(0.707106781186547,-0.707106781186548,-5.00925559998435E-16));
#799=DIRECTION('center_axis',(0.,1.,5.85951040774388E-16));
#800=DIRECTION('ref_axis',(1.,0.,0.));
#801=DIRECTION('center_axis',(0.,1.,5.85951040774388E-16));
#802=DIRECTION('ref_axis',(1.,0.,0.));
#803=DIRECTION('',(0.,-1.,-5.85951040774389E-16));
#804=DIRECTION('center_axis',(0.,1.,4.82705662880503E-16));
#805=DIRECTION('ref_axis',(1.,0.,0.));
#806=DIRECTION('center_axis',(0.,1.,5.85951040774388E-16));
#807=DIRECTION('ref_axis',(1.,0.,0.));
#808=DIRECTION('center_axis',(0.,-1.,-5.85951040774388E-16));
#809=DIRECTION('ref_axis',(1.,0.,0.));
#810=DIRECTION('',(0.707106781186547,-0.707106781186548,-5.00925559998435E-16));
#811=DIRECTION('center_axis',(0.,1.,5.85951040774388E-16));
#812=DIRECTION('ref_axis',(1.,0.,0.));
#813=DIRECTION('center_axis',(0.,1.,5.85951040774388E-16));
#814=DIRECTION('ref_axis',(1.,0.,0.));
#815=DIRECTION('',(0.,-1.,-5.85951040774389E-16));
#816=DIRECTION('center_axis',(0.,1.,4.82705662880503E-16));
#817=DIRECTION('ref_axis',(1.,0.,0.));
#818=DIRECTION('center_axis',(1.,0.,0.));
#819=DIRECTION('ref_axis',(0.,-0.707106781186548,0.707106781186547));
#820=DIRECTION('center_axis',(-1.,0.,0.));
#821=DIRECTION('ref_axis',(0.,-0.707106781186548,0.707106781186547));
#822=DIRECTION('',(-1.,0.,0.));
#823=DIRECTION('center_axis',(1.,0.,0.));
#824=DIRECTION('ref_axis',(0.,-0.707106781186548,0.707106781186547));
#825=DIRECTION('',(1.,0.,0.));
#826=DIRECTION('center_axis',(1.,0.,0.));
#827=DIRECTION('ref_axis',(0.,0.,-1.));
#828=DIRECTION('',(0.,3.86164530304403E-16,-1.));
#829=DIRECTION('center_axis',(-1.,0.,0.));
#830=DIRECTION('ref_axis',(0.,-0.707106781186547,-0.707106781186548));
#831=DIRECTION('',(0.,1.,3.41607084500048E-16));
#832=DIRECTION('center_axis',(1.,0.,0.));
#833=DIRECTION('ref_axis',(0.,0.707106781186548,0.707106781186547));
#834=DIRECTION('',(0.,0.,-1.));
#835=DIRECTION('',(0.,-1.,-1.11022302462515E-15));
#836=DIRECTION('',(0.,-5.85951040774388E-16,1.));
#837=DIRECTION('center_axis',(1.,0.,0.));
#838=DIRECTION('ref_axis',(0.,-0.707106781186548,0.707106781186547));
#839=DIRECTION('',(0.,1.,3.41607084500048E-16));
#840=DIRECTION('center_axis',(1.,0.,0.));
#841=DIRECTION('ref_axis',(0.,3.86164530304403E-16,-1.));
#842=DIRECTION('',(0.,-1.,-7.68615940125109E-16));
#843=DIRECTION('center_axis',(1.,0.,0.));
#844=DIRECTION('ref_axis',(0.,-0.707106781186547,-0.707106781186548));
#845=DIRECTION('',(0.,1.,3.70074341541719E-16));
#846=DIRECTION('',(0.,0.,-1.));
#847=DIRECTION('center_axis',(1.,0.,0.));
#848=DIRECTION('ref_axis',(0.,0.707106781186547,-0.707106781186548));
#849=DIRECTION('',(0.,-1.,-7.68615940125109E-16));
#850=DIRECTION('center_axis',(-1.,0.,0.));
#851=DIRECTION('ref_axis',(0.,0.,-1.));
#852=DIRECTION('center_axis',(0.,-1.,-3.86164530304403E-16));
#853=DIRECTION('ref_axis',(0.,3.86164530304403E-16,-1.));
#854=DIRECTION('',(0.,3.86164530304403E-16,-1.));
#855=DIRECTION('',(-1.,0.,0.));
#856=DIRECTION('center_axis',(1.,0.,0.));
#857=DIRECTION('ref_axis',(0.,-0.707106781186547,-0.707106781186548));
#858=DIRECTION('center_axis',(1.,0.,0.));
#859=DIRECTION('ref_axis',(0.,-0.707106781186547,-0.707106781186548));
#860=DIRECTION('',(1.,0.,0.));
#861=DIRECTION('center_axis',(0.,-1.,-1.11022302462515E-15));
#862=DIRECTION('ref_axis',(-0.707106781186548,7.85046229341887E-16,-0.707106781186548));
#863=DIRECTION('center_axis',(0.,1.,4.82705662880503E-16));
#864=DIRECTION('ref_axis',(-0.707106781186548,7.85046229341887E-16,-0.707106781186548));
#865=DIRECTION('',(0.,1.,1.11022302462515E-15));
#866=DIRECTION('center_axis',(0.,-1.,-5.85951040774388E-16));
#867=DIRECTION('ref_axis',(-0.707106781186548,7.85046229341887E-16,-0.707106781186548));
#868=DIRECTION('',(0.,-1.,-1.11022302462515E-15));
#869=DIRECTION('center_axis',(-1.,0.,0.));
#870=DIRECTION('ref_axis',(0.,0.,1.));
#871=DIRECTION('',(0.,5.85951040774388E-16,-1.));
#872=DIRECTION('',(0.,0.,1.));
#873=DIRECTION('',(0.,-1.,-3.70074341541719E-16));
#874=DIRECTION('center_axis',(0.,-1.,-4.82705662880503E-16));
#875=DIRECTION('ref_axis',(0.,-4.82705662880503E-16,1.));
#876=DIRECTION('',(-1.,0.,0.));
#877=DIRECTION('center_axis',(0.,1.,4.82705662880503E-16));
#878=DIRECTION('ref_axis',(0.707106781186547,7.85046229341887E-16,-0.707106781186548));
#879=DIRECTION('',(1.,0.,0.));
#880=DIRECTION('',(0.,4.82705662880503E-16,-1.));
#881=DIRECTION('',(-1.,0.,0.));
#882=DIRECTION('center_axis',(0.,1.,4.82705662880503E-16));
#883=DIRECTION('ref_axis',(0.707106781186547,-1.96261557335472E-16,0.707106781186548));
#884=DIRECTION('',(-1.,0.,0.));
#885=DIRECTION('center_axis',(0.,1.,4.82705662880503E-16));
#886=DIRECTION('ref_axis',(-0.707106781186548,-1.96261557335472E-16,0.707106781186547));
#887=DIRECTION('center_axis',(-1.,0.,0.));
#888=DIRECTION('ref_axis',(0.,-0.707106781186548,0.707106781186547));
#889=DIRECTION('center_axis',(-1.,0.,0.));
#890=DIRECTION('ref_axis',(0.,-0.707106781186548,0.707106781186547));
#891=DIRECTION('',(1.,0.,0.));
#892=DIRECTION('',(-1.,0.,0.));
#893=DIRECTION('center_axis',(0.,3.41607084500048E-16,-1.));
#894=DIRECTION('ref_axis',(0.,1.,3.41607084500048E-16));
#895=DIRECTION('',(0.,-1.,-3.41607084500048E-16));
#896=DIRECTION('',(1.,0.,0.));
#897=DIRECTION('center_axis',(0.,1.,1.11022302462515E-15));
#898=DIRECTION('ref_axis',(0.707106781186547,7.85046229341887E-16,-0.707106781186548));
#899=DIRECTION('center_axis',(0.,-1.,-5.85951040774388E-16));
#900=DIRECTION('ref_axis',(0.707106781186547,7.85046229341887E-16,-0.707106781186548));
#901=DIRECTION('',(0.,1.,1.11022302462515E-15));
#902=DIRECTION('center_axis',(0.,1.,5.85951040774388E-16));
#903=DIRECTION('ref_axis',(0.,5.85951040774388E-16,-1.));
#904=DIRECTION('',(0.,-5.85951040774388E-16,1.));
#905=DIRECTION('',(-1.,0.,0.));
#906=DIRECTION('center_axis',(1.,0.,0.));
#907=DIRECTION('ref_axis',(0.,0.707106781186548,0.707106781186547));
#908=DIRECTION('center_axis',(-1.,0.,0.));
#909=DIRECTION('ref_axis',(0.,0.707106781186548,0.707106781186547));
#910=DIRECTION('',(-1.,0.,0.));
#911=DIRECTION('center_axis',(-1.,0.,0.));
#912=DIRECTION('ref_axis',(0.,0.707106781186547,-0.707106781186548));
#913=DIRECTION('center_axis',(-1.,0.,0.));
#914=DIRECTION('ref_axis',(0.,0.707106781186547,-0.707106781186548));
#915=DIRECTION('',(1.,0.,0.));
#916=DIRECTION('center_axis',(0.,-7.68615940125109E-16,1.));
#917=DIRECTION('ref_axis',(0.,-1.,-7.68615940125109E-16));
#918=DIRECTION('',(0.,-1.,-7.68615940125109E-16));
#919=DIRECTION('center_axis',(1.,0.,0.));
#920=DIRECTION('ref_axis',(0.,-0.707106781186547,-0.707106781186548));
#921=DIRECTION('center_axis',(-1.,0.,0.));
#922=DIRECTION('ref_axis',(0.,-0.707106781186547,-0.707106781186548));
#923=DIRECTION('',(-1.,0.,0.));
#924=DIRECTION('center_axis',(0.,1.,3.70074341541719E-16));
#925=DIRECTION('ref_axis',(-0.707106781186548,-1.96261557335472E-16,0.707106781186547));
#926=DIRECTION('',(0.,1.,3.70074341541719E-16));
#927=DIRECTION('center_axis',(0.,-3.70074341541719E-16,1.));
#928=DIRECTION('ref_axis',(0.,1.,3.70074341541719E-16));
#929=DIRECTION('',(0.,-1.,-3.70074341541719E-16));
#930=DIRECTION('center_axis',(0.,-1.,-3.70074341541719E-16));
#931=DIRECTION('ref_axis',(0.707106781186547,-1.96261557335472E-16,0.707106781186548));
#932=DIRECTION('center_axis',(0.,1.11022302462515E-15,-1.));
#933=DIRECTION('ref_axis',(0.,-1.,-1.11022302462515E-15));
#934=DIRECTION('center_axis',(1.,0.,0.));
#935=DIRECTION('ref_axis',(0.,0.,-1.));
#936=DIRECTION('',(0.,1.,7.68615940125109E-16));
#937=DIRECTION('center_axis',(-1.,0.,0.));
#938=DIRECTION('ref_axis',(0.,3.86164530304403E-16,-1.));
#939=DIRECTION('center_axis',(1.,0.,0.));
#940=DIRECTION('ref_axis',(0.,0.,1.));
#941=DIRECTION('center_axis',(1.,0.,0.));
#942=DIRECTION('ref_axis',(0.,0.,1.));
#943=DIRECTION('center_axis',(1.,0.,0.));
#944=DIRECTION('ref_axis',(0.,0.,-1.));
#945=DIRECTION('center_axis',(0.,3.41607084500048E-16,-1.));
#946=DIRECTION('ref_axis',(0.,1.,3.41607084500048E-16));
#947=DIRECTION('',(0.,1.,3.41607084500048E-16));
#948=DIRECTION('center_axis',(0.,-7.68615940125109E-16,1.));
#949=DIRECTION('ref_axis',(0.,-1.,-7.68615940125109E-16));
#950=DIRECTION('',(-1.,0.,0.));
#951=DIRECTION('center_axis',(-1.,0.,0.));
#952=DIRECTION('ref_axis',(0.,0.,1.));
#953=DIRECTION('',(1.,0.,0.));
#954=DIRECTION('center_axis',(-1.,0.,0.));
#955=DIRECTION('ref_axis',(0.,0.,1.));
#956=DIRECTION('center_axis',(-1.,0.,0.));
#957=DIRECTION('ref_axis',(0.,0.,1.));
#958=DIRECTION('center_axis',(-1.,0.,0.));
#959=DIRECTION('ref_axis',(0.,0.,1.));
#960=DIRECTION('',(1.,0.,0.));
#961=DIRECTION('center_axis',(-1.,0.,0.));
#962=DIRECTION('ref_axis',(0.,0.,1.));
#963=DIRECTION('center_axis',(-1.,0.,0.));
#964=DIRECTION('ref_axis',(0.,0.,1.));
#965=DIRECTION('center_axis',(1.,0.,0.));
#966=DIRECTION('ref_axis',(0.,0.,-1.));
#967=DIRECTION('center_axis',(1.,0.,0.));
#968=DIRECTION('ref_axis',(0.,0.,-1.));
#969=DIRECTION('center_axis',(1.,0.,0.));
#970=DIRECTION('ref_axis',(0.,0.,-1.));
#971=DIRECTION('center_axis',(1.,0.,0.));
#972=DIRECTION('ref_axis',(0.,0.,-1.));
#973=DIRECTION('',(-1.,0.,0.));
#974=DIRECTION('center_axis',(1.,0.,0.));
#975=DIRECTION('ref_axis',(0.,0.,-1.));
#976=DIRECTION('',(-1.,0.,0.));
#977=DIRECTION('center_axis',(1.,0.,0.));
#978=DIRECTION('ref_axis',(0.,3.86164530304403E-16,-1.));
#979=DIRECTION('center_axis',(1.,0.,0.));
#980=DIRECTION('ref_axis',(0.,0.,-1.));
#981=CARTESIAN_POINT('',(0.,0.,0.));
#982=CARTESIAN_POINT('Origin',(-1.5,13.,6.86950496486816E-15));
#983=CARTESIAN_POINT('',(-20.,3.00000000000001,-6.16948133962654));
#984=CARTESIAN_POINT('',(-1.5,3.00000000000001,-6.16948133962654));
#985=CARTESIAN_POINT('',(-1.5,3.00000000000001,-6.16948133962654));
#986=CARTESIAN_POINT('',(-20.,3.,6.16948133962654));
#987=CARTESIAN_POINT('Origin',(-20.,13.,6.86950496486816E-15));
#988=CARTESIAN_POINT('',(-1.5,3.,6.16948133962655));
#989=CARTESIAN_POINT('',(-1.5,3.,6.16948133962655));
#990=CARTESIAN_POINT('Origin',(-1.5,13.,6.86950496486816E-15));
#991=CARTESIAN_POINT('Origin',(8.,2.99999999999999,18.));
#992=CARTESIAN_POINT('',(-20.,3.,16.));
#993=CARTESIAN_POINT('',(-20.,3.00000000000002,-18.));
#994=CARTESIAN_POINT('',(-18.,2.99999999999999,18.));
#995=CARTESIAN_POINT('Origin',(-18.,2.99999999999999,16.));
#996=CARTESIAN_POINT('',(6.,2.99999999999999,18.));
#997=CARTESIAN_POINT('',(8.,2.99999999999999,18.));
#998=CARTESIAN_POINT('',(8.,3.,16.));
#999=CARTESIAN_POINT('Origin',(6.,2.99999999999999,16.));
#1000=CARTESIAN_POINT('',(8.,3.,13.5));
#1001=CARTESIAN_POINT('',(8.,3.00000000000002,-18.));
#1002=CARTESIAN_POINT('',(-1.5,3.,13.5));
#1003=CARTESIAN_POINT('',(4.,3.,13.5));
#1004=CARTESIAN_POINT('',(-1.5,3.,9.));
#1005=CARTESIAN_POINT('',(-13.,3.,13.8634237478428));
#1006=CARTESIAN_POINT('Origin',(-10.,3.,13.8634237478428));
#1007=CARTESIAN_POINT('Origin',(-10.,2.55,13.8634237478428));
#1008=CARTESIAN_POINT('',(-12.1,2.1,13.8634237478428));
#1009=CARTESIAN_POINT('',(-12.55,2.55,13.8634237478428));
#1010=CARTESIAN_POINT('Origin',(-10.,2.10000000000001,13.8634237478428));
#1011=CARTESIAN_POINT('Origin',(-10.,-56.0444747626736,13.8634237478428));
#1012=CARTESIAN_POINT('',(-12.1,-3.00000000000002,13.8634237478428));
#1013=CARTESIAN_POINT('',(-12.1,-56.0444747626736,13.8634237478428));
#1014=CARTESIAN_POINT('Origin',(-10.,-3.00000000000002,13.8634237478428));
#1015=CARTESIAN_POINT('Origin',(-10.,2.55000000000001,-13.8634237478428));
#1016=CARTESIAN_POINT('',(-13.,3.00000000000001,-13.8634237478428));
#1017=CARTESIAN_POINT('Origin',(-10.,3.00000000000001,-13.8634237478428));
#1018=CARTESIAN_POINT('',(-12.1,2.10000000000002,-13.8634237478428));
#1019=CARTESIAN_POINT('',(-12.55,2.55000000000001,-13.8634237478428));
#1020=CARTESIAN_POINT('Origin',(-10.,2.10000000000002,-13.8634237478428));
#1021=CARTESIAN_POINT('Origin',(-10.,-56.0444747626736,-13.8634237478428));
#1022=CARTESIAN_POINT('',(-12.1,-3.,-13.8634237478428));
#1023=CARTESIAN_POINT('',(-12.1,-56.0444747626736,-13.8634237478428));
#1024=CARTESIAN_POINT('Origin',(-10.,-3.,-13.8634237478428));
#1025=CARTESIAN_POINT('Origin',(0.,-11.,9.49999999999999));
#1026=CARTESIAN_POINT('',(8.,-13.,9.49999999999999));
#1027=CARTESIAN_POINT('',(8.,-11.,11.5));
#1028=CARTESIAN_POINT('Origin',(8.,-11.,9.49999999999999));
#1029=CARTESIAN_POINT('',(0.,-11.,11.5));
#1030=CARTESIAN_POINT('',(0.,-11.,11.5));
#1031=CARTESIAN_POINT('',(0.,-13.,9.49999999999999));
#1032=CARTESIAN_POINT('Origin',(0.,-11.,9.49999999999999));
#1033=CARTESIAN_POINT('',(0.,-13.,9.49999999999999));
#1034=CARTESIAN_POINT('Origin',(8.,5.75,5.55111512312578E-15));
#1035=CARTESIAN_POINT('',(8.,-13.,-9.5));
#1036=CARTESIAN_POINT('',(8.,-13.,11.5));
#1037=CARTESIAN_POINT('',(8.,-11.,-11.5));
#1038=CARTESIAN_POINT('Origin',(8.,-11.,-9.5));
#1039=CARTESIAN_POINT('',(8.,-5.,-11.5));
#1040=CARTESIAN_POINT('',(8.,-13.,-11.5));
#1041=CARTESIAN_POINT('',(8.,-3.,-13.5));
#1042=CARTESIAN_POINT('Origin',(8.,-5.,-13.5));
#1043=CARTESIAN_POINT('',(8.,-3.,-16.));
#1044=CARTESIAN_POINT('',(8.,-3.,18.));
#1045=CARTESIAN_POINT('',(8.,3.00000000000001,-16.));
#1046=CARTESIAN_POINT('',(8.,4.37500000000001,-16.));
#1047=CARTESIAN_POINT('',(8.,3.00000000000001,-13.5));
#1048=CARTESIAN_POINT('',(8.,3.00000000000002,-18.));
#1049=CARTESIAN_POINT('',(8.,5.00000000000001,-11.5));
#1050=CARTESIAN_POINT('Origin',(8.,5.00000000000001,-13.5));
#1051=CARTESIAN_POINT('',(8.,13.,-11.5));
#1052=CARTESIAN_POINT('',(8.,-13.,-11.5));
#1053=CARTESIAN_POINT('',(8.,13.,11.5));
#1054=CARTESIAN_POINT('Origin',(8.,13.,6.86904516057093E-15));
#1055=CARTESIAN_POINT('',(8.,5.,11.5));
#1056=CARTESIAN_POINT('',(8.,13.,11.5));
#1057=CARTESIAN_POINT('Origin',(8.,5.,13.5));
#1058=CARTESIAN_POINT('',(8.,-3.,16.));
#1059=CARTESIAN_POINT('',(8.,1.37499999999999,16.));
#1060=CARTESIAN_POINT('',(8.,-3.,13.5));
#1061=CARTESIAN_POINT('',(8.,-3.,18.));
#1062=CARTESIAN_POINT('',(8.,-5.00000000000001,11.5));
#1063=CARTESIAN_POINT('Origin',(8.,-5.00000000000001,13.5));
#1064=CARTESIAN_POINT('',(8.,13.,11.5));
#1065=CARTESIAN_POINT('',(8.,13.,7.50000000000001));
#1066=CARTESIAN_POINT('Origin',(8.,13.,6.86950496486816E-15));
#1067=CARTESIAN_POINT('Origin',(0.,-13.,11.5));
#1068=CARTESIAN_POINT('',(0.,-13.,-9.5));
#1069=CARTESIAN_POINT('',(0.,-13.,11.5));
#1070=CARTESIAN_POINT('',(0.,-13.,-9.5));
#1071=CARTESIAN_POINT('Origin',(0.,-11.,-9.5));
#1072=CARTESIAN_POINT('',(0.,-11.,-11.5));
#1073=CARTESIAN_POINT('Origin',(0.,-11.,-9.5));
#1074=CARTESIAN_POINT('',(0.,-11.,-11.5));
#1075=CARTESIAN_POINT('Origin',(-18.,1.50000000000002,-16.));
#1076=CARTESIAN_POINT('',(-18.,-3.,-18.));
#1077=CARTESIAN_POINT('',(-20.,-3.,-16.));
#1078=CARTESIAN_POINT('Origin',(-18.,-2.99999999999999,-16.));
#1079=CARTESIAN_POINT('',(-20.,3.00000000000001,-16.));
#1080=CARTESIAN_POINT('',(-20.,1.50000000000002,-16.));
#1081=CARTESIAN_POINT('',(-18.,3.00000000000002,-18.));
#1082=CARTESIAN_POINT('Origin',(-18.,3.00000000000003,-16.));
#1083=CARTESIAN_POINT('',(-18.,1.50000000000002,-18.));
#1084=CARTESIAN_POINT('Origin',(-20.,5.55111512312578E-15,0.));
#1085=CARTESIAN_POINT('',(-20.,3.00000000000002,-18.));
#1086=CARTESIAN_POINT('',(-20.,-3.,16.));
#1087=CARTESIAN_POINT('',(-20.,-3.,18.));
#1088=CARTESIAN_POINT('',(-20.,-1.5,16.));
#1089=CARTESIAN_POINT('Origin',(0.,-3.,-11.5));
#1090=CARTESIAN_POINT('',(6.,-3.,-18.));
#1091=CARTESIAN_POINT('',(8.,-3.,-18.));
#1092=CARTESIAN_POINT('Origin',(6.,-2.99999999999999,-16.));
#1093=CARTESIAN_POINT('',(0.,-3.,-13.5));
#1094=CARTESIAN_POINT('',(0.,-3.,-13.5));
#1095=CARTESIAN_POINT('',(0.,-3.00000000000001,13.5));
#1096=CARTESIAN_POINT('',(0.,-3.,-5.75));
#1097=CARTESIAN_POINT('',(0.,-3.00000000000001,13.5));
#1098=CARTESIAN_POINT('',(6.,-3.,18.));
#1099=CARTESIAN_POINT('Origin',(6.,-3.00000000000001,16.));
#1100=CARTESIAN_POINT('',(-18.,-3.,18.));
#1101=CARTESIAN_POINT('',(8.,-3.,18.));
#1102=CARTESIAN_POINT('Origin',(-18.,-3.00000000000001,16.));
#1103=CARTESIAN_POINT('Origin',(4.,5.00000000000001,-13.5));
#1104=CARTESIAN_POINT('',(-1.5,3.00000000000001,-13.5));
#1105=CARTESIAN_POINT('',(-1.5,5.00000000000001,-11.5));
#1106=CARTESIAN_POINT('Origin',(-1.5,5.00000000000001,-13.5));
#1107=CARTESIAN_POINT('',(4.,5.00000000000001,-11.5));
#1108=CARTESIAN_POINT('',(4.,3.00000000000001,-13.5));
#1109=CARTESIAN_POINT('Origin',(0.,-13.,-11.5));
#1110=CARTESIAN_POINT('',(-1.5,13.,-11.5));
#1111=CARTESIAN_POINT('',(-1.5,-13.,-11.5));
#1112=CARTESIAN_POINT('',(0.,13.,-11.5));
#1113=CARTESIAN_POINT('Origin',(6.,4.37500000000001,-16.));
#1114=CARTESIAN_POINT('',(6.,3.00000000000002,-18.));
#1115=CARTESIAN_POINT('Origin',(6.,3.00000000000003,-16.));
#1116=CARTESIAN_POINT('',(6.,4.37500000000002,-18.));
#1117=CARTESIAN_POINT('Origin',(8.,2.99999999999999,18.));
#1118=CARTESIAN_POINT('',(-1.5,3.,9.));
#1119=CARTESIAN_POINT('',(8.,3.00000000000002,-18.));
#1120=CARTESIAN_POINT('Origin',(0.,-5.,-13.5));
#1121=CARTESIAN_POINT('',(0.,-5.,-11.5));
#1122=CARTESIAN_POINT('Origin',(0.,-5.,-13.5));
#1123=CARTESIAN_POINT('',(0.,-5.,-11.5));
#1124=CARTESIAN_POINT('Origin',(0.,-5.00000000000001,13.5));
#1125=CARTESIAN_POINT('',(0.,-5.00000000000001,11.5));
#1126=CARTESIAN_POINT('Origin',(0.,-5.00000000000001,13.5));
#1127=CARTESIAN_POINT('',(0.,-5.00000000000001,11.5));
#1128=CARTESIAN_POINT('Origin',(0.,13.,11.5));
#1129=CARTESIAN_POINT('',(0.,13.,11.5));
#1130=CARTESIAN_POINT('Origin',(4.,5.,13.5));
#1131=CARTESIAN_POINT('',(-1.5,5.,11.5));
#1132=CARTESIAN_POINT('Origin',(-1.5,5.,13.5));
#1133=CARTESIAN_POINT('',(4.,5.,11.5));
#1134=CARTESIAN_POINT('Origin',(-18.,-1.5,16.));
#1135=CARTESIAN_POINT('',(-18.,-1.5,18.));
#1136=CARTESIAN_POINT('Origin',(8.,-3.,18.));
#1137=CARTESIAN_POINT('',(6.,1.37499999999999,18.));
#1138=CARTESIAN_POINT('Origin',(6.,1.37499999999999,16.));
#1139=CARTESIAN_POINT('Origin',(8.,3.00000000000002,-18.));
#1140=CARTESIAN_POINT('Origin',(-1.5,10.75,6.66133814775094E-15));
#1141=CARTESIAN_POINT('',(-1.5,13.,11.5));
#1142=CARTESIAN_POINT('',(-1.5,13.,11.5));
#1143=CARTESIAN_POINT('Origin',(-1.5,13.,6.86904516057093E-15));
#1144=CARTESIAN_POINT('',(-1.5,13.,5.90000000000001));
#1145=CARTESIAN_POINT('Origin',(-1.5,13.,7.50000000000001));
#1146=CARTESIAN_POINT('',(-1.5,13.,-10.1));
#1147=CARTESIAN_POINT('Origin',(-1.5,13.,-8.49999999999999));
#1148=CARTESIAN_POINT('',(-1.5,13.,5.00000000000001));
#1149=CARTESIAN_POINT('Origin',(-1.5,13.,6.86950496486816E-15));
#1150=CARTESIAN_POINT('Origin',(0.,-13.,-11.5));
#1151=CARTESIAN_POINT('',(0.,-13.,-11.5));
#1152=CARTESIAN_POINT('Origin',(0.,13.,11.5));
#1153=CARTESIAN_POINT('',(0.,13.,11.5));
#1154=CARTESIAN_POINT('Origin',(0.5,13.,7.50000000000001));
#1155=CARTESIAN_POINT('',(2.5,13.,5.90000000000001));
#1156=CARTESIAN_POINT('',(0.5,13.,5.90000000000001));
#1157=CARTESIAN_POINT('Origin',(2.5,13.,7.50000000000001));
#1158=CARTESIAN_POINT('Origin',(2.5,13.,7.50000000000001));
#1159=CARTESIAN_POINT('Origin',(0.5,13.,-8.49999999999999));
#1160=CARTESIAN_POINT('',(2.5,13.,-10.1));
#1161=CARTESIAN_POINT('',(0.5,13.,-10.1));
#1162=CARTESIAN_POINT('Origin',(2.5,13.,-8.49999999999999));
#1163=CARTESIAN_POINT('Origin',(2.5,13.,-8.49999999999999));
#1164=CARTESIAN_POINT('Origin',(3.,13.,6.86950496486816E-15));
#1165=CARTESIAN_POINT('',(3.,13.,7.50000000000001));
#1166=CARTESIAN_POINT('Origin',(3.,13.,6.86950496486816E-15));
#1167=CARTESIAN_POINT('',(3.,13.,5.00000000000001));
#1168=CARTESIAN_POINT('Origin',(3.,13.,6.86950496486816E-15));
#1169=CARTESIAN_POINT('Origin',(5.5,13.,6.86950496486816E-15));
#1170=CARTESIAN_POINT('',(5.5,13.,7.50000000000001));
#1171=CARTESIAN_POINT('Origin',(-37.0055552126624,13.,6.86950496486816E-15));
#1172=CARTESIAN_POINT('',(-37.0055552126624,13.,5.00000000000001));
#1173=CARTESIAN_POINT('Origin',(0.,13.,6.86904516057093E-15));
#1174=CARTESIAN_POINT('Origin',(0.,5.75,5.55111512312578E-15));
#1175=UNCERTAINTY_MEASURE_WITH_UNIT(LENGTH_MEASURE(0.01),#1179,
'DISTANCE_ACCURACY_VALUE',
'Maximum model space distance between geometric entities at asserted c
onnectivities');
#1176=UNCERTAINTY_MEASURE_WITH_UNIT(LENGTH_MEASURE(0.01),#1179,
'DISTANCE_ACCURACY_VALUE',
'Maximum model space distance between geometric entities at asserted c
onnectivities');
#1177=(
GEOMETRIC_REPRESENTATION_CONTEXT(3)
GLOBAL_UNCERTAINTY_ASSIGNED_CONTEXT((#1175))
GLOBAL_UNIT_ASSIGNED_CONTEXT((#1179,#1181,#1182))
REPRESENTATION_CONTEXT('','3D')
);
#1178=(
GEOMETRIC_REPRESENTATION_CONTEXT(3)
GLOBAL_UNCERTAINTY_ASSIGNED_CONTEXT((#1176))
GLOBAL_UNIT_ASSIGNED_CONTEXT((#1179,#1181,#1182))
REPRESENTATION_CONTEXT('','3D')
);
#1179=(
LENGTH_UNIT()
NAMED_UNIT(*)
SI_UNIT(.MILLI.,.METRE.)
);
#1180=(
LENGTH_UNIT()
NAMED_UNIT(*)
SI_UNIT(.CENTI.,.METRE.)
);
#1181=(
NAMED_UNIT(*)
PLANE_ANGLE_UNIT()
SI_UNIT($,.RADIAN.)
);
#1182=(
NAMED_UNIT(*)
SI_UNIT($,.STERADIAN.)
SOLID_ANGLE_UNIT()
);
#1183=SHAPE_DEFINITION_REPRESENTATION(#1184,#1185);
#1184=PRODUCT_DEFINITION_SHAPE('',$,#1187);
#1185=SHAPE_REPRESENTATION('',(#697),#1177);
#1186=PRODUCT_DEFINITION_CONTEXT('part definition',#1191,'design');
#1187=PRODUCT_DEFINITION('support_codeur','support_codeur',#1188,#1186);
#1188=PRODUCT_DEFINITION_FORMATION('',$,#1193);
#1189=PRODUCT_RELATED_PRODUCT_CATEGORY('support_codeur',
'support_codeur',(#1193));
#1190=APPLICATION_PROTOCOL_DEFINITION('international standard',
'automotive_design',2009,#1191);
#1191=APPLICATION_CONTEXT(
'Core Data for Automotive Mechanical Design Process');
#1192=PRODUCT_CONTEXT('part definition',#1191,'mechanical');
#1193=PRODUCT('support_codeur','support_codeur',$,(#1192));
#1194=PRESENTATION_STYLE_ASSIGNMENT((#1195));
#1195=SURFACE_STYLE_USAGE(.BOTH.,#1198);
#1196=SURFACE_STYLE_RENDERING_WITH_PROPERTIES($,#1202,(#1197));
#1197=SURFACE_STYLE_TRANSPARENT(0.);
#1198=SURFACE_SIDE_STYLE('',(#1199,#1196));
#1199=SURFACE_STYLE_FILL_AREA(#1200);
#1200=FILL_AREA_STYLE('',(#1201));
#1201=FILL_AREA_STYLE_COLOUR('',#1202);
#1202=COLOUR_RGB('',0.749019607843137,0.749019607843137,0.749019607843137);
ENDSEC;
END-ISO-10303-21;
