ISO-10303-21;
HEADER;
FILE_DESCRIPTION(('CATIA V5 STEP Exchange','CAx-IF Rec.Pracs.--- Model Styling and Organization---1.5--- 2016-08-15','CAx-IF Rec.Pracs.---Supplemental Geometry---1.0---2011-11-01','CAx-IF Rec.Pracs.--- Composite Materials ---3.4---2017-06-13','CAx-IF Rec.Pracs.---Tessellated 3D Geometry---1.0---2015-12-17'),'2;1');

FILE_NAME('U:\\fipatech\\exports\\envoi toliroise\\plaque mobile.stp','2025-04-05T09:47:21+00:00',('none'),('none'),'CATIA Version 5-6 Release 2020 SP6','CATIA V5 STEP AP242 v2','none');

FILE_SCHEMA(('AP242_MANAGED_MODEL_BASED_3D_ENGINEERING_MIM_LF  {1 0 10303 442 1 1 4}'));

ENDSEC;
DATA;
#5=PRODUCT('plaque mobile','','',(#2)) ;
#2=PRODUCT_CONTEXT(' ',#1,'mechanical') ;
#1=APPLICATION_CONTEXT('managed model based 3d engineering') ;
#10=PRODUCT_DEFINITION('',' ',#6,#3) ;
#3=PRODUCT_DEFINITION_CONTEXT('part definition',#1,' ') ;
#11=PRODUCT_DEFINITION_SHAPE(' ',' ',#10) ;
#2012=MECHANICAL_DESIGN_GEOMETRIC_PRESENTATION_REPRESENTATION(' ',(#29),#16) ;
#7=PRODUCT_CATEGORY('part','specification') ;
#19=SHAPE_REPRESENTATION(' ',(#18),#16) ;
#17=CARTESIAN_POINT(' ',(0.,0.,0.)) ;
#31=CARTESIAN_POINT('Axis2P3D Location',(4.,76.5,27.5)) ;
#36=CARTESIAN_POINT('Line Origine',(1.55500000002,74.879,27.5)) ;
#40=CARTESIAN_POINT('Vertex',(0.,74.879,27.5)) ;
#42=CARTESIAN_POINT('Vertex',(4.,74.879,27.5)) ;
#45=CARTESIAN_POINT('Axis2P3D Location',(0.,76.5,27.5)) ;
#49=CARTESIAN_POINT('Vertex',(0.,78.121,27.5)) ;
#52=CARTESIAN_POINT('Line Origine',(1.55500000002,78.121,27.5)) ;
#56=CARTESIAN_POINT('Vertex',(4.,78.121,27.5)) ;
#59=CARTESIAN_POINT('Axis2P3D Location',(4.,76.5,27.5)) ;
#71=CARTESIAN_POINT('Axis2P3D Location',(4.,0.,0.)) ;
#76=CARTESIAN_POINT('Axis2P3D Location',(4.,137.5,26.5)) ;
#80=CARTESIAN_POINT('Vertex',(4.,142.5,26.5)) ;
#82=CARTESIAN_POINT('Vertex',(4.,137.5,31.5)) ;
#85=CARTESIAN_POINT('Line Origine',(4.,0.,31.5)) ;
#89=CARTESIAN_POINT('Vertex',(4.,-137.5,31.5)) ;
#92=CARTESIAN_POINT('Axis2P3D Location',(4.,-137.5,26.5)) ;
#96=CARTESIAN_POINT('Vertex',(4.,-142.5,26.5)) ;
#99=CARTESIAN_POINT('Line Origine',(4.,-142.5,0.)) ;
#103=CARTESIAN_POINT('Vertex',(4.,-142.5,-26.5)) ;
#106=CARTESIAN_POINT('Axis2P3D Location',(4.,-137.5,-26.5)) ;
#110=CARTESIAN_POINT('Vertex',(4.,-137.5,-31.5)) ;
#113=CARTESIAN_POINT('Line Origine',(4.,-136.543678071,-31.5)) ;
#117=CARTESIAN_POINT('Vertex',(4.,-135.587356142,-31.5)) ;
#120=CARTESIAN_POINT('Axis2P3D Location',(4.,-135.587356142,-26.5)) ;
#124=CARTESIAN_POINT('Vertex',(4.,-133.029936843,-30.796464422)) ;
#127=CARTESIAN_POINT('Line Origine',(4.,-123.291876614,-25.)) ;
#131=CARTESIAN_POINT('Vertex',(4.,-113.553816385,-19.203535578)) ;
#134=CARTESIAN_POINT('Axis2P3D Location',(4.,-110.996397086,-23.5)) ;
#138=CARTESIAN_POINT('Vertex',(4.,-110.996397086,-18.5)) ;
#141=CARTESIAN_POINT('Line Origine',(4.,0.,-18.5)) ;
#145=CARTESIAN_POINT('Vertex',(4.,110.996397086,-18.5)) ;
#148=CARTESIAN_POINT('Axis2P3D Location',(4.,110.996397086,-23.5)) ;
#152=CARTESIAN_POINT('Vertex',(4.,113.553816385,-19.203535578)) ;
#155=CARTESIAN_POINT('Line Origine',(4.,123.291876614,-25.)) ;
#159=CARTESIAN_POINT('Vertex',(4.,133.029936843,-30.796464422)) ;
#162=CARTESIAN_POINT('Axis2P3D Location',(4.,135.587356142,-26.5)) ;
#166=CARTESIAN_POINT('Vertex',(4.,135.587356142,-31.5)) ;
#169=CARTESIAN_POINT('Line Origine',(4.,136.543678071,-31.5)) ;
#173=CARTESIAN_POINT('Vertex',(4.,137.5,-31.5)) ;
#176=CARTESIAN_POINT('Axis2P3D Location',(4.,137.5,-26.5)) ;
#180=CARTESIAN_POINT('Vertex',(4.,142.5,-26.5)) ;
#183=CARTESIAN_POINT('Line Origine',(4.,142.5,3.5527136788E-15)) ;
#206=CARTESIAN_POINT('Axis2P3D Location',(4.,41.5,17.5)) ;
#210=CARTESIAN_POINT('Vertex',(4.,43.121,17.5)) ;
#212=CARTESIAN_POINT('Vertex',(4.,39.879,17.5)) ;
#215=CARTESIAN_POINT('Axis2P3D Location',(4.,41.5,17.5)) ;
#224=CARTESIAN_POINT('Axis2P3D Location',(4.,76.5,27.5)) ;
#233=CARTESIAN_POINT('Axis2P3D Location',(4.,-30.,-5.)) ;
#237=CARTESIAN_POINT('Vertex',(4.,-32.5,-5.)) ;
#239=CARTESIAN_POINT('Vertex',(4.,-27.5,-5.)) ;
#242=CARTESIAN_POINT('Axis2P3D Location',(4.,-30.,-5.)) ;
#251=CARTESIAN_POINT('Axis2P3D Location',(4.,30.,-5.)) ;
#255=CARTESIAN_POINT('Vertex',(4.,27.5,-5.)) ;
#257=CARTESIAN_POINT('Vertex',(4.,32.5,-5.)) ;
#260=CARTESIAN_POINT('Axis2P3D Location',(4.,30.,-5.)) ;
#269=CARTESIAN_POINT('Axis2P3D Location',(4.,136.,25.)) ;
#273=CARTESIAN_POINT('Vertex',(4.,133.5,25.)) ;
#275=CARTESIAN_POINT('Vertex',(4.,138.5,25.)) ;
#278=CARTESIAN_POINT('Axis2P3D Location',(4.,136.,25.)) ;
#287=CARTESIAN_POINT('Axis2P3D Location',(4.,136.,-25.)) ;
#291=CARTESIAN_POINT('Vertex',(4.,133.5,-25.)) ;
#293=CARTESIAN_POINT('Vertex',(4.,138.5,-25.)) ;
#296=CARTESIAN_POINT('Axis2P3D Location',(4.,136.,-25.)) ;
#305=CARTESIAN_POINT('Axis2P3D Location',(4.,94.,0.)) ;
#309=CARTESIAN_POINT('Vertex',(4.,91.5,3.06161699787E-16)) ;
#311=CARTESIAN_POINT('Vertex',(4.,96.5,0.)) ;
#314=CARTESIAN_POINT('Axis2P3D Location',(4.,94.,0.)) ;
#323=CARTESIAN_POINT('Axis2P3D Location',(4.,-136.,-25.)) ;
#327=CARTESIAN_POINT('Vertex',(4.,-133.5,-25.)) ;
#329=CARTESIAN_POINT('Vertex',(4.,-138.5,-25.)) ;
#332=CARTESIAN_POINT('Axis2P3D Location',(4.,-136.,-25.)) ;
#341=CARTESIAN_POINT('Axis2P3D Location',(4.,-94.,0.)) ;
#345=CARTESIAN_POINT('Vertex',(4.,-91.5,-6.12323399574E-16)) ;
#347=CARTESIAN_POINT('Vertex',(4.,-96.5,3.06161699787E-16)) ;
#350=CARTESIAN_POINT('Axis2P3D Location',(4.,-94.,0.)) ;
#359=CARTESIAN_POINT('Axis2P3D Location',(4.,-136.,25.)) ;
#363=CARTESIAN_POINT('Vertex',(4.,-133.5,25.)) ;
#365=CARTESIAN_POINT('Vertex',(4.,-138.5,25.)) ;
#368=CARTESIAN_POINT('Axis2P3D Location',(4.,-136.,25.)) ;
#377=CARTESIAN_POINT('Line Origine',(4.,30.,18.8388347648)) ;
#381=CARTESIAN_POINT('Vertex',(4.,30.,15.1776695297)) ;
#383=CARTESIAN_POINT('Vertex',(4.,30.,22.5)) ;
#386=CARTESIAN_POINT('Axis2P3D Location',(4.,27.5,15.1776695297)) ;
#390=CARTESIAN_POINT('Vertex',(4.,29.267766953,13.4099025767)) ;
#393=CARTESIAN_POINT('Line Origine',(4.,22.9289321881,7.07106781187)) ;
#397=CARTESIAN_POINT('Vertex',(4.,16.5900974233,0.732233047034)) ;
#400=CARTESIAN_POINT('Axis2P3D Location',(4.,14.8223304703,2.5)) ;
#404=CARTESIAN_POINT('Vertex',(4.,14.8223304703,8.881784197E-16)) ;
#407=CARTESIAN_POINT('Line Origine',(4.,7.1054273576E-15,8.881784197E-16)) ;
#411=CARTESIAN_POINT('Vertex',(4.,-14.8223304703,1.33226762955E-15)) ;
#414=CARTESIAN_POINT('Axis2P3D Location',(4.,-14.8223304703,2.5)) ;
#418=CARTESIAN_POINT('Vertex',(4.,-16.5900974233,0.732233047034)) ;
#421=CARTESIAN_POINT('Line Origine',(4.,-22.9289321881,7.07106781187)) ;
#425=CARTESIAN_POINT('Vertex',(4.,-29.267766953,13.4099025767)) ;
#428=CARTESIAN_POINT('Axis2P3D Location',(4.,-27.5,15.1776695297)) ;
#432=CARTESIAN_POINT('Vertex',(4.,-30.,15.1776695297)) ;
#435=CARTESIAN_POINT('Line Origine',(4.,-30.,18.8388347648)) ;
#439=CARTESIAN_POINT('Vertex',(4.,-30.,22.5)) ;
#442=CARTESIAN_POINT('Axis2P3D Location',(4.,-27.5,22.5)) ;
#446=CARTESIAN_POINT('Vertex',(4.,-27.5,25.)) ;
#449=CARTESIAN_POINT('Line Origine',(4.,0.,25.)) ;
#453=CARTESIAN_POINT('Vertex',(4.,27.5,25.)) ;
#456=CARTESIAN_POINT('Axis2P3D Location',(4.,27.5,22.5)) ;
#475=CARTESIAN_POINT('Axis2P3D Location',(4.,41.5,27.5)) ;
#479=CARTESIAN_POINT('Vertex',(4.,43.121,27.5)) ;
#481=CARTESIAN_POINT('Vertex',(4.,39.879,27.5)) ;
#484=CARTESIAN_POINT('Axis2P3D Location',(4.,41.5,27.5)) ;
#493=CARTESIAN_POINT('Axis2P3D Location',(4.,76.5,17.5)) ;
#497=CARTESIAN_POINT('Vertex',(4.,78.121,17.5)) ;
#499=CARTESIAN_POINT('Vertex',(4.,74.879,17.5)) ;
#502=CARTESIAN_POINT('Axis2P3D Location',(4.,76.5,17.5)) ;
#511=CARTESIAN_POINT('Axis2P3D Location',(4.,-41.5,27.5)) ;
#515=CARTESIAN_POINT('Vertex',(4.,-39.879,27.5)) ;
#517=CARTESIAN_POINT('Vertex',(4.,-43.121,27.5)) ;
#520=CARTESIAN_POINT('Axis2P3D Location',(4.,-41.5,27.5)) ;
#529=CARTESIAN_POINT('Axis2P3D Location',(4.,-76.5,27.5)) ;
#533=CARTESIAN_POINT('Vertex',(4.,-74.879,27.5)) ;
#535=CARTESIAN_POINT('Vertex',(4.,-78.121,27.5)) ;
#538=CARTESIAN_POINT('Axis2P3D Location',(4.,-76.5,27.5)) ;
#547=CARTESIAN_POINT('Axis2P3D Location',(4.,-76.5,17.5)) ;
#551=CARTESIAN_POINT('Vertex',(4.,-74.879,17.5)) ;
#553=CARTESIAN_POINT('Vertex',(4.,-78.121,17.5)) ;
#556=CARTESIAN_POINT('Axis2P3D Location',(4.,-76.5,17.5)) ;
#565=CARTESIAN_POINT('Axis2P3D Location',(4.,-41.5,17.5)) ;
#569=CARTESIAN_POINT('Vertex',(4.,-39.879,17.5)) ;
#571=CARTESIAN_POINT('Vertex',(4.,-43.121,17.5)) ;
#574=CARTESIAN_POINT('Axis2P3D Location',(4.,-41.5,17.5)) ;
#584=CARTESIAN_POINT('Axis2P3D Location',(0.,76.5,27.5)) ;
#596=CARTESIAN_POINT('Axis2P3D Location',(2.,137.5,26.5)) ;
#601=CARTESIAN_POINT('Line Origine',(2.,142.5,26.5)) ;
#605=CARTESIAN_POINT('Vertex',(0.,142.5,26.5)) ;
#608=CARTESIAN_POINT('Axis2P3D Location',(0.,137.5,26.5)) ;
#612=CARTESIAN_POINT('Vertex',(0.,137.5,31.5)) ;
#615=CARTESIAN_POINT('Line Origine',(2.,137.5,31.5)) ;
#627=CARTESIAN_POINT('Axis2P3D Location',(0.,-137.5,31.5)) ;
#632=CARTESIAN_POINT('Line Origine',(0.,0.,31.5)) ;
#636=CARTESIAN_POINT('Vertex',(0.,-137.5,31.5)) ;
#639=CARTESIAN_POINT('Line Origine',(2.,-137.5,31.5)) ;
#651=CARTESIAN_POINT('Axis2P3D Location',(2.,-137.5,26.5)) ;
#656=CARTESIAN_POINT('Axis2P3D Location',(0.,-137.5,26.5)) ;
#660=CARTESIAN_POINT('Vertex',(0.,-142.5,26.5)) ;
#663=CARTESIAN_POINT('Line Origine',(2.,-142.5,26.5)) ;
#675=CARTESIAN_POINT('Axis2P3D Location',(0.,-142.5,-26.5)) ;
#680=CARTESIAN_POINT('Line Origine',(0.,-142.5,0.)) ;
#684=CARTESIAN_POINT('Vertex',(0.,-142.5,-26.5)) ;
#687=CARTESIAN_POINT('Line Origine',(2.,-142.5,-26.5)) ;
#699=CARTESIAN_POINT('Axis2P3D Location',(2.,-137.5,-26.5)) ;
#704=CARTESIAN_POINT('Axis2P3D Location',(0.,-137.5,-26.5)) ;
#708=CARTESIAN_POINT('Vertex',(0.,-137.5,-31.5)) ;
#711=CARTESIAN_POINT('Line Origine',(2.,-137.5,-31.5)) ;
#723=CARTESIAN_POINT('Axis2P3D Location',(0.,-137.5,-31.5)) ;
#728=CARTESIAN_POINT('Line Origine',(0.,-136.543678071,-31.5)) ;
#732=CARTESIAN_POINT('Vertex',(0.,-135.587356142,-31.5)) ;
#735=CARTESIAN_POINT('Line Origine',(2.,-135.587356142,-31.5)) ;
#747=CARTESIAN_POINT('Axis2P3D Location',(2.,-135.587356142,-26.5)) ;
#752=CARTESIAN_POINT('Axis2P3D Location',(0.,-135.587356142,-26.5)) ;
#756=CARTESIAN_POINT('Vertex',(0.,-133.029936843,-30.796464422)) ;
#759=CARTESIAN_POINT('Line Origine',(2.,-133.029936843,-30.796464422)) ;
#771=CARTESIAN_POINT('Axis2P3D Location',(0.,-133.029936843,-30.796464422)) ;
#776=CARTESIAN_POINT('Line Origine',(0.,-123.291876614,-25.)) ;
#780=CARTESIAN_POINT('Vertex',(0.,-113.553816385,-19.203535578)) ;
#783=CARTESIAN_POINT('Line Origine',(2.,-113.553816385,-19.203535578)) ;
#795=CARTESIAN_POINT('Axis2P3D Location',(2.,-110.996397086,-23.5)) ;
#800=CARTESIAN_POINT('Axis2P3D Location',(0.,-110.996397086,-23.5)) ;
#804=CARTESIAN_POINT('Vertex',(0.,-110.996397086,-18.5)) ;
#807=CARTESIAN_POINT('Line Origine',(2.,-110.996397086,-18.5)) ;
#819=CARTESIAN_POINT('Axis2P3D Location',(0.,110.996397086,-18.5)) ;
#824=CARTESIAN_POINT('Line Origine',(0.,1.42108547152E-14,-18.5)) ;
#828=CARTESIAN_POINT('Vertex',(0.,110.996397086,-18.5)) ;
#831=CARTESIAN_POINT('Line Origine',(2.,110.996397086,-18.5)) ;
#843=CARTESIAN_POINT('Axis2P3D Location',(2.,110.996397086,-23.5)) ;
#848=CARTESIAN_POINT('Axis2P3D Location',(0.,110.996397086,-23.5)) ;
#852=CARTESIAN_POINT('Vertex',(0.,113.553816385,-19.203535578)) ;
#855=CARTESIAN_POINT('Line Origine',(2.,113.553816385,-19.203535578)) ;
#867=CARTESIAN_POINT('Axis2P3D Location',(0.,133.029936843,-30.796464422)) ;
#872=CARTESIAN_POINT('Line Origine',(0.,123.291876614,-25.)) ;
#876=CARTESIAN_POINT('Vertex',(0.,133.029936843,-30.796464422)) ;
#879=CARTESIAN_POINT('Line Origine',(2.,133.029936843,-30.796464422)) ;
#891=CARTESIAN_POINT('Axis2P3D Location',(2.,135.587356142,-26.5)) ;
#896=CARTESIAN_POINT('Axis2P3D Location',(0.,135.587356142,-26.5)) ;
#900=CARTESIAN_POINT('Vertex',(0.,135.587356142,-31.5)) ;
#903=CARTESIAN_POINT('Line Origine',(2.,135.587356142,-31.5)) ;
#915=CARTESIAN_POINT('Line Origine',(0.,136.543678071,-31.5)) ;
#919=CARTESIAN_POINT('Vertex',(0.,137.5,-31.5)) ;
#922=CARTESIAN_POINT('Line Origine',(2.,137.5,-31.5)) ;
#934=CARTESIAN_POINT('Axis2P3D Location',(2.,137.5,-26.5)) ;
#939=CARTESIAN_POINT('Axis2P3D Location',(0.,137.5,-26.5)) ;
#943=CARTESIAN_POINT('Vertex',(0.,142.5,-26.5)) ;
#946=CARTESIAN_POINT('Line Origine',(2.,142.5,-26.5)) ;
#958=CARTESIAN_POINT('Axis2P3D Location',(0.,142.5,26.5)) ;
#963=CARTESIAN_POINT('Line Origine',(0.,142.5,0.)) ;
#975=CARTESIAN_POINT('Axis2P3D Location',(4.,-30.,-5.)) ;
#980=CARTESIAN_POINT('Line Origine',(-0.844999999975,-32.5,-5.)) ;
#984=CARTESIAN_POINT('Vertex',(0.,-32.5,-5.)) ;
#987=CARTESIAN_POINT('Axis2P3D Location',(0.,-30.,-5.)) ;
#991=CARTESIAN_POINT('Vertex',(0.,-27.5,-5.)) ;
#994=CARTESIAN_POINT('Line Origine',(-0.844999999975,-27.5,-5.)) ;
#1006=CARTESIAN_POINT('Axis2P3D Location',(0.,-30.,-5.)) ;
#1018=CARTESIAN_POINT('Axis2P3D Location',(2.,27.5,22.5)) ;
#1023=CARTESIAN_POINT('Line Origine',(2.,27.5,25.)) ;
#1027=CARTESIAN_POINT('Vertex',(0.,27.5,25.)) ;
#1030=CARTESIAN_POINT('Axis2P3D Location',(0.,27.5,22.5)) ;
#1034=CARTESIAN_POINT('Vertex',(0.,30.,22.5)) ;
#1037=CARTESIAN_POINT('Line Origine',(2.,30.,22.5)) ;
#1049=CARTESIAN_POINT('Axis2P3D Location',(0.,-27.5,25.)) ;
#1054=CARTESIAN_POINT('Line Origine',(2.,-27.5,25.)) ;
#1058=CARTESIAN_POINT('Vertex',(0.,-27.5,25.)) ;
#1061=CARTESIAN_POINT('Line Origine',(0.,0.,25.)) ;
#1073=CARTESIAN_POINT('Axis2P3D Location',(2.,-27.5,22.5)) ;
#1078=CARTESIAN_POINT('Line Origine',(2.,-30.,22.5)) ;
#1082=CARTESIAN_POINT('Vertex',(0.,-30.,22.5)) ;
#1085=CARTESIAN_POINT('Axis2P3D Location',(0.,-27.5,22.5)) ;
#1097=CARTESIAN_POINT('Axis2P3D Location',(0.,-30.,15.1776695297)) ;
#1102=CARTESIAN_POINT('Line Origine',(2.,-30.,15.1776695297)) ;
#1106=CARTESIAN_POINT('Vertex',(0.,-30.,15.1776695297)) ;
#1109=CARTESIAN_POINT('Line Origine',(0.,-30.,18.8388347648)) ;
#1121=CARTESIAN_POINT('Axis2P3D Location',(2.,-27.5,15.1776695297)) ;
#1126=CARTESIAN_POINT('Line Origine',(2.,-29.267766953,13.4099025767)) ;
#1130=CARTESIAN_POINT('Vertex',(0.,-29.267766953,13.4099025767)) ;
#1133=CARTESIAN_POINT('Axis2P3D Location',(0.,-27.5,15.1776695297)) ;
#1145=CARTESIAN_POINT('Axis2P3D Location',(0.,-16.5900974233,0.732233047034)) ;
#1150=CARTESIAN_POINT('Line Origine',(2.,-16.5900974233,0.732233047034)) ;
#1154=CARTESIAN_POINT('Vertex',(0.,-16.5900974233,0.732233047034)) ;
#1157=CARTESIAN_POINT('Line Origine',(0.,-22.9289321881,7.07106781187)) ;
#1169=CARTESIAN_POINT('Axis2P3D Location',(2.,-14.8223304703,2.5)) ;
#1174=CARTESIAN_POINT('Line Origine',(2.,-14.8223304703,1.33226762955E-15)) ;
#1178=CARTESIAN_POINT('Vertex',(0.,-14.8223304703,1.33226762955E-15)) ;
#1181=CARTESIAN_POINT('Axis2P3D Location',(0.,-14.8223304703,2.5)) ;
#1193=CARTESIAN_POINT('Axis2P3D Location',(0.,14.8223304703,8.881784197E-16)) ;
#1198=CARTESIAN_POINT('Line Origine',(2.,14.8223304703,8.881784197E-16)) ;
#1202=CARTESIAN_POINT('Vertex',(0.,14.8223304703,8.881784197E-16)) ;
#1205=CARTESIAN_POINT('Line Origine',(0.,7.1054273576E-15,8.881784197E-16)) ;
#1217=CARTESIAN_POINT('Axis2P3D Location',(2.,14.8223304703,2.5)) ;
#1222=CARTESIAN_POINT('Line Origine',(2.,16.5900974233,0.732233047034)) ;
#1226=CARTESIAN_POINT('Vertex',(0.,16.5900974233,0.732233047034)) ;
#1229=CARTESIAN_POINT('Axis2P3D Location',(0.,14.8223304703,2.5)) ;
#1241=CARTESIAN_POINT('Axis2P3D Location',(0.,29.267766953,13.4099025767)) ;
#1246=CARTESIAN_POINT('Line Origine',(2.,29.267766953,13.4099025767)) ;
#1250=CARTESIAN_POINT('Vertex',(0.,29.267766953,13.4099025767)) ;
#1253=CARTESIAN_POINT('Line Origine',(0.,22.9289321881,7.07106781187)) ;
#1265=CARTESIAN_POINT('Axis2P3D Location',(2.,27.5,15.1776695297)) ;
#1270=CARTESIAN_POINT('Line Origine',(2.,30.,15.1776695297)) ;
#1274=CARTESIAN_POINT('Vertex',(0.,30.,15.1776695297)) ;
#1277=CARTESIAN_POINT('Axis2P3D Location',(0.,27.5,15.1776695297)) ;
#1289=CARTESIAN_POINT('Axis2P3D Location',(0.,30.,22.5)) ;
#1294=CARTESIAN_POINT('Line Origine',(0.,30.,18.8388347648)) ;
#1306=CARTESIAN_POINT('Axis2P3D Location',(2.,-136.,25.)) ;
#1311=CARTESIAN_POINT('Line Origine',(2.,-133.5,25.)) ;
#1315=CARTESIAN_POINT('Vertex',(0.,-133.5,25.)) ;
#1318=CARTESIAN_POINT('Axis2P3D Location',(0.,-136.,25.)) ;
#1322=CARTESIAN_POINT('Vertex',(0.,-138.5,25.)) ;
#1325=CARTESIAN_POINT('Line Origine',(2.,-138.5,25.)) ;
#1337=CARTESIAN_POINT('Axis2P3D Location',(0.,-136.,25.)) ;
#1349=CARTESIAN_POINT('Axis2P3D Location',(2.,-94.,0.)) ;
#1354=CARTESIAN_POINT('Line Origine',(2.,-91.5,-6.12323399574E-16)) ;
#1358=CARTESIAN_POINT('Vertex',(0.,-91.5,-6.12323399574E-16)) ;
#1361=CARTESIAN_POINT('Axis2P3D Location',(0.,-94.,0.)) ;
#1365=CARTESIAN_POINT('Vertex',(0.,-96.5,3.06161699787E-16)) ;
#1368=CARTESIAN_POINT('Line Origine',(2.,-96.5,3.06161699787E-16)) ;
#1380=CARTESIAN_POINT('Axis2P3D Location',(0.,-94.,0.)) ;
#1392=CARTESIAN_POINT('Axis2P3D Location',(2.,-136.,-25.)) ;
#1397=CARTESIAN_POINT('Line Origine',(2.,-133.5,-25.)) ;
#1401=CARTESIAN_POINT('Vertex',(0.,-133.5,-25.)) ;
#1404=CARTESIAN_POINT('Axis2P3D Location',(0.,-136.,-25.)) ;
#1408=CARTESIAN_POINT('Vertex',(0.,-138.5,-25.)) ;
#1411=CARTESIAN_POINT('Line Origine',(2.,-138.5,-25.)) ;
#1423=CARTESIAN_POINT('Axis2P3D Location',(0.,-136.,-25.)) ;
#1435=CARTESIAN_POINT('Axis2P3D Location',(2.,94.,0.)) ;
#1440=CARTESIAN_POINT('Line Origine',(2.,91.5,3.06161699787E-16)) ;
#1444=CARTESIAN_POINT('Vertex',(0.,91.5,3.06161699787E-16)) ;
#1447=CARTESIAN_POINT('Axis2P3D Location',(0.,94.,0.)) ;
#1451=CARTESIAN_POINT('Vertex',(0.,96.5,0.)) ;
#1454=CARTESIAN_POINT('Line Origine',(2.,96.5,0.)) ;
#1466=CARTESIAN_POINT('Axis2P3D Location',(0.,94.,0.)) ;
#1478=CARTESIAN_POINT('Axis2P3D Location',(2.,136.,-25.)) ;
#1483=CARTESIAN_POINT('Line Origine',(2.,133.5,-25.)) ;
#1487=CARTESIAN_POINT('Vertex',(0.,133.5,-25.)) ;
#1490=CARTESIAN_POINT('Axis2P3D Location',(0.,136.,-25.)) ;
#1494=CARTESIAN_POINT('Vertex',(0.,138.5,-25.)) ;
#1497=CARTESIAN_POINT('Line Origine',(2.,138.5,-25.)) ;
#1509=CARTESIAN_POINT('Axis2P3D Location',(0.,136.,-25.)) ;
#1521=CARTESIAN_POINT('Axis2P3D Location',(2.,136.,25.)) ;
#1526=CARTESIAN_POINT('Line Origine',(2.,133.5,25.)) ;
#1530=CARTESIAN_POINT('Vertex',(0.,133.5,25.)) ;
#1533=CARTESIAN_POINT('Axis2P3D Location',(0.,136.,25.)) ;
#1537=CARTESIAN_POINT('Vertex',(0.,138.5,25.)) ;
#1540=CARTESIAN_POINT('Line Origine',(2.,138.5,25.)) ;
#1552=CARTESIAN_POINT('Axis2P3D Location',(0.,136.,25.)) ;
#1564=CARTESIAN_POINT('Axis2P3D Location',(4.,30.,-5.)) ;
#1569=CARTESIAN_POINT('Line Origine',(-0.844999999975,27.5,-5.)) ;
#1573=CARTESIAN_POINT('Vertex',(0.,27.5,-5.)) ;
#1576=CARTESIAN_POINT('Axis2P3D Location',(0.,30.,-5.)) ;
#1580=CARTESIAN_POINT('Vertex',(0.,32.5,-5.)) ;
#1583=CARTESIAN_POINT('Line Origine',(-0.844999999975,32.5,-5.)) ;
#1595=CARTESIAN_POINT('Axis2P3D Location',(0.,30.,-5.)) ;
#1607=CARTESIAN_POINT('Axis2P3D Location',(0.,0.,0.)) ;
#1630=CARTESIAN_POINT('Axis2P3D Location',(0.,41.5,17.5)) ;
#1634=CARTESIAN_POINT('Vertex',(0.,39.879,17.5)) ;
#1636=CARTESIAN_POINT('Vertex',(0.,43.121,17.5)) ;
#1639=CARTESIAN_POINT('Axis2P3D Location',(0.,41.5,17.5)) ;
#1698=CARTESIAN_POINT('Axis2P3D Location',(0.,41.5,27.5)) ;
#1702=CARTESIAN_POINT('Vertex',(0.,39.879,27.5)) ;
#1704=CARTESIAN_POINT('Vertex',(0.,43.121,27.5)) ;
#1707=CARTESIAN_POINT('Axis2P3D Location',(0.,41.5,27.5)) ;
#1716=CARTESIAN_POINT('Axis2P3D Location',(0.,76.5,17.5)) ;
#1720=CARTESIAN_POINT('Vertex',(0.,74.879,17.5)) ;
#1722=CARTESIAN_POINT('Vertex',(0.,78.121,17.5)) ;
#1725=CARTESIAN_POINT('Axis2P3D Location',(0.,76.5,17.5)) ;
#1734=CARTESIAN_POINT('Axis2P3D Location',(0.,-41.5,27.5)) ;
#1738=CARTESIAN_POINT('Vertex',(0.,-43.121,27.5)) ;
#1740=CARTESIAN_POINT('Vertex',(0.,-39.879,27.5)) ;
#1743=CARTESIAN_POINT('Axis2P3D Location',(0.,-41.5,27.5)) ;
#1752=CARTESIAN_POINT('Axis2P3D Location',(0.,-76.5,27.5)) ;
#1756=CARTESIAN_POINT('Vertex',(0.,-78.121,27.5)) ;
#1758=CARTESIAN_POINT('Vertex',(0.,-74.879,27.5)) ;
#1761=CARTESIAN_POINT('Axis2P3D Location',(0.,-76.5,27.5)) ;
#1770=CARTESIAN_POINT('Axis2P3D Location',(0.,-76.5,17.5)) ;
#1774=CARTESIAN_POINT('Vertex',(0.,-78.121,17.5)) ;
#1776=CARTESIAN_POINT('Vertex',(0.,-74.879,17.5)) ;
#1779=CARTESIAN_POINT('Axis2P3D Location',(0.,-76.5,17.5)) ;
#1788=CARTESIAN_POINT('Axis2P3D Location',(0.,-41.5,17.5)) ;
#1792=CARTESIAN_POINT('Vertex',(0.,-43.121,17.5)) ;
#1794=CARTESIAN_POINT('Vertex',(0.,-39.879,17.5)) ;
#1797=CARTESIAN_POINT('Axis2P3D Location',(0.,-41.5,17.5)) ;
#1807=CARTESIAN_POINT('Axis2P3D Location',(4.,41.5,27.5)) ;
#1812=CARTESIAN_POINT('Line Origine',(1.55500000002,39.879,27.5)) ;
#1817=CARTESIAN_POINT('Line Origine',(1.55500000002,43.121,27.5)) ;
#1836=CARTESIAN_POINT('Axis2P3D Location',(4.,76.5,17.5)) ;
#1841=CARTESIAN_POINT('Line Origine',(1.55500000002,74.879,17.5)) ;
#1846=CARTESIAN_POINT('Line Origine',(1.55500000002,78.121,17.5)) ;
#1865=CARTESIAN_POINT('Axis2P3D Location',(4.,-41.5,27.5)) ;
#1870=CARTESIAN_POINT('Line Origine',(1.55500000002,-43.121,27.5)) ;
#1875=CARTESIAN_POINT('Line Origine',(1.55500000002,-39.879,27.5)) ;
#1894=CARTESIAN_POINT('Axis2P3D Location',(4.,-76.5,27.5)) ;
#1899=CARTESIAN_POINT('Line Origine',(1.55500000002,-78.121,27.5)) ;
#1904=CARTESIAN_POINT('Line Origine',(1.55500000002,-74.879,27.5)) ;
#1923=CARTESIAN_POINT('Axis2P3D Location',(4.,-76.5,17.5)) ;
#1928=CARTESIAN_POINT('Line Origine',(1.55500000002,-78.121,17.5)) ;
#1933=CARTESIAN_POINT('Line Origine',(1.55500000002,-74.879,17.5)) ;
#1952=CARTESIAN_POINT('Axis2P3D Location',(4.,41.5,17.5)) ;
#1957=CARTESIAN_POINT('Line Origine',(1.55500000002,39.879,17.5)) ;
#1962=CARTESIAN_POINT('Line Origine',(1.55500000002,43.121,17.5)) ;
#1981=CARTESIAN_POINT('Axis2P3D Location',(4.,-41.5,17.5)) ;
#1986=CARTESIAN_POINT('Line Origine',(1.55500000002,-43.121,17.5)) ;
#1991=CARTESIAN_POINT('Line Origine',(1.55500000002,-39.879,17.5)) ;
#8=PRODUCT_RELATED_PRODUCT_CATEGORY('part',$,(#5)) ;
#15=UNCERTAINTY_MEASURE_WITH_UNIT(LENGTH_MEASURE(0.005),#12,'distance_accuracy_value','CONFUSED CURVE UNCERTAINTY') ;
#29=STYLED_ITEM(' ',(#28),#21) ;
#28=PRESENTATION_STYLE_ASSIGNMENT((#27)) ;
#27=SURFACE_STYLE_USAGE(.BOTH.,#26) ;
#26=SURFACE_SIDE_STYLE(' ',(#25)) ;
#25=SURFACE_STYLE_FILL_AREA(#24) ;
#24=FILL_AREA_STYLE(' ',(#23)) ;
#23=FILL_AREA_STYLE_COLOUR(' ',#22) ;
#38=VECTOR('Line Direction',#37,1.) ;
#54=VECTOR('Line Direction',#53,1.) ;
#87=VECTOR('Line Direction',#86,1.) ;
#101=VECTOR('Line Direction',#100,1.) ;
#115=VECTOR('Line Direction',#114,1.) ;
#129=VECTOR('Line Direction',#128,1.) ;
#143=VECTOR('Line Direction',#142,1.) ;
#157=VECTOR('Line Direction',#156,1.) ;
#171=VECTOR('Line Direction',#170,1.) ;
#185=VECTOR('Line Direction',#184,1.) ;
#379=VECTOR('Line Direction',#378,1.) ;
#395=VECTOR('Line Direction',#394,1.) ;
#409=VECTOR('Line Direction',#408,1.) ;
#423=VECTOR('Line Direction',#422,1.) ;
#437=VECTOR('Line Direction',#436,1.) ;
#451=VECTOR('Line Direction',#450,1.) ;
#603=VECTOR('Line Direction',#602,1.) ;
#617=VECTOR('Line Direction',#616,1.) ;
#634=VECTOR('Line Direction',#633,1.) ;
#641=VECTOR('Line Direction',#640,1.) ;
#665=VECTOR('Line Direction',#664,1.) ;
#682=VECTOR('Line Direction',#681,1.) ;
#689=VECTOR('Line Direction',#688,1.) ;
#713=VECTOR('Line Direction',#712,1.) ;
#730=VECTOR('Line Direction',#729,1.) ;
#737=VECTOR('Line Direction',#736,1.) ;
#761=VECTOR('Line Direction',#760,1.) ;
#778=VECTOR('Line Direction',#777,1.) ;
#785=VECTOR('Line Direction',#784,1.) ;
#809=VECTOR('Line Direction',#808,1.) ;
#826=VECTOR('Line Direction',#825,1.) ;
#833=VECTOR('Line Direction',#832,1.) ;
#857=VECTOR('Line Direction',#856,1.) ;
#874=VECTOR('Line Direction',#873,1.) ;
#881=VECTOR('Line Direction',#880,1.) ;
#905=VECTOR('Line Direction',#904,1.) ;
#917=VECTOR('Line Direction',#916,1.) ;
#924=VECTOR('Line Direction',#923,1.) ;
#948=VECTOR('Line Direction',#947,1.) ;
#965=VECTOR('Line Direction',#964,1.) ;
#982=VECTOR('Line Direction',#981,1.) ;
#996=VECTOR('Line Direction',#995,1.) ;
#1025=VECTOR('Line Direction',#1024,1.) ;
#1039=VECTOR('Line Direction',#1038,1.) ;
#1056=VECTOR('Line Direction',#1055,1.) ;
#1063=VECTOR('Line Direction',#1062,1.) ;
#1080=VECTOR('Line Direction',#1079,1.) ;
#1104=VECTOR('Line Direction',#1103,1.) ;
#1111=VECTOR('Line Direction',#1110,1.) ;
#1128=VECTOR('Line Direction',#1127,1.) ;
#1152=VECTOR('Line Direction',#1151,1.) ;
#1159=VECTOR('Line Direction',#1158,1.) ;
#1176=VECTOR('Line Direction',#1175,1.) ;
#1200=VECTOR('Line Direction',#1199,1.) ;
#1207=VECTOR('Line Direction',#1206,1.) ;
#1224=VECTOR('Line Direction',#1223,1.) ;
#1248=VECTOR('Line Direction',#1247,1.) ;
#1255=VECTOR('Line Direction',#1254,1.) ;
#1272=VECTOR('Line Direction',#1271,1.) ;
#1296=VECTOR('Line Direction',#1295,1.) ;
#1313=VECTOR('Line Direction',#1312,1.) ;
#1327=VECTOR('Line Direction',#1326,1.) ;
#1356=VECTOR('Line Direction',#1355,1.) ;
#1370=VECTOR('Line Direction',#1369,1.) ;
#1399=VECTOR('Line Direction',#1398,1.) ;
#1413=VECTOR('Line Direction',#1412,1.) ;
#1442=VECTOR('Line Direction',#1441,1.) ;
#1456=VECTOR('Line Direction',#1455,1.) ;
#1485=VECTOR('Line Direction',#1484,1.) ;
#1499=VECTOR('Line Direction',#1498,1.) ;
#1528=VECTOR('Line Direction',#1527,1.) ;
#1542=VECTOR('Line Direction',#1541,1.) ;
#1571=VECTOR('Line Direction',#1570,1.) ;
#1585=VECTOR('Line Direction',#1584,1.) ;
#1814=VECTOR('Line Direction',#1813,1.) ;
#1819=VECTOR('Line Direction',#1818,1.) ;
#1843=VECTOR('Line Direction',#1842,1.) ;
#1848=VECTOR('Line Direction',#1847,1.) ;
#1872=VECTOR('Line Direction',#1871,1.) ;
#1877=VECTOR('Line Direction',#1876,1.) ;
#1901=VECTOR('Line Direction',#1900,1.) ;
#1906=VECTOR('Line Direction',#1905,1.) ;
#1930=VECTOR('Line Direction',#1929,1.) ;
#1935=VECTOR('Line Direction',#1934,1.) ;
#1959=VECTOR('Line Direction',#1958,1.) ;
#1964=VECTOR('Line Direction',#1963,1.) ;
#1988=VECTOR('Line Direction',#1987,1.) ;
#1993=VECTOR('Line Direction',#1992,1.) ;
#32=DIRECTION('Axis2P3D Direction',(-1.,0.,-0.)) ;
#33=DIRECTION('Axis2P3D XDirection',(0.,1.,0.)) ;
#37=DIRECTION('Vector Direction',(-1.,0.,0.)) ;
#46=DIRECTION('Axis2P3D Direction',(-1.,0.,-0.)) ;
#53=DIRECTION('Vector Direction',(-1.,0.,0.)) ;
#60=DIRECTION('Axis2P3D Direction',(-1.,0.,-0.)) ;
#72=DIRECTION('Axis2P3D Direction',(1.,0.,0.)) ;
#73=DIRECTION('Axis2P3D XDirection',(0.,1.,0.)) ;
#77=DIRECTION('Axis2P3D Direction',(1.,0.,0.)) ;
#86=DIRECTION('Vector Direction',(0.,1.,0.)) ;
#93=DIRECTION('Axis2P3D Direction',(1.,0.,0.)) ;
#100=DIRECTION('Vector Direction',(0.,0.,1.)) ;
#107=DIRECTION('Axis2P3D Direction',(1.,0.,0.)) ;
#114=DIRECTION('Vector Direction',(0.,1.,0.)) ;
#121=DIRECTION('Axis2P3D Direction',(1.,0.,0.)) ;
#128=DIRECTION('Vector Direction',(0.,0.85929288441,0.511483859768)) ;
#135=DIRECTION('Axis2P3D Direction',(1.,0.,0.)) ;
#142=DIRECTION('Vector Direction',(0.,-1.,0.)) ;
#149=DIRECTION('Axis2P3D Direction',(1.,0.,0.)) ;
#156=DIRECTION('Vector Direction',(0.,-0.85929288441,0.511483859768)) ;
#163=DIRECTION('Axis2P3D Direction',(1.,0.,0.)) ;
#170=DIRECTION('Vector Direction',(0.,-1.,0.)) ;
#177=DIRECTION('Axis2P3D Direction',(1.,0.,0.)) ;
#184=DIRECTION('Vector Direction',(0.,0.,-1.)) ;
#207=DIRECTION('Axis2P3D Direction',(1.,0.,0.)) ;
#216=DIRECTION('Axis2P3D Direction',(1.,0.,0.)) ;
#225=DIRECTION('Axis2P3D Direction',(1.,0.,0.)) ;
#234=DIRECTION('Axis2P3D Direction',(1.,0.,0.)) ;
#243=DIRECTION('Axis2P3D Direction',(1.,0.,0.)) ;
#252=DIRECTION('Axis2P3D Direction',(1.,0.,0.)) ;
#261=DIRECTION('Axis2P3D Direction',(1.,0.,0.)) ;
#270=DIRECTION('Axis2P3D Direction',(1.,0.,0.)) ;
#279=DIRECTION('Axis2P3D Direction',(1.,0.,0.)) ;
#288=DIRECTION('Axis2P3D Direction',(1.,0.,0.)) ;
#297=DIRECTION('Axis2P3D Direction',(1.,0.,0.)) ;
#306=DIRECTION('Axis2P3D Direction',(1.,0.,0.)) ;
#315=DIRECTION('Axis2P3D Direction',(1.,0.,0.)) ;
#324=DIRECTION('Axis2P3D Direction',(1.,0.,0.)) ;
#333=DIRECTION('Axis2P3D Direction',(1.,0.,0.)) ;
#342=DIRECTION('Axis2P3D Direction',(1.,0.,0.)) ;
#351=DIRECTION('Axis2P3D Direction',(1.,0.,0.)) ;
#360=DIRECTION('Axis2P3D Direction',(1.,0.,0.)) ;
#369=DIRECTION('Axis2P3D Direction',(1.,0.,0.)) ;
#378=DIRECTION('Vector Direction',(0.,0.,-1.)) ;
#387=DIRECTION('Axis2P3D Direction',(1.,0.,0.)) ;
#394=DIRECTION('Vector Direction',(0.,-0.707106781187,-0.707106781187)) ;
#401=DIRECTION('Axis2P3D Direction',(1.,0.,0.)) ;
#408=DIRECTION('Vector Direction',(0.,-1.,0.)) ;
#415=DIRECTION('Axis2P3D Direction',(1.,0.,0.)) ;
#422=DIRECTION('Vector Direction',(0.,-0.707106781187,0.707106781187)) ;
#429=DIRECTION('Axis2P3D Direction',(1.,0.,0.)) ;
#436=DIRECTION('Vector Direction',(0.,0.,1.)) ;
#443=DIRECTION('Axis2P3D Direction',(1.,0.,0.)) ;
#450=DIRECTION('Vector Direction',(0.,1.,0.)) ;
#457=DIRECTION('Axis2P3D Direction',(1.,0.,0.)) ;
#476=DIRECTION('Axis2P3D Direction',(1.,0.,0.)) ;
#485=DIRECTION('Axis2P3D Direction',(1.,0.,0.)) ;
#494=DIRECTION('Axis2P3D Direction',(1.,0.,0.)) ;
#503=DIRECTION('Axis2P3D Direction',(1.,0.,0.)) ;
#512=DIRECTION('Axis2P3D Direction',(1.,0.,0.)) ;
#521=DIRECTION('Axis2P3D Direction',(1.,0.,0.)) ;
#530=DIRECTION('Axis2P3D Direction',(1.,0.,0.)) ;
#539=DIRECTION('Axis2P3D Direction',(1.,0.,0.)) ;
#548=DIRECTION('Axis2P3D Direction',(1.,0.,0.)) ;
#557=DIRECTION('Axis2P3D Direction',(1.,0.,0.)) ;
#566=DIRECTION('Axis2P3D Direction',(1.,0.,0.)) ;
#575=DIRECTION('Axis2P3D Direction',(1.,0.,0.)) ;
#585=DIRECTION('Axis2P3D Direction',(-1.,0.,-0.)) ;
#597=DIRECTION('Axis2P3D Direction',(1.,0.,0.)) ;
#598=DIRECTION('Axis2P3D XDirection',(0.,1.,0.)) ;
#602=DIRECTION('Vector Direction',(1.,0.,0.)) ;
#609=DIRECTION('Axis2P3D Direction',(1.,0.,0.)) ;
#616=DIRECTION('Vector Direction',(1.,0.,0.)) ;
#628=DIRECTION('Axis2P3D Direction',(0.,0.,-1.)) ;
#629=DIRECTION('Axis2P3D XDirection',(0.,1.,0.)) ;
#633=DIRECTION('Vector Direction',(0.,1.,0.)) ;
#640=DIRECTION('Vector Direction',(1.,0.,0.)) ;
#652=DIRECTION('Axis2P3D Direction',(1.,0.,0.)) ;
#653=DIRECTION('Axis2P3D XDirection',(0.,6.12323399574E-17,1.)) ;
#657=DIRECTION('Axis2P3D Direction',(1.,0.,0.)) ;
#664=DIRECTION('Vector Direction',(1.,0.,0.)) ;
#676=DIRECTION('Axis2P3D Direction',(0.,1.,0.)) ;
#677=DIRECTION('Axis2P3D XDirection',(0.,0.,1.)) ;
#681=DIRECTION('Vector Direction',(0.,0.,1.)) ;
#688=DIRECTION('Vector Direction',(1.,0.,0.)) ;
#700=DIRECTION('Axis2P3D Direction',(1.,0.,0.)) ;
#701=DIRECTION('Axis2P3D XDirection',(0.,-1.,1.22464679915E-16)) ;
#705=DIRECTION('Axis2P3D Direction',(1.,0.,0.)) ;
#712=DIRECTION('Vector Direction',(1.,0.,0.)) ;
#724=DIRECTION('Axis2P3D Direction',(0.,0.,-1.)) ;
#725=DIRECTION('Axis2P3D XDirection',(0.,1.,0.)) ;
#729=DIRECTION('Vector Direction',(0.,1.,0.)) ;
#736=DIRECTION('Vector Direction',(1.,0.,0.)) ;
#748=DIRECTION('Axis2P3D Direction',(1.,0.,0.)) ;
#749=DIRECTION('Axis2P3D XDirection',(-0.,-1.83697019872E-16,-1.)) ;
#753=DIRECTION('Axis2P3D Direction',(1.,0.,0.)) ;
#760=DIRECTION('Vector Direction',(1.,0.,0.)) ;
#772=DIRECTION('Axis2P3D Direction',(0.,0.511483859768,-0.85929288441)) ;
#773=DIRECTION('Axis2P3D XDirection',(0.,0.85929288441,0.511483859768)) ;
#777=DIRECTION('Vector Direction',(0.,0.85929288441,0.511483859768)) ;
#784=DIRECTION('Vector Direction',(1.,0.,0.)) ;
#796=DIRECTION('Axis2P3D Direction',(1.,0.,0.)) ;
#797=DIRECTION('Axis2P3D XDirection',(0.,6.12323399574E-17,1.)) ;
#801=DIRECTION('Axis2P3D Direction',(1.,0.,0.)) ;
#808=DIRECTION('Vector Direction',(1.,0.,0.)) ;
#820=DIRECTION('Axis2P3D Direction',(-0.,0.,1.)) ;
#821=DIRECTION('Axis2P3D XDirection',(0.,-1.,0.)) ;
#825=DIRECTION('Vector Direction',(0.,-1.,0.)) ;
#832=DIRECTION('Vector Direction',(1.,0.,0.)) ;
#844=DIRECTION('Axis2P3D Direction',(1.,0.,0.)) ;
#845=DIRECTION('Axis2P3D XDirection',(0.,0.511483859768,0.85929288441)) ;
#849=DIRECTION('Axis2P3D Direction',(1.,0.,0.)) ;
#856=DIRECTION('Vector Direction',(1.,0.,0.)) ;
#868=DIRECTION('Axis2P3D Direction',(-0.,0.511483859768,0.85929288441)) ;
#869=DIRECTION('Axis2P3D XDirection',(0.,-0.85929288441,0.511483859768)) ;
#873=DIRECTION('Vector Direction',(0.,-0.85929288441,0.511483859768)) ;
#880=DIRECTION('Vector Direction',(1.,0.,0.)) ;
#892=DIRECTION('Axis2P3D Direction',(1.,0.,0.)) ;
#893=DIRECTION('Axis2P3D XDirection',(-0.,-0.511483859768,-0.85929288441)) ;
#897=DIRECTION('Axis2P3D Direction',(1.,0.,0.)) ;
#904=DIRECTION('Vector Direction',(1.,0.,0.)) ;
#916=DIRECTION('Vector Direction',(0.,-1.,0.)) ;
#923=DIRECTION('Vector Direction',(1.,0.,0.)) ;
#935=DIRECTION('Axis2P3D Direction',(1.,0.,0.)) ;
#936=DIRECTION('Axis2P3D XDirection',(-0.,-1.83697019872E-16,-1.)) ;
#940=DIRECTION('Axis2P3D Direction',(1.,0.,0.)) ;
#947=DIRECTION('Vector Direction',(1.,0.,0.)) ;
#959=DIRECTION('Axis2P3D Direction',(0.,-1.,0.)) ;
#960=DIRECTION('Axis2P3D XDirection',(0.,0.,-1.)) ;
#964=DIRECTION('Vector Direction',(0.,0.,-1.)) ;
#976=DIRECTION('Axis2P3D Direction',(1.,0.,0.)) ;
#977=DIRECTION('Axis2P3D XDirection',(0.,-1.,0.)) ;
#981=DIRECTION('Vector Direction',(1.,0.,0.)) ;
#988=DIRECTION('Axis2P3D Direction',(1.,0.,0.)) ;
#995=DIRECTION('Vector Direction',(1.,0.,0.)) ;
#1007=DIRECTION('Axis2P3D Direction',(1.,0.,0.)) ;
#1019=DIRECTION('Axis2P3D Direction',(1.,0.,0.)) ;
#1020=DIRECTION('Axis2P3D XDirection',(0.,1.,0.)) ;
#1024=DIRECTION('Vector Direction',(1.,0.,0.)) ;
#1031=DIRECTION('Axis2P3D Direction',(1.,0.,0.)) ;
#1038=DIRECTION('Vector Direction',(1.,0.,0.)) ;
#1050=DIRECTION('Axis2P3D Direction',(0.,0.,-1.)) ;
#1051=DIRECTION('Axis2P3D XDirection',(0.,1.,0.)) ;
#1055=DIRECTION('Vector Direction',(1.,0.,0.)) ;
#1062=DIRECTION('Vector Direction',(0.,1.,0.)) ;
#1074=DIRECTION('Axis2P3D Direction',(1.,0.,0.)) ;
#1075=DIRECTION('Axis2P3D XDirection',(0.,6.12323399574E-17,1.)) ;
#1079=DIRECTION('Vector Direction',(1.,0.,0.)) ;
#1086=DIRECTION('Axis2P3D Direction',(1.,0.,0.)) ;
#1098=DIRECTION('Axis2P3D Direction',(0.,1.,0.)) ;
#1099=DIRECTION('Axis2P3D XDirection',(0.,0.,1.)) ;
#1103=DIRECTION('Vector Direction',(1.,0.,0.)) ;
#1110=DIRECTION('Vector Direction',(0.,0.,1.)) ;
#1122=DIRECTION('Axis2P3D Direction',(1.,0.,0.)) ;
#1123=DIRECTION('Axis2P3D XDirection',(0.,-1.,1.22464679915E-16)) ;
#1127=DIRECTION('Vector Direction',(1.,0.,0.)) ;
#1134=DIRECTION('Axis2P3D Direction',(1.,0.,0.)) ;
#1146=DIRECTION('Axis2P3D Direction',(-0.,0.707106781187,0.707106781187)) ;
#1147=DIRECTION('Axis2P3D XDirection',(0.,-0.707106781187,0.707106781187)) ;
#1151=DIRECTION('Vector Direction',(1.,0.,0.)) ;
#1158=DIRECTION('Vector Direction',(0.,-0.707106781187,0.707106781187)) ;
#1170=DIRECTION('Axis2P3D Direction',(1.,0.,0.)) ;
#1171=DIRECTION('Axis2P3D XDirection',(-0.,-0.707106781187,-0.707106781187)) ;
#1175=DIRECTION('Vector Direction',(1.,0.,0.)) ;
#1182=DIRECTION('Axis2P3D Direction',(1.,0.,0.)) ;
#1194=DIRECTION('Axis2P3D Direction',(-0.,0.,1.)) ;
#1195=DIRECTION('Axis2P3D XDirection',(0.,-1.,0.)) ;
#1199=DIRECTION('Vector Direction',(1.,0.,0.)) ;
#1206=DIRECTION('Vector Direction',(0.,-1.,0.)) ;
#1218=DIRECTION('Axis2P3D Direction',(1.,0.,0.)) ;
#1219=DIRECTION('Axis2P3D XDirection',(-0.,-1.83697019872E-16,-1.)) ;
#1223=DIRECTION('Vector Direction',(1.,0.,0.)) ;
#1230=DIRECTION('Axis2P3D Direction',(1.,0.,0.)) ;
#1242=DIRECTION('Axis2P3D Direction',(0.,-0.707106781187,0.707106781187)) ;
#1243=DIRECTION('Axis2P3D XDirection',(0.,-0.707106781187,-0.707106781187)) ;
#1247=DIRECTION('Vector Direction',(1.,0.,0.)) ;
#1254=DIRECTION('Vector Direction',(0.,-0.707106781187,-0.707106781187)) ;
#1266=DIRECTION('Axis2P3D Direction',(1.,0.,0.)) ;
#1267=DIRECTION('Axis2P3D XDirection',(0.,0.707106781187,-0.707106781187)) ;
#1271=DIRECTION('Vector Direction',(1.,0.,0.)) ;
#1278=DIRECTION('Axis2P3D Direction',(1.,0.,0.)) ;
#1290=DIRECTION('Axis2P3D Direction',(0.,-1.,0.)) ;
#1291=DIRECTION('Axis2P3D XDirection',(0.,0.,-1.)) ;
#1295=DIRECTION('Vector Direction',(0.,0.,-1.)) ;
#1307=DIRECTION('Axis2P3D Direction',(1.,0.,0.)) ;
#1308=DIRECTION('Axis2P3D XDirection',(0.,-1.,1.22464679915E-16)) ;
#1312=DIRECTION('Vector Direction',(1.,0.,0.)) ;
#1319=DIRECTION('Axis2P3D Direction',(1.,0.,0.)) ;
#1326=DIRECTION('Vector Direction',(1.,0.,0.)) ;
#1338=DIRECTION('Axis2P3D Direction',(1.,0.,0.)) ;
#1350=DIRECTION('Axis2P3D Direction',(1.,0.,0.)) ;
#1351=DIRECTION('Axis2P3D XDirection',(0.,-1.,1.22464679915E-16)) ;
#1355=DIRECTION('Vector Direction',(1.,0.,0.)) ;
#1362=DIRECTION('Axis2P3D Direction',(1.,0.,0.)) ;
#1369=DIRECTION('Vector Direction',(1.,0.,0.)) ;
#1381=DIRECTION('Axis2P3D Direction',(1.,0.,0.)) ;
#1393=DIRECTION('Axis2P3D Direction',(1.,0.,0.)) ;
#1394=DIRECTION('Axis2P3D XDirection',(0.,-1.,1.22464679915E-16)) ;
#1398=DIRECTION('Vector Direction',(1.,0.,0.)) ;
#1405=DIRECTION('Axis2P3D Direction',(1.,0.,0.)) ;
#1412=DIRECTION('Vector Direction',(1.,0.,0.)) ;
#1424=DIRECTION('Axis2P3D Direction',(1.,0.,0.)) ;
#1436=DIRECTION('Axis2P3D Direction',(1.,0.,0.)) ;
#1437=DIRECTION('Axis2P3D XDirection',(0.,1.,0.)) ;
#1441=DIRECTION('Vector Direction',(1.,0.,0.)) ;
#1448=DIRECTION('Axis2P3D Direction',(1.,0.,0.)) ;
#1455=DIRECTION('Vector Direction',(1.,0.,0.)) ;
#1467=DIRECTION('Axis2P3D Direction',(1.,0.,0.)) ;
#1479=DIRECTION('Axis2P3D Direction',(1.,0.,0.)) ;
#1480=DIRECTION('Axis2P3D XDirection',(0.,1.,0.)) ;
#1484=DIRECTION('Vector Direction',(1.,0.,0.)) ;
#1491=DIRECTION('Axis2P3D Direction',(1.,0.,0.)) ;
#1498=DIRECTION('Vector Direction',(1.,0.,0.)) ;
#1510=DIRECTION('Axis2P3D Direction',(1.,0.,0.)) ;
#1522=DIRECTION('Axis2P3D Direction',(1.,0.,0.)) ;
#1523=DIRECTION('Axis2P3D XDirection',(0.,1.,0.)) ;
#1527=DIRECTION('Vector Direction',(1.,0.,0.)) ;
#1534=DIRECTION('Axis2P3D Direction',(1.,0.,0.)) ;
#1541=DIRECTION('Vector Direction',(1.,0.,0.)) ;
#1553=DIRECTION('Axis2P3D Direction',(1.,0.,0.)) ;
#1565=DIRECTION('Axis2P3D Direction',(-1.,0.,-0.)) ;
#1566=DIRECTION('Axis2P3D XDirection',(0.,1.,0.)) ;
#1570=DIRECTION('Vector Direction',(-1.,0.,0.)) ;
#1577=DIRECTION('Axis2P3D Direction',(-1.,0.,-0.)) ;
#1584=DIRECTION('Vector Direction',(-1.,0.,0.)) ;
#1596=DIRECTION('Axis2P3D Direction',(-1.,0.,-0.)) ;
#1608=DIRECTION('Axis2P3D Direction',(1.,0.,0.)) ;
#1609=DIRECTION('Axis2P3D XDirection',(0.,1.,0.)) ;
#1631=DIRECTION('Axis2P3D Direction',(1.,0.,0.)) ;
#1640=DIRECTION('Axis2P3D Direction',(1.,0.,0.)) ;
#1699=DIRECTION('Axis2P3D Direction',(1.,0.,0.)) ;
#1708=DIRECTION('Axis2P3D Direction',(1.,0.,0.)) ;
#1717=DIRECTION('Axis2P3D Direction',(1.,0.,0.)) ;
#1726=DIRECTION('Axis2P3D Direction',(1.,0.,0.)) ;
#1735=DIRECTION('Axis2P3D Direction',(1.,0.,0.)) ;
#1744=DIRECTION('Axis2P3D Direction',(1.,0.,0.)) ;
#1753=DIRECTION('Axis2P3D Direction',(1.,0.,0.)) ;
#1762=DIRECTION('Axis2P3D Direction',(1.,0.,0.)) ;
#1771=DIRECTION('Axis2P3D Direction',(1.,0.,0.)) ;
#1780=DIRECTION('Axis2P3D Direction',(1.,0.,0.)) ;
#1789=DIRECTION('Axis2P3D Direction',(1.,0.,0.)) ;
#1798=DIRECTION('Axis2P3D Direction',(1.,0.,0.)) ;
#1808=DIRECTION('Axis2P3D Direction',(-1.,0.,-0.)) ;
#1809=DIRECTION('Axis2P3D XDirection',(0.,1.,0.)) ;
#1813=DIRECTION('Vector Direction',(-1.,0.,0.)) ;
#1818=DIRECTION('Vector Direction',(-1.,0.,0.)) ;
#1837=DIRECTION('Axis2P3D Direction',(-1.,0.,-0.)) ;
#1838=DIRECTION('Axis2P3D XDirection',(0.,1.,0.)) ;
#1842=DIRECTION('Vector Direction',(-1.,0.,0.)) ;
#1847=DIRECTION('Vector Direction',(-1.,0.,0.)) ;
#1866=DIRECTION('Axis2P3D Direction',(-1.,0.,-0.)) ;
#1867=DIRECTION('Axis2P3D XDirection',(0.,1.,0.)) ;
#1871=DIRECTION('Vector Direction',(-1.,0.,0.)) ;
#1876=DIRECTION('Vector Direction',(-1.,0.,0.)) ;
#1895=DIRECTION('Axis2P3D Direction',(-1.,0.,-0.)) ;
#1896=DIRECTION('Axis2P3D XDirection',(0.,1.,0.)) ;
#1900=DIRECTION('Vector Direction',(-1.,0.,0.)) ;
#1905=DIRECTION('Vector Direction',(-1.,0.,0.)) ;
#1924=DIRECTION('Axis2P3D Direction',(-1.,0.,-0.)) ;
#1925=DIRECTION('Axis2P3D XDirection',(0.,1.,0.)) ;
#1929=DIRECTION('Vector Direction',(-1.,0.,0.)) ;
#1934=DIRECTION('Vector Direction',(-1.,0.,0.)) ;
#1953=DIRECTION('Axis2P3D Direction',(-1.,0.,-0.)) ;
#1954=DIRECTION('Axis2P3D XDirection',(0.,1.,0.)) ;
#1958=DIRECTION('Vector Direction',(-1.,0.,0.)) ;
#1963=DIRECTION('Vector Direction',(-1.,0.,0.)) ;
#1982=DIRECTION('Axis2P3D Direction',(-1.,0.,0.)) ;
#1983=DIRECTION('Axis2P3D XDirection',(0.,1.,0.)) ;
#1987=DIRECTION('Vector Direction',(-1.,0.,0.)) ;
#1992=DIRECTION('Vector Direction',(-1.,0.,0.)) ;
#2011=SHAPE_REPRESENTATION_RELATIONSHIP(' ',' ',#19,#2010) ;
#18=AXIS2_PLACEMENT_3D(' ',#17,$,$) ;
#34=AXIS2_PLACEMENT_3D('Cylinder Axis2P3D',#31,#32,#33) ;
#47=AXIS2_PLACEMENT_3D('Circle Axis2P3D',#45,#46,$) ;
#61=AXIS2_PLACEMENT_3D('Circle Axis2P3D',#59,#60,$) ;
#74=AXIS2_PLACEMENT_3D('Plane Axis2P3D',#71,#72,#73) ;
#78=AXIS2_PLACEMENT_3D('Circle Axis2P3D',#76,#77,$) ;
#94=AXIS2_PLACEMENT_3D('Circle Axis2P3D',#92,#93,$) ;
#108=AXIS2_PLACEMENT_3D('Circle Axis2P3D',#106,#107,$) ;
#122=AXIS2_PLACEMENT_3D('Circle Axis2P3D',#120,#121,$) ;
#136=AXIS2_PLACEMENT_3D('Circle Axis2P3D',#134,#135,$) ;
#150=AXIS2_PLACEMENT_3D('Circle Axis2P3D',#148,#149,$) ;
#164=AXIS2_PLACEMENT_3D('Circle Axis2P3D',#162,#163,$) ;
#178=AXIS2_PLACEMENT_3D('Circle Axis2P3D',#176,#177,$) ;
#208=AXIS2_PLACEMENT_3D('Circle Axis2P3D',#206,#207,$) ;
#217=AXIS2_PLACEMENT_3D('Circle Axis2P3D',#215,#216,$) ;
#226=AXIS2_PLACEMENT_3D('Circle Axis2P3D',#224,#225,$) ;
#235=AXIS2_PLACEMENT_3D('Circle Axis2P3D',#233,#234,$) ;
#244=AXIS2_PLACEMENT_3D('Circle Axis2P3D',#242,#243,$) ;
#253=AXIS2_PLACEMENT_3D('Circle Axis2P3D',#251,#252,$) ;
#262=AXIS2_PLACEMENT_3D('Circle Axis2P3D',#260,#261,$) ;
#271=AXIS2_PLACEMENT_3D('Circle Axis2P3D',#269,#270,$) ;
#280=AXIS2_PLACEMENT_3D('Circle Axis2P3D',#278,#279,$) ;
#289=AXIS2_PLACEMENT_3D('Circle Axis2P3D',#287,#288,$) ;
#298=AXIS2_PLACEMENT_3D('Circle Axis2P3D',#296,#297,$) ;
#307=AXIS2_PLACEMENT_3D('Circle Axis2P3D',#305,#306,$) ;
#316=AXIS2_PLACEMENT_3D('Circle Axis2P3D',#314,#315,$) ;
#325=AXIS2_PLACEMENT_3D('Circle Axis2P3D',#323,#324,$) ;
#334=AXIS2_PLACEMENT_3D('Circle Axis2P3D',#332,#333,$) ;
#343=AXIS2_PLACEMENT_3D('Circle Axis2P3D',#341,#342,$) ;
#352=AXIS2_PLACEMENT_3D('Circle Axis2P3D',#350,#351,$) ;
#361=AXIS2_PLACEMENT_3D('Circle Axis2P3D',#359,#360,$) ;
#370=AXIS2_PLACEMENT_3D('Circle Axis2P3D',#368,#369,$) ;
#388=AXIS2_PLACEMENT_3D('Circle Axis2P3D',#386,#387,$) ;
#402=AXIS2_PLACEMENT_3D('Circle Axis2P3D',#400,#401,$) ;
#416=AXIS2_PLACEMENT_3D('Circle Axis2P3D',#414,#415,$) ;
#430=AXIS2_PLACEMENT_3D('Circle Axis2P3D',#428,#429,$) ;
#444=AXIS2_PLACEMENT_3D('Circle Axis2P3D',#442,#443,$) ;
#458=AXIS2_PLACEMENT_3D('Circle Axis2P3D',#456,#457,$) ;
#477=AXIS2_PLACEMENT_3D('Circle Axis2P3D',#475,#476,$) ;
#486=AXIS2_PLACEMENT_3D('Circle Axis2P3D',#484,#485,$) ;
#495=AXIS2_PLACEMENT_3D('Circle Axis2P3D',#493,#494,$) ;
#504=AXIS2_PLACEMENT_3D('Circle Axis2P3D',#502,#503,$) ;
#513=AXIS2_PLACEMENT_3D('Circle Axis2P3D',#511,#512,$) ;
#522=AXIS2_PLACEMENT_3D('Circle Axis2P3D',#520,#521,$) ;
#531=AXIS2_PLACEMENT_3D('Circle Axis2P3D',#529,#530,$) ;
#540=AXIS2_PLACEMENT_3D('Circle Axis2P3D',#538,#539,$) ;
#549=AXIS2_PLACEMENT_3D('Circle Axis2P3D',#547,#548,$) ;
#558=AXIS2_PLACEMENT_3D('Circle Axis2P3D',#556,#557,$) ;
#567=AXIS2_PLACEMENT_3D('Circle Axis2P3D',#565,#566,$) ;
#576=AXIS2_PLACEMENT_3D('Circle Axis2P3D',#574,#575,$) ;
#586=AXIS2_PLACEMENT_3D('Circle Axis2P3D',#584,#585,$) ;
#599=AXIS2_PLACEMENT_3D('Cylinder Axis2P3D',#596,#597,#598) ;
#610=AXIS2_PLACEMENT_3D('Circle Axis2P3D',#608,#609,$) ;
#630=AXIS2_PLACEMENT_3D('Plane Axis2P3D',#627,#628,#629) ;
#654=AXIS2_PLACEMENT_3D('Cylinder Axis2P3D',#651,#652,#653) ;
#658=AXIS2_PLACEMENT_3D('Circle Axis2P3D',#656,#657,$) ;
#678=AXIS2_PLACEMENT_3D('Plane Axis2P3D',#675,#676,#677) ;
#702=AXIS2_PLACEMENT_3D('Cylinder Axis2P3D',#699,#700,#701) ;
#706=AXIS2_PLACEMENT_3D('Circle Axis2P3D',#704,#705,$) ;
#726=AXIS2_PLACEMENT_3D('Plane Axis2P3D',#723,#724,#725) ;
#750=AXIS2_PLACEMENT_3D('Cylinder Axis2P3D',#747,#748,#749) ;
#754=AXIS2_PLACEMENT_3D('Circle Axis2P3D',#752,#753,$) ;
#774=AXIS2_PLACEMENT_3D('Plane Axis2P3D',#771,#772,#773) ;
#798=AXIS2_PLACEMENT_3D('Cylinder Axis2P3D',#795,#796,#797) ;
#802=AXIS2_PLACEMENT_3D('Circle Axis2P3D',#800,#801,$) ;
#822=AXIS2_PLACEMENT_3D('Plane Axis2P3D',#819,#820,#821) ;
#846=AXIS2_PLACEMENT_3D('Cylinder Axis2P3D',#843,#844,#845) ;
#850=AXIS2_PLACEMENT_3D('Circle Axis2P3D',#848,#849,$) ;
#870=AXIS2_PLACEMENT_3D('Plane Axis2P3D',#867,#868,#869) ;
#894=AXIS2_PLACEMENT_3D('Cylinder Axis2P3D',#891,#892,#893) ;
#898=AXIS2_PLACEMENT_3D('Circle Axis2P3D',#896,#897,$) ;
#937=AXIS2_PLACEMENT_3D('Cylinder Axis2P3D',#934,#935,#936) ;
#941=AXIS2_PLACEMENT_3D('Circle Axis2P3D',#939,#940,$) ;
#961=AXIS2_PLACEMENT_3D('Plane Axis2P3D',#958,#959,#960) ;
#978=AXIS2_PLACEMENT_3D('Cylinder Axis2P3D',#975,#976,#977) ;
#989=AXIS2_PLACEMENT_3D('Circle Axis2P3D',#987,#988,$) ;
#1008=AXIS2_PLACEMENT_3D('Circle Axis2P3D',#1006,#1007,$) ;
#1021=AXIS2_PLACEMENT_3D('Cylinder Axis2P3D',#1018,#1019,#1020) ;
#1032=AXIS2_PLACEMENT_3D('Circle Axis2P3D',#1030,#1031,$) ;
#1052=AXIS2_PLACEMENT_3D('Plane Axis2P3D',#1049,#1050,#1051) ;
#1076=AXIS2_PLACEMENT_3D('Cylinder Axis2P3D',#1073,#1074,#1075) ;
#1087=AXIS2_PLACEMENT_3D('Circle Axis2P3D',#1085,#1086,$) ;
#1100=AXIS2_PLACEMENT_3D('Plane Axis2P3D',#1097,#1098,#1099) ;
#1124=AXIS2_PLACEMENT_3D('Cylinder Axis2P3D',#1121,#1122,#1123) ;
#1135=AXIS2_PLACEMENT_3D('Circle Axis2P3D',#1133,#1134,$) ;
#1148=AXIS2_PLACEMENT_3D('Plane Axis2P3D',#1145,#1146,#1147) ;
#1172=AXIS2_PLACEMENT_3D('Cylinder Axis2P3D',#1169,#1170,#1171) ;
#1183=AXIS2_PLACEMENT_3D('Circle Axis2P3D',#1181,#1182,$) ;
#1196=AXIS2_PLACEMENT_3D('Plane Axis2P3D',#1193,#1194,#1195) ;
#1220=AXIS2_PLACEMENT_3D('Cylinder Axis2P3D',#1217,#1218,#1219) ;
#1231=AXIS2_PLACEMENT_3D('Circle Axis2P3D',#1229,#1230,$) ;
#1244=AXIS2_PLACEMENT_3D('Plane Axis2P3D',#1241,#1242,#1243) ;
#1268=AXIS2_PLACEMENT_3D('Cylinder Axis2P3D',#1265,#1266,#1267) ;
#1279=AXIS2_PLACEMENT_3D('Circle Axis2P3D',#1277,#1278,$) ;
#1292=AXIS2_PLACEMENT_3D('Plane Axis2P3D',#1289,#1290,#1291) ;
#1309=AXIS2_PLACEMENT_3D('Cylinder Axis2P3D',#1306,#1307,#1308) ;
#1320=AXIS2_PLACEMENT_3D('Circle Axis2P3D',#1318,#1319,$) ;
#1339=AXIS2_PLACEMENT_3D('Circle Axis2P3D',#1337,#1338,$) ;
#1352=AXIS2_PLACEMENT_3D('Cylinder Axis2P3D',#1349,#1350,#1351) ;
#1363=AXIS2_PLACEMENT_3D('Circle Axis2P3D',#1361,#1362,$) ;
#1382=AXIS2_PLACEMENT_3D('Circle Axis2P3D',#1380,#1381,$) ;
#1395=AXIS2_PLACEMENT_3D('Cylinder Axis2P3D',#1392,#1393,#1394) ;
#1406=AXIS2_PLACEMENT_3D('Circle Axis2P3D',#1404,#1405,$) ;
#1425=AXIS2_PLACEMENT_3D('Circle Axis2P3D',#1423,#1424,$) ;
#1438=AXIS2_PLACEMENT_3D('Cylinder Axis2P3D',#1435,#1436,#1437) ;
#1449=AXIS2_PLACEMENT_3D('Circle Axis2P3D',#1447,#1448,$) ;
#1468=AXIS2_PLACEMENT_3D('Circle Axis2P3D',#1466,#1467,$) ;
#1481=AXIS2_PLACEMENT_3D('Cylinder Axis2P3D',#1478,#1479,#1480) ;
#1492=AXIS2_PLACEMENT_3D('Circle Axis2P3D',#1490,#1491,$) ;
#1511=AXIS2_PLACEMENT_3D('Circle Axis2P3D',#1509,#1510,$) ;
#1524=AXIS2_PLACEMENT_3D('Cylinder Axis2P3D',#1521,#1522,#1523) ;
#1535=AXIS2_PLACEMENT_3D('Circle Axis2P3D',#1533,#1534,$) ;
#1554=AXIS2_PLACEMENT_3D('Circle Axis2P3D',#1552,#1553,$) ;
#1567=AXIS2_PLACEMENT_3D('Cylinder Axis2P3D',#1564,#1565,#1566) ;
#1578=AXIS2_PLACEMENT_3D('Circle Axis2P3D',#1576,#1577,$) ;
#1597=AXIS2_PLACEMENT_3D('Circle Axis2P3D',#1595,#1596,$) ;
#1610=AXIS2_PLACEMENT_3D('Plane Axis2P3D',#1607,#1608,#1609) ;
#1632=AXIS2_PLACEMENT_3D('Circle Axis2P3D',#1630,#1631,$) ;
#1641=AXIS2_PLACEMENT_3D('Circle Axis2P3D',#1639,#1640,$) ;
#1700=AXIS2_PLACEMENT_3D('Circle Axis2P3D',#1698,#1699,$) ;
#1709=AXIS2_PLACEMENT_3D('Circle Axis2P3D',#1707,#1708,$) ;
#1718=AXIS2_PLACEMENT_3D('Circle Axis2P3D',#1716,#1717,$) ;
#1727=AXIS2_PLACEMENT_3D('Circle Axis2P3D',#1725,#1726,$) ;
#1736=AXIS2_PLACEMENT_3D('Circle Axis2P3D',#1734,#1735,$) ;
#1745=AXIS2_PLACEMENT_3D('Circle Axis2P3D',#1743,#1744,$) ;
#1754=AXIS2_PLACEMENT_3D('Circle Axis2P3D',#1752,#1753,$) ;
#1763=AXIS2_PLACEMENT_3D('Circle Axis2P3D',#1761,#1762,$) ;
#1772=AXIS2_PLACEMENT_3D('Circle Axis2P3D',#1770,#1771,$) ;
#1781=AXIS2_PLACEMENT_3D('Circle Axis2P3D',#1779,#1780,$) ;
#1790=AXIS2_PLACEMENT_3D('Circle Axis2P3D',#1788,#1789,$) ;
#1799=AXIS2_PLACEMENT_3D('Circle Axis2P3D',#1797,#1798,$) ;
#1810=AXIS2_PLACEMENT_3D('Cylinder Axis2P3D',#1807,#1808,#1809) ;
#1839=AXIS2_PLACEMENT_3D('Cylinder Axis2P3D',#1836,#1837,#1838) ;
#1868=AXIS2_PLACEMENT_3D('Cylinder Axis2P3D',#1865,#1866,#1867) ;
#1897=AXIS2_PLACEMENT_3D('Cylinder Axis2P3D',#1894,#1895,#1896) ;
#1926=AXIS2_PLACEMENT_3D('Cylinder Axis2P3D',#1923,#1924,#1925) ;
#1955=AXIS2_PLACEMENT_3D('Cylinder Axis2P3D',#1952,#1953,#1954) ;
#1984=AXIS2_PLACEMENT_3D('Cylinder Axis2P3D',#1981,#1982,#1983) ;
#39=LINE('Line',#36,#38) ;
#55=LINE('Line',#52,#54) ;
#88=LINE('Line',#85,#87) ;
#102=LINE('Line',#99,#101) ;
#116=LINE('Line',#113,#115) ;
#130=LINE('Line',#127,#129) ;
#144=LINE('Line',#141,#143) ;
#158=LINE('Line',#155,#157) ;
#172=LINE('Line',#169,#171) ;
#186=LINE('Line',#183,#185) ;
#380=LINE('Line',#377,#379) ;
#396=LINE('Line',#393,#395) ;
#410=LINE('Line',#407,#409) ;
#424=LINE('Line',#421,#423) ;
#438=LINE('Line',#435,#437) ;
#452=LINE('Line',#449,#451) ;
#604=LINE('Line',#601,#603) ;
#618=LINE('Line',#615,#617) ;
#635=LINE('Line',#632,#634) ;
#642=LINE('Line',#639,#641) ;
#666=LINE('Line',#663,#665) ;
#683=LINE('Line',#680,#682) ;
#690=LINE('Line',#687,#689) ;
#714=LINE('Line',#711,#713) ;
#731=LINE('Line',#728,#730) ;
#738=LINE('Line',#735,#737) ;
#762=LINE('Line',#759,#761) ;
#779=LINE('Line',#776,#778) ;
#786=LINE('Line',#783,#785) ;
#810=LINE('Line',#807,#809) ;
#827=LINE('Line',#824,#826) ;
#834=LINE('Line',#831,#833) ;
#858=LINE('Line',#855,#857) ;
#875=LINE('Line',#872,#874) ;
#882=LINE('Line',#879,#881) ;
#906=LINE('Line',#903,#905) ;
#918=LINE('Line',#915,#917) ;
#925=LINE('Line',#922,#924) ;
#949=LINE('Line',#946,#948) ;
#966=LINE('Line',#963,#965) ;
#983=LINE('Line',#980,#982) ;
#997=LINE('Line',#994,#996) ;
#1026=LINE('Line',#1023,#1025) ;
#1040=LINE('Line',#1037,#1039) ;
#1057=LINE('Line',#1054,#1056) ;
#1064=LINE('Line',#1061,#1063) ;
#1081=LINE('Line',#1078,#1080) ;
#1105=LINE('Line',#1102,#1104) ;
#1112=LINE('Line',#1109,#1111) ;
#1129=LINE('Line',#1126,#1128) ;
#1153=LINE('Line',#1150,#1152) ;
#1160=LINE('Line',#1157,#1159) ;
#1177=LINE('Line',#1174,#1176) ;
#1201=LINE('Line',#1198,#1200) ;
#1208=LINE('Line',#1205,#1207) ;
#1225=LINE('Line',#1222,#1224) ;
#1249=LINE('Line',#1246,#1248) ;
#1256=LINE('Line',#1253,#1255) ;
#1273=LINE('Line',#1270,#1272) ;
#1297=LINE('Line',#1294,#1296) ;
#1314=LINE('Line',#1311,#1313) ;
#1328=LINE('Line',#1325,#1327) ;
#1357=LINE('Line',#1354,#1356) ;
#1371=LINE('Line',#1368,#1370) ;
#1400=LINE('Line',#1397,#1399) ;
#1414=LINE('Line',#1411,#1413) ;
#1443=LINE('Line',#1440,#1442) ;
#1457=LINE('Line',#1454,#1456) ;
#1486=LINE('Line',#1483,#1485) ;
#1500=LINE('Line',#1497,#1499) ;
#1529=LINE('Line',#1526,#1528) ;
#1543=LINE('Line',#1540,#1542) ;
#1572=LINE('Line',#1569,#1571) ;
#1586=LINE('Line',#1583,#1585) ;
#1815=LINE('Line',#1812,#1814) ;
#1820=LINE('Line',#1817,#1819) ;
#1844=LINE('Line',#1841,#1843) ;
#1849=LINE('Line',#1846,#1848) ;
#1873=LINE('Line',#1870,#1872) ;
#1878=LINE('Line',#1875,#1877) ;
#1902=LINE('Line',#1899,#1901) ;
#1907=LINE('Line',#1904,#1906) ;
#1931=LINE('Line',#1928,#1930) ;
#1936=LINE('Line',#1933,#1935) ;
#1960=LINE('Line',#1957,#1959) ;
#1965=LINE('Line',#1962,#1964) ;
#1989=LINE('Line',#1986,#1988) ;
#1994=LINE('Line',#1991,#1993) ;
#48=CIRCLE('generated circle',#47,1.621) ;
#62=CIRCLE('generated circle',#61,1.621) ;
#79=CIRCLE('generated circle',#78,5.) ;
#95=CIRCLE('generated circle',#94,5.) ;
#109=CIRCLE('generated circle',#108,5.) ;
#123=CIRCLE('generated circle',#122,5.) ;
#137=CIRCLE('generated circle',#136,5.) ;
#151=CIRCLE('generated circle',#150,5.) ;
#165=CIRCLE('generated circle',#164,5.) ;
#179=CIRCLE('generated circle',#178,5.) ;
#209=CIRCLE('generated circle',#208,1.621) ;
#218=CIRCLE('generated circle',#217,1.621) ;
#227=CIRCLE('generated circle',#226,1.621) ;
#236=CIRCLE('generated circle',#235,2.5) ;
#245=CIRCLE('generated circle',#244,2.5) ;
#254=CIRCLE('generated circle',#253,2.5) ;
#263=CIRCLE('generated circle',#262,2.5) ;
#272=CIRCLE('generated circle',#271,2.5) ;
#281=CIRCLE('generated circle',#280,2.5) ;
#290=CIRCLE('generated circle',#289,2.5) ;
#299=CIRCLE('generated circle',#298,2.5) ;
#308=CIRCLE('generated circle',#307,2.5) ;
#317=CIRCLE('generated circle',#316,2.5) ;
#326=CIRCLE('generated circle',#325,2.5) ;
#335=CIRCLE('generated circle',#334,2.5) ;
#344=CIRCLE('generated circle',#343,2.5) ;
#353=CIRCLE('generated circle',#352,2.5) ;
#362=CIRCLE('generated circle',#361,2.5) ;
#371=CIRCLE('generated circle',#370,2.5) ;
#389=CIRCLE('generated circle',#388,2.5) ;
#403=CIRCLE('generated circle',#402,2.5) ;
#417=CIRCLE('generated circle',#416,2.5) ;
#431=CIRCLE('generated circle',#430,2.5) ;
#445=CIRCLE('generated circle',#444,2.5) ;
#459=CIRCLE('generated circle',#458,2.5) ;
#478=CIRCLE('generated circle',#477,1.621) ;
#487=CIRCLE('generated circle',#486,1.621) ;
#496=CIRCLE('generated circle',#495,1.621) ;
#505=CIRCLE('generated circle',#504,1.621) ;
#514=CIRCLE('generated circle',#513,1.621) ;
#523=CIRCLE('generated circle',#522,1.621) ;
#532=CIRCLE('generated circle',#531,1.621) ;
#541=CIRCLE('generated circle',#540,1.621) ;
#550=CIRCLE('generated circle',#549,1.621) ;
#559=CIRCLE('generated circle',#558,1.621) ;
#568=CIRCLE('generated circle',#567,1.621) ;
#577=CIRCLE('generated circle',#576,1.621) ;
#587=CIRCLE('generated circle',#586,1.621) ;
#611=CIRCLE('generated circle',#610,5.) ;
#659=CIRCLE('generated circle',#658,5.) ;
#707=CIRCLE('generated circle',#706,5.) ;
#755=CIRCLE('generated circle',#754,5.) ;
#803=CIRCLE('generated circle',#802,5.) ;
#851=CIRCLE('generated circle',#850,5.) ;
#899=CIRCLE('generated circle',#898,5.) ;
#942=CIRCLE('generated circle',#941,5.) ;
#990=CIRCLE('generated circle',#989,2.5) ;
#1009=CIRCLE('generated circle',#1008,2.5) ;
#1033=CIRCLE('generated circle',#1032,2.5) ;
#1088=CIRCLE('generated circle',#1087,2.5) ;
#1136=CIRCLE('generated circle',#1135,2.5) ;
#1184=CIRCLE('generated circle',#1183,2.5) ;
#1232=CIRCLE('generated circle',#1231,2.5) ;
#1280=CIRCLE('generated circle',#1279,2.5) ;
#1321=CIRCLE('generated circle',#1320,2.5) ;
#1340=CIRCLE('generated circle',#1339,2.5) ;
#1364=CIRCLE('generated circle',#1363,2.5) ;
#1383=CIRCLE('generated circle',#1382,2.5) ;
#1407=CIRCLE('generated circle',#1406,2.5) ;
#1426=CIRCLE('generated circle',#1425,2.5) ;
#1450=CIRCLE('generated circle',#1449,2.5) ;
#1469=CIRCLE('generated circle',#1468,2.5) ;
#1493=CIRCLE('generated circle',#1492,2.5) ;
#1512=CIRCLE('generated circle',#1511,2.5) ;
#1536=CIRCLE('generated circle',#1535,2.5) ;
#1555=CIRCLE('generated circle',#1554,2.5) ;
#1579=CIRCLE('generated circle',#1578,2.5) ;
#1598=CIRCLE('generated circle',#1597,2.5) ;
#1633=CIRCLE('generated circle',#1632,1.621) ;
#1642=CIRCLE('generated circle',#1641,1.621) ;
#1701=CIRCLE('generated circle',#1700,1.621) ;
#1710=CIRCLE('generated circle',#1709,1.621) ;
#1719=CIRCLE('generated circle',#1718,1.621) ;
#1728=CIRCLE('generated circle',#1727,1.621) ;
#1737=CIRCLE('generated circle',#1736,1.621) ;
#1746=CIRCLE('generated circle',#1745,1.621) ;
#1755=CIRCLE('generated circle',#1754,1.621) ;
#1764=CIRCLE('generated circle',#1763,1.621) ;
#1773=CIRCLE('generated circle',#1772,1.621) ;
#1782=CIRCLE('generated circle',#1781,1.621) ;
#1791=CIRCLE('generated circle',#1790,1.621) ;
#1800=CIRCLE('generated circle',#1799,1.621) ;
#75=PLANE('',#74) ;
#631=PLANE('',#630) ;
#679=PLANE('',#678) ;
#727=PLANE('',#726) ;
#775=PLANE('',#774) ;
#823=PLANE('',#822) ;
#871=PLANE('',#870) ;
#962=PLANE('',#961) ;
#1053=PLANE('',#1052) ;
#1101=PLANE('',#1100) ;
#1149=PLANE('',#1148) ;
#1197=PLANE('',#1196) ;
#1245=PLANE('',#1244) ;
#1293=PLANE('',#1292) ;
#1611=PLANE('',#1610) ;
#35=CYLINDRICAL_SURFACE('generated cylinder',#34,1.621) ;
#600=CYLINDRICAL_SURFACE('generated cylinder',#599,5.) ;
#655=CYLINDRICAL_SURFACE('generated cylinder',#654,5.) ;
#703=CYLINDRICAL_SURFACE('generated cylinder',#702,5.) ;
#751=CYLINDRICAL_SURFACE('generated cylinder',#750,5.) ;
#799=CYLINDRICAL_SURFACE('generated cylinder',#798,5.) ;
#847=CYLINDRICAL_SURFACE('generated cylinder',#846,5.) ;
#895=CYLINDRICAL_SURFACE('generated cylinder',#894,5.) ;
#938=CYLINDRICAL_SURFACE('generated cylinder',#937,5.) ;
#979=CYLINDRICAL_SURFACE('generated cylinder',#978,2.5) ;
#1022=CYLINDRICAL_SURFACE('generated cylinder',#1021,2.5) ;
#1077=CYLINDRICAL_SURFACE('generated cylinder',#1076,2.5) ;
#1125=CYLINDRICAL_SURFACE('generated cylinder',#1124,2.5) ;
#1173=CYLINDRICAL_SURFACE('generated cylinder',#1172,2.5) ;
#1221=CYLINDRICAL_SURFACE('generated cylinder',#1220,2.5) ;
#1269=CYLINDRICAL_SURFACE('generated cylinder',#1268,2.5) ;
#1310=CYLINDRICAL_SURFACE('generated cylinder',#1309,2.5) ;
#1353=CYLINDRICAL_SURFACE('generated cylinder',#1352,2.5) ;
#1396=CYLINDRICAL_SURFACE('generated cylinder',#1395,2.5) ;
#1439=CYLINDRICAL_SURFACE('generated cylinder',#1438,2.5) ;
#1482=CYLINDRICAL_SURFACE('generated cylinder',#1481,2.5) ;
#1525=CYLINDRICAL_SURFACE('generated cylinder',#1524,2.5) ;
#1568=CYLINDRICAL_SURFACE('generated cylinder',#1567,2.5) ;
#1811=CYLINDRICAL_SURFACE('generated cylinder',#1810,1.621) ;
#1840=CYLINDRICAL_SURFACE('generated cylinder',#1839,1.621) ;
#1869=CYLINDRICAL_SURFACE('generated cylinder',#1868,1.621) ;
#1898=CYLINDRICAL_SURFACE('generated cylinder',#1897,1.621) ;
#1927=CYLINDRICAL_SURFACE('generated cylinder',#1926,1.621) ;
#1956=CYLINDRICAL_SURFACE('generated cylinder',#1955,1.621) ;
#1985=CYLINDRICAL_SURFACE('generated cylinder',#1984,1.621) ;
#223=FACE_BOUND('',#220,.T.) ;
#232=FACE_BOUND('',#229,.T.) ;
#250=FACE_BOUND('',#247,.T.) ;
#268=FACE_BOUND('',#265,.T.) ;
#286=FACE_BOUND('',#283,.T.) ;
#304=FACE_BOUND('',#301,.T.) ;
#322=FACE_BOUND('',#319,.T.) ;
#340=FACE_BOUND('',#337,.T.) ;
#358=FACE_BOUND('',#355,.T.) ;
#376=FACE_BOUND('',#373,.T.) ;
#474=FACE_BOUND('',#461,.T.) ;
#492=FACE_BOUND('',#489,.T.) ;
#510=FACE_BOUND('',#507,.T.) ;
#528=FACE_BOUND('',#525,.T.) ;
#546=FACE_BOUND('',#543,.T.) ;
#564=FACE_BOUND('',#561,.T.) ;
#582=FACE_BOUND('',#579,.T.) ;
#1647=FACE_BOUND('',#1644,.T.) ;
#1651=FACE_BOUND('',#1648,.T.) ;
#1655=FACE_BOUND('',#1652,.T.) ;
#1659=FACE_BOUND('',#1656,.T.) ;
#1663=FACE_BOUND('',#1660,.T.) ;
#1667=FACE_BOUND('',#1664,.T.) ;
#1671=FACE_BOUND('',#1668,.T.) ;
#1675=FACE_BOUND('',#1672,.T.) ;
#1679=FACE_BOUND('',#1676,.T.) ;
#1683=FACE_BOUND('',#1680,.T.) ;
#1697=FACE_BOUND('',#1684,.T.) ;
#1715=FACE_BOUND('',#1712,.T.) ;
#1733=FACE_BOUND('',#1730,.T.) ;
#1751=FACE_BOUND('',#1748,.T.) ;
#1769=FACE_BOUND('',#1766,.T.) ;
#1787=FACE_BOUND('',#1784,.T.) ;
#1805=FACE_BOUND('',#1802,.T.) ;
#44=EDGE_CURVE('',#41,#43,#39,.F.) ;
#51=EDGE_CURVE('',#50,#41,#48,.F.) ;
#58=EDGE_CURVE('',#50,#57,#55,.F.) ;
#63=EDGE_CURVE('',#57,#43,#62,.F.) ;
#84=EDGE_CURVE('',#81,#83,#79,.T.) ;
#91=EDGE_CURVE('',#83,#90,#88,.F.) ;
#98=EDGE_CURVE('',#90,#97,#95,.T.) ;
#105=EDGE_CURVE('',#97,#104,#102,.F.) ;
#112=EDGE_CURVE('',#104,#111,#109,.T.) ;
#119=EDGE_CURVE('',#111,#118,#116,.T.) ;
#126=EDGE_CURVE('',#118,#125,#123,.T.) ;
#133=EDGE_CURVE('',#125,#132,#130,.T.) ;
#140=EDGE_CURVE('',#132,#139,#137,.F.) ;
#147=EDGE_CURVE('',#139,#146,#144,.F.) ;
#154=EDGE_CURVE('',#146,#153,#151,.F.) ;
#161=EDGE_CURVE('',#153,#160,#158,.F.) ;
#168=EDGE_CURVE('',#160,#167,#165,.T.) ;
#175=EDGE_CURVE('',#167,#174,#172,.F.) ;
#182=EDGE_CURVE('',#174,#181,#179,.T.) ;
#187=EDGE_CURVE('',#181,#81,#186,.F.) ;
#214=EDGE_CURVE('',#211,#213,#209,.T.) ;
#219=EDGE_CURVE('',#213,#211,#218,.T.) ;
#228=EDGE_CURVE('',#43,#57,#227,.T.) ;
#241=EDGE_CURVE('',#238,#240,#236,.F.) ;
#246=EDGE_CURVE('',#240,#238,#245,.F.) ;
#259=EDGE_CURVE('',#256,#258,#254,.T.) ;
#264=EDGE_CURVE('',#258,#256,#263,.T.) ;
#277=EDGE_CURVE('',#274,#276,#272,.T.) ;
#282=EDGE_CURVE('',#276,#274,#281,.T.) ;
#295=EDGE_CURVE('',#292,#294,#290,.T.) ;
#300=EDGE_CURVE('',#294,#292,#299,.T.) ;
#313=EDGE_CURVE('',#310,#312,#308,.T.) ;
#318=EDGE_CURVE('',#312,#310,#317,.T.) ;
#331=EDGE_CURVE('',#328,#330,#326,.T.) ;
#336=EDGE_CURVE('',#330,#328,#335,.T.) ;
#349=EDGE_CURVE('',#346,#348,#344,.T.) ;
#354=EDGE_CURVE('',#348,#346,#353,.T.) ;
#367=EDGE_CURVE('',#364,#366,#362,.T.) ;
#372=EDGE_CURVE('',#366,#364,#371,.T.) ;
#385=EDGE_CURVE('',#382,#384,#380,.F.) ;
#392=EDGE_CURVE('',#391,#382,#389,.T.) ;
#399=EDGE_CURVE('',#398,#391,#396,.F.) ;
#406=EDGE_CURVE('',#405,#398,#403,.T.) ;
#413=EDGE_CURVE('',#412,#405,#410,.F.) ;
#420=EDGE_CURVE('',#419,#412,#417,.T.) ;
#427=EDGE_CURVE('',#426,#419,#424,.F.) ;
#434=EDGE_CURVE('',#433,#426,#431,.T.) ;
#441=EDGE_CURVE('',#440,#433,#438,.F.) ;
#448=EDGE_CURVE('',#447,#440,#445,.T.) ;
#455=EDGE_CURVE('',#454,#447,#452,.F.) ;
#460=EDGE_CURVE('',#384,#454,#459,.T.) ;
#483=EDGE_CURVE('',#480,#482,#478,.T.) ;
#488=EDGE_CURVE('',#482,#480,#487,.T.) ;
#501=EDGE_CURVE('',#498,#500,#496,.T.) ;
#506=EDGE_CURVE('',#500,#498,#505,.T.) ;
#519=EDGE_CURVE('',#516,#518,#514,.T.) ;
#524=EDGE_CURVE('',#518,#516,#523,.T.) ;
#537=EDGE_CURVE('',#534,#536,#532,.T.) ;
#542=EDGE_CURVE('',#536,#534,#541,.T.) ;
#555=EDGE_CURVE('',#552,#554,#550,.T.) ;
#560=EDGE_CURVE('',#554,#552,#559,.T.) ;
#573=EDGE_CURVE('',#570,#572,#568,.T.) ;
#578=EDGE_CURVE('',#572,#570,#577,.T.) ;
#588=EDGE_CURVE('',#41,#50,#587,.F.) ;
#607=EDGE_CURVE('',#606,#81,#604,.T.) ;
#614=EDGE_CURVE('',#606,#613,#611,.T.) ;
#619=EDGE_CURVE('',#613,#83,#618,.T.) ;
#638=EDGE_CURVE('',#613,#637,#635,.F.) ;
#643=EDGE_CURVE('',#637,#90,#642,.T.) ;
#662=EDGE_CURVE('',#637,#661,#659,.T.) ;
#667=EDGE_CURVE('',#661,#97,#666,.T.) ;
#686=EDGE_CURVE('',#661,#685,#683,.F.) ;
#691=EDGE_CURVE('',#685,#104,#690,.T.) ;
#710=EDGE_CURVE('',#685,#709,#707,.T.) ;
#715=EDGE_CURVE('',#709,#111,#714,.T.) ;
#734=EDGE_CURVE('',#709,#733,#731,.T.) ;
#739=EDGE_CURVE('',#733,#118,#738,.T.) ;
#758=EDGE_CURVE('',#733,#757,#755,.T.) ;
#763=EDGE_CURVE('',#757,#125,#762,.T.) ;
#782=EDGE_CURVE('',#757,#781,#779,.T.) ;
#787=EDGE_CURVE('',#781,#132,#786,.T.) ;
#806=EDGE_CURVE('',#781,#805,#803,.F.) ;
#811=EDGE_CURVE('',#805,#139,#810,.T.) ;
#830=EDGE_CURVE('',#805,#829,#827,.F.) ;
#835=EDGE_CURVE('',#829,#146,#834,.T.) ;
#854=EDGE_CURVE('',#829,#853,#851,.F.) ;
#859=EDGE_CURVE('',#853,#153,#858,.T.) ;
#878=EDGE_CURVE('',#853,#877,#875,.F.) ;
#883=EDGE_CURVE('',#877,#160,#882,.T.) ;
#902=EDGE_CURVE('',#877,#901,#899,.T.) ;
#907=EDGE_CURVE('',#901,#167,#906,.T.) ;
#921=EDGE_CURVE('',#901,#920,#918,.F.) ;
#926=EDGE_CURVE('',#920,#174,#925,.T.) ;
#945=EDGE_CURVE('',#920,#944,#942,.T.) ;
#950=EDGE_CURVE('',#944,#181,#949,.T.) ;
#967=EDGE_CURVE('',#944,#606,#966,.F.) ;
#986=EDGE_CURVE('',#985,#238,#983,.T.) ;
#993=EDGE_CURVE('',#985,#992,#990,.F.) ;
#998=EDGE_CURVE('',#992,#240,#997,.T.) ;
#1010=EDGE_CURVE('',#992,#985,#1009,.F.) ;
#1029=EDGE_CURVE('',#1028,#454,#1026,.T.) ;
#1036=EDGE_CURVE('',#1035,#1028,#1033,.T.) ;
#1041=EDGE_CURVE('',#1035,#384,#1040,.T.) ;
#1060=EDGE_CURVE('',#1059,#447,#1057,.T.) ;
#1065=EDGE_CURVE('',#1028,#1059,#1064,.F.) ;
#1084=EDGE_CURVE('',#1083,#440,#1081,.T.) ;
#1089=EDGE_CURVE('',#1059,#1083,#1088,.T.) ;
#1108=EDGE_CURVE('',#1107,#433,#1105,.T.) ;
#1113=EDGE_CURVE('',#1083,#1107,#1112,.F.) ;
#1132=EDGE_CURVE('',#1131,#426,#1129,.T.) ;
#1137=EDGE_CURVE('',#1107,#1131,#1136,.T.) ;
#1156=EDGE_CURVE('',#1155,#419,#1153,.T.) ;
#1161=EDGE_CURVE('',#1131,#1155,#1160,.F.) ;
#1180=EDGE_CURVE('',#1179,#412,#1177,.T.) ;
#1185=EDGE_CURVE('',#1155,#1179,#1184,.T.) ;
#1204=EDGE_CURVE('',#1203,#405,#1201,.T.) ;
#1209=EDGE_CURVE('',#1179,#1203,#1208,.F.) ;
#1228=EDGE_CURVE('',#1227,#398,#1225,.T.) ;
#1233=EDGE_CURVE('',#1203,#1227,#1232,.T.) ;
#1252=EDGE_CURVE('',#1251,#391,#1249,.T.) ;
#1257=EDGE_CURVE('',#1227,#1251,#1256,.F.) ;
#1276=EDGE_CURVE('',#1275,#382,#1273,.T.) ;
#1281=EDGE_CURVE('',#1251,#1275,#1280,.T.) ;
#1298=EDGE_CURVE('',#1275,#1035,#1297,.F.) ;
#1317=EDGE_CURVE('',#1316,#364,#1314,.T.) ;
#1324=EDGE_CURVE('',#1323,#1316,#1321,.T.) ;
#1329=EDGE_CURVE('',#1323,#366,#1328,.T.) ;
#1341=EDGE_CURVE('',#1316,#1323,#1340,.T.) ;
#1360=EDGE_CURVE('',#1359,#346,#1357,.T.) ;
#1367=EDGE_CURVE('',#1366,#1359,#1364,.T.) ;
#1372=EDGE_CURVE('',#1366,#348,#1371,.T.) ;
#1384=EDGE_CURVE('',#1359,#1366,#1383,.T.) ;
#1403=EDGE_CURVE('',#1402,#328,#1400,.T.) ;
#1410=EDGE_CURVE('',#1409,#1402,#1407,.T.) ;
#1415=EDGE_CURVE('',#1409,#330,#1414,.T.) ;
#1427=EDGE_CURVE('',#1402,#1409,#1426,.T.) ;
#1446=EDGE_CURVE('',#1445,#310,#1443,.T.) ;
#1453=EDGE_CURVE('',#1452,#1445,#1450,.T.) ;
#1458=EDGE_CURVE('',#1452,#312,#1457,.T.) ;
#1470=EDGE_CURVE('',#1445,#1452,#1469,.T.) ;
#1489=EDGE_CURVE('',#1488,#292,#1486,.T.) ;
#1496=EDGE_CURVE('',#1495,#1488,#1493,.T.) ;
#1501=EDGE_CURVE('',#1495,#294,#1500,.T.) ;
#1513=EDGE_CURVE('',#1488,#1495,#1512,.T.) ;
#1532=EDGE_CURVE('',#1531,#274,#1529,.T.) ;
#1539=EDGE_CURVE('',#1538,#1531,#1536,.T.) ;
#1544=EDGE_CURVE('',#1538,#276,#1543,.T.) ;
#1556=EDGE_CURVE('',#1531,#1538,#1555,.T.) ;
#1575=EDGE_CURVE('',#1574,#256,#1572,.F.) ;
#1582=EDGE_CURVE('',#1581,#1574,#1579,.F.) ;
#1587=EDGE_CURVE('',#1581,#258,#1586,.F.) ;
#1599=EDGE_CURVE('',#1574,#1581,#1598,.F.) ;
#1638=EDGE_CURVE('',#1635,#1637,#1633,.T.) ;
#1643=EDGE_CURVE('',#1637,#1635,#1642,.T.) ;
#1706=EDGE_CURVE('',#1703,#1705,#1701,.T.) ;
#1711=EDGE_CURVE('',#1705,#1703,#1710,.T.) ;
#1724=EDGE_CURVE('',#1721,#1723,#1719,.T.) ;
#1729=EDGE_CURVE('',#1723,#1721,#1728,.T.) ;
#1742=EDGE_CURVE('',#1739,#1741,#1737,.T.) ;
#1747=EDGE_CURVE('',#1741,#1739,#1746,.T.) ;
#1760=EDGE_CURVE('',#1757,#1759,#1755,.T.) ;
#1765=EDGE_CURVE('',#1759,#1757,#1764,.T.) ;
#1778=EDGE_CURVE('',#1775,#1777,#1773,.T.) ;
#1783=EDGE_CURVE('',#1777,#1775,#1782,.T.) ;
#1796=EDGE_CURVE('',#1793,#1795,#1791,.T.) ;
#1801=EDGE_CURVE('',#1795,#1793,#1800,.T.) ;
#1816=EDGE_CURVE('',#1703,#482,#1815,.F.) ;
#1821=EDGE_CURVE('',#1705,#480,#1820,.F.) ;
#1845=EDGE_CURVE('',#1721,#500,#1844,.F.) ;
#1850=EDGE_CURVE('',#1723,#498,#1849,.F.) ;
#1874=EDGE_CURVE('',#1739,#518,#1873,.F.) ;
#1879=EDGE_CURVE('',#1741,#516,#1878,.F.) ;
#1903=EDGE_CURVE('',#1757,#536,#1902,.F.) ;
#1908=EDGE_CURVE('',#1759,#534,#1907,.F.) ;
#1932=EDGE_CURVE('',#1775,#554,#1931,.F.) ;
#1937=EDGE_CURVE('',#1777,#552,#1936,.F.) ;
#1961=EDGE_CURVE('',#1635,#213,#1960,.F.) ;
#1966=EDGE_CURVE('',#1637,#211,#1965,.F.) ;
#1990=EDGE_CURVE('',#1793,#572,#1989,.F.) ;
#1995=EDGE_CURVE('',#1795,#570,#1994,.F.) ;
#30=CLOSED_SHELL('Closed Shell',(#70,#583,#595,#626,#650,#674,#698,#722,#746,#770,#794,#818,#842,#866,#890,#914,#933,#957,#974,#1005,#1017,#1048,#1072,#1096,#1120,#1144,#1168,#1192,#1216,#1240,#1264,#1288,#1305,#1336,#1348,#1379,#1391,#1422,#1434,#1465,#1477,#1508,#1520,#1551,#1563,#1594,#1606,#1806,#1828,#1835,#1857,#1864,#1886,#1893,#1915,#1922,#1944,#1951,#1973,#1980,#2002,#2009)) ;
#65=ORIENTED_EDGE('',*,*,#44,.F.) ;
#66=ORIENTED_EDGE('',*,*,#51,.F.) ;
#67=ORIENTED_EDGE('',*,*,#58,.T.) ;
#68=ORIENTED_EDGE('',*,*,#63,.T.) ;
#189=ORIENTED_EDGE('',*,*,#84,.T.) ;
#190=ORIENTED_EDGE('',*,*,#91,.T.) ;
#191=ORIENTED_EDGE('',*,*,#98,.T.) ;
#192=ORIENTED_EDGE('',*,*,#105,.T.) ;
#193=ORIENTED_EDGE('',*,*,#112,.T.) ;
#194=ORIENTED_EDGE('',*,*,#119,.T.) ;
#195=ORIENTED_EDGE('',*,*,#126,.T.) ;
#196=ORIENTED_EDGE('',*,*,#133,.T.) ;
#197=ORIENTED_EDGE('',*,*,#140,.T.) ;
#198=ORIENTED_EDGE('',*,*,#147,.T.) ;
#199=ORIENTED_EDGE('',*,*,#154,.T.) ;
#200=ORIENTED_EDGE('',*,*,#161,.T.) ;
#201=ORIENTED_EDGE('',*,*,#168,.T.) ;
#202=ORIENTED_EDGE('',*,*,#175,.T.) ;
#203=ORIENTED_EDGE('',*,*,#182,.T.) ;
#204=ORIENTED_EDGE('',*,*,#187,.T.) ;
#221=ORIENTED_EDGE('',*,*,#214,.F.) ;
#222=ORIENTED_EDGE('',*,*,#219,.F.) ;
#230=ORIENTED_EDGE('',*,*,#228,.F.) ;
#231=ORIENTED_EDGE('',*,*,#63,.F.) ;
#248=ORIENTED_EDGE('',*,*,#241,.T.) ;
#249=ORIENTED_EDGE('',*,*,#246,.T.) ;
#266=ORIENTED_EDGE('',*,*,#259,.F.) ;
#267=ORIENTED_EDGE('',*,*,#264,.F.) ;
#284=ORIENTED_EDGE('',*,*,#277,.F.) ;
#285=ORIENTED_EDGE('',*,*,#282,.F.) ;
#302=ORIENTED_EDGE('',*,*,#295,.F.) ;
#303=ORIENTED_EDGE('',*,*,#300,.F.) ;
#320=ORIENTED_EDGE('',*,*,#313,.F.) ;
#321=ORIENTED_EDGE('',*,*,#318,.F.) ;
#338=ORIENTED_EDGE('',*,*,#331,.F.) ;
#339=ORIENTED_EDGE('',*,*,#336,.F.) ;
#356=ORIENTED_EDGE('',*,*,#349,.F.) ;
#357=ORIENTED_EDGE('',*,*,#354,.F.) ;
#374=ORIENTED_EDGE('',*,*,#367,.F.) ;
#375=ORIENTED_EDGE('',*,*,#372,.F.) ;
#462=ORIENTED_EDGE('',*,*,#385,.F.) ;
#463=ORIENTED_EDGE('',*,*,#392,.F.) ;
#464=ORIENTED_EDGE('',*,*,#399,.F.) ;
#465=ORIENTED_EDGE('',*,*,#406,.F.) ;
#466=ORIENTED_EDGE('',*,*,#413,.F.) ;
#467=ORIENTED_EDGE('',*,*,#420,.F.) ;
#468=ORIENTED_EDGE('',*,*,#427,.F.) ;
#469=ORIENTED_EDGE('',*,*,#434,.F.) ;
#470=ORIENTED_EDGE('',*,*,#441,.F.) ;
#471=ORIENTED_EDGE('',*,*,#448,.F.) ;
#472=ORIENTED_EDGE('',*,*,#455,.F.) ;
#473=ORIENTED_EDGE('',*,*,#460,.F.) ;
#490=ORIENTED_EDGE('',*,*,#483,.F.) ;
#491=ORIENTED_EDGE('',*,*,#488,.F.) ;
#508=ORIENTED_EDGE('',*,*,#501,.F.) ;
#509=ORIENTED_EDGE('',*,*,#506,.F.) ;
#526=ORIENTED_EDGE('',*,*,#519,.F.) ;
#527=ORIENTED_EDGE('',*,*,#524,.F.) ;
#544=ORIENTED_EDGE('',*,*,#537,.F.) ;
#545=ORIENTED_EDGE('',*,*,#542,.F.) ;
#562=ORIENTED_EDGE('',*,*,#555,.F.) ;
#563=ORIENTED_EDGE('',*,*,#560,.F.) ;
#580=ORIENTED_EDGE('',*,*,#573,.F.) ;
#581=ORIENTED_EDGE('',*,*,#578,.F.) ;
#590=ORIENTED_EDGE('',*,*,#58,.F.) ;
#591=ORIENTED_EDGE('',*,*,#588,.F.) ;
#592=ORIENTED_EDGE('',*,*,#44,.T.) ;
#593=ORIENTED_EDGE('',*,*,#228,.T.) ;
#621=ORIENTED_EDGE('',*,*,#607,.F.) ;
#622=ORIENTED_EDGE('',*,*,#614,.T.) ;
#623=ORIENTED_EDGE('',*,*,#619,.T.) ;
#624=ORIENTED_EDGE('',*,*,#84,.F.) ;
#645=ORIENTED_EDGE('',*,*,#619,.F.) ;
#646=ORIENTED_EDGE('',*,*,#638,.T.) ;
#647=ORIENTED_EDGE('',*,*,#643,.T.) ;
#648=ORIENTED_EDGE('',*,*,#91,.F.) ;
#669=ORIENTED_EDGE('',*,*,#643,.F.) ;
#670=ORIENTED_EDGE('',*,*,#662,.T.) ;
#671=ORIENTED_EDGE('',*,*,#667,.T.) ;
#672=ORIENTED_EDGE('',*,*,#98,.F.) ;
#693=ORIENTED_EDGE('',*,*,#667,.F.) ;
#694=ORIENTED_EDGE('',*,*,#686,.T.) ;
#695=ORIENTED_EDGE('',*,*,#691,.T.) ;
#696=ORIENTED_EDGE('',*,*,#105,.F.) ;
#717=ORIENTED_EDGE('',*,*,#691,.F.) ;
#718=ORIENTED_EDGE('',*,*,#710,.T.) ;
#719=ORIENTED_EDGE('',*,*,#715,.T.) ;
#720=ORIENTED_EDGE('',*,*,#112,.F.) ;
#741=ORIENTED_EDGE('',*,*,#715,.F.) ;
#742=ORIENTED_EDGE('',*,*,#734,.T.) ;
#743=ORIENTED_EDGE('',*,*,#739,.T.) ;
#744=ORIENTED_EDGE('',*,*,#119,.F.) ;
#765=ORIENTED_EDGE('',*,*,#739,.F.) ;
#766=ORIENTED_EDGE('',*,*,#758,.T.) ;
#767=ORIENTED_EDGE('',*,*,#763,.T.) ;
#768=ORIENTED_EDGE('',*,*,#126,.F.) ;
#789=ORIENTED_EDGE('',*,*,#763,.F.) ;
#790=ORIENTED_EDGE('',*,*,#782,.T.) ;
#791=ORIENTED_EDGE('',*,*,#787,.T.) ;
#792=ORIENTED_EDGE('',*,*,#133,.F.) ;
#813=ORIENTED_EDGE('',*,*,#787,.F.) ;
#814=ORIENTED_EDGE('',*,*,#806,.T.) ;
#815=ORIENTED_EDGE('',*,*,#811,.T.) ;
#816=ORIENTED_EDGE('',*,*,#140,.F.) ;
#837=ORIENTED_EDGE('',*,*,#811,.F.) ;
#838=ORIENTED_EDGE('',*,*,#830,.T.) ;
#839=ORIENTED_EDGE('',*,*,#835,.T.) ;
#840=ORIENTED_EDGE('',*,*,#147,.F.) ;
#861=ORIENTED_EDGE('',*,*,#835,.F.) ;
#862=ORIENTED_EDGE('',*,*,#854,.T.) ;
#863=ORIENTED_EDGE('',*,*,#859,.T.) ;
#864=ORIENTED_EDGE('',*,*,#154,.F.) ;
#885=ORIENTED_EDGE('',*,*,#859,.F.) ;
#886=ORIENTED_EDGE('',*,*,#878,.T.) ;
#887=ORIENTED_EDGE('',*,*,#883,.T.) ;
#888=ORIENTED_EDGE('',*,*,#161,.F.) ;
#909=ORIENTED_EDGE('',*,*,#883,.F.) ;
#910=ORIENTED_EDGE('',*,*,#902,.T.) ;
#911=ORIENTED_EDGE('',*,*,#907,.T.) ;
#912=ORIENTED_EDGE('',*,*,#168,.F.) ;
#928=ORIENTED_EDGE('',*,*,#907,.F.) ;
#929=ORIENTED_EDGE('',*,*,#921,.T.) ;
#930=ORIENTED_EDGE('',*,*,#926,.T.) ;
#931=ORIENTED_EDGE('',*,*,#175,.F.) ;
#952=ORIENTED_EDGE('',*,*,#926,.F.) ;
#953=ORIENTED_EDGE('',*,*,#945,.T.) ;
#954=ORIENTED_EDGE('',*,*,#950,.T.) ;
#955=ORIENTED_EDGE('',*,*,#182,.F.) ;
#969=ORIENTED_EDGE('',*,*,#950,.F.) ;
#970=ORIENTED_EDGE('',*,*,#967,.T.) ;
#971=ORIENTED_EDGE('',*,*,#607,.T.) ;
#972=ORIENTED_EDGE('',*,*,#187,.F.) ;
#1000=ORIENTED_EDGE('',*,*,#241,.F.) ;
#1001=ORIENTED_EDGE('',*,*,#986,.F.) ;
#1002=ORIENTED_EDGE('',*,*,#993,.T.) ;
#1003=ORIENTED_EDGE('',*,*,#998,.T.) ;
#1012=ORIENTED_EDGE('',*,*,#246,.F.) ;
#1013=ORIENTED_EDGE('',*,*,#998,.F.) ;
#1014=ORIENTED_EDGE('',*,*,#1010,.T.) ;
#1015=ORIENTED_EDGE('',*,*,#986,.T.) ;
#1043=ORIENTED_EDGE('',*,*,#460,.T.) ;
#1044=ORIENTED_EDGE('',*,*,#1029,.F.) ;
#1045=ORIENTED_EDGE('',*,*,#1036,.F.) ;
#1046=ORIENTED_EDGE('',*,*,#1041,.T.) ;
#1067=ORIENTED_EDGE('',*,*,#455,.T.) ;
#1068=ORIENTED_EDGE('',*,*,#1060,.F.) ;
#1069=ORIENTED_EDGE('',*,*,#1065,.F.) ;
#1070=ORIENTED_EDGE('',*,*,#1029,.T.) ;
#1091=ORIENTED_EDGE('',*,*,#448,.T.) ;
#1092=ORIENTED_EDGE('',*,*,#1084,.F.) ;
#1093=ORIENTED_EDGE('',*,*,#1089,.F.) ;
#1094=ORIENTED_EDGE('',*,*,#1060,.T.) ;
#1115=ORIENTED_EDGE('',*,*,#441,.T.) ;
#1116=ORIENTED_EDGE('',*,*,#1108,.F.) ;
#1117=ORIENTED_EDGE('',*,*,#1113,.F.) ;
#1118=ORIENTED_EDGE('',*,*,#1084,.T.) ;
#1139=ORIENTED_EDGE('',*,*,#434,.T.) ;
#1140=ORIENTED_EDGE('',*,*,#1132,.F.) ;
#1141=ORIENTED_EDGE('',*,*,#1137,.F.) ;
#1142=ORIENTED_EDGE('',*,*,#1108,.T.) ;
#1163=ORIENTED_EDGE('',*,*,#427,.T.) ;
#1164=ORIENTED_EDGE('',*,*,#1156,.F.) ;
#1165=ORIENTED_EDGE('',*,*,#1161,.F.) ;
#1166=ORIENTED_EDGE('',*,*,#1132,.T.) ;
#1187=ORIENTED_EDGE('',*,*,#420,.T.) ;
#1188=ORIENTED_EDGE('',*,*,#1180,.F.) ;
#1189=ORIENTED_EDGE('',*,*,#1185,.F.) ;
#1190=ORIENTED_EDGE('',*,*,#1156,.T.) ;
#1211=ORIENTED_EDGE('',*,*,#413,.T.) ;
#1212=ORIENTED_EDGE('',*,*,#1204,.F.) ;
#1213=ORIENTED_EDGE('',*,*,#1209,.F.) ;
#1214=ORIENTED_EDGE('',*,*,#1180,.T.) ;
#1235=ORIENTED_EDGE('',*,*,#406,.T.) ;
#1236=ORIENTED_EDGE('',*,*,#1228,.F.) ;
#1237=ORIENTED_EDGE('',*,*,#1233,.F.) ;
#1238=ORIENTED_EDGE('',*,*,#1204,.T.) ;
#1259=ORIENTED_EDGE('',*,*,#399,.T.) ;
#1260=ORIENTED_EDGE('',*,*,#1252,.F.) ;
#1261=ORIENTED_EDGE('',*,*,#1257,.F.) ;
#1262=ORIENTED_EDGE('',*,*,#1228,.T.) ;
#1283=ORIENTED_EDGE('',*,*,#392,.T.) ;
#1284=ORIENTED_EDGE('',*,*,#1276,.F.) ;
#1285=ORIENTED_EDGE('',*,*,#1281,.F.) ;
#1286=ORIENTED_EDGE('',*,*,#1252,.T.) ;
#1300=ORIENTED_EDGE('',*,*,#385,.T.) ;
#1301=ORIENTED_EDGE('',*,*,#1041,.F.) ;
#1302=ORIENTED_EDGE('',*,*,#1298,.F.) ;
#1303=ORIENTED_EDGE('',*,*,#1276,.T.) ;
#1331=ORIENTED_EDGE('',*,*,#372,.T.) ;
#1332=ORIENTED_EDGE('',*,*,#1317,.F.) ;
#1333=ORIENTED_EDGE('',*,*,#1324,.F.) ;
#1334=ORIENTED_EDGE('',*,*,#1329,.T.) ;
#1343=ORIENTED_EDGE('',*,*,#367,.T.) ;
#1344=ORIENTED_EDGE('',*,*,#1329,.F.) ;
#1345=ORIENTED_EDGE('',*,*,#1341,.F.) ;
#1346=ORIENTED_EDGE('',*,*,#1317,.T.) ;
#1374=ORIENTED_EDGE('',*,*,#354,.T.) ;
#1375=ORIENTED_EDGE('',*,*,#1360,.F.) ;
#1376=ORIENTED_EDGE('',*,*,#1367,.F.) ;
#1377=ORIENTED_EDGE('',*,*,#1372,.T.) ;
#1386=ORIENTED_EDGE('',*,*,#349,.T.) ;
#1387=ORIENTED_EDGE('',*,*,#1372,.F.) ;
#1388=ORIENTED_EDGE('',*,*,#1384,.F.) ;
#1389=ORIENTED_EDGE('',*,*,#1360,.T.) ;
#1417=ORIENTED_EDGE('',*,*,#336,.T.) ;
#1418=ORIENTED_EDGE('',*,*,#1403,.F.) ;
#1419=ORIENTED_EDGE('',*,*,#1410,.F.) ;
#1420=ORIENTED_EDGE('',*,*,#1415,.T.) ;
#1429=ORIENTED_EDGE('',*,*,#331,.T.) ;
#1430=ORIENTED_EDGE('',*,*,#1415,.F.) ;
#1431=ORIENTED_EDGE('',*,*,#1427,.F.) ;
#1432=ORIENTED_EDGE('',*,*,#1403,.T.) ;
#1460=ORIENTED_EDGE('',*,*,#318,.T.) ;
#1461=ORIENTED_EDGE('',*,*,#1446,.F.) ;
#1462=ORIENTED_EDGE('',*,*,#1453,.F.) ;
#1463=ORIENTED_EDGE('',*,*,#1458,.T.) ;
#1472=ORIENTED_EDGE('',*,*,#313,.T.) ;
#1473=ORIENTED_EDGE('',*,*,#1458,.F.) ;
#1474=ORIENTED_EDGE('',*,*,#1470,.F.) ;
#1475=ORIENTED_EDGE('',*,*,#1446,.T.) ;
#1503=ORIENTED_EDGE('',*,*,#300,.T.) ;
#1504=ORIENTED_EDGE('',*,*,#1489,.F.) ;
#1505=ORIENTED_EDGE('',*,*,#1496,.F.) ;
#1506=ORIENTED_EDGE('',*,*,#1501,.T.) ;
#1515=ORIENTED_EDGE('',*,*,#295,.T.) ;
#1516=ORIENTED_EDGE('',*,*,#1501,.F.) ;
#1517=ORIENTED_EDGE('',*,*,#1513,.F.) ;
#1518=ORIENTED_EDGE('',*,*,#1489,.T.) ;
#1546=ORIENTED_EDGE('',*,*,#282,.T.) ;
#1547=ORIENTED_EDGE('',*,*,#1532,.F.) ;
#1548=ORIENTED_EDGE('',*,*,#1539,.F.) ;
#1549=ORIENTED_EDGE('',*,*,#1544,.T.) ;
#1558=ORIENTED_EDGE('',*,*,#277,.T.) ;
#1559=ORIENTED_EDGE('',*,*,#1544,.F.) ;
#1560=ORIENTED_EDGE('',*,*,#1556,.F.) ;
#1561=ORIENTED_EDGE('',*,*,#1532,.T.) ;
#1589=ORIENTED_EDGE('',*,*,#1575,.F.) ;
#1590=ORIENTED_EDGE('',*,*,#1582,.F.) ;
#1591=ORIENTED_EDGE('',*,*,#1587,.T.) ;
#1592=ORIENTED_EDGE('',*,*,#264,.T.) ;
#1601=ORIENTED_EDGE('',*,*,#1587,.F.) ;
#1602=ORIENTED_EDGE('',*,*,#1599,.F.) ;
#1603=ORIENTED_EDGE('',*,*,#1575,.T.) ;
#1604=ORIENTED_EDGE('',*,*,#259,.T.) ;
#1613=ORIENTED_EDGE('',*,*,#967,.F.) ;
#1614=ORIENTED_EDGE('',*,*,#945,.F.) ;
#1615=ORIENTED_EDGE('',*,*,#921,.F.) ;
#1616=ORIENTED_EDGE('',*,*,#902,.F.) ;
#1617=ORIENTED_EDGE('',*,*,#878,.F.) ;
#1618=ORIENTED_EDGE('',*,*,#854,.F.) ;
#1619=ORIENTED_EDGE('',*,*,#830,.F.) ;
#1620=ORIENTED_EDGE('',*,*,#806,.F.) ;
#1621=ORIENTED_EDGE('',*,*,#782,.F.) ;
#1622=ORIENTED_EDGE('',*,*,#758,.F.) ;
#1623=ORIENTED_EDGE('',*,*,#734,.F.) ;
#1624=ORIENTED_EDGE('',*,*,#710,.F.) ;
#1625=ORIENTED_EDGE('',*,*,#686,.F.) ;
#1626=ORIENTED_EDGE('',*,*,#662,.F.) ;
#1627=ORIENTED_EDGE('',*,*,#638,.F.) ;
#1628=ORIENTED_EDGE('',*,*,#614,.F.) ;
#1645=ORIENTED_EDGE('',*,*,#1638,.T.) ;
#1646=ORIENTED_EDGE('',*,*,#1643,.T.) ;
#1649=ORIENTED_EDGE('',*,*,#51,.T.) ;
#1650=ORIENTED_EDGE('',*,*,#588,.T.) ;
#1653=ORIENTED_EDGE('',*,*,#1010,.F.) ;
#1654=ORIENTED_EDGE('',*,*,#993,.F.) ;
#1657=ORIENTED_EDGE('',*,*,#1582,.T.) ;
#1658=ORIENTED_EDGE('',*,*,#1599,.T.) ;
#1661=ORIENTED_EDGE('',*,*,#1539,.T.) ;
#1662=ORIENTED_EDGE('',*,*,#1556,.T.) ;
#1665=ORIENTED_EDGE('',*,*,#1496,.T.) ;
#1666=ORIENTED_EDGE('',*,*,#1513,.T.) ;
#1669=ORIENTED_EDGE('',*,*,#1453,.T.) ;
#1670=ORIENTED_EDGE('',*,*,#1470,.T.) ;
#1673=ORIENTED_EDGE('',*,*,#1410,.T.) ;
#1674=ORIENTED_EDGE('',*,*,#1427,.T.) ;
#1677=ORIENTED_EDGE('',*,*,#1367,.T.) ;
#1678=ORIENTED_EDGE('',*,*,#1384,.T.) ;
#1681=ORIENTED_EDGE('',*,*,#1324,.T.) ;
#1682=ORIENTED_EDGE('',*,*,#1341,.T.) ;
#1685=ORIENTED_EDGE('',*,*,#1036,.T.) ;
#1686=ORIENTED_EDGE('',*,*,#1065,.T.) ;
#1687=ORIENTED_EDGE('',*,*,#1089,.T.) ;
#1688=ORIENTED_EDGE('',*,*,#1113,.T.) ;
#1689=ORIENTED_EDGE('',*,*,#1137,.T.) ;
#1690=ORIENTED_EDGE('',*,*,#1161,.T.) ;
#1691=ORIENTED_EDGE('',*,*,#1185,.T.) ;
#1692=ORIENTED_EDGE('',*,*,#1209,.T.) ;
#1693=ORIENTED_EDGE('',*,*,#1233,.T.) ;
#1694=ORIENTED_EDGE('',*,*,#1257,.T.) ;
#1695=ORIENTED_EDGE('',*,*,#1281,.T.) ;
#1696=ORIENTED_EDGE('',*,*,#1298,.T.) ;
#1713=ORIENTED_EDGE('',*,*,#1706,.T.) ;
#1714=ORIENTED_EDGE('',*,*,#1711,.T.) ;
#1731=ORIENTED_EDGE('',*,*,#1724,.T.) ;
#1732=ORIENTED_EDGE('',*,*,#1729,.T.) ;
#1749=ORIENTED_EDGE('',*,*,#1742,.T.) ;
#1750=ORIENTED_EDGE('',*,*,#1747,.T.) ;
#1767=ORIENTED_EDGE('',*,*,#1760,.T.) ;
#1768=ORIENTED_EDGE('',*,*,#1765,.T.) ;
#1785=ORIENTED_EDGE('',*,*,#1778,.T.) ;
#1786=ORIENTED_EDGE('',*,*,#1783,.T.) ;
#1803=ORIENTED_EDGE('',*,*,#1796,.T.) ;
#1804=ORIENTED_EDGE('',*,*,#1801,.T.) ;
#1823=ORIENTED_EDGE('',*,*,#1816,.F.) ;
#1824=ORIENTED_EDGE('',*,*,#1711,.F.) ;
#1825=ORIENTED_EDGE('',*,*,#1821,.T.) ;
#1826=ORIENTED_EDGE('',*,*,#483,.T.) ;
#1830=ORIENTED_EDGE('',*,*,#1821,.F.) ;
#1831=ORIENTED_EDGE('',*,*,#1706,.F.) ;
#1832=ORIENTED_EDGE('',*,*,#1816,.T.) ;
#1833=ORIENTED_EDGE('',*,*,#488,.T.) ;
#1852=ORIENTED_EDGE('',*,*,#1845,.F.) ;
#1853=ORIENTED_EDGE('',*,*,#1729,.F.) ;
#1854=ORIENTED_EDGE('',*,*,#1850,.T.) ;
#1855=ORIENTED_EDGE('',*,*,#501,.T.) ;
#1859=ORIENTED_EDGE('',*,*,#1850,.F.) ;
#1860=ORIENTED_EDGE('',*,*,#1724,.F.) ;
#1861=ORIENTED_EDGE('',*,*,#1845,.T.) ;
#1862=ORIENTED_EDGE('',*,*,#506,.T.) ;
#1881=ORIENTED_EDGE('',*,*,#1874,.F.) ;
#1882=ORIENTED_EDGE('',*,*,#1747,.F.) ;
#1883=ORIENTED_EDGE('',*,*,#1879,.T.) ;
#1884=ORIENTED_EDGE('',*,*,#519,.T.) ;
#1888=ORIENTED_EDGE('',*,*,#1879,.F.) ;
#1889=ORIENTED_EDGE('',*,*,#1742,.F.) ;
#1890=ORIENTED_EDGE('',*,*,#1874,.T.) ;
#1891=ORIENTED_EDGE('',*,*,#524,.T.) ;
#1910=ORIENTED_EDGE('',*,*,#1903,.F.) ;
#1911=ORIENTED_EDGE('',*,*,#1765,.F.) ;
#1912=ORIENTED_EDGE('',*,*,#1908,.T.) ;
#1913=ORIENTED_EDGE('',*,*,#537,.T.) ;
#1917=ORIENTED_EDGE('',*,*,#1908,.F.) ;
#1918=ORIENTED_EDGE('',*,*,#1760,.F.) ;
#1919=ORIENTED_EDGE('',*,*,#1903,.T.) ;
#1920=ORIENTED_EDGE('',*,*,#542,.T.) ;
#1939=ORIENTED_EDGE('',*,*,#1932,.F.) ;
#1940=ORIENTED_EDGE('',*,*,#1783,.F.) ;
#1941=ORIENTED_EDGE('',*,*,#1937,.T.) ;
#1942=ORIENTED_EDGE('',*,*,#555,.T.) ;
#1946=ORIENTED_EDGE('',*,*,#1937,.F.) ;
#1947=ORIENTED_EDGE('',*,*,#1778,.F.) ;
#1948=ORIENTED_EDGE('',*,*,#1932,.T.) ;
#1949=ORIENTED_EDGE('',*,*,#560,.T.) ;
#1968=ORIENTED_EDGE('',*,*,#1961,.F.) ;
#1969=ORIENTED_EDGE('',*,*,#1643,.F.) ;
#1970=ORIENTED_EDGE('',*,*,#1966,.T.) ;
#1971=ORIENTED_EDGE('',*,*,#214,.T.) ;
#1975=ORIENTED_EDGE('',*,*,#1966,.F.) ;
#1976=ORIENTED_EDGE('',*,*,#1638,.F.) ;
#1977=ORIENTED_EDGE('',*,*,#1961,.T.) ;
#1978=ORIENTED_EDGE('',*,*,#219,.T.) ;
#1997=ORIENTED_EDGE('',*,*,#1990,.F.) ;
#1998=ORIENTED_EDGE('',*,*,#1801,.F.) ;
#1999=ORIENTED_EDGE('',*,*,#1995,.T.) ;
#2000=ORIENTED_EDGE('',*,*,#573,.T.) ;
#2004=ORIENTED_EDGE('',*,*,#1995,.F.) ;
#2005=ORIENTED_EDGE('',*,*,#1796,.F.) ;
#2006=ORIENTED_EDGE('',*,*,#1990,.T.) ;
#2007=ORIENTED_EDGE('',*,*,#578,.T.) ;
#64=EDGE_LOOP('',(#65,#66,#67,#68)) ;
#188=EDGE_LOOP('',(#189,#190,#191,#192,#193,#194,#195,#196,#197,#198,#199,#200,#201,#202,#203,#204)) ;
#220=EDGE_LOOP('',(#221,#222)) ;
#229=EDGE_LOOP('',(#230,#231)) ;
#247=EDGE_LOOP('',(#248,#249)) ;
#265=EDGE_LOOP('',(#266,#267)) ;
#283=EDGE_LOOP('',(#284,#285)) ;
#301=EDGE_LOOP('',(#302,#303)) ;
#319=EDGE_LOOP('',(#320,#321)) ;
#337=EDGE_LOOP('',(#338,#339)) ;
#355=EDGE_LOOP('',(#356,#357)) ;
#373=EDGE_LOOP('',(#374,#375)) ;
#461=EDGE_LOOP('',(#462,#463,#464,#465,#466,#467,#468,#469,#470,#471,#472,#473)) ;
#489=EDGE_LOOP('',(#490,#491)) ;
#507=EDGE_LOOP('',(#508,#509)) ;
#525=EDGE_LOOP('',(#526,#527)) ;
#543=EDGE_LOOP('',(#544,#545)) ;
#561=EDGE_LOOP('',(#562,#563)) ;
#579=EDGE_LOOP('',(#580,#581)) ;
#589=EDGE_LOOP('',(#590,#591,#592,#593)) ;
#620=EDGE_LOOP('',(#621,#622,#623,#624)) ;
#644=EDGE_LOOP('',(#645,#646,#647,#648)) ;
#668=EDGE_LOOP('',(#669,#670,#671,#672)) ;
#692=EDGE_LOOP('',(#693,#694,#695,#696)) ;
#716=EDGE_LOOP('',(#717,#718,#719,#720)) ;
#740=EDGE_LOOP('',(#741,#742,#743,#744)) ;
#764=EDGE_LOOP('',(#765,#766,#767,#768)) ;
#788=EDGE_LOOP('',(#789,#790,#791,#792)) ;
#812=EDGE_LOOP('',(#813,#814,#815,#816)) ;
#836=EDGE_LOOP('',(#837,#838,#839,#840)) ;
#860=EDGE_LOOP('',(#861,#862,#863,#864)) ;
#884=EDGE_LOOP('',(#885,#886,#887,#888)) ;
#908=EDGE_LOOP('',(#909,#910,#911,#912)) ;
#927=EDGE_LOOP('',(#928,#929,#930,#931)) ;
#951=EDGE_LOOP('',(#952,#953,#954,#955)) ;
#968=EDGE_LOOP('',(#969,#970,#971,#972)) ;
#999=EDGE_LOOP('',(#1000,#1001,#1002,#1003)) ;
#1011=EDGE_LOOP('',(#1012,#1013,#1014,#1015)) ;
#1042=EDGE_LOOP('',(#1043,#1044,#1045,#1046)) ;
#1066=EDGE_LOOP('',(#1067,#1068,#1069,#1070)) ;
#1090=EDGE_LOOP('',(#1091,#1092,#1093,#1094)) ;
#1114=EDGE_LOOP('',(#1115,#1116,#1117,#1118)) ;
#1138=EDGE_LOOP('',(#1139,#1140,#1141,#1142)) ;
#1162=EDGE_LOOP('',(#1163,#1164,#1165,#1166)) ;
#1186=EDGE_LOOP('',(#1187,#1188,#1189,#1190)) ;
#1210=EDGE_LOOP('',(#1211,#1212,#1213,#1214)) ;
#1234=EDGE_LOOP('',(#1235,#1236,#1237,#1238)) ;
#1258=EDGE_LOOP('',(#1259,#1260,#1261,#1262)) ;
#1282=EDGE_LOOP('',(#1283,#1284,#1285,#1286)) ;
#1299=EDGE_LOOP('',(#1300,#1301,#1302,#1303)) ;
#1330=EDGE_LOOP('',(#1331,#1332,#1333,#1334)) ;
#1342=EDGE_LOOP('',(#1343,#1344,#1345,#1346)) ;
#1373=EDGE_LOOP('',(#1374,#1375,#1376,#1377)) ;
#1385=EDGE_LOOP('',(#1386,#1387,#1388,#1389)) ;
#1416=EDGE_LOOP('',(#1417,#1418,#1419,#1420)) ;
#1428=EDGE_LOOP('',(#1429,#1430,#1431,#1432)) ;
#1459=EDGE_LOOP('',(#1460,#1461,#1462,#1463)) ;
#1471=EDGE_LOOP('',(#1472,#1473,#1474,#1475)) ;
#1502=EDGE_LOOP('',(#1503,#1504,#1505,#1506)) ;
#1514=EDGE_LOOP('',(#1515,#1516,#1517,#1518)) ;
#1545=EDGE_LOOP('',(#1546,#1547,#1548,#1549)) ;
#1557=EDGE_LOOP('',(#1558,#1559,#1560,#1561)) ;
#1588=EDGE_LOOP('',(#1589,#1590,#1591,#1592)) ;
#1600=EDGE_LOOP('',(#1601,#1602,#1603,#1604)) ;
#1612=EDGE_LOOP('',(#1613,#1614,#1615,#1616,#1617,#1618,#1619,#1620,#1621,#1622,#1623,#1624,#1625,#1626,#1627,#1628)) ;
#1644=EDGE_LOOP('',(#1645,#1646)) ;
#1648=EDGE_LOOP('',(#1649,#1650)) ;
#1652=EDGE_LOOP('',(#1653,#1654)) ;
#1656=EDGE_LOOP('',(#1657,#1658)) ;
#1660=EDGE_LOOP('',(#1661,#1662)) ;
#1664=EDGE_LOOP('',(#1665,#1666)) ;
#1668=EDGE_LOOP('',(#1669,#1670)) ;
#1672=EDGE_LOOP('',(#1673,#1674)) ;
#1676=EDGE_LOOP('',(#1677,#1678)) ;
#1680=EDGE_LOOP('',(#1681,#1682)) ;
#1684=EDGE_LOOP('',(#1685,#1686,#1687,#1688,#1689,#1690,#1691,#1692,#1693,#1694,#1695,#1696)) ;
#1712=EDGE_LOOP('',(#1713,#1714)) ;
#1730=EDGE_LOOP('',(#1731,#1732)) ;
#1748=EDGE_LOOP('',(#1749,#1750)) ;
#1766=EDGE_LOOP('',(#1767,#1768)) ;
#1784=EDGE_LOOP('',(#1785,#1786)) ;
#1802=EDGE_LOOP('',(#1803,#1804)) ;
#1822=EDGE_LOOP('',(#1823,#1824,#1825,#1826)) ;
#1829=EDGE_LOOP('',(#1830,#1831,#1832,#1833)) ;
#1851=EDGE_LOOP('',(#1852,#1853,#1854,#1855)) ;
#1858=EDGE_LOOP('',(#1859,#1860,#1861,#1862)) ;
#1880=EDGE_LOOP('',(#1881,#1882,#1883,#1884)) ;
#1887=EDGE_LOOP('',(#1888,#1889,#1890,#1891)) ;
#1909=EDGE_LOOP('',(#1910,#1911,#1912,#1913)) ;
#1916=EDGE_LOOP('',(#1917,#1918,#1919,#1920)) ;
#1938=EDGE_LOOP('',(#1939,#1940,#1941,#1942)) ;
#1945=EDGE_LOOP('',(#1946,#1947,#1948,#1949)) ;
#1967=EDGE_LOOP('',(#1968,#1969,#1970,#1971)) ;
#1974=EDGE_LOOP('',(#1975,#1976,#1977,#1978)) ;
#1996=EDGE_LOOP('',(#1997,#1998,#1999,#2000)) ;
#2003=EDGE_LOOP('',(#2004,#2005,#2006,#2007)) ;
#21=MANIFOLD_SOLID_BREP('Corps principal',#30) ;
#41=VERTEX_POINT('',#40) ;
#43=VERTEX_POINT('',#42) ;
#50=VERTEX_POINT('',#49) ;
#57=VERTEX_POINT('',#56) ;
#81=VERTEX_POINT('',#80) ;
#83=VERTEX_POINT('',#82) ;
#90=VERTEX_POINT('',#89) ;
#97=VERTEX_POINT('',#96) ;
#104=VERTEX_POINT('',#103) ;
#111=VERTEX_POINT('',#110) ;
#118=VERTEX_POINT('',#117) ;
#125=VERTEX_POINT('',#124) ;
#132=VERTEX_POINT('',#131) ;
#139=VERTEX_POINT('',#138) ;
#146=VERTEX_POINT('',#145) ;
#153=VERTEX_POINT('',#152) ;
#160=VERTEX_POINT('',#159) ;
#167=VERTEX_POINT('',#166) ;
#174=VERTEX_POINT('',#173) ;
#181=VERTEX_POINT('',#180) ;
#211=VERTEX_POINT('',#210) ;
#213=VERTEX_POINT('',#212) ;
#238=VERTEX_POINT('',#237) ;
#240=VERTEX_POINT('',#239) ;
#256=VERTEX_POINT('',#255) ;
#258=VERTEX_POINT('',#257) ;
#274=VERTEX_POINT('',#273) ;
#276=VERTEX_POINT('',#275) ;
#292=VERTEX_POINT('',#291) ;
#294=VERTEX_POINT('',#293) ;
#310=VERTEX_POINT('',#309) ;
#312=VERTEX_POINT('',#311) ;
#328=VERTEX_POINT('',#327) ;
#330=VERTEX_POINT('',#329) ;
#346=VERTEX_POINT('',#345) ;
#348=VERTEX_POINT('',#347) ;
#364=VERTEX_POINT('',#363) ;
#366=VERTEX_POINT('',#365) ;
#382=VERTEX_POINT('',#381) ;
#384=VERTEX_POINT('',#383) ;
#391=VERTEX_POINT('',#390) ;
#398=VERTEX_POINT('',#397) ;
#405=VERTEX_POINT('',#404) ;
#412=VERTEX_POINT('',#411) ;
#419=VERTEX_POINT('',#418) ;
#426=VERTEX_POINT('',#425) ;
#433=VERTEX_POINT('',#432) ;
#440=VERTEX_POINT('',#439) ;
#447=VERTEX_POINT('',#446) ;
#454=VERTEX_POINT('',#453) ;
#480=VERTEX_POINT('',#479) ;
#482=VERTEX_POINT('',#481) ;
#498=VERTEX_POINT('',#497) ;
#500=VERTEX_POINT('',#499) ;
#516=VERTEX_POINT('',#515) ;
#518=VERTEX_POINT('',#517) ;
#534=VERTEX_POINT('',#533) ;
#536=VERTEX_POINT('',#535) ;
#552=VERTEX_POINT('',#551) ;
#554=VERTEX_POINT('',#553) ;
#570=VERTEX_POINT('',#569) ;
#572=VERTEX_POINT('',#571) ;
#606=VERTEX_POINT('',#605) ;
#613=VERTEX_POINT('',#612) ;
#637=VERTEX_POINT('',#636) ;
#661=VERTEX_POINT('',#660) ;
#685=VERTEX_POINT('',#684) ;
#709=VERTEX_POINT('',#708) ;
#733=VERTEX_POINT('',#732) ;
#757=VERTEX_POINT('',#756) ;
#781=VERTEX_POINT('',#780) ;
#805=VERTEX_POINT('',#804) ;
#829=VERTEX_POINT('',#828) ;
#853=VERTEX_POINT('',#852) ;
#877=VERTEX_POINT('',#876) ;
#901=VERTEX_POINT('',#900) ;
#920=VERTEX_POINT('',#919) ;
#944=VERTEX_POINT('',#943) ;
#985=VERTEX_POINT('',#984) ;
#992=VERTEX_POINT('',#991) ;
#1028=VERTEX_POINT('',#1027) ;
#1035=VERTEX_POINT('',#1034) ;
#1059=VERTEX_POINT('',#1058) ;
#1083=VERTEX_POINT('',#1082) ;
#1107=VERTEX_POINT('',#1106) ;
#1131=VERTEX_POINT('',#1130) ;
#1155=VERTEX_POINT('',#1154) ;
#1179=VERTEX_POINT('',#1178) ;
#1203=VERTEX_POINT('',#1202) ;
#1227=VERTEX_POINT('',#1226) ;
#1251=VERTEX_POINT('',#1250) ;
#1275=VERTEX_POINT('',#1274) ;
#1316=VERTEX_POINT('',#1315) ;
#1323=VERTEX_POINT('',#1322) ;
#1359=VERTEX_POINT('',#1358) ;
#1366=VERTEX_POINT('',#1365) ;
#1402=VERTEX_POINT('',#1401) ;
#1409=VERTEX_POINT('',#1408) ;
#1445=VERTEX_POINT('',#1444) ;
#1452=VERTEX_POINT('',#1451) ;
#1488=VERTEX_POINT('',#1487) ;
#1495=VERTEX_POINT('',#1494) ;
#1531=VERTEX_POINT('',#1530) ;
#1538=VERTEX_POINT('',#1537) ;
#1574=VERTEX_POINT('',#1573) ;
#1581=VERTEX_POINT('',#1580) ;
#1635=VERTEX_POINT('',#1634) ;
#1637=VERTEX_POINT('',#1636) ;
#1703=VERTEX_POINT('',#1702) ;
#1705=VERTEX_POINT('',#1704) ;
#1721=VERTEX_POINT('',#1720) ;
#1723=VERTEX_POINT('',#1722) ;
#1739=VERTEX_POINT('',#1738) ;
#1741=VERTEX_POINT('',#1740) ;
#1757=VERTEX_POINT('',#1756) ;
#1759=VERTEX_POINT('',#1758) ;
#1775=VERTEX_POINT('',#1774) ;
#1777=VERTEX_POINT('',#1776) ;
#1793=VERTEX_POINT('',#1792) ;
#1795=VERTEX_POINT('',#1794) ;
#2010=ADVANCED_BREP_SHAPE_REPRESENTATION('NONE',(#21),#16) ;
#70=ADVANCED_FACE('Corps principal',(#69),#35,.F.) ;
#583=ADVANCED_FACE('Corps principal',(#205,#223,#232,#250,#268,#286,#304,#322,#340,#358,#376,#474,#492,#510,#528,#546,#564,#582),#75,.T.) ;
#595=ADVANCED_FACE('Corps principal',(#594),#35,.F.) ;
#626=ADVANCED_FACE('Corps principal',(#625),#600,.T.) ;
#650=ADVANCED_FACE('Corps principal',(#649),#631,.F.) ;
#674=ADVANCED_FACE('Corps principal',(#673),#655,.T.) ;
#698=ADVANCED_FACE('Corps principal',(#697),#679,.F.) ;
#722=ADVANCED_FACE('Corps principal',(#721),#703,.T.) ;
#746=ADVANCED_FACE('Corps principal',(#745),#727,.T.) ;
#770=ADVANCED_FACE('Corps principal',(#769),#751,.T.) ;
#794=ADVANCED_FACE('Corps principal',(#793),#775,.T.) ;
#818=ADVANCED_FACE('Corps principal',(#817),#799,.F.) ;
#842=ADVANCED_FACE('Corps principal',(#841),#823,.F.) ;
#866=ADVANCED_FACE('Corps principal',(#865),#847,.F.) ;
#890=ADVANCED_FACE('Corps principal',(#889),#871,.F.) ;
#914=ADVANCED_FACE('Corps principal',(#913),#895,.T.) ;
#933=ADVANCED_FACE('Corps principal',(#932),#727,.T.) ;
#957=ADVANCED_FACE('Corps principal',(#956),#938,.T.) ;
#974=ADVANCED_FACE('Corps principal',(#973),#962,.F.) ;
#1005=ADVANCED_FACE('Corps principal',(#1004),#979,.F.) ;
#1017=ADVANCED_FACE('Corps principal',(#1016),#979,.F.) ;
#1048=ADVANCED_FACE('Corps principal',(#1047),#1022,.F.) ;
#1072=ADVANCED_FACE('Corps principal',(#1071),#1053,.T.) ;
#1096=ADVANCED_FACE('Corps principal',(#1095),#1077,.F.) ;
#1120=ADVANCED_FACE('Corps principal',(#1119),#1101,.T.) ;
#1144=ADVANCED_FACE('Corps principal',(#1143),#1125,.F.) ;
#1168=ADVANCED_FACE('Corps principal',(#1167),#1149,.T.) ;
#1192=ADVANCED_FACE('Corps principal',(#1191),#1173,.F.) ;
#1216=ADVANCED_FACE('Corps principal',(#1215),#1197,.T.) ;
#1240=ADVANCED_FACE('Corps principal',(#1239),#1221,.F.) ;
#1264=ADVANCED_FACE('Corps principal',(#1263),#1245,.T.) ;
#1288=ADVANCED_FACE('Corps principal',(#1287),#1269,.F.) ;
#1305=ADVANCED_FACE('Corps principal',(#1304),#1293,.T.) ;
#1336=ADVANCED_FACE('Corps principal',(#1335),#1310,.F.) ;
#1348=ADVANCED_FACE('Corps principal',(#1347),#1310,.F.) ;
#1379=ADVANCED_FACE('Corps principal',(#1378),#1353,.F.) ;
#1391=ADVANCED_FACE('Corps principal',(#1390),#1353,.F.) ;
#1422=ADVANCED_FACE('Corps principal',(#1421),#1396,.F.) ;
#1434=ADVANCED_FACE('Corps principal',(#1433),#1396,.F.) ;
#1465=ADVANCED_FACE('Corps principal',(#1464),#1439,.F.) ;
#1477=ADVANCED_FACE('Corps principal',(#1476),#1439,.F.) ;
#1508=ADVANCED_FACE('Corps principal',(#1507),#1482,.F.) ;
#1520=ADVANCED_FACE('Corps principal',(#1519),#1482,.F.) ;
#1551=ADVANCED_FACE('Corps principal',(#1550),#1525,.F.) ;
#1563=ADVANCED_FACE('Corps principal',(#1562),#1525,.F.) ;
#1594=ADVANCED_FACE('Corps principal',(#1593),#1568,.F.) ;
#1606=ADVANCED_FACE('Corps principal',(#1605),#1568,.F.) ;
#1806=ADVANCED_FACE('Corps principal',(#1629,#1647,#1651,#1655,#1659,#1663,#1667,#1671,#1675,#1679,#1683,#1697,#1715,#1733,#1751,#1769,#1787,#1805),#1611,.F.) ;
#1828=ADVANCED_FACE('Corps principal',(#1827),#1811,.F.) ;
#1835=ADVANCED_FACE('Corps principal',(#1834),#1811,.F.) ;
#1857=ADVANCED_FACE('Corps principal',(#1856),#1840,.F.) ;
#1864=ADVANCED_FACE('Corps principal',(#1863),#1840,.F.) ;
#1886=ADVANCED_FACE('Corps principal',(#1885),#1869,.F.) ;
#1893=ADVANCED_FACE('Corps principal',(#1892),#1869,.F.) ;
#1915=ADVANCED_FACE('Corps principal',(#1914),#1898,.F.) ;
#1922=ADVANCED_FACE('Corps principal',(#1921),#1898,.F.) ;
#1944=ADVANCED_FACE('Corps principal',(#1943),#1927,.F.) ;
#1951=ADVANCED_FACE('Corps principal',(#1950),#1927,.F.) ;
#1973=ADVANCED_FACE('Corps principal',(#1972),#1956,.F.) ;
#1980=ADVANCED_FACE('Corps principal',(#1979),#1956,.F.) ;
#2002=ADVANCED_FACE('Corps principal',(#2001),#1985,.F.) ;
#2009=ADVANCED_FACE('Corps principal',(#2008),#1985,.F.) ;
#4=APPLICATION_PROTOCOL_DEFINITION('international standard','ap242_managed_model_based_3d_engineering',2014,#1) ;
#22=COLOUR_RGB('Colour',0.823529411765,0.823529411765,1.) ;
#69=FACE_OUTER_BOUND('',#64,.T.) ;
#205=FACE_OUTER_BOUND('',#188,.T.) ;
#594=FACE_OUTER_BOUND('',#589,.T.) ;
#625=FACE_OUTER_BOUND('',#620,.T.) ;
#649=FACE_OUTER_BOUND('',#644,.T.) ;
#673=FACE_OUTER_BOUND('',#668,.T.) ;
#697=FACE_OUTER_BOUND('',#692,.T.) ;
#721=FACE_OUTER_BOUND('',#716,.T.) ;
#745=FACE_OUTER_BOUND('',#740,.T.) ;
#769=FACE_OUTER_BOUND('',#764,.T.) ;
#793=FACE_OUTER_BOUND('',#788,.T.) ;
#817=FACE_OUTER_BOUND('',#812,.T.) ;
#841=FACE_OUTER_BOUND('',#836,.T.) ;
#865=FACE_OUTER_BOUND('',#860,.T.) ;
#889=FACE_OUTER_BOUND('',#884,.T.) ;
#913=FACE_OUTER_BOUND('',#908,.T.) ;
#932=FACE_OUTER_BOUND('',#927,.T.) ;
#956=FACE_OUTER_BOUND('',#951,.T.) ;
#973=FACE_OUTER_BOUND('',#968,.T.) ;
#1004=FACE_OUTER_BOUND('',#999,.T.) ;
#1016=FACE_OUTER_BOUND('',#1011,.T.) ;
#1047=FACE_OUTER_BOUND('',#1042,.T.) ;
#1071=FACE_OUTER_BOUND('',#1066,.T.) ;
#1095=FACE_OUTER_BOUND('',#1090,.T.) ;
#1119=FACE_OUTER_BOUND('',#1114,.T.) ;
#1143=FACE_OUTER_BOUND('',#1138,.T.) ;
#1167=FACE_OUTER_BOUND('',#1162,.T.) ;
#1191=FACE_OUTER_BOUND('',#1186,.T.) ;
#1215=FACE_OUTER_BOUND('',#1210,.T.) ;
#1239=FACE_OUTER_BOUND('',#1234,.T.) ;
#1263=FACE_OUTER_BOUND('',#1258,.T.) ;
#1287=FACE_OUTER_BOUND('',#1282,.T.) ;
#1304=FACE_OUTER_BOUND('',#1299,.T.) ;
#1335=FACE_OUTER_BOUND('',#1330,.T.) ;
#1347=FACE_OUTER_BOUND('',#1342,.T.) ;
#1378=FACE_OUTER_BOUND('',#1373,.T.) ;
#1390=FACE_OUTER_BOUND('',#1385,.T.) ;
#1421=FACE_OUTER_BOUND('',#1416,.T.) ;
#1433=FACE_OUTER_BOUND('',#1428,.T.) ;
#1464=FACE_OUTER_BOUND('',#1459,.T.) ;
#1476=FACE_OUTER_BOUND('',#1471,.T.) ;
#1507=FACE_OUTER_BOUND('',#1502,.T.) ;
#1519=FACE_OUTER_BOUND('',#1514,.T.) ;
#1550=FACE_OUTER_BOUND('',#1545,.T.) ;
#1562=FACE_OUTER_BOUND('',#1557,.T.) ;
#1593=FACE_OUTER_BOUND('',#1588,.T.) ;
#1605=FACE_OUTER_BOUND('',#1600,.T.) ;
#1629=FACE_OUTER_BOUND('',#1612,.T.) ;
#1827=FACE_OUTER_BOUND('',#1822,.T.) ;
#1834=FACE_OUTER_BOUND('',#1829,.T.) ;
#1856=FACE_OUTER_BOUND('',#1851,.T.) ;
#1863=FACE_OUTER_BOUND('',#1858,.T.) ;
#1885=FACE_OUTER_BOUND('',#1880,.T.) ;
#1892=FACE_OUTER_BOUND('',#1887,.T.) ;
#1914=FACE_OUTER_BOUND('',#1909,.T.) ;
#1921=FACE_OUTER_BOUND('',#1916,.T.) ;
#1943=FACE_OUTER_BOUND('',#1938,.T.) ;
#1950=FACE_OUTER_BOUND('',#1945,.T.) ;
#1972=FACE_OUTER_BOUND('',#1967,.T.) ;
#1979=FACE_OUTER_BOUND('',#1974,.T.) ;
#2001=FACE_OUTER_BOUND('',#1996,.T.) ;
#2008=FACE_OUTER_BOUND('',#2003,.T.) ;
#9=PRODUCT_CATEGORY_RELATIONSHIP(' ',' ',#7,#8) ;
#6=PRODUCT_DEFINITION_FORMATION_WITH_SPECIFIED_SOURCE('',' ',#5,.NOT_KNOWN.) ;
#20=SHAPE_DEFINITION_REPRESENTATION(#11,#19) ;
#12=(LENGTH_UNIT()NAMED_UNIT(*)SI_UNIT(.MILLI.,.METRE.)) ;
#13=(NAMED_UNIT(*)PLANE_ANGLE_UNIT()SI_UNIT($,.RADIAN.)) ;
#14=(NAMED_UNIT(*)SI_UNIT($,.STERADIAN.)SOLID_ANGLE_UNIT()) ;
#16=(GEOMETRIC_REPRESENTATION_CONTEXT(3)GLOBAL_UNCERTAINTY_ASSIGNED_CONTEXT((#15))GLOBAL_UNIT_ASSIGNED_CONTEXT((#12,#13,#14))REPRESENTATION_CONTEXT(' ',' ')) ;
ENDSEC;
END-ISO-10303-21;
