ISO-10303-21;
HEADER;
FILE_DESCRIPTION(('CATIA V5 STEP Exchange','CAx-IF Rec.Pracs.--- Model Styling and Organization---1.5--- 2016-08-15','CAx-IF Rec.Pracs.---Supplemental Geometry---1.0---2011-11-01','CAx-IF Rec.Pracs.--- Composite Materials ---3.4---2017-06-13','CAx-IF Rec.Pracs.---Tessellated 3D Geometry---1.0---2015-12-17'),'2;1');

FILE_NAME('U:\\fipatech\\exports\\envoi toliroise\\support_m_v.stp','2025-04-05T09:58:37+00:00',('none'),('none'),'CATIA Version 5-6 Release 2020 SP6','CATIA V5 STEP AP242 v2','none');

FILE_SCHEMA(('AP242_MANAGED_MODEL_BASED_3D_ENGINEERING_MIM_LF  {1 0 10303 442 1 1 4}'));

ENDSEC;
DATA;
#5=PRODUCT('support_m_v','','',(#2)) ;
#2=PRODUCT_CONTEXT(' ',#1,'mechanical') ;
#1=APPLICATION_CONTEXT('managed model based 3d engineering') ;
#10=PRODUCT_DEFINITION('',' ',#6,#3) ;
#3=PRODUCT_DEFINITION_CONTEXT('part definition',#1,' ') ;
#11=PRODUCT_DEFINITION_SHAPE(' ',' ',#10) ;
#1289=MECHANICAL_DESIGN_GEOMETRIC_PRESENTATION_REPRESENTATION(' ',(#29),#16) ;
#7=PRODUCT_CATEGORY('part','specification') ;
#19=SHAPE_REPRESENTATION(' ',(#18),#16) ;
#17=CARTESIAN_POINT(' ',(0.,0.,0.)) ;
#31=CARTESIAN_POINT('Axis2P3D Location',(15.5,35.75,-1.5)) ;
#36=CARTESIAN_POINT('Axis2P3D Location',(15.5,35.75,-1.5)) ;
#40=CARTESIAN_POINT('Vertex',(17.05,35.75,-1.5)) ;
#42=CARTESIAN_POINT('Vertex',(13.95,35.75,-1.5)) ;
#45=CARTESIAN_POINT('Line Origine',(17.05,35.75,0.)) ;
#49=CARTESIAN_POINT('Vertex',(17.05,35.75,1.5)) ;
#52=CARTESIAN_POINT('Axis2P3D Location',(15.5,35.75,1.5)) ;
#56=CARTESIAN_POINT('Vertex',(13.95,35.75,1.5)) ;
#59=CARTESIAN_POINT('Line Origine',(13.95,35.75,0.)) ;
#71=CARTESIAN_POINT('Axis2P3D Location',(0.,0.,-1.5)) ;
#77=CARTESIAN_POINT('Control Point',(-28.5,7.5,-1.5)) ;
#78=CARTESIAN_POINT('Control Point',(-30.0707963268,7.5,-1.5)) ;
#79=CARTESIAN_POINT('Control Point',(-31.6430582168,6.88492497977,-1.5)) ;
#80=CARTESIAN_POINT('Control Point',(-32.8849249798,5.64305821681,-1.5)) ;
#81=CARTESIAN_POINT('Control Point',(-33.5,4.07079632679,-1.5)) ;
#82=CARTESIAN_POINT('Control Point',(-33.5,2.5,-1.5)) ;
#83=CARTESIAN_POINT('Vertex',(-28.5,7.5,-1.5)) ;
#85=CARTESIAN_POINT('Vertex',(-33.5,2.5,-1.5)) ;
#88=CARTESIAN_POINT('Line Origine',(0.,7.5,-1.5)) ;
#92=CARTESIAN_POINT('Vertex',(-26.25,7.5,-1.5)) ;
#96=CARTESIAN_POINT('Control Point',(-26.25,7.5,-1.5)) ;
#97=CARTESIAN_POINT('Control Point',(-24.6792036732,7.5,-1.5)) ;
#98=CARTESIAN_POINT('Control Point',(-23.1069417832,8.11507502023,-1.5)) ;
#99=CARTESIAN_POINT('Control Point',(-21.8650750202,9.35694178319,-1.5)) ;
#100=CARTESIAN_POINT('Control Point',(-21.25,10.9292036732,-1.5)) ;
#101=CARTESIAN_POINT('Control Point',(-21.25,12.5,-1.5)) ;
#102=CARTESIAN_POINT('Vertex',(-21.25,12.5,-1.5)) ;
#105=CARTESIAN_POINT('Line Origine',(-21.25,17.,-1.5)) ;
#109=CARTESIAN_POINT('Vertex',(-21.25,36.5,-1.5)) ;
#113=CARTESIAN_POINT('Control Point',(-16.25,41.5,-1.5)) ;
#114=CARTESIAN_POINT('Control Point',(-17.8207963268,41.5,-1.5)) ;
#115=CARTESIAN_POINT('Control Point',(-19.3930582168,40.8849249798,-1.5)) ;
#116=CARTESIAN_POINT('Control Point',(-20.6349249798,39.6430582168,-1.5)) ;
#117=CARTESIAN_POINT('Control Point',(-21.25,38.0707963268,-1.5)) ;
#118=CARTESIAN_POINT('Control Point',(-21.25,36.5,-1.5)) ;
#119=CARTESIAN_POINT('Vertex',(-16.25,41.5,-1.5)) ;
#122=CARTESIAN_POINT('Line Origine',(0.,41.5,-1.5)) ;
#126=CARTESIAN_POINT('Vertex',(16.25,41.5,-1.5)) ;
#130=CARTESIAN_POINT('Control Point',(21.25,36.5,-1.5)) ;
#131=CARTESIAN_POINT('Control Point',(21.25,38.0707963268,-1.5)) ;
#132=CARTESIAN_POINT('Control Point',(20.6349249798,39.6430582168,-1.5)) ;
#133=CARTESIAN_POINT('Control Point',(19.3930582168,40.8849249798,-1.5)) ;
#134=CARTESIAN_POINT('Control Point',(17.8207963268,41.5,-1.5)) ;
#135=CARTESIAN_POINT('Control Point',(16.25,41.5,-1.5)) ;
#136=CARTESIAN_POINT('Vertex',(21.25,36.5,-1.5)) ;
#139=CARTESIAN_POINT('Line Origine',(21.25,17.,-1.5)) ;
#143=CARTESIAN_POINT('Vertex',(21.25,12.5,-1.5)) ;
#147=CARTESIAN_POINT('Control Point',(21.25,12.5,-1.5)) ;
#148=CARTESIAN_POINT('Control Point',(21.25,10.9292036732,-1.5)) ;
#149=CARTESIAN_POINT('Control Point',(21.8650750202,9.35694178319,-1.5)) ;
#150=CARTESIAN_POINT('Control Point',(23.1069417832,8.11507502023,-1.5)) ;
#151=CARTESIAN_POINT('Control Point',(24.6792036732,7.5,-1.5)) ;
#152=CARTESIAN_POINT('Control Point',(26.25,7.5,-1.5)) ;
#153=CARTESIAN_POINT('Vertex',(26.25,7.5,-1.5)) ;
#156=CARTESIAN_POINT('Line Origine',(0.,7.5,-1.5)) ;
#160=CARTESIAN_POINT('Vertex',(28.5,7.5,-1.5)) ;
#164=CARTESIAN_POINT('Control Point',(33.5,2.5,-1.5)) ;
#165=CARTESIAN_POINT('Control Point',(33.5,4.07079632679,-1.5)) ;
#166=CARTESIAN_POINT('Control Point',(32.8849249798,5.64305821681,-1.5)) ;
#167=CARTESIAN_POINT('Control Point',(31.6430582168,6.88492497977,-1.5)) ;
#168=CARTESIAN_POINT('Control Point',(30.0707963268,7.5,-1.5)) ;
#169=CARTESIAN_POINT('Control Point',(28.5,7.5,-1.5)) ;
#170=CARTESIAN_POINT('Vertex',(33.5,2.5,-1.5)) ;
#173=CARTESIAN_POINT('Line Origine',(33.5,17.,-1.5)) ;
#177=CARTESIAN_POINT('Vertex',(33.5,-2.5,-1.5)) ;
#181=CARTESIAN_POINT('Control Point',(28.5,-7.5,-1.5)) ;
#182=CARTESIAN_POINT('Control Point',(30.0707963268,-7.5,-1.5)) ;
#183=CARTESIAN_POINT('Control Point',(31.6430582168,-6.88492497977,-1.5)) ;
#184=CARTESIAN_POINT('Control Point',(32.8849249798,-5.64305821681,-1.5)) ;
#185=CARTESIAN_POINT('Control Point',(33.5,-4.07079632679,-1.5)) ;
#186=CARTESIAN_POINT('Control Point',(33.5,-2.5,-1.5)) ;
#187=CARTESIAN_POINT('Vertex',(28.5,-7.5,-1.5)) ;
#190=CARTESIAN_POINT('Line Origine',(0.,-7.5,-1.5)) ;
#194=CARTESIAN_POINT('Vertex',(-28.5,-7.5,-1.5)) ;
#198=CARTESIAN_POINT('Control Point',(-33.5,-2.5,-1.5)) ;
#199=CARTESIAN_POINT('Control Point',(-33.5,-4.07079632679,-1.5)) ;
#200=CARTESIAN_POINT('Control Point',(-32.8849249798,-5.64305821681,-1.5)) ;
#201=CARTESIAN_POINT('Control Point',(-31.6430582168,-6.88492497977,-1.5)) ;
#202=CARTESIAN_POINT('Control Point',(-30.0707963268,-7.5,-1.5)) ;
#203=CARTESIAN_POINT('Control Point',(-28.5,-7.5,-1.5)) ;
#204=CARTESIAN_POINT('Vertex',(-33.5,-2.5,-1.5)) ;
#207=CARTESIAN_POINT('Line Origine',(-33.5,17.,-1.5)) ;
#231=CARTESIAN_POINT('Control Point',(-23.9,-2.88657986403E-15,-1.5)) ;
#232=CARTESIAN_POINT('Control Point',(-23.9,0.816814089933,-1.5)) ;
#233=CARTESIAN_POINT('Control Point',(-24.220762143,1.63362817987,-1.5)) ;
#234=CARTESIAN_POINT('Control Point',(-24.8663718201,2.27923785696,-1.5)) ;
#235=CARTESIAN_POINT('Control Point',(-26.5,2.92076214304,-1.5)) ;
#236=CARTESIAN_POINT('Control Point',(-28.1336281799,2.27923785696,-1.5)) ;
#237=CARTESIAN_POINT('Control Point',(-28.779237857,1.63362817987,-1.5)) ;
#238=CARTESIAN_POINT('Control Point',(-29.1,0.816814089933,-1.5)) ;
#239=CARTESIAN_POINT('Control Point',(-29.1,6.66133814775E-16,-1.5)) ;
#240=CARTESIAN_POINT('Vertex',(-23.9,-6.36816335557E-16,-1.5)) ;
#242=CARTESIAN_POINT('Vertex',(-29.1,3.18408167778E-16,-1.5)) ;
#246=CARTESIAN_POINT('Control Point',(-29.1,1.33226762955E-15,-1.5)) ;
#247=CARTESIAN_POINT('Control Point',(-29.1,-0.816814089933,-1.5)) ;
#248=CARTESIAN_POINT('Control Point',(-28.779237857,-1.63362817987,-1.5)) ;
#249=CARTESIAN_POINT('Control Point',(-28.1336281799,-2.27923785696,-1.5)) ;
#250=CARTESIAN_POINT('Control Point',(-26.5,-2.92076214304,-1.5)) ;
#251=CARTESIAN_POINT('Control Point',(-24.8663718201,-2.27923785696,-1.5)) ;
#252=CARTESIAN_POINT('Control Point',(-24.220762143,-1.63362817987,-1.5)) ;
#253=CARTESIAN_POINT('Control Point',(-23.9,-0.816814089933,-1.5)) ;
#254=CARTESIAN_POINT('Control Point',(-23.9,-3.18329402808E-15,-1.5)) ;
#261=CARTESIAN_POINT('Control Point',(23.9,1.33226762955E-15,-1.5)) ;
#262=CARTESIAN_POINT('Control Point',(23.9,-0.816814089933,-1.5)) ;
#263=CARTESIAN_POINT('Control Point',(24.220762143,-1.63362817987,-1.5)) ;
#264=CARTESIAN_POINT('Control Point',(24.8663718201,-2.27923785696,-1.5)) ;
#265=CARTESIAN_POINT('Control Point',(26.5,-2.92076214304,-1.5)) ;
#266=CARTESIAN_POINT('Control Point',(28.1336281799,-2.27923785696,-1.5)) ;
#267=CARTESIAN_POINT('Control Point',(28.779237857,-1.63362817987,-1.5)) ;
#268=CARTESIAN_POINT('Control Point',(29.1,-0.816814089933,-1.5)) ;
#269=CARTESIAN_POINT('Control Point',(29.1,-3.18329402808E-15,-1.5)) ;
#270=CARTESIAN_POINT('Vertex',(23.9,3.18408167778E-16,-1.5)) ;
#272=CARTESIAN_POINT('Vertex',(29.1,0.,-1.5)) ;
#276=CARTESIAN_POINT('Control Point',(29.1,0.,-1.5)) ;
#277=CARTESIAN_POINT('Control Point',(29.1,0.816814089933,-1.5)) ;
#278=CARTESIAN_POINT('Control Point',(28.779237857,1.63362817987,-1.5)) ;
#279=CARTESIAN_POINT('Control Point',(28.1336281799,2.27923785696,-1.5)) ;
#280=CARTESIAN_POINT('Control Point',(26.5,2.92076214304,-1.5)) ;
#281=CARTESIAN_POINT('Control Point',(24.8663718201,2.27923785696,-1.5)) ;
#282=CARTESIAN_POINT('Control Point',(24.220762143,1.63362817987,-1.5)) ;
#283=CARTESIAN_POINT('Control Point',(23.9,0.816814089933,-1.5)) ;
#284=CARTESIAN_POINT('Control Point',(23.9,1.59164701404E-15,-1.5)) ;
#291=CARTESIAN_POINT('Control Point',(-12.,20.25,-1.5)) ;
#292=CARTESIAN_POINT('Control Point',(-12.,18.3650444078,-1.5)) ;
#293=CARTESIAN_POINT('Control Point',(-11.629889835,16.4800888157,-1.5)) ;
#294=CARTESIAN_POINT('Control Point',(-10.8893037296,14.6921557961,-1.5)) ;
#295=CARTESIAN_POINT('Control Point',(-8.74698878173,11.5030112183,-1.5)) ;
#296=CARTESIAN_POINT('Control Point',(-5.55784420386,9.36069627035,-1.5)) ;
#297=CARTESIAN_POINT('Control Point',(-3.76991118431,8.62011016504,-1.5)) ;
#298=CARTESIAN_POINT('Control Point',(-2.04116987382E-14,7.87988983496,-1.5)) ;
#299=CARTESIAN_POINT('Control Point',(3.76991118431,8.62011016504,-1.5)) ;
#300=CARTESIAN_POINT('Control Point',(5.55784420386,9.36069627035,-1.5)) ;
#301=CARTESIAN_POINT('Control Point',(8.74698878173,11.5030112183,-1.5)) ;
#302=CARTESIAN_POINT('Control Point',(10.8893037296,14.6921557961,-1.5)) ;
#303=CARTESIAN_POINT('Control Point',(11.629889835,16.4800888157,-1.5)) ;
#304=CARTESIAN_POINT('Control Point',(12.,18.3650444078,-1.5)) ;
#305=CARTESIAN_POINT('Control Point',(12.,20.25,-1.5)) ;
#306=CARTESIAN_POINT('Vertex',(-12.,20.25,-1.5)) ;
#308=CARTESIAN_POINT('Vertex',(12.,20.25,-1.5)) ;
#312=CARTESIAN_POINT('Control Point',(12.,20.25,-1.5)) ;
#313=CARTESIAN_POINT('Control Point',(12.,22.1349555922,-1.5)) ;
#314=CARTESIAN_POINT('Control Point',(11.629889835,24.0199111843,-1.5)) ;
#315=CARTESIAN_POINT('Control Point',(10.8893037296,25.8078442039,-1.5)) ;
#316=CARTESIAN_POINT('Control Point',(8.74698878173,28.9969887817,-1.5)) ;
#317=CARTESIAN_POINT('Control Point',(5.55784420386,31.1393037296,-1.5)) ;
#318=CARTESIAN_POINT('Control Point',(3.76991118431,31.879889835,-1.5)) ;
#319=CARTESIAN_POINT('Control Point',(3.4019497897E-15,32.620110165,-1.5)) ;
#320=CARTESIAN_POINT('Control Point',(-3.76991118431,31.879889835,-1.5)) ;
#321=CARTESIAN_POINT('Control Point',(-5.55784420386,31.1393037296,-1.5)) ;
#322=CARTESIAN_POINT('Control Point',(-8.74698878173,28.9969887817,-1.5)) ;
#323=CARTESIAN_POINT('Control Point',(-10.8893037296,25.8078442039,-1.5)) ;
#324=CARTESIAN_POINT('Control Point',(-11.629889835,24.0199111843,-1.5)) ;
#325=CARTESIAN_POINT('Control Point',(-12.,22.1349555922,-1.5)) ;
#326=CARTESIAN_POINT('Control Point',(-12.,20.25,-1.5)) ;
#333=CARTESIAN_POINT('Control Point',(13.9500000256,4.74971850224,-1.5)) ;
#334=CARTESIAN_POINT('Control Point',(13.9500884607,4.26277164897,-1.5)) ;
#335=CARTESIAN_POINT('Control Point',(14.1414004779,3.77585952408,-1.5)) ;
#336=CARTESIAN_POINT('Control Point',(14.5263530628,3.39104673742,-1.5)) ;
#337=CARTESIAN_POINT('Control Point',(15.5003162262,3.00877644344,-1.5)) ;
#338=CARTESIAN_POINT('Control Point',(16.4741404759,3.39140047794,-1.5)) ;
#339=CARTESIAN_POINT('Control Point',(16.8589532626,3.77635306281,-1.5)) ;
#340=CARTESIAN_POINT('Control Point',(17.0500884096,4.26333464448,-1.5)) ;
#341=CARTESIAN_POINT('Control Point',(17.0499999744,4.75028149776,-1.5)) ;
#342=CARTESIAN_POINT('Vertex',(13.9500000256,4.74971850224,-1.5)) ;
#344=CARTESIAN_POINT('Vertex',(17.0499999744,4.75028149776,-1.5)) ;
#348=CARTESIAN_POINT('Control Point',(17.0499999744,4.75028149776,-1.5)) ;
#349=CARTESIAN_POINT('Control Point',(17.0499115393,5.23722835103,-1.5)) ;
#350=CARTESIAN_POINT('Control Point',(16.8585995221,5.72414047592,-1.5)) ;
#351=CARTESIAN_POINT('Control Point',(16.4736469372,6.10895326258,-1.5)) ;
#352=CARTESIAN_POINT('Control Point',(15.4996837738,6.49122355656,-1.5)) ;
#353=CARTESIAN_POINT('Control Point',(14.5258595241,6.10859952206,-1.5)) ;
#354=CARTESIAN_POINT('Control Point',(14.1410467374,5.72364693719,-1.5)) ;
#355=CARTESIAN_POINT('Control Point',(13.9499115904,5.23666535552,-1.5)) ;
#356=CARTESIAN_POINT('Control Point',(13.9500000256,4.74971850224,-1.5)) ;
#363=CARTESIAN_POINT('Control Point',(-17.05,4.75,-1.5)) ;
#364=CARTESIAN_POINT('Control Point',(-17.05,4.26305313869,-1.5)) ;
#365=CARTESIAN_POINT('Control Point',(-16.8587764147,3.77610627739,-1.5)) ;
#366=CARTESIAN_POINT('Control Point',(-16.4738937226,3.39122358527,-1.5)) ;
#367=CARTESIAN_POINT('Control Point',(-15.5,3.00877641473,-1.5)) ;
#368=CARTESIAN_POINT('Control Point',(-14.5261062774,3.39122358527,-1.5)) ;
#369=CARTESIAN_POINT('Control Point',(-14.1412235853,3.77610627739,-1.5)) ;
#370=CARTESIAN_POINT('Control Point',(-13.95,4.26305313869,-1.5)) ;
#371=CARTESIAN_POINT('Control Point',(-13.95,4.75,-1.5)) ;
#372=CARTESIAN_POINT('Vertex',(-17.05,4.75,-1.5)) ;
#374=CARTESIAN_POINT('Vertex',(-13.95,4.75,-1.5)) ;
#378=CARTESIAN_POINT('Control Point',(-13.95,4.75,-1.5)) ;
#379=CARTESIAN_POINT('Control Point',(-13.95,5.23694686131,-1.5)) ;
#380=CARTESIAN_POINT('Control Point',(-14.1412235853,5.72389372261,-1.5)) ;
#381=CARTESIAN_POINT('Control Point',(-14.5261062774,6.10877641473,-1.5)) ;
#382=CARTESIAN_POINT('Control Point',(-15.5,6.49122358527,-1.5)) ;
#383=CARTESIAN_POINT('Control Point',(-16.4738937226,6.10877641473,-1.5)) ;
#384=CARTESIAN_POINT('Control Point',(-16.8587764147,5.72389372261,-1.5)) ;
#385=CARTESIAN_POINT('Control Point',(-17.05,5.23694686131,-1.5)) ;
#386=CARTESIAN_POINT('Control Point',(-17.05,4.75,-1.5)) ;
#393=CARTESIAN_POINT('Control Point',(-17.05,35.75,-1.5)) ;
#394=CARTESIAN_POINT('Control Point',(-17.05,35.2630531387,-1.5)) ;
#395=CARTESIAN_POINT('Control Point',(-16.8587764147,34.7761062774,-1.5)) ;
#396=CARTESIAN_POINT('Control Point',(-16.4738937226,34.3912235853,-1.5)) ;
#397=CARTESIAN_POINT('Control Point',(-15.5,34.0087764147,-1.5)) ;
#398=CARTESIAN_POINT('Control Point',(-14.5261062774,34.3912235853,-1.5)) ;
#399=CARTESIAN_POINT('Control Point',(-14.1412235853,34.7761062774,-1.5)) ;
#400=CARTESIAN_POINT('Control Point',(-13.95,35.2630531387,-1.5)) ;
#401=CARTESIAN_POINT('Control Point',(-13.95,35.75,-1.5)) ;
#402=CARTESIAN_POINT('Vertex',(-17.05,35.75,-1.5)) ;
#404=CARTESIAN_POINT('Vertex',(-13.95,35.75,-1.5)) ;
#408=CARTESIAN_POINT('Control Point',(-13.95,35.75,-1.5)) ;
#409=CARTESIAN_POINT('Control Point',(-13.95,36.2369468613,-1.5)) ;
#410=CARTESIAN_POINT('Control Point',(-14.1412235853,36.7238937226,-1.5)) ;
#411=CARTESIAN_POINT('Control Point',(-14.5261062774,37.1087764147,-1.5)) ;
#412=CARTESIAN_POINT('Control Point',(-15.5,37.4912235853,-1.5)) ;
#413=CARTESIAN_POINT('Control Point',(-16.4738937226,37.1087764147,-1.5)) ;
#414=CARTESIAN_POINT('Control Point',(-16.8587764147,36.7238937226,-1.5)) ;
#415=CARTESIAN_POINT('Control Point',(-17.05,36.2369468613,-1.5)) ;
#416=CARTESIAN_POINT('Control Point',(-17.05,35.75,-1.5)) ;
#423=CARTESIAN_POINT('Control Point',(13.95,35.75,-1.5)) ;
#424=CARTESIAN_POINT('Control Point',(13.95,35.2630531387,-1.5)) ;
#425=CARTESIAN_POINT('Control Point',(14.1412235853,34.7761062774,-1.5)) ;
#426=CARTESIAN_POINT('Control Point',(14.5261062774,34.3912235853,-1.5)) ;
#427=CARTESIAN_POINT('Control Point',(15.5,34.0087764147,-1.5)) ;
#428=CARTESIAN_POINT('Control Point',(16.4738937226,34.3912235853,-1.5)) ;
#429=CARTESIAN_POINT('Control Point',(16.8587764147,34.7761062774,-1.5)) ;
#430=CARTESIAN_POINT('Control Point',(17.05,35.2630531387,-1.5)) ;
#431=CARTESIAN_POINT('Control Point',(17.05,35.75,-1.5)) ;
#438=CARTESIAN_POINT('Axis2P3D Location',(15.5,35.75,-1.5)) ;
#443=CARTESIAN_POINT('Axis2P3D Location',(15.5,35.75,1.5)) ;
#455=CARTESIAN_POINT('Axis2P3D Location',(0.,0.,1.5)) ;
#460=CARTESIAN_POINT('Line Origine',(-33.5,17.,1.5)) ;
#464=CARTESIAN_POINT('Vertex',(-33.5,-2.5,1.5)) ;
#466=CARTESIAN_POINT('Vertex',(-33.5,2.5,1.5)) ;
#470=CARTESIAN_POINT('Control Point',(-33.5,-2.5,1.5)) ;
#471=CARTESIAN_POINT('Control Point',(-33.5,-4.07079632679,1.5)) ;
#472=CARTESIAN_POINT('Control Point',(-32.8849249798,-5.64305821681,1.5)) ;
#473=CARTESIAN_POINT('Control Point',(-31.6430582168,-6.88492497977,1.5)) ;
#474=CARTESIAN_POINT('Control Point',(-30.0707963268,-7.5,1.5)) ;
#475=CARTESIAN_POINT('Control Point',(-28.5,-7.5,1.5)) ;
#476=CARTESIAN_POINT('Vertex',(-28.5,-7.5,1.5)) ;
#479=CARTESIAN_POINT('Line Origine',(0.,-7.5,1.5)) ;
#483=CARTESIAN_POINT('Vertex',(28.5,-7.5,1.5)) ;
#487=CARTESIAN_POINT('Control Point',(28.5,-7.5,1.5)) ;
#488=CARTESIAN_POINT('Control Point',(30.0707963268,-7.5,1.5)) ;
#489=CARTESIAN_POINT('Control Point',(31.6430582168,-6.88492497977,1.5)) ;
#490=CARTESIAN_POINT('Control Point',(32.8849249798,-5.64305821681,1.5)) ;
#491=CARTESIAN_POINT('Control Point',(33.5,-4.07079632679,1.5)) ;
#492=CARTESIAN_POINT('Control Point',(33.5,-2.5,1.5)) ;
#493=CARTESIAN_POINT('Vertex',(33.5,-2.5,1.5)) ;
#496=CARTESIAN_POINT('Line Origine',(33.5,17.,1.5)) ;
#500=CARTESIAN_POINT('Vertex',(33.5,2.5,1.5)) ;
#504=CARTESIAN_POINT('Control Point',(33.5,2.5,1.5)) ;
#505=CARTESIAN_POINT('Control Point',(33.5,4.07079632679,1.5)) ;
#506=CARTESIAN_POINT('Control Point',(32.8849249798,5.64305821681,1.5)) ;
#507=CARTESIAN_POINT('Control Point',(31.6430582168,6.88492497977,1.5)) ;
#508=CARTESIAN_POINT('Control Point',(30.0707963268,7.5,1.5)) ;
#509=CARTESIAN_POINT('Control Point',(28.5,7.5,1.5)) ;
#510=CARTESIAN_POINT('Vertex',(28.5,7.5,1.5)) ;
#513=CARTESIAN_POINT('Line Origine',(0.,7.5,1.5)) ;
#517=CARTESIAN_POINT('Vertex',(26.25,7.5,1.5)) ;
#521=CARTESIAN_POINT('Control Point',(21.25,12.5,1.5)) ;
#522=CARTESIAN_POINT('Control Point',(21.25,10.9292036732,1.5)) ;
#523=CARTESIAN_POINT('Control Point',(21.8650750202,9.35694178319,1.5)) ;
#524=CARTESIAN_POINT('Control Point',(23.1069417832,8.11507502023,1.5)) ;
#525=CARTESIAN_POINT('Control Point',(24.6792036732,7.5,1.5)) ;
#526=CARTESIAN_POINT('Control Point',(26.25,7.5,1.5)) ;
#527=CARTESIAN_POINT('Vertex',(21.25,12.5,1.5)) ;
#530=CARTESIAN_POINT('Line Origine',(21.25,17.,1.5)) ;
#534=CARTESIAN_POINT('Vertex',(21.25,36.5,1.5)) ;
#538=CARTESIAN_POINT('Control Point',(21.25,36.5,1.5)) ;
#539=CARTESIAN_POINT('Control Point',(21.25,38.0707963268,1.5)) ;
#540=CARTESIAN_POINT('Control Point',(20.6349249798,39.6430582168,1.5)) ;
#541=CARTESIAN_POINT('Control Point',(19.3930582168,40.8849249798,1.5)) ;
#542=CARTESIAN_POINT('Control Point',(17.8207963268,41.5,1.5)) ;
#543=CARTESIAN_POINT('Control Point',(16.25,41.5,1.5)) ;
#544=CARTESIAN_POINT('Vertex',(16.25,41.5,1.5)) ;
#547=CARTESIAN_POINT('Line Origine',(0.,41.5,1.5)) ;
#551=CARTESIAN_POINT('Vertex',(-16.25,41.5,1.5)) ;
#555=CARTESIAN_POINT('Control Point',(-16.25,41.5,1.5)) ;
#556=CARTESIAN_POINT('Control Point',(-17.8207963268,41.5,1.5)) ;
#557=CARTESIAN_POINT('Control Point',(-19.3930582168,40.8849249798,1.5)) ;
#558=CARTESIAN_POINT('Control Point',(-20.6349249798,39.6430582168,1.5)) ;
#559=CARTESIAN_POINT('Control Point',(-21.25,38.0707963268,1.5)) ;
#560=CARTESIAN_POINT('Control Point',(-21.25,36.5,1.5)) ;
#561=CARTESIAN_POINT('Vertex',(-21.25,36.5,1.5)) ;
#564=CARTESIAN_POINT('Line Origine',(-21.25,17.,1.5)) ;
#568=CARTESIAN_POINT('Vertex',(-21.25,12.5,1.5)) ;
#572=CARTESIAN_POINT('Control Point',(-26.25,7.5,1.5)) ;
#573=CARTESIAN_POINT('Control Point',(-24.6792036732,7.5,1.5)) ;
#574=CARTESIAN_POINT('Control Point',(-23.1069417832,8.11507502023,1.5)) ;
#575=CARTESIAN_POINT('Control Point',(-21.8650750202,9.35694178319,1.5)) ;
#576=CARTESIAN_POINT('Control Point',(-21.25,10.9292036732,1.5)) ;
#577=CARTESIAN_POINT('Control Point',(-21.25,12.5,1.5)) ;
#578=CARTESIAN_POINT('Vertex',(-26.25,7.5,1.5)) ;
#581=CARTESIAN_POINT('Line Origine',(0.,7.5,1.5)) ;
#585=CARTESIAN_POINT('Vertex',(-28.5,7.5,1.5)) ;
#589=CARTESIAN_POINT('Control Point',(-28.5,7.5,1.5)) ;
#590=CARTESIAN_POINT('Control Point',(-30.0707963268,7.5,1.5)) ;
#591=CARTESIAN_POINT('Control Point',(-31.6430582168,6.88492497977,1.5)) ;
#592=CARTESIAN_POINT('Control Point',(-32.8849249798,5.64305821681,1.5)) ;
#593=CARTESIAN_POINT('Control Point',(-33.5,4.07079632679,1.5)) ;
#594=CARTESIAN_POINT('Control Point',(-33.5,2.5,1.5)) ;
#615=CARTESIAN_POINT('Control Point',(-29.1,1.33226762955E-15,1.5)) ;
#616=CARTESIAN_POINT('Control Point',(-29.1,-0.816814089933,1.5)) ;
#617=CARTESIAN_POINT('Control Point',(-28.779237857,-1.63362817987,1.5)) ;
#618=CARTESIAN_POINT('Control Point',(-28.1336281799,-2.27923785696,1.5)) ;
#619=CARTESIAN_POINT('Control Point',(-26.5,-2.92076214304,1.5)) ;
#620=CARTESIAN_POINT('Control Point',(-24.8663718201,-2.27923785696,1.5)) ;
#621=CARTESIAN_POINT('Control Point',(-24.220762143,-1.63362817987,1.5)) ;
#622=CARTESIAN_POINT('Control Point',(-23.9,-0.816814089933,1.5)) ;
#623=CARTESIAN_POINT('Control Point',(-23.9,-3.18329402808E-15,1.5)) ;
#624=CARTESIAN_POINT('Vertex',(-29.1,3.18408167778E-16,1.5)) ;
#626=CARTESIAN_POINT('Vertex',(-23.9,-6.36816335557E-16,1.5)) ;
#630=CARTESIAN_POINT('Control Point',(-23.9,-2.88657986403E-15,1.5)) ;
#631=CARTESIAN_POINT('Control Point',(-23.9,0.816814089933,1.5)) ;
#632=CARTESIAN_POINT('Control Point',(-24.220762143,1.63362817987,1.5)) ;
#633=CARTESIAN_POINT('Control Point',(-24.8663718201,2.27923785696,1.5)) ;
#634=CARTESIAN_POINT('Control Point',(-26.5,2.92076214304,1.5)) ;
#635=CARTESIAN_POINT('Control Point',(-28.1336281799,2.27923785696,1.5)) ;
#636=CARTESIAN_POINT('Control Point',(-28.779237857,1.63362817987,1.5)) ;
#637=CARTESIAN_POINT('Control Point',(-29.1,0.816814089933,1.5)) ;
#638=CARTESIAN_POINT('Control Point',(-29.1,6.66133814775E-16,1.5)) ;
#645=CARTESIAN_POINT('Control Point',(29.1,0.,1.5)) ;
#646=CARTESIAN_POINT('Control Point',(29.1,0.816814089933,1.5)) ;
#647=CARTESIAN_POINT('Control Point',(28.779237857,1.63362817987,1.5)) ;
#648=CARTESIAN_POINT('Control Point',(28.1336281799,2.27923785696,1.5)) ;
#649=CARTESIAN_POINT('Control Point',(26.5,2.92076214304,1.5)) ;
#650=CARTESIAN_POINT('Control Point',(24.8663718201,2.27923785696,1.5)) ;
#651=CARTESIAN_POINT('Control Point',(24.220762143,1.63362817987,1.5)) ;
#652=CARTESIAN_POINT('Control Point',(23.9,0.816814089933,1.5)) ;
#653=CARTESIAN_POINT('Control Point',(23.9,1.59164701404E-15,1.5)) ;
#654=CARTESIAN_POINT('Vertex',(29.1,0.,1.5)) ;
#656=CARTESIAN_POINT('Vertex',(23.9,3.18408167778E-16,1.5)) ;
#660=CARTESIAN_POINT('Control Point',(23.9,1.33226762955E-15,1.5)) ;
#661=CARTESIAN_POINT('Control Point',(23.9,-0.816814089933,1.5)) ;
#662=CARTESIAN_POINT('Control Point',(24.220762143,-1.63362817987,1.5)) ;
#663=CARTESIAN_POINT('Control Point',(24.8663718201,-2.27923785696,1.5)) ;
#664=CARTESIAN_POINT('Control Point',(26.5,-2.92076214304,1.5)) ;
#665=CARTESIAN_POINT('Control Point',(28.1336281799,-2.27923785696,1.5)) ;
#666=CARTESIAN_POINT('Control Point',(28.779237857,-1.63362817987,1.5)) ;
#667=CARTESIAN_POINT('Control Point',(29.1,-0.816814089933,1.5)) ;
#668=CARTESIAN_POINT('Control Point',(29.1,-3.18329402808E-15,1.5)) ;
#675=CARTESIAN_POINT('Control Point',(12.,20.25,1.5)) ;
#676=CARTESIAN_POINT('Control Point',(12.,22.1349555922,1.5)) ;
#677=CARTESIAN_POINT('Control Point',(11.629889835,24.0199111843,1.5)) ;
#678=CARTESIAN_POINT('Control Point',(10.8893037296,25.8078442039,1.5)) ;
#679=CARTESIAN_POINT('Control Point',(8.74698878173,28.9969887817,1.5)) ;
#680=CARTESIAN_POINT('Control Point',(5.55784420386,31.1393037296,1.5)) ;
#681=CARTESIAN_POINT('Control Point',(3.76991118431,31.879889835,1.5)) ;
#682=CARTESIAN_POINT('Control Point',(3.4019497897E-15,32.620110165,1.5)) ;
#683=CARTESIAN_POINT('Control Point',(-3.76991118431,31.879889835,1.5)) ;
#684=CARTESIAN_POINT('Control Point',(-5.55784420386,31.1393037296,1.5)) ;
#685=CARTESIAN_POINT('Control Point',(-8.74698878173,28.9969887817,1.5)) ;
#686=CARTESIAN_POINT('Control Point',(-10.8893037296,25.8078442039,1.5)) ;
#687=CARTESIAN_POINT('Control Point',(-11.629889835,24.0199111843,1.5)) ;
#688=CARTESIAN_POINT('Control Point',(-12.,22.1349555922,1.5)) ;
#689=CARTESIAN_POINT('Control Point',(-12.,20.25,1.5)) ;
#690=CARTESIAN_POINT('Vertex',(12.,20.25,1.5)) ;
#692=CARTESIAN_POINT('Vertex',(-12.,20.25,1.5)) ;
#696=CARTESIAN_POINT('Control Point',(-12.,20.25,1.5)) ;
#697=CARTESIAN_POINT('Control Point',(-12.,18.3650444078,1.5)) ;
#698=CARTESIAN_POINT('Control Point',(-11.629889835,16.4800888157,1.5)) ;
#699=CARTESIAN_POINT('Control Point',(-10.8893037296,14.6921557961,1.5)) ;
#700=CARTESIAN_POINT('Control Point',(-8.74698878173,11.5030112183,1.5)) ;
#701=CARTESIAN_POINT('Control Point',(-5.55784420386,9.36069627035,1.5)) ;
#702=CARTESIAN_POINT('Control Point',(-3.76991118431,8.62011016504,1.5)) ;
#703=CARTESIAN_POINT('Control Point',(-2.04116987382E-14,7.87988983496,1.5)) ;
#704=CARTESIAN_POINT('Control Point',(3.76991118431,8.62011016504,1.5)) ;
#705=CARTESIAN_POINT('Control Point',(5.55784420386,9.36069627035,1.5)) ;
#706=CARTESIAN_POINT('Control Point',(8.74698878173,11.5030112183,1.5)) ;
#707=CARTESIAN_POINT('Control Point',(10.8893037296,14.6921557961,1.5)) ;
#708=CARTESIAN_POINT('Control Point',(11.629889835,16.4800888157,1.5)) ;
#709=CARTESIAN_POINT('Control Point',(12.,18.3650444078,1.5)) ;
#710=CARTESIAN_POINT('Control Point',(12.,20.25,1.5)) ;
#717=CARTESIAN_POINT('Control Point',(17.0499999744,4.75028149776,1.5)) ;
#718=CARTESIAN_POINT('Control Point',(17.0499115393,5.23722835103,1.5)) ;
#719=CARTESIAN_POINT('Control Point',(16.8585995221,5.72414047592,1.5)) ;
#720=CARTESIAN_POINT('Control Point',(16.4736469372,6.10895326258,1.5)) ;
#721=CARTESIAN_POINT('Control Point',(15.4996837738,6.49122355656,1.5)) ;
#722=CARTESIAN_POINT('Control Point',(14.5258595241,6.10859952206,1.5)) ;
#723=CARTESIAN_POINT('Control Point',(14.1410467374,5.72364693719,1.5)) ;
#724=CARTESIAN_POINT('Control Point',(13.9499115904,5.23666535552,1.5)) ;
#725=CARTESIAN_POINT('Control Point',(13.9500000256,4.74971850224,1.5)) ;
#726=CARTESIAN_POINT('Vertex',(17.0499999744,4.75028149776,1.5)) ;
#728=CARTESIAN_POINT('Vertex',(13.9500000256,4.74971850224,1.5)) ;
#732=CARTESIAN_POINT('Control Point',(13.9500000256,4.74971850224,1.5)) ;
#733=CARTESIAN_POINT('Control Point',(13.9500884607,4.26277164897,1.5)) ;
#734=CARTESIAN_POINT('Control Point',(14.1414004779,3.77585952408,1.5)) ;
#735=CARTESIAN_POINT('Control Point',(14.5263530628,3.39104673742,1.5)) ;
#736=CARTESIAN_POINT('Control Point',(15.5003162262,3.00877644344,1.5)) ;
#737=CARTESIAN_POINT('Control Point',(16.4741404759,3.39140047794,1.5)) ;
#738=CARTESIAN_POINT('Control Point',(16.8589532626,3.77635306281,1.5)) ;
#739=CARTESIAN_POINT('Control Point',(17.0500884096,4.26333464448,1.5)) ;
#740=CARTESIAN_POINT('Control Point',(17.0499999744,4.75028149776,1.5)) ;
#747=CARTESIAN_POINT('Control Point',(-13.95,4.75,1.5)) ;
#748=CARTESIAN_POINT('Control Point',(-13.95,5.23694686131,1.5)) ;
#749=CARTESIAN_POINT('Control Point',(-14.1412235853,5.72389372261,1.5)) ;
#750=CARTESIAN_POINT('Control Point',(-14.5261062774,6.10877641473,1.5)) ;
#751=CARTESIAN_POINT('Control Point',(-15.5,6.49122358527,1.5)) ;
#752=CARTESIAN_POINT('Control Point',(-16.4738937226,6.10877641473,1.5)) ;
#753=CARTESIAN_POINT('Control Point',(-16.8587764147,5.72389372261,1.5)) ;
#754=CARTESIAN_POINT('Control Point',(-17.05,5.23694686131,1.5)) ;
#755=CARTESIAN_POINT('Control Point',(-17.05,4.75,1.5)) ;
#756=CARTESIAN_POINT('Vertex',(-13.95,4.75,1.5)) ;
#758=CARTESIAN_POINT('Vertex',(-17.05,4.75,1.5)) ;
#762=CARTESIAN_POINT('Control Point',(-17.05,4.75,1.5)) ;
#763=CARTESIAN_POINT('Control Point',(-17.05,4.26305313869,1.5)) ;
#764=CARTESIAN_POINT('Control Point',(-16.8587764147,3.77610627739,1.5)) ;
#765=CARTESIAN_POINT('Control Point',(-16.4738937226,3.39122358527,1.5)) ;
#766=CARTESIAN_POINT('Control Point',(-15.5,3.00877641473,1.5)) ;
#767=CARTESIAN_POINT('Control Point',(-14.5261062774,3.39122358527,1.5)) ;
#768=CARTESIAN_POINT('Control Point',(-14.1412235853,3.77610627739,1.5)) ;
#769=CARTESIAN_POINT('Control Point',(-13.95,4.26305313869,1.5)) ;
#770=CARTESIAN_POINT('Control Point',(-13.95,4.75,1.5)) ;
#777=CARTESIAN_POINT('Control Point',(-13.95,35.75,1.5)) ;
#778=CARTESIAN_POINT('Control Point',(-13.95,36.2369468613,1.5)) ;
#779=CARTESIAN_POINT('Control Point',(-14.1412235853,36.7238937226,1.5)) ;
#780=CARTESIAN_POINT('Control Point',(-14.5261062774,37.1087764147,1.5)) ;
#781=CARTESIAN_POINT('Control Point',(-15.5,37.4912235853,1.5)) ;
#782=CARTESIAN_POINT('Control Point',(-16.4738937226,37.1087764147,1.5)) ;
#783=CARTESIAN_POINT('Control Point',(-16.8587764147,36.7238937226,1.5)) ;
#784=CARTESIAN_POINT('Control Point',(-17.05,36.2369468613,1.5)) ;
#785=CARTESIAN_POINT('Control Point',(-17.05,35.75,1.5)) ;
#786=CARTESIAN_POINT('Vertex',(-13.95,35.75,1.5)) ;
#788=CARTESIAN_POINT('Vertex',(-17.05,35.75,1.5)) ;
#792=CARTESIAN_POINT('Control Point',(-17.05,35.75,1.5)) ;
#793=CARTESIAN_POINT('Control Point',(-17.05,35.2630531387,1.5)) ;
#794=CARTESIAN_POINT('Control Point',(-16.8587764147,34.7761062774,1.5)) ;
#795=CARTESIAN_POINT('Control Point',(-16.4738937226,34.3912235853,1.5)) ;
#796=CARTESIAN_POINT('Control Point',(-15.5,34.0087764147,1.5)) ;
#797=CARTESIAN_POINT('Control Point',(-14.5261062774,34.3912235853,1.5)) ;
#798=CARTESIAN_POINT('Control Point',(-14.1412235853,34.7761062774,1.5)) ;
#799=CARTESIAN_POINT('Control Point',(-13.95,35.2630531387,1.5)) ;
#800=CARTESIAN_POINT('Control Point',(-13.95,35.75,1.5)) ;
#811=CARTESIAN_POINT('Axis2P3D Location',(-33.5,2.5,-1.5)) ;
#816=CARTESIAN_POINT('Line Origine',(-33.5,-2.5,0.)) ;
#821=CARTESIAN_POINT('Line Origine',(-33.5,2.5,0.)) ;
#833=CARTESIAN_POINT('Axis2P3D Location',(-28.5,-2.5,-1.5)) ;
#838=CARTESIAN_POINT('Line Origine',(-28.5,-7.5,0.)) ;
#850=CARTESIAN_POINT('Axis2P3D Location',(-28.5,-7.5,-1.5)) ;
#855=CARTESIAN_POINT('Line Origine',(28.5,-7.5,0.)) ;
#867=CARTESIAN_POINT('Axis2P3D Location',(28.5,-2.5,-1.5)) ;
#872=CARTESIAN_POINT('Line Origine',(33.5,-2.5,0.)) ;
#884=CARTESIAN_POINT('Axis2P3D Location',(33.5,-2.5,-1.5)) ;
#889=CARTESIAN_POINT('Line Origine',(33.5,2.5,0.)) ;
#901=CARTESIAN_POINT('Axis2P3D Location',(28.5,2.5,-1.5)) ;
#906=CARTESIAN_POINT('Line Origine',(28.5,7.5,0.)) ;
#918=CARTESIAN_POINT('Axis2P3D Location',(28.5,7.5,-1.5)) ;
#923=CARTESIAN_POINT('Line Origine',(26.25,7.5,0.)) ;
#935=CARTESIAN_POINT('Axis2P3D Location',(26.25,12.5,-1.5)) ;
#940=CARTESIAN_POINT('Line Origine',(21.25,12.5,0.)) ;
#952=CARTESIAN_POINT('Axis2P3D Location',(21.25,12.5,-1.5)) ;
#957=CARTESIAN_POINT('Line Origine',(21.25,36.5,0.)) ;
#969=CARTESIAN_POINT('Axis2P3D Location',(16.25,36.5,-1.5)) ;
#974=CARTESIAN_POINT('Line Origine',(16.25,41.5,0.)) ;
#986=CARTESIAN_POINT('Axis2P3D Location',(16.25,41.5,-1.5)) ;
#991=CARTESIAN_POINT('Line Origine',(-16.25,41.5,0.)) ;
#1003=CARTESIAN_POINT('Axis2P3D Location',(-16.25,36.5,-1.5)) ;
#1008=CARTESIAN_POINT('Line Origine',(-21.25,36.5,0.)) ;
#1020=CARTESIAN_POINT('Axis2P3D Location',(-21.25,36.5,-1.5)) ;
#1025=CARTESIAN_POINT('Line Origine',(-21.25,12.5,0.)) ;
#1037=CARTESIAN_POINT('Axis2P3D Location',(-26.25,12.5,-1.5)) ;
#1042=CARTESIAN_POINT('Line Origine',(-26.25,7.5,0.)) ;
#1054=CARTESIAN_POINT('Axis2P3D Location',(-26.25,7.5,-1.5)) ;
#1059=CARTESIAN_POINT('Line Origine',(-28.5,7.5,0.)) ;
#1071=CARTESIAN_POINT('Axis2P3D Location',(-28.5,2.5,-1.5)) ;
#1083=CARTESIAN_POINT('Axis2P3D Location',(-26.5,0.,-1.5)) ;
#1088=CARTESIAN_POINT('Line Origine',(-29.1,3.18408167778E-16,0.)) ;
#1093=CARTESIAN_POINT('Line Origine',(-23.9,-6.36816335557E-16,0.)) ;
#1105=CARTESIAN_POINT('Axis2P3D Location',(-26.5,0.,-1.5)) ;
#1117=CARTESIAN_POINT('Axis2P3D Location',(26.5,0.,-1.5)) ;
#1122=CARTESIAN_POINT('Line Origine',(29.1,0.,0.)) ;
#1127=CARTESIAN_POINT('Line Origine',(23.9,3.18408167778E-16,0.)) ;
#1139=CARTESIAN_POINT('Axis2P3D Location',(26.5,0.,-1.5)) ;
#1151=CARTESIAN_POINT('Axis2P3D Location',(0.,20.25,-1.5)) ;
#1156=CARTESIAN_POINT('Line Origine',(12.,20.25,0.)) ;
#1161=CARTESIAN_POINT('Line Origine',(-12.,20.25,0.)) ;
#1173=CARTESIAN_POINT('Axis2P3D Location',(0.,20.25,-1.5)) ;
#1185=CARTESIAN_POINT('Axis2P3D Location',(15.5,4.75,-1.5)) ;
#1190=CARTESIAN_POINT('Line Origine',(17.0499999744,4.75028149776,0.)) ;
#1195=CARTESIAN_POINT('Line Origine',(13.9500000256,4.74971850224,0.)) ;
#1207=CARTESIAN_POINT('Axis2P3D Location',(15.5,4.75,-1.5)) ;
#1219=CARTESIAN_POINT('Axis2P3D Location',(-15.5,4.75,-1.5)) ;
#1224=CARTESIAN_POINT('Line Origine',(-13.95,4.75,0.)) ;
#1229=CARTESIAN_POINT('Line Origine',(-17.05,4.75,0.)) ;
#1241=CARTESIAN_POINT('Axis2P3D Location',(-15.5,4.75,-1.5)) ;
#1253=CARTESIAN_POINT('Axis2P3D Location',(-15.5,35.75,-1.5)) ;
#1258=CARTESIAN_POINT('Line Origine',(-13.95,35.75,0.)) ;
#1263=CARTESIAN_POINT('Line Origine',(-17.05,35.75,0.)) ;
#1275=CARTESIAN_POINT('Axis2P3D Location',(-15.5,35.75,-1.5)) ;
#8=PRODUCT_RELATED_PRODUCT_CATEGORY('part',$,(#5)) ;
#15=UNCERTAINTY_MEASURE_WITH_UNIT(LENGTH_MEASURE(0.005),#12,'distance_accuracy_value','CONFUSED CURVE UNCERTAINTY') ;
#29=STYLED_ITEM(' ',(#28),#21) ;
#28=PRESENTATION_STYLE_ASSIGNMENT((#27)) ;
#27=SURFACE_STYLE_USAGE(.BOTH.,#26) ;
#26=SURFACE_SIDE_STYLE(' ',(#25)) ;
#25=SURFACE_STYLE_FILL_AREA(#24) ;
#24=FILL_AREA_STYLE(' ',(#23)) ;
#23=FILL_AREA_STYLE_COLOUR(' ',#22) ;
#47=VECTOR('Line Direction',#46,1.) ;
#61=VECTOR('Line Direction',#60,1.) ;
#90=VECTOR('Line Direction',#89,1.) ;
#107=VECTOR('Line Direction',#106,1.) ;
#124=VECTOR('Line Direction',#123,1.) ;
#141=VECTOR('Line Direction',#140,1.) ;
#158=VECTOR('Line Direction',#157,1.) ;
#175=VECTOR('Line Direction',#174,1.) ;
#192=VECTOR('Line Direction',#191,1.) ;
#209=VECTOR('Line Direction',#208,1.) ;
#462=VECTOR('Line Direction',#461,1.) ;
#481=VECTOR('Line Direction',#480,1.) ;
#498=VECTOR('Line Direction',#497,1.) ;
#515=VECTOR('Line Direction',#514,1.) ;
#532=VECTOR('Line Direction',#531,1.) ;
#549=VECTOR('Line Direction',#548,1.) ;
#566=VECTOR('Line Direction',#565,1.) ;
#583=VECTOR('Line Direction',#582,1.) ;
#818=VECTOR('Line Direction',#817,1.) ;
#823=VECTOR('Line Direction',#822,1.) ;
#840=VECTOR('Line Direction',#839,1.) ;
#857=VECTOR('Line Direction',#856,1.) ;
#874=VECTOR('Line Direction',#873,1.) ;
#891=VECTOR('Line Direction',#890,1.) ;
#908=VECTOR('Line Direction',#907,1.) ;
#925=VECTOR('Line Direction',#924,1.) ;
#942=VECTOR('Line Direction',#941,1.) ;
#959=VECTOR('Line Direction',#958,1.) ;
#976=VECTOR('Line Direction',#975,1.) ;
#993=VECTOR('Line Direction',#992,1.) ;
#1010=VECTOR('Line Direction',#1009,1.) ;
#1027=VECTOR('Line Direction',#1026,1.) ;
#1044=VECTOR('Line Direction',#1043,1.) ;
#1061=VECTOR('Line Direction',#1060,1.) ;
#1090=VECTOR('Line Direction',#1089,1.) ;
#1095=VECTOR('Line Direction',#1094,1.) ;
#1124=VECTOR('Line Direction',#1123,1.) ;
#1129=VECTOR('Line Direction',#1128,1.) ;
#1158=VECTOR('Line Direction',#1157,1.) ;
#1163=VECTOR('Line Direction',#1162,1.) ;
#1192=VECTOR('Line Direction',#1191,1.) ;
#1197=VECTOR('Line Direction',#1196,1.) ;
#1226=VECTOR('Line Direction',#1225,1.) ;
#1231=VECTOR('Line Direction',#1230,1.) ;
#1260=VECTOR('Line Direction',#1259,1.) ;
#1265=VECTOR('Line Direction',#1264,1.) ;
#32=DIRECTION('Axis2P3D Direction',(0.,0.,1.)) ;
#33=DIRECTION('Axis2P3D XDirection',(1.,0.,0.)) ;
#37=DIRECTION('Axis2P3D Direction',(0.,0.,1.)) ;
#46=DIRECTION('Vector Direction',(0.,0.,1.)) ;
#53=DIRECTION('Axis2P3D Direction',(0.,0.,1.)) ;
#60=DIRECTION('Vector Direction',(0.,0.,1.)) ;
#72=DIRECTION('Axis2P3D Direction',(0.,0.,1.)) ;
#73=DIRECTION('Axis2P3D XDirection',(1.,0.,0.)) ;
#89=DIRECTION('Vector Direction',(1.,0.,0.)) ;
#106=DIRECTION('Vector Direction',(0.,1.,0.)) ;
#123=DIRECTION('Vector Direction',(1.,0.,0.)) ;
#140=DIRECTION('Vector Direction',(0.,1.,0.)) ;
#157=DIRECTION('Vector Direction',(1.,0.,0.)) ;
#174=DIRECTION('Vector Direction',(0.,1.,0.)) ;
#191=DIRECTION('Vector Direction',(1.,0.,0.)) ;
#208=DIRECTION('Vector Direction',(0.,1.,0.)) ;
#439=DIRECTION('Axis2P3D Direction',(0.,0.,1.)) ;
#440=DIRECTION('Axis2P3D XDirection',(1.,0.,0.)) ;
#444=DIRECTION('Axis2P3D Direction',(0.,0.,1.)) ;
#456=DIRECTION('Axis2P3D Direction',(0.,0.,1.)) ;
#457=DIRECTION('Axis2P3D XDirection',(1.,0.,0.)) ;
#461=DIRECTION('Vector Direction',(0.,1.,0.)) ;
#480=DIRECTION('Vector Direction',(1.,0.,0.)) ;
#497=DIRECTION('Vector Direction',(0.,1.,0.)) ;
#514=DIRECTION('Vector Direction',(1.,0.,0.)) ;
#531=DIRECTION('Vector Direction',(0.,1.,0.)) ;
#548=DIRECTION('Vector Direction',(1.,0.,0.)) ;
#565=DIRECTION('Vector Direction',(0.,1.,0.)) ;
#582=DIRECTION('Vector Direction',(1.,0.,0.)) ;
#812=DIRECTION('Axis2P3D Direction',(-1.,0.,0.)) ;
#813=DIRECTION('Axis2P3D XDirection',(0.,-1.,0.)) ;
#817=DIRECTION('Vector Direction',(0.,0.,1.)) ;
#822=DIRECTION('Vector Direction',(0.,0.,-1.)) ;
#834=DIRECTION('Axis2P3D Direction',(0.,0.,1.)) ;
#835=DIRECTION('Axis2P3D XDirection',(-1.,1.22464679915E-16,0.)) ;
#839=DIRECTION('Vector Direction',(0.,0.,1.)) ;
#851=DIRECTION('Axis2P3D Direction',(0.,-1.,0.)) ;
#852=DIRECTION('Axis2P3D XDirection',(1.,0.,0.)) ;
#856=DIRECTION('Vector Direction',(0.,0.,1.)) ;
#868=DIRECTION('Axis2P3D Direction',(0.,0.,1.)) ;
#869=DIRECTION('Axis2P3D XDirection',(-1.83697019872E-16,-1.,-0.)) ;
#873=DIRECTION('Vector Direction',(0.,0.,1.)) ;
#885=DIRECTION('Axis2P3D Direction',(1.,0.,0.)) ;
#886=DIRECTION('Axis2P3D XDirection',(0.,1.,0.)) ;
#890=DIRECTION('Vector Direction',(0.,0.,1.)) ;
#902=DIRECTION('Axis2P3D Direction',(0.,0.,1.)) ;
#903=DIRECTION('Axis2P3D XDirection',(1.,0.,0.)) ;
#907=DIRECTION('Vector Direction',(0.,0.,1.)) ;
#919=DIRECTION('Axis2P3D Direction',(0.,1.,-0.)) ;
#920=DIRECTION('Axis2P3D XDirection',(-1.,0.,0.)) ;
#924=DIRECTION('Vector Direction',(0.,0.,1.)) ;
#936=DIRECTION('Axis2P3D Direction',(0.,0.,1.)) ;
#937=DIRECTION('Axis2P3D XDirection',(-1.,1.22464679915E-16,0.)) ;
#941=DIRECTION('Vector Direction',(0.,0.,1.)) ;
#953=DIRECTION('Axis2P3D Direction',(1.,0.,0.)) ;
#954=DIRECTION('Axis2P3D XDirection',(0.,1.,0.)) ;
#958=DIRECTION('Vector Direction',(0.,0.,1.)) ;
#970=DIRECTION('Axis2P3D Direction',(0.,0.,1.)) ;
#971=DIRECTION('Axis2P3D XDirection',(1.,0.,0.)) ;
#975=DIRECTION('Vector Direction',(0.,0.,1.)) ;
#987=DIRECTION('Axis2P3D Direction',(0.,1.,-0.)) ;
#988=DIRECTION('Axis2P3D XDirection',(-1.,0.,0.)) ;
#992=DIRECTION('Vector Direction',(0.,0.,1.)) ;
#1004=DIRECTION('Axis2P3D Direction',(0.,0.,1.)) ;
#1005=DIRECTION('Axis2P3D XDirection',(6.12323399574E-17,1.,0.)) ;
#1009=DIRECTION('Vector Direction',(0.,0.,1.)) ;
#1021=DIRECTION('Axis2P3D Direction',(-1.,0.,0.)) ;
#1022=DIRECTION('Axis2P3D XDirection',(0.,-1.,0.)) ;
#1026=DIRECTION('Vector Direction',(0.,0.,1.)) ;
#1038=DIRECTION('Axis2P3D Direction',(0.,0.,1.)) ;
#1039=DIRECTION('Axis2P3D XDirection',(-1.83697019872E-16,-1.,-0.)) ;
#1043=DIRECTION('Vector Direction',(0.,0.,1.)) ;
#1055=DIRECTION('Axis2P3D Direction',(0.,1.,-0.)) ;
#1056=DIRECTION('Axis2P3D XDirection',(-1.,0.,0.)) ;
#1060=DIRECTION('Vector Direction',(0.,0.,1.)) ;
#1072=DIRECTION('Axis2P3D Direction',(0.,0.,1.)) ;
#1073=DIRECTION('Axis2P3D XDirection',(6.12323399574E-17,1.,0.)) ;
#1084=DIRECTION('Axis2P3D Direction',(0.,0.,1.)) ;
#1085=DIRECTION('Axis2P3D XDirection',(-1.,1.22464679915E-16,0.)) ;
#1089=DIRECTION('Vector Direction',(0.,0.,1.)) ;
#1094=DIRECTION('Vector Direction',(0.,0.,1.)) ;
#1106=DIRECTION('Axis2P3D Direction',(0.,0.,1.)) ;
#1107=DIRECTION('Axis2P3D XDirection',(-1.,1.22464679915E-16,0.)) ;
#1118=DIRECTION('Axis2P3D Direction',(0.,0.,1.)) ;
#1119=DIRECTION('Axis2P3D XDirection',(1.,0.,0.)) ;
#1123=DIRECTION('Vector Direction',(0.,0.,1.)) ;
#1128=DIRECTION('Vector Direction',(0.,0.,1.)) ;
#1140=DIRECTION('Axis2P3D Direction',(0.,0.,1.)) ;
#1141=DIRECTION('Axis2P3D XDirection',(1.,0.,0.)) ;
#1152=DIRECTION('Axis2P3D Direction',(0.,0.,1.)) ;
#1153=DIRECTION('Axis2P3D XDirection',(1.,0.,0.)) ;
#1157=DIRECTION('Vector Direction',(0.,0.,1.)) ;
#1162=DIRECTION('Vector Direction',(0.,0.,1.)) ;
#1174=DIRECTION('Axis2P3D Direction',(0.,0.,1.)) ;
#1175=DIRECTION('Axis2P3D XDirection',(1.,0.,0.)) ;
#1186=DIRECTION('Axis2P3D Direction',(0.,0.,1.)) ;
#1187=DIRECTION('Axis2P3D XDirection',(0.999999983509,0.000181611456463,0.)) ;
#1191=DIRECTION('Vector Direction',(0.,0.,1.)) ;
#1196=DIRECTION('Vector Direction',(0.,0.,1.)) ;
#1208=DIRECTION('Axis2P3D Direction',(0.,0.,1.)) ;
#1209=DIRECTION('Axis2P3D XDirection',(0.999999983509,0.000181611456463,0.)) ;
#1220=DIRECTION('Axis2P3D Direction',(0.,0.,1.)) ;
#1221=DIRECTION('Axis2P3D XDirection',(1.,0.,0.)) ;
#1225=DIRECTION('Vector Direction',(0.,0.,1.)) ;
#1230=DIRECTION('Vector Direction',(0.,0.,1.)) ;
#1242=DIRECTION('Axis2P3D Direction',(0.,0.,1.)) ;
#1243=DIRECTION('Axis2P3D XDirection',(1.,0.,0.)) ;
#1254=DIRECTION('Axis2P3D Direction',(0.,0.,1.)) ;
#1255=DIRECTION('Axis2P3D XDirection',(1.,0.,0.)) ;
#1259=DIRECTION('Vector Direction',(0.,0.,1.)) ;
#1264=DIRECTION('Vector Direction',(0.,0.,1.)) ;
#1276=DIRECTION('Axis2P3D Direction',(0.,0.,1.)) ;
#1277=DIRECTION('Axis2P3D XDirection',(1.,0.,0.)) ;
#1288=SHAPE_REPRESENTATION_RELATIONSHIP(' ',' ',#19,#1287) ;
#18=AXIS2_PLACEMENT_3D(' ',#17,$,$) ;
#34=AXIS2_PLACEMENT_3D('Cylinder Axis2P3D',#31,#32,#33) ;
#38=AXIS2_PLACEMENT_3D('Circle Axis2P3D',#36,#37,$) ;
#54=AXIS2_PLACEMENT_3D('Circle Axis2P3D',#52,#53,$) ;
#74=AXIS2_PLACEMENT_3D('Plane Axis2P3D',#71,#72,#73) ;
#441=AXIS2_PLACEMENT_3D('Cylinder Axis2P3D',#438,#439,#440) ;
#445=AXIS2_PLACEMENT_3D('Circle Axis2P3D',#443,#444,$) ;
#458=AXIS2_PLACEMENT_3D('Plane Axis2P3D',#455,#456,#457) ;
#814=AXIS2_PLACEMENT_3D('Plane Axis2P3D',#811,#812,#813) ;
#836=AXIS2_PLACEMENT_3D('Cylinder Axis2P3D',#833,#834,#835) ;
#853=AXIS2_PLACEMENT_3D('Plane Axis2P3D',#850,#851,#852) ;
#870=AXIS2_PLACEMENT_3D('Cylinder Axis2P3D',#867,#868,#869) ;
#887=AXIS2_PLACEMENT_3D('Plane Axis2P3D',#884,#885,#886) ;
#904=AXIS2_PLACEMENT_3D('Cylinder Axis2P3D',#901,#902,#903) ;
#921=AXIS2_PLACEMENT_3D('Plane Axis2P3D',#918,#919,#920) ;
#938=AXIS2_PLACEMENT_3D('Cylinder Axis2P3D',#935,#936,#937) ;
#955=AXIS2_PLACEMENT_3D('Plane Axis2P3D',#952,#953,#954) ;
#972=AXIS2_PLACEMENT_3D('Cylinder Axis2P3D',#969,#970,#971) ;
#989=AXIS2_PLACEMENT_3D('Plane Axis2P3D',#986,#987,#988) ;
#1006=AXIS2_PLACEMENT_3D('Cylinder Axis2P3D',#1003,#1004,#1005) ;
#1023=AXIS2_PLACEMENT_3D('Plane Axis2P3D',#1020,#1021,#1022) ;
#1040=AXIS2_PLACEMENT_3D('Cylinder Axis2P3D',#1037,#1038,#1039) ;
#1057=AXIS2_PLACEMENT_3D('Plane Axis2P3D',#1054,#1055,#1056) ;
#1074=AXIS2_PLACEMENT_3D('Cylinder Axis2P3D',#1071,#1072,#1073) ;
#1086=AXIS2_PLACEMENT_3D('Cylinder Axis2P3D',#1083,#1084,#1085) ;
#1108=AXIS2_PLACEMENT_3D('Cylinder Axis2P3D',#1105,#1106,#1107) ;
#1120=AXIS2_PLACEMENT_3D('Cylinder Axis2P3D',#1117,#1118,#1119) ;
#1142=AXIS2_PLACEMENT_3D('Cylinder Axis2P3D',#1139,#1140,#1141) ;
#1154=AXIS2_PLACEMENT_3D('Cylinder Axis2P3D',#1151,#1152,#1153) ;
#1176=AXIS2_PLACEMENT_3D('Cylinder Axis2P3D',#1173,#1174,#1175) ;
#1188=AXIS2_PLACEMENT_3D('Cylinder Axis2P3D',#1185,#1186,#1187) ;
#1210=AXIS2_PLACEMENT_3D('Cylinder Axis2P3D',#1207,#1208,#1209) ;
#1222=AXIS2_PLACEMENT_3D('Cylinder Axis2P3D',#1219,#1220,#1221) ;
#1244=AXIS2_PLACEMENT_3D('Cylinder Axis2P3D',#1241,#1242,#1243) ;
#1256=AXIS2_PLACEMENT_3D('Cylinder Axis2P3D',#1253,#1254,#1255) ;
#1278=AXIS2_PLACEMENT_3D('Cylinder Axis2P3D',#1275,#1276,#1277) ;
#48=LINE('Line',#45,#47) ;
#62=LINE('Line',#59,#61) ;
#91=LINE('Line',#88,#90) ;
#108=LINE('Line',#105,#107) ;
#125=LINE('Line',#122,#124) ;
#142=LINE('Line',#139,#141) ;
#159=LINE('Line',#156,#158) ;
#176=LINE('Line',#173,#175) ;
#193=LINE('Line',#190,#192) ;
#210=LINE('Line',#207,#209) ;
#463=LINE('Line',#460,#462) ;
#482=LINE('Line',#479,#481) ;
#499=LINE('Line',#496,#498) ;
#516=LINE('Line',#513,#515) ;
#533=LINE('Line',#530,#532) ;
#550=LINE('Line',#547,#549) ;
#567=LINE('Line',#564,#566) ;
#584=LINE('Line',#581,#583) ;
#819=LINE('Line',#816,#818) ;
#824=LINE('Line',#821,#823) ;
#841=LINE('Line',#838,#840) ;
#858=LINE('Line',#855,#857) ;
#875=LINE('Line',#872,#874) ;
#892=LINE('Line',#889,#891) ;
#909=LINE('Line',#906,#908) ;
#926=LINE('Line',#923,#925) ;
#943=LINE('Line',#940,#942) ;
#960=LINE('Line',#957,#959) ;
#977=LINE('Line',#974,#976) ;
#994=LINE('Line',#991,#993) ;
#1011=LINE('Line',#1008,#1010) ;
#1028=LINE('Line',#1025,#1027) ;
#1045=LINE('Line',#1042,#1044) ;
#1062=LINE('Line',#1059,#1061) ;
#1091=LINE('Line',#1088,#1090) ;
#1096=LINE('Line',#1093,#1095) ;
#1125=LINE('Line',#1122,#1124) ;
#1130=LINE('Line',#1127,#1129) ;
#1159=LINE('Line',#1156,#1158) ;
#1164=LINE('Line',#1161,#1163) ;
#1193=LINE('Line',#1190,#1192) ;
#1198=LINE('Line',#1195,#1197) ;
#1227=LINE('Line',#1224,#1226) ;
#1232=LINE('Line',#1229,#1231) ;
#1261=LINE('Line',#1258,#1260) ;
#1266=LINE('Line',#1263,#1265) ;
#39=CIRCLE('generated circle',#38,1.55) ;
#55=CIRCLE('generated circle',#54,1.55) ;
#446=CIRCLE('generated circle',#445,1.55) ;
#75=PLANE('',#74) ;
#459=PLANE('',#458) ;
#815=PLANE('',#814) ;
#854=PLANE('',#853) ;
#888=PLANE('',#887) ;
#922=PLANE('',#921) ;
#956=PLANE('',#955) ;
#990=PLANE('',#989) ;
#1024=PLANE('',#1023) ;
#1058=PLANE('',#1057) ;
#35=CYLINDRICAL_SURFACE('generated cylinder',#34,1.55) ;
#442=CYLINDRICAL_SURFACE('generated cylinder',#441,1.55) ;
#837=CYLINDRICAL_SURFACE('generated cylinder',#836,5.) ;
#871=CYLINDRICAL_SURFACE('generated cylinder',#870,5.) ;
#905=CYLINDRICAL_SURFACE('generated cylinder',#904,5.) ;
#939=CYLINDRICAL_SURFACE('generated cylinder',#938,5.) ;
#973=CYLINDRICAL_SURFACE('generated cylinder',#972,5.) ;
#1007=CYLINDRICAL_SURFACE('generated cylinder',#1006,5.) ;
#1041=CYLINDRICAL_SURFACE('generated cylinder',#1040,5.) ;
#1075=CYLINDRICAL_SURFACE('generated cylinder',#1074,5.) ;
#1087=CYLINDRICAL_SURFACE('generated cylinder',#1086,2.6) ;
#1109=CYLINDRICAL_SURFACE('generated cylinder',#1108,2.6) ;
#1121=CYLINDRICAL_SURFACE('generated cylinder',#1120,2.6) ;
#1143=CYLINDRICAL_SURFACE('generated cylinder',#1142,2.6) ;
#1155=CYLINDRICAL_SURFACE('generated cylinder',#1154,12.) ;
#1177=CYLINDRICAL_SURFACE('generated cylinder',#1176,12.) ;
#1189=CYLINDRICAL_SURFACE('generated cylinder',#1188,1.55) ;
#1211=CYLINDRICAL_SURFACE('generated cylinder',#1210,1.55) ;
#1223=CYLINDRICAL_SURFACE('generated cylinder',#1222,1.55) ;
#1245=CYLINDRICAL_SURFACE('generated cylinder',#1244,1.55) ;
#1257=CYLINDRICAL_SURFACE('generated cylinder',#1256,1.55) ;
#1279=CYLINDRICAL_SURFACE('generated cylinder',#1278,1.55) ;
#259=FACE_BOUND('',#256,.T.) ;
#289=FACE_BOUND('',#286,.T.) ;
#331=FACE_BOUND('',#328,.T.) ;
#361=FACE_BOUND('',#358,.T.) ;
#391=FACE_BOUND('',#388,.T.) ;
#421=FACE_BOUND('',#418,.T.) ;
#436=FACE_BOUND('',#433,.T.) ;
#643=FACE_BOUND('',#640,.T.) ;
#673=FACE_BOUND('',#670,.T.) ;
#715=FACE_BOUND('',#712,.T.) ;
#745=FACE_BOUND('',#742,.T.) ;
#775=FACE_BOUND('',#772,.T.) ;
#805=FACE_BOUND('',#802,.T.) ;
#809=FACE_BOUND('',#806,.T.) ;
#44=EDGE_CURVE('',#41,#43,#39,.T.) ;
#51=EDGE_CURVE('',#41,#50,#48,.T.) ;
#58=EDGE_CURVE('',#50,#57,#55,.T.) ;
#63=EDGE_CURVE('',#57,#43,#62,.F.) ;
#87=EDGE_CURVE('',#84,#86,#76,.T.) ;
#94=EDGE_CURVE('',#84,#93,#91,.T.) ;
#104=EDGE_CURVE('',#93,#103,#95,.T.) ;
#111=EDGE_CURVE('',#103,#110,#108,.T.) ;
#121=EDGE_CURVE('',#120,#110,#112,.T.) ;
#128=EDGE_CURVE('',#120,#127,#125,.T.) ;
#138=EDGE_CURVE('',#137,#127,#129,.T.) ;
#145=EDGE_CURVE('',#137,#144,#142,.F.) ;
#155=EDGE_CURVE('',#144,#154,#146,.T.) ;
#162=EDGE_CURVE('',#154,#161,#159,.T.) ;
#172=EDGE_CURVE('',#171,#161,#163,.T.) ;
#179=EDGE_CURVE('',#171,#178,#176,.F.) ;
#189=EDGE_CURVE('',#188,#178,#180,.T.) ;
#196=EDGE_CURVE('',#188,#195,#193,.F.) ;
#206=EDGE_CURVE('',#205,#195,#197,.T.) ;
#211=EDGE_CURVE('',#205,#86,#210,.T.) ;
#244=EDGE_CURVE('',#241,#243,#230,.T.) ;
#255=EDGE_CURVE('',#243,#241,#245,.T.) ;
#274=EDGE_CURVE('',#271,#273,#260,.T.) ;
#285=EDGE_CURVE('',#273,#271,#275,.T.) ;
#310=EDGE_CURVE('',#307,#309,#290,.T.) ;
#327=EDGE_CURVE('',#309,#307,#311,.T.) ;
#346=EDGE_CURVE('',#343,#345,#332,.T.) ;
#357=EDGE_CURVE('',#345,#343,#347,.T.) ;
#376=EDGE_CURVE('',#373,#375,#362,.T.) ;
#387=EDGE_CURVE('',#375,#373,#377,.T.) ;
#406=EDGE_CURVE('',#403,#405,#392,.T.) ;
#417=EDGE_CURVE('',#405,#403,#407,.T.) ;
#432=EDGE_CURVE('',#43,#41,#422,.T.) ;
#447=EDGE_CURVE('',#57,#50,#446,.T.) ;
#468=EDGE_CURVE('',#465,#467,#463,.T.) ;
#478=EDGE_CURVE('',#465,#477,#469,.T.) ;
#485=EDGE_CURVE('',#484,#477,#482,.F.) ;
#495=EDGE_CURVE('',#484,#494,#486,.T.) ;
#502=EDGE_CURVE('',#501,#494,#499,.F.) ;
#512=EDGE_CURVE('',#501,#511,#503,.T.) ;
#519=EDGE_CURVE('',#518,#511,#516,.T.) ;
#529=EDGE_CURVE('',#528,#518,#520,.T.) ;
#536=EDGE_CURVE('',#535,#528,#533,.F.) ;
#546=EDGE_CURVE('',#535,#545,#537,.T.) ;
#553=EDGE_CURVE('',#552,#545,#550,.T.) ;
#563=EDGE_CURVE('',#552,#562,#554,.T.) ;
#570=EDGE_CURVE('',#569,#562,#567,.T.) ;
#580=EDGE_CURVE('',#579,#569,#571,.T.) ;
#587=EDGE_CURVE('',#586,#579,#584,.T.) ;
#595=EDGE_CURVE('',#586,#467,#588,.T.) ;
#628=EDGE_CURVE('',#625,#627,#614,.T.) ;
#639=EDGE_CURVE('',#627,#625,#629,.T.) ;
#658=EDGE_CURVE('',#655,#657,#644,.T.) ;
#669=EDGE_CURVE('',#657,#655,#659,.T.) ;
#694=EDGE_CURVE('',#691,#693,#674,.T.) ;
#711=EDGE_CURVE('',#693,#691,#695,.T.) ;
#730=EDGE_CURVE('',#727,#729,#716,.T.) ;
#741=EDGE_CURVE('',#729,#727,#731,.T.) ;
#760=EDGE_CURVE('',#757,#759,#746,.T.) ;
#771=EDGE_CURVE('',#759,#757,#761,.T.) ;
#790=EDGE_CURVE('',#787,#789,#776,.T.) ;
#801=EDGE_CURVE('',#789,#787,#791,.T.) ;
#820=EDGE_CURVE('',#205,#465,#819,.T.) ;
#825=EDGE_CURVE('',#467,#86,#824,.T.) ;
#842=EDGE_CURVE('',#195,#477,#841,.T.) ;
#859=EDGE_CURVE('',#188,#484,#858,.T.) ;
#876=EDGE_CURVE('',#178,#494,#875,.T.) ;
#893=EDGE_CURVE('',#171,#501,#892,.T.) ;
#910=EDGE_CURVE('',#161,#511,#909,.T.) ;
#927=EDGE_CURVE('',#154,#518,#926,.T.) ;
#944=EDGE_CURVE('',#144,#528,#943,.T.) ;
#961=EDGE_CURVE('',#137,#535,#960,.T.) ;
#978=EDGE_CURVE('',#127,#545,#977,.T.) ;
#995=EDGE_CURVE('',#120,#552,#994,.T.) ;
#1012=EDGE_CURVE('',#110,#562,#1011,.T.) ;
#1029=EDGE_CURVE('',#103,#569,#1028,.T.) ;
#1046=EDGE_CURVE('',#93,#579,#1045,.T.) ;
#1063=EDGE_CURVE('',#84,#586,#1062,.T.) ;
#1092=EDGE_CURVE('',#243,#625,#1091,.T.) ;
#1097=EDGE_CURVE('',#627,#241,#1096,.F.) ;
#1126=EDGE_CURVE('',#273,#655,#1125,.T.) ;
#1131=EDGE_CURVE('',#657,#271,#1130,.F.) ;
#1160=EDGE_CURVE('',#309,#691,#1159,.T.) ;
#1165=EDGE_CURVE('',#693,#307,#1164,.F.) ;
#1194=EDGE_CURVE('',#345,#727,#1193,.T.) ;
#1199=EDGE_CURVE('',#729,#343,#1198,.F.) ;
#1228=EDGE_CURVE('',#375,#757,#1227,.T.) ;
#1233=EDGE_CURVE('',#759,#373,#1232,.F.) ;
#1262=EDGE_CURVE('',#405,#787,#1261,.T.) ;
#1267=EDGE_CURVE('',#789,#403,#1266,.F.) ;
#30=CLOSED_SHELL('Closed Shell',(#70,#437,#454,#810,#832,#849,#866,#883,#900,#917,#934,#951,#968,#985,#1002,#1019,#1036,#1053,#1070,#1082,#1104,#1116,#1138,#1150,#1172,#1184,#1206,#1218,#1240,#1252,#1274,#1286)) ;
#65=ORIENTED_EDGE('',*,*,#44,.F.) ;
#66=ORIENTED_EDGE('',*,*,#51,.T.) ;
#67=ORIENTED_EDGE('',*,*,#58,.T.) ;
#68=ORIENTED_EDGE('',*,*,#63,.T.) ;
#213=ORIENTED_EDGE('',*,*,#87,.F.) ;
#214=ORIENTED_EDGE('',*,*,#94,.T.) ;
#215=ORIENTED_EDGE('',*,*,#104,.T.) ;
#216=ORIENTED_EDGE('',*,*,#111,.T.) ;
#217=ORIENTED_EDGE('',*,*,#121,.F.) ;
#218=ORIENTED_EDGE('',*,*,#128,.T.) ;
#219=ORIENTED_EDGE('',*,*,#138,.F.) ;
#220=ORIENTED_EDGE('',*,*,#145,.T.) ;
#221=ORIENTED_EDGE('',*,*,#155,.T.) ;
#222=ORIENTED_EDGE('',*,*,#162,.T.) ;
#223=ORIENTED_EDGE('',*,*,#172,.F.) ;
#224=ORIENTED_EDGE('',*,*,#179,.T.) ;
#225=ORIENTED_EDGE('',*,*,#189,.F.) ;
#226=ORIENTED_EDGE('',*,*,#196,.T.) ;
#227=ORIENTED_EDGE('',*,*,#206,.F.) ;
#228=ORIENTED_EDGE('',*,*,#211,.T.) ;
#257=ORIENTED_EDGE('',*,*,#244,.T.) ;
#258=ORIENTED_EDGE('',*,*,#255,.T.) ;
#287=ORIENTED_EDGE('',*,*,#274,.T.) ;
#288=ORIENTED_EDGE('',*,*,#285,.T.) ;
#329=ORIENTED_EDGE('',*,*,#310,.T.) ;
#330=ORIENTED_EDGE('',*,*,#327,.T.) ;
#359=ORIENTED_EDGE('',*,*,#346,.T.) ;
#360=ORIENTED_EDGE('',*,*,#357,.T.) ;
#389=ORIENTED_EDGE('',*,*,#376,.T.) ;
#390=ORIENTED_EDGE('',*,*,#387,.T.) ;
#419=ORIENTED_EDGE('',*,*,#406,.T.) ;
#420=ORIENTED_EDGE('',*,*,#417,.T.) ;
#434=ORIENTED_EDGE('',*,*,#432,.T.) ;
#435=ORIENTED_EDGE('',*,*,#44,.T.) ;
#449=ORIENTED_EDGE('',*,*,#432,.F.) ;
#450=ORIENTED_EDGE('',*,*,#63,.F.) ;
#451=ORIENTED_EDGE('',*,*,#447,.T.) ;
#452=ORIENTED_EDGE('',*,*,#51,.F.) ;
#597=ORIENTED_EDGE('',*,*,#468,.F.) ;
#598=ORIENTED_EDGE('',*,*,#478,.T.) ;
#599=ORIENTED_EDGE('',*,*,#485,.F.) ;
#600=ORIENTED_EDGE('',*,*,#495,.T.) ;
#601=ORIENTED_EDGE('',*,*,#502,.F.) ;
#602=ORIENTED_EDGE('',*,*,#512,.T.) ;
#603=ORIENTED_EDGE('',*,*,#519,.F.) ;
#604=ORIENTED_EDGE('',*,*,#529,.F.) ;
#605=ORIENTED_EDGE('',*,*,#536,.F.) ;
#606=ORIENTED_EDGE('',*,*,#546,.T.) ;
#607=ORIENTED_EDGE('',*,*,#553,.F.) ;
#608=ORIENTED_EDGE('',*,*,#563,.T.) ;
#609=ORIENTED_EDGE('',*,*,#570,.F.) ;
#610=ORIENTED_EDGE('',*,*,#580,.F.) ;
#611=ORIENTED_EDGE('',*,*,#587,.F.) ;
#612=ORIENTED_EDGE('',*,*,#595,.T.) ;
#641=ORIENTED_EDGE('',*,*,#628,.F.) ;
#642=ORIENTED_EDGE('',*,*,#639,.F.) ;
#671=ORIENTED_EDGE('',*,*,#658,.F.) ;
#672=ORIENTED_EDGE('',*,*,#669,.F.) ;
#713=ORIENTED_EDGE('',*,*,#694,.F.) ;
#714=ORIENTED_EDGE('',*,*,#711,.F.) ;
#743=ORIENTED_EDGE('',*,*,#730,.F.) ;
#744=ORIENTED_EDGE('',*,*,#741,.F.) ;
#773=ORIENTED_EDGE('',*,*,#760,.F.) ;
#774=ORIENTED_EDGE('',*,*,#771,.F.) ;
#803=ORIENTED_EDGE('',*,*,#790,.F.) ;
#804=ORIENTED_EDGE('',*,*,#801,.F.) ;
#807=ORIENTED_EDGE('',*,*,#58,.F.) ;
#808=ORIENTED_EDGE('',*,*,#447,.F.) ;
#827=ORIENTED_EDGE('',*,*,#211,.F.) ;
#828=ORIENTED_EDGE('',*,*,#820,.T.) ;
#829=ORIENTED_EDGE('',*,*,#468,.T.) ;
#830=ORIENTED_EDGE('',*,*,#825,.T.) ;
#844=ORIENTED_EDGE('',*,*,#206,.T.) ;
#845=ORIENTED_EDGE('',*,*,#842,.T.) ;
#846=ORIENTED_EDGE('',*,*,#478,.F.) ;
#847=ORIENTED_EDGE('',*,*,#820,.F.) ;
#861=ORIENTED_EDGE('',*,*,#196,.F.) ;
#862=ORIENTED_EDGE('',*,*,#859,.T.) ;
#863=ORIENTED_EDGE('',*,*,#485,.T.) ;
#864=ORIENTED_EDGE('',*,*,#842,.F.) ;
#878=ORIENTED_EDGE('',*,*,#189,.T.) ;
#879=ORIENTED_EDGE('',*,*,#876,.T.) ;
#880=ORIENTED_EDGE('',*,*,#495,.F.) ;
#881=ORIENTED_EDGE('',*,*,#859,.F.) ;
#895=ORIENTED_EDGE('',*,*,#179,.F.) ;
#896=ORIENTED_EDGE('',*,*,#893,.T.) ;
#897=ORIENTED_EDGE('',*,*,#502,.T.) ;
#898=ORIENTED_EDGE('',*,*,#876,.F.) ;
#912=ORIENTED_EDGE('',*,*,#172,.T.) ;
#913=ORIENTED_EDGE('',*,*,#910,.T.) ;
#914=ORIENTED_EDGE('',*,*,#512,.F.) ;
#915=ORIENTED_EDGE('',*,*,#893,.F.) ;
#929=ORIENTED_EDGE('',*,*,#162,.F.) ;
#930=ORIENTED_EDGE('',*,*,#927,.T.) ;
#931=ORIENTED_EDGE('',*,*,#519,.T.) ;
#932=ORIENTED_EDGE('',*,*,#910,.F.) ;
#946=ORIENTED_EDGE('',*,*,#155,.F.) ;
#947=ORIENTED_EDGE('',*,*,#944,.T.) ;
#948=ORIENTED_EDGE('',*,*,#529,.T.) ;
#949=ORIENTED_EDGE('',*,*,#927,.F.) ;
#963=ORIENTED_EDGE('',*,*,#145,.F.) ;
#964=ORIENTED_EDGE('',*,*,#961,.T.) ;
#965=ORIENTED_EDGE('',*,*,#536,.T.) ;
#966=ORIENTED_EDGE('',*,*,#944,.F.) ;
#980=ORIENTED_EDGE('',*,*,#138,.T.) ;
#981=ORIENTED_EDGE('',*,*,#978,.T.) ;
#982=ORIENTED_EDGE('',*,*,#546,.F.) ;
#983=ORIENTED_EDGE('',*,*,#961,.F.) ;
#997=ORIENTED_EDGE('',*,*,#128,.F.) ;
#998=ORIENTED_EDGE('',*,*,#995,.T.) ;
#999=ORIENTED_EDGE('',*,*,#553,.T.) ;
#1000=ORIENTED_EDGE('',*,*,#978,.F.) ;
#1014=ORIENTED_EDGE('',*,*,#121,.T.) ;
#1015=ORIENTED_EDGE('',*,*,#1012,.T.) ;
#1016=ORIENTED_EDGE('',*,*,#563,.F.) ;
#1017=ORIENTED_EDGE('',*,*,#995,.F.) ;
#1031=ORIENTED_EDGE('',*,*,#111,.F.) ;
#1032=ORIENTED_EDGE('',*,*,#1029,.T.) ;
#1033=ORIENTED_EDGE('',*,*,#570,.T.) ;
#1034=ORIENTED_EDGE('',*,*,#1012,.F.) ;
#1048=ORIENTED_EDGE('',*,*,#104,.F.) ;
#1049=ORIENTED_EDGE('',*,*,#1046,.T.) ;
#1050=ORIENTED_EDGE('',*,*,#580,.T.) ;
#1051=ORIENTED_EDGE('',*,*,#1029,.F.) ;
#1065=ORIENTED_EDGE('',*,*,#94,.F.) ;
#1066=ORIENTED_EDGE('',*,*,#1063,.T.) ;
#1067=ORIENTED_EDGE('',*,*,#587,.T.) ;
#1068=ORIENTED_EDGE('',*,*,#1046,.F.) ;
#1077=ORIENTED_EDGE('',*,*,#87,.T.) ;
#1078=ORIENTED_EDGE('',*,*,#825,.F.) ;
#1079=ORIENTED_EDGE('',*,*,#595,.F.) ;
#1080=ORIENTED_EDGE('',*,*,#1063,.F.) ;
#1099=ORIENTED_EDGE('',*,*,#255,.F.) ;
#1100=ORIENTED_EDGE('',*,*,#1092,.T.) ;
#1101=ORIENTED_EDGE('',*,*,#628,.T.) ;
#1102=ORIENTED_EDGE('',*,*,#1097,.T.) ;
#1111=ORIENTED_EDGE('',*,*,#244,.F.) ;
#1112=ORIENTED_EDGE('',*,*,#1097,.F.) ;
#1113=ORIENTED_EDGE('',*,*,#639,.T.) ;
#1114=ORIENTED_EDGE('',*,*,#1092,.F.) ;
#1133=ORIENTED_EDGE('',*,*,#285,.F.) ;
#1134=ORIENTED_EDGE('',*,*,#1126,.T.) ;
#1135=ORIENTED_EDGE('',*,*,#658,.T.) ;
#1136=ORIENTED_EDGE('',*,*,#1131,.T.) ;
#1145=ORIENTED_EDGE('',*,*,#274,.F.) ;
#1146=ORIENTED_EDGE('',*,*,#1131,.F.) ;
#1147=ORIENTED_EDGE('',*,*,#669,.T.) ;
#1148=ORIENTED_EDGE('',*,*,#1126,.F.) ;
#1167=ORIENTED_EDGE('',*,*,#327,.F.) ;
#1168=ORIENTED_EDGE('',*,*,#1160,.T.) ;
#1169=ORIENTED_EDGE('',*,*,#694,.T.) ;
#1170=ORIENTED_EDGE('',*,*,#1165,.T.) ;
#1179=ORIENTED_EDGE('',*,*,#310,.F.) ;
#1180=ORIENTED_EDGE('',*,*,#1165,.F.) ;
#1181=ORIENTED_EDGE('',*,*,#711,.T.) ;
#1182=ORIENTED_EDGE('',*,*,#1160,.F.) ;
#1201=ORIENTED_EDGE('',*,*,#357,.F.) ;
#1202=ORIENTED_EDGE('',*,*,#1194,.T.) ;
#1203=ORIENTED_EDGE('',*,*,#730,.T.) ;
#1204=ORIENTED_EDGE('',*,*,#1199,.T.) ;
#1213=ORIENTED_EDGE('',*,*,#346,.F.) ;
#1214=ORIENTED_EDGE('',*,*,#1199,.F.) ;
#1215=ORIENTED_EDGE('',*,*,#741,.T.) ;
#1216=ORIENTED_EDGE('',*,*,#1194,.F.) ;
#1235=ORIENTED_EDGE('',*,*,#387,.F.) ;
#1236=ORIENTED_EDGE('',*,*,#1228,.T.) ;
#1237=ORIENTED_EDGE('',*,*,#760,.T.) ;
#1238=ORIENTED_EDGE('',*,*,#1233,.T.) ;
#1247=ORIENTED_EDGE('',*,*,#376,.F.) ;
#1248=ORIENTED_EDGE('',*,*,#1233,.F.) ;
#1249=ORIENTED_EDGE('',*,*,#771,.T.) ;
#1250=ORIENTED_EDGE('',*,*,#1228,.F.) ;
#1269=ORIENTED_EDGE('',*,*,#417,.F.) ;
#1270=ORIENTED_EDGE('',*,*,#1262,.T.) ;
#1271=ORIENTED_EDGE('',*,*,#790,.T.) ;
#1272=ORIENTED_EDGE('',*,*,#1267,.T.) ;
#1281=ORIENTED_EDGE('',*,*,#406,.F.) ;
#1282=ORIENTED_EDGE('',*,*,#1267,.F.) ;
#1283=ORIENTED_EDGE('',*,*,#801,.T.) ;
#1284=ORIENTED_EDGE('',*,*,#1262,.F.) ;
#64=EDGE_LOOP('',(#65,#66,#67,#68)) ;
#212=EDGE_LOOP('',(#213,#214,#215,#216,#217,#218,#219,#220,#221,#222,#223,#224,#225,#226,#227,#228)) ;
#256=EDGE_LOOP('',(#257,#258)) ;
#286=EDGE_LOOP('',(#287,#288)) ;
#328=EDGE_LOOP('',(#329,#330)) ;
#358=EDGE_LOOP('',(#359,#360)) ;
#388=EDGE_LOOP('',(#389,#390)) ;
#418=EDGE_LOOP('',(#419,#420)) ;
#433=EDGE_LOOP('',(#434,#435)) ;
#448=EDGE_LOOP('',(#449,#450,#451,#452)) ;
#596=EDGE_LOOP('',(#597,#598,#599,#600,#601,#602,#603,#604,#605,#606,#607,#608,#609,#610,#611,#612)) ;
#640=EDGE_LOOP('',(#641,#642)) ;
#670=EDGE_LOOP('',(#671,#672)) ;
#712=EDGE_LOOP('',(#713,#714)) ;
#742=EDGE_LOOP('',(#743,#744)) ;
#772=EDGE_LOOP('',(#773,#774)) ;
#802=EDGE_LOOP('',(#803,#804)) ;
#806=EDGE_LOOP('',(#807,#808)) ;
#826=EDGE_LOOP('',(#827,#828,#829,#830)) ;
#843=EDGE_LOOP('',(#844,#845,#846,#847)) ;
#860=EDGE_LOOP('',(#861,#862,#863,#864)) ;
#877=EDGE_LOOP('',(#878,#879,#880,#881)) ;
#894=EDGE_LOOP('',(#895,#896,#897,#898)) ;
#911=EDGE_LOOP('',(#912,#913,#914,#915)) ;
#928=EDGE_LOOP('',(#929,#930,#931,#932)) ;
#945=EDGE_LOOP('',(#946,#947,#948,#949)) ;
#962=EDGE_LOOP('',(#963,#964,#965,#966)) ;
#979=EDGE_LOOP('',(#980,#981,#982,#983)) ;
#996=EDGE_LOOP('',(#997,#998,#999,#1000)) ;
#1013=EDGE_LOOP('',(#1014,#1015,#1016,#1017)) ;
#1030=EDGE_LOOP('',(#1031,#1032,#1033,#1034)) ;
#1047=EDGE_LOOP('',(#1048,#1049,#1050,#1051)) ;
#1064=EDGE_LOOP('',(#1065,#1066,#1067,#1068)) ;
#1076=EDGE_LOOP('',(#1077,#1078,#1079,#1080)) ;
#1098=EDGE_LOOP('',(#1099,#1100,#1101,#1102)) ;
#1110=EDGE_LOOP('',(#1111,#1112,#1113,#1114)) ;
#1132=EDGE_LOOP('',(#1133,#1134,#1135,#1136)) ;
#1144=EDGE_LOOP('',(#1145,#1146,#1147,#1148)) ;
#1166=EDGE_LOOP('',(#1167,#1168,#1169,#1170)) ;
#1178=EDGE_LOOP('',(#1179,#1180,#1181,#1182)) ;
#1200=EDGE_LOOP('',(#1201,#1202,#1203,#1204)) ;
#1212=EDGE_LOOP('',(#1213,#1214,#1215,#1216)) ;
#1234=EDGE_LOOP('',(#1235,#1236,#1237,#1238)) ;
#1246=EDGE_LOOP('',(#1247,#1248,#1249,#1250)) ;
#1268=EDGE_LOOP('',(#1269,#1270,#1271,#1272)) ;
#1280=EDGE_LOOP('',(#1281,#1282,#1283,#1284)) ;
#21=MANIFOLD_SOLID_BREP('Corps principal',#30) ;
#41=VERTEX_POINT('',#40) ;
#43=VERTEX_POINT('',#42) ;
#50=VERTEX_POINT('',#49) ;
#57=VERTEX_POINT('',#56) ;
#84=VERTEX_POINT('',#83) ;
#86=VERTEX_POINT('',#85) ;
#93=VERTEX_POINT('',#92) ;
#103=VERTEX_POINT('',#102) ;
#110=VERTEX_POINT('',#109) ;
#120=VERTEX_POINT('',#119) ;
#127=VERTEX_POINT('',#126) ;
#137=VERTEX_POINT('',#136) ;
#144=VERTEX_POINT('',#143) ;
#154=VERTEX_POINT('',#153) ;
#161=VERTEX_POINT('',#160) ;
#171=VERTEX_POINT('',#170) ;
#178=VERTEX_POINT('',#177) ;
#188=VERTEX_POINT('',#187) ;
#195=VERTEX_POINT('',#194) ;
#205=VERTEX_POINT('',#204) ;
#241=VERTEX_POINT('',#240) ;
#243=VERTEX_POINT('',#242) ;
#271=VERTEX_POINT('',#270) ;
#273=VERTEX_POINT('',#272) ;
#307=VERTEX_POINT('',#306) ;
#309=VERTEX_POINT('',#308) ;
#343=VERTEX_POINT('',#342) ;
#345=VERTEX_POINT('',#344) ;
#373=VERTEX_POINT('',#372) ;
#375=VERTEX_POINT('',#374) ;
#403=VERTEX_POINT('',#402) ;
#405=VERTEX_POINT('',#404) ;
#465=VERTEX_POINT('',#464) ;
#467=VERTEX_POINT('',#466) ;
#477=VERTEX_POINT('',#476) ;
#484=VERTEX_POINT('',#483) ;
#494=VERTEX_POINT('',#493) ;
#501=VERTEX_POINT('',#500) ;
#511=VERTEX_POINT('',#510) ;
#518=VERTEX_POINT('',#517) ;
#528=VERTEX_POINT('',#527) ;
#535=VERTEX_POINT('',#534) ;
#545=VERTEX_POINT('',#544) ;
#552=VERTEX_POINT('',#551) ;
#562=VERTEX_POINT('',#561) ;
#569=VERTEX_POINT('',#568) ;
#579=VERTEX_POINT('',#578) ;
#586=VERTEX_POINT('',#585) ;
#625=VERTEX_POINT('',#624) ;
#627=VERTEX_POINT('',#626) ;
#655=VERTEX_POINT('',#654) ;
#657=VERTEX_POINT('',#656) ;
#691=VERTEX_POINT('',#690) ;
#693=VERTEX_POINT('',#692) ;
#727=VERTEX_POINT('',#726) ;
#729=VERTEX_POINT('',#728) ;
#757=VERTEX_POINT('',#756) ;
#759=VERTEX_POINT('',#758) ;
#787=VERTEX_POINT('',#786) ;
#789=VERTEX_POINT('',#788) ;
#1287=ADVANCED_BREP_SHAPE_REPRESENTATION('NONE',(#21),#16) ;
#70=ADVANCED_FACE('Corps principal',(#69),#35,.F.) ;
#437=ADVANCED_FACE('Corps principal',(#229,#259,#289,#331,#361,#391,#421,#436),#75,.F.) ;
#454=ADVANCED_FACE('Corps principal',(#453),#442,.F.) ;
#810=ADVANCED_FACE('Corps principal',(#613,#643,#673,#715,#745,#775,#805,#809),#459,.T.) ;
#832=ADVANCED_FACE('Corps principal',(#831),#815,.T.) ;
#849=ADVANCED_FACE('Corps principal',(#848),#837,.T.) ;
#866=ADVANCED_FACE('Corps principal',(#865),#854,.T.) ;
#883=ADVANCED_FACE('Corps principal',(#882),#871,.T.) ;
#900=ADVANCED_FACE('Corps principal',(#899),#888,.T.) ;
#917=ADVANCED_FACE('Corps principal',(#916),#905,.T.) ;
#934=ADVANCED_FACE('Corps principal',(#933),#922,.T.) ;
#951=ADVANCED_FACE('Corps principal',(#950),#939,.F.) ;
#968=ADVANCED_FACE('Corps principal',(#967),#956,.T.) ;
#985=ADVANCED_FACE('Corps principal',(#984),#973,.T.) ;
#1002=ADVANCED_FACE('Corps principal',(#1001),#990,.T.) ;
#1019=ADVANCED_FACE('Corps principal',(#1018),#1007,.T.) ;
#1036=ADVANCED_FACE('Corps principal',(#1035),#1024,.T.) ;
#1053=ADVANCED_FACE('Corps principal',(#1052),#1041,.F.) ;
#1070=ADVANCED_FACE('Corps principal',(#1069),#1058,.T.) ;
#1082=ADVANCED_FACE('Corps principal',(#1081),#1075,.T.) ;
#1104=ADVANCED_FACE('Corps principal',(#1103),#1087,.F.) ;
#1116=ADVANCED_FACE('Corps principal',(#1115),#1109,.F.) ;
#1138=ADVANCED_FACE('Corps principal',(#1137),#1121,.F.) ;
#1150=ADVANCED_FACE('Corps principal',(#1149),#1143,.F.) ;
#1172=ADVANCED_FACE('Corps principal',(#1171),#1155,.F.) ;
#1184=ADVANCED_FACE('Corps principal',(#1183),#1177,.F.) ;
#1206=ADVANCED_FACE('Corps principal',(#1205),#1189,.F.) ;
#1218=ADVANCED_FACE('Corps principal',(#1217),#1211,.F.) ;
#1240=ADVANCED_FACE('Corps principal',(#1239),#1223,.F.) ;
#1252=ADVANCED_FACE('Corps principal',(#1251),#1245,.F.) ;
#1274=ADVANCED_FACE('Corps principal',(#1273),#1257,.F.) ;
#1286=ADVANCED_FACE('Corps principal',(#1285),#1279,.F.) ;
#4=APPLICATION_PROTOCOL_DEFINITION('international standard','ap242_managed_model_based_3d_engineering',2014,#1) ;
#76=B_SPLINE_CURVE_WITH_KNOTS('',5,(#77,#78,#79,#80,#81,#82),.UNSPECIFIED.,.F.,.U.,(6,6),(7.85398163397,15.7079632679),.UNSPECIFIED.) ;
#95=B_SPLINE_CURVE_WITH_KNOTS('',5,(#96,#97,#98,#99,#100,#101),.UNSPECIFIED.,.F.,.U.,(6,6),(23.5619449019,31.4159265359),.UNSPECIFIED.) ;
#112=B_SPLINE_CURVE_WITH_KNOTS('',5,(#113,#114,#115,#116,#117,#118),.UNSPECIFIED.,.F.,.U.,(6,6),(7.85398163397,15.7079632679),.UNSPECIFIED.) ;
#129=B_SPLINE_CURVE_WITH_KNOTS('',5,(#130,#131,#132,#133,#134,#135),.UNSPECIFIED.,.F.,.U.,(6,6),(0.,7.85398163397),.UNSPECIFIED.) ;
#146=B_SPLINE_CURVE_WITH_KNOTS('',5,(#147,#148,#149,#150,#151,#152),.UNSPECIFIED.,.F.,.U.,(6,6),(15.7079632679,23.5619449019),.UNSPECIFIED.) ;
#163=B_SPLINE_CURVE_WITH_KNOTS('',5,(#164,#165,#166,#167,#168,#169),.UNSPECIFIED.,.F.,.U.,(6,6),(0.,7.85398163397),.UNSPECIFIED.) ;
#180=B_SPLINE_CURVE_WITH_KNOTS('',5,(#181,#182,#183,#184,#185,#186),.UNSPECIFIED.,.F.,.U.,(6,6),(23.5619449019,31.4159265359),.UNSPECIFIED.) ;
#197=B_SPLINE_CURVE_WITH_KNOTS('',5,(#198,#199,#200,#201,#202,#203),.UNSPECIFIED.,.F.,.U.,(6,6),(15.7079632679,23.5619449019),.UNSPECIFIED.) ;
#230=B_SPLINE_CURVE_WITH_KNOTS('',5,(#231,#232,#233,#234,#235,#236,#237,#238,#239),.UNSPECIFIED.,.F.,.U.,(6,3,6),(16.3362817987,20.4203522483,24.504422698),.UNSPECIFIED.) ;
#245=B_SPLINE_CURVE_WITH_KNOTS('',5,(#246,#247,#248,#249,#250,#251,#252,#253,#254),.UNSPECIFIED.,.F.,.U.,(6,3,6),(8.16814089933,12.252211349,16.3362817987),.UNSPECIFIED.) ;
#260=B_SPLINE_CURVE_WITH_KNOTS('',5,(#261,#262,#263,#264,#265,#266,#267,#268,#269),.UNSPECIFIED.,.F.,.U.,(6,3,6),(8.16814089933,12.252211349,16.3362817987),.UNSPECIFIED.) ;
#275=B_SPLINE_CURVE_WITH_KNOTS('',5,(#276,#277,#278,#279,#280,#281,#282,#283,#284),.UNSPECIFIED.,.F.,.U.,(6,3,6),(0.,4.08407044967,8.16814089933),.UNSPECIFIED.) ;
#290=B_SPLINE_CURVE_WITH_KNOTS('',5,(#291,#292,#293,#294,#295,#296,#297,#298,#299,#300,#301,#302,#303,#304,#305),.UNSPECIFIED.,.F.,.U.,(6,3,3,3,6),(37.6991118431,47.1238898038,56.5486677646,65.9734457254,75.3982236862),.UNSPECIFIED.) ;
#311=B_SPLINE_CURVE_WITH_KNOTS('',5,(#312,#313,#314,#315,#316,#317,#318,#319,#320,#321,#322,#323,#324,#325,#326),.UNSPECIFIED.,.F.,.U.,(6,3,3,3,6),(0.,9.42477796077,18.8495559215,28.2743338823,37.6991118431),.UNSPECIFIED.) ;
#332=B_SPLINE_CURVE_WITH_KNOTS('',5,(#333,#334,#335,#336,#337,#338,#339,#340,#341),.UNSPECIFIED.,.F.,.U.,(6,3,6),(4.86975011082,7.30448441736,9.73921872389),.UNSPECIFIED.) ;
#347=B_SPLINE_CURVE_WITH_KNOTS('',5,(#348,#349,#350,#351,#352,#353,#354,#355,#356),.UNSPECIFIED.,.F.,.U.,(6,3,6),(0.000281497759064,2.43501580429,4.86975011082),.UNSPECIFIED.) ;
#362=B_SPLINE_CURVE_WITH_KNOTS('',5,(#363,#364,#365,#366,#367,#368,#369,#370,#371),.UNSPECIFIED.,.F.,.U.,(6,3,6),(4.86946861306,7.3042029196,9.73893722613),.UNSPECIFIED.) ;
#377=B_SPLINE_CURVE_WITH_KNOTS('',5,(#378,#379,#380,#381,#382,#383,#384,#385,#386),.UNSPECIFIED.,.F.,.U.,(6,3,6),(0.,2.43473430653,4.86946861306),.UNSPECIFIED.) ;
#392=B_SPLINE_CURVE_WITH_KNOTS('',5,(#393,#394,#395,#396,#397,#398,#399,#400,#401),.UNSPECIFIED.,.F.,.U.,(6,3,6),(4.86946861306,7.3042029196,9.73893722613),.UNSPECIFIED.) ;
#407=B_SPLINE_CURVE_WITH_KNOTS('',5,(#408,#409,#410,#411,#412,#413,#414,#415,#416),.UNSPECIFIED.,.F.,.U.,(6,3,6),(0.,2.43473430653,4.86946861306),.UNSPECIFIED.) ;
#422=B_SPLINE_CURVE_WITH_KNOTS('',5,(#423,#424,#425,#426,#427,#428,#429,#430,#431),.UNSPECIFIED.,.F.,.U.,(6,3,6),(4.86946861306,7.3042029196,9.73893722613),.UNSPECIFIED.) ;
#469=B_SPLINE_CURVE_WITH_KNOTS('',5,(#470,#471,#472,#473,#474,#475),.UNSPECIFIED.,.F.,.U.,(6,6),(15.7079632679,23.5619449019),.UNSPECIFIED.) ;
#486=B_SPLINE_CURVE_WITH_KNOTS('',5,(#487,#488,#489,#490,#491,#492),.UNSPECIFIED.,.F.,.U.,(6,6),(23.5619449019,31.4159265359),.UNSPECIFIED.) ;
#503=B_SPLINE_CURVE_WITH_KNOTS('',5,(#504,#505,#506,#507,#508,#509),.UNSPECIFIED.,.F.,.U.,(6,6),(0.,7.85398163397),.UNSPECIFIED.) ;
#520=B_SPLINE_CURVE_WITH_KNOTS('',5,(#521,#522,#523,#524,#525,#526),.UNSPECIFIED.,.F.,.U.,(6,6),(15.7079632679,23.5619449019),.UNSPECIFIED.) ;
#537=B_SPLINE_CURVE_WITH_KNOTS('',5,(#538,#539,#540,#541,#542,#543),.UNSPECIFIED.,.F.,.U.,(6,6),(0.,7.85398163397),.UNSPECIFIED.) ;
#554=B_SPLINE_CURVE_WITH_KNOTS('',5,(#555,#556,#557,#558,#559,#560),.UNSPECIFIED.,.F.,.U.,(6,6),(7.85398163397,15.7079632679),.UNSPECIFIED.) ;
#571=B_SPLINE_CURVE_WITH_KNOTS('',5,(#572,#573,#574,#575,#576,#577),.UNSPECIFIED.,.F.,.U.,(6,6),(23.5619449019,31.4159265359),.UNSPECIFIED.) ;
#588=B_SPLINE_CURVE_WITH_KNOTS('',5,(#589,#590,#591,#592,#593,#594),.UNSPECIFIED.,.F.,.U.,(6,6),(7.85398163397,15.7079632679),.UNSPECIFIED.) ;
#614=B_SPLINE_CURVE_WITH_KNOTS('',5,(#615,#616,#617,#618,#619,#620,#621,#622,#623),.UNSPECIFIED.,.F.,.U.,(6,3,6),(8.16814089933,12.252211349,16.3362817987),.UNSPECIFIED.) ;
#629=B_SPLINE_CURVE_WITH_KNOTS('',5,(#630,#631,#632,#633,#634,#635,#636,#637,#638),.UNSPECIFIED.,.F.,.U.,(6,3,6),(16.3362817987,20.4203522483,24.504422698),.UNSPECIFIED.) ;
#644=B_SPLINE_CURVE_WITH_KNOTS('',5,(#645,#646,#647,#648,#649,#650,#651,#652,#653),.UNSPECIFIED.,.F.,.U.,(6,3,6),(0.,4.08407044967,8.16814089933),.UNSPECIFIED.) ;
#659=B_SPLINE_CURVE_WITH_KNOTS('',5,(#660,#661,#662,#663,#664,#665,#666,#667,#668),.UNSPECIFIED.,.F.,.U.,(6,3,6),(8.16814089933,12.252211349,16.3362817987),.UNSPECIFIED.) ;
#674=B_SPLINE_CURVE_WITH_KNOTS('',5,(#675,#676,#677,#678,#679,#680,#681,#682,#683,#684,#685,#686,#687,#688,#689),.UNSPECIFIED.,.F.,.U.,(6,3,3,3,6),(0.,9.42477796077,18.8495559215,28.2743338823,37.6991118431),.UNSPECIFIED.) ;
#695=B_SPLINE_CURVE_WITH_KNOTS('',5,(#696,#697,#698,#699,#700,#701,#702,#703,#704,#705,#706,#707,#708,#709,#710),.UNSPECIFIED.,.F.,.U.,(6,3,3,3,6),(37.6991118431,47.1238898038,56.5486677646,65.9734457254,75.3982236862),.UNSPECIFIED.) ;
#716=B_SPLINE_CURVE_WITH_KNOTS('',5,(#717,#718,#719,#720,#721,#722,#723,#724,#725),.UNSPECIFIED.,.F.,.U.,(6,3,6),(0.000281497759064,2.43501580429,4.86975011082),.UNSPECIFIED.) ;
#731=B_SPLINE_CURVE_WITH_KNOTS('',5,(#732,#733,#734,#735,#736,#737,#738,#739,#740),.UNSPECIFIED.,.F.,.U.,(6,3,6),(4.86975011082,7.30448441736,9.73921872389),.UNSPECIFIED.) ;
#746=B_SPLINE_CURVE_WITH_KNOTS('',5,(#747,#748,#749,#750,#751,#752,#753,#754,#755),.UNSPECIFIED.,.F.,.U.,(6,3,6),(0.,2.43473430653,4.86946861306),.UNSPECIFIED.) ;
#761=B_SPLINE_CURVE_WITH_KNOTS('',5,(#762,#763,#764,#765,#766,#767,#768,#769,#770),.UNSPECIFIED.,.F.,.U.,(6,3,6),(4.86946861306,7.3042029196,9.73893722613),.UNSPECIFIED.) ;
#776=B_SPLINE_CURVE_WITH_KNOTS('',5,(#777,#778,#779,#780,#781,#782,#783,#784,#785),.UNSPECIFIED.,.F.,.U.,(6,3,6),(0.,2.43473430653,4.86946861306),.UNSPECIFIED.) ;
#791=B_SPLINE_CURVE_WITH_KNOTS('',5,(#792,#793,#794,#795,#796,#797,#798,#799,#800),.UNSPECIFIED.,.F.,.U.,(6,3,6),(4.86946861306,7.3042029196,9.73893722613),.UNSPECIFIED.) ;
#22=COLOUR_RGB('Colour',0.823529411765,0.823529411765,1.) ;
#69=FACE_OUTER_BOUND('',#64,.T.) ;
#229=FACE_OUTER_BOUND('',#212,.T.) ;
#453=FACE_OUTER_BOUND('',#448,.T.) ;
#613=FACE_OUTER_BOUND('',#596,.T.) ;
#831=FACE_OUTER_BOUND('',#826,.T.) ;
#848=FACE_OUTER_BOUND('',#843,.T.) ;
#865=FACE_OUTER_BOUND('',#860,.T.) ;
#882=FACE_OUTER_BOUND('',#877,.T.) ;
#899=FACE_OUTER_BOUND('',#894,.T.) ;
#916=FACE_OUTER_BOUND('',#911,.T.) ;
#933=FACE_OUTER_BOUND('',#928,.T.) ;
#950=FACE_OUTER_BOUND('',#945,.T.) ;
#967=FACE_OUTER_BOUND('',#962,.T.) ;
#984=FACE_OUTER_BOUND('',#979,.T.) ;
#1001=FACE_OUTER_BOUND('',#996,.T.) ;
#1018=FACE_OUTER_BOUND('',#1013,.T.) ;
#1035=FACE_OUTER_BOUND('',#1030,.T.) ;
#1052=FACE_OUTER_BOUND('',#1047,.T.) ;
#1069=FACE_OUTER_BOUND('',#1064,.T.) ;
#1081=FACE_OUTER_BOUND('',#1076,.T.) ;
#1103=FACE_OUTER_BOUND('',#1098,.T.) ;
#1115=FACE_OUTER_BOUND('',#1110,.T.) ;
#1137=FACE_OUTER_BOUND('',#1132,.T.) ;
#1149=FACE_OUTER_BOUND('',#1144,.T.) ;
#1171=FACE_OUTER_BOUND('',#1166,.T.) ;
#1183=FACE_OUTER_BOUND('',#1178,.T.) ;
#1205=FACE_OUTER_BOUND('',#1200,.T.) ;
#1217=FACE_OUTER_BOUND('',#1212,.T.) ;
#1239=FACE_OUTER_BOUND('',#1234,.T.) ;
#1251=FACE_OUTER_BOUND('',#1246,.T.) ;
#1273=FACE_OUTER_BOUND('',#1268,.T.) ;
#1285=FACE_OUTER_BOUND('',#1280,.T.) ;
#9=PRODUCT_CATEGORY_RELATIONSHIP(' ',' ',#7,#8) ;
#6=PRODUCT_DEFINITION_FORMATION_WITH_SPECIFIED_SOURCE('',' ',#5,.NOT_KNOWN.) ;
#20=SHAPE_DEFINITION_REPRESENTATION(#11,#19) ;
#12=(LENGTH_UNIT()NAMED_UNIT(*)SI_UNIT(.MILLI.,.METRE.)) ;
#13=(NAMED_UNIT(*)PLANE_ANGLE_UNIT()SI_UNIT($,.RADIAN.)) ;
#14=(NAMED_UNIT(*)SI_UNIT($,.STERADIAN.)SOLID_ANGLE_UNIT()) ;
#16=(GEOMETRIC_REPRESENTATION_CONTEXT(3)GLOBAL_UNCERTAINTY_ASSIGNED_CONTEXT((#15))GLOBAL_UNIT_ASSIGNED_CONTEXT((#12,#13,#14))REPRESENTATION_CONTEXT(' ',' ')) ;
ENDSEC;
END-ISO-10303-21;
